  0
SECTION
  2
HEADER
  9
$ACADVER
  1
AC1032
  9
$ACADMAINTVER
 90
      228
  9
$DWGCODEPAGE
  3
ANSI_1252
  9
$REQUIREDVERSIONS
160
                 0
  9
$INSBASE
 10
0.0
 20
0.0
 30
0.0
  9
$EXTMIN
 10
1.000000000000000E+20
 20
1.000000000000000E+20
 30
1.000000000000000E+20
  9
$EXTMAX
 10
-1.000000000000000E+20
 20
-1.000000000000000E+20
 30
-1.000000000000000E+20
  9
$LIMMIN
 10
0.0
 20
0.0
  9
$LIMMAX
 10
12.0
 20
9.0
  9
$ORTHOMODE
 70
     0
  9
$REGENMODE
 70
     1
  9
$FILLMODE
 70
     1
  9
$QTEXTMODE
 70
     0
  9
$MIRRTEXT
 70
     0
  9
$LTSCALE
 40
1.0
  9
$ATTMODE
 70
     1
  9
$TEXTSIZE
 40
0.2
  9
$TRACEWID
 40
0.05
  9
$TEXTSTYLE
  7
Standard
  9
$CLAYER
  8
0
  9
$CELTYPE
  6
ByLayer
  9
$CECOLOR
 62
   256
  9
$CELTSCALE
 40
1.0
  9
$DISPSILH
 70
     0
  9
$DIMSCALE
 40
1.0
  9
$DIMASZ
 40
0.18
  9
$DIMEXO
 40
0.0625
  9
$DIMDLI
 40
0.38
  9
$DIMRND
 40
0.0
  9
$DIMDLE
 40
0.0
  9
$DIMEXE
 40
0.18
  9
$DIMTP
 40
0.0
  9
$DIMTM
 40
0.0
  9
$DIMTXT
 40
0.18
  9
$DIMCEN
 40
0.09
  9
$DIMTSZ
 40
0.0
  9
$DIMTOL
 70
     0
  9
$DIMLIM
 70
     0
  9
$DIMTIH
 70
     1
  9
$DIMTOH
 70
     1
  9
$DIMSE1
 70
     0
  9
$DIMSE2
 70
     0
  9
$DIMTAD
 70
     0
  9
$DIMZIN
 70
     0
  9
$DIMBLK
  1

  9
$DIMASO
 70
     1
  9
$DIMSHO
 70
     1
  9
$DIMPOST
  1

  9
$DIMAPOST
  1

  9
$DIMALT
 70
     0
  9
$DIMALTD
 70
     2
  9
$DIMALTF
 40
25.4
  9
$DIMLFAC
 40
1.0
  9
$DIMTOFL
 70
     0
  9
$DIMTVP
 40
0.0
  9
$DIMTIX
 70
     0
  9
$DIMSOXD
 70
     0
  9
$DIMSAH
 70
     0
  9
$DIMBLK1
  1

  9
$DIMBLK2
  1

  9
$DIMSTYLE
  2
Standard
  9
$DIMCLRD
 70
     0
  9
$DIMCLRE
 70
     0
  9
$DIMCLRT
 70
     0
  9
$DIMTFAC
 40
1.0
  9
$DIMGAP
 40
0.09
  9
$DIMJUST
 70
     0
  9
$DIMSD1
 70
     0
  9
$DIMSD2
 70
     0
  9
$DIMTOLJ
 70
     1
  9
$DIMTZIN
 70
     0
  9
$DIMALTZ
 70
     0
  9
$DIMALTTZ
 70
     0
  9
$DIMUPT
 70
     0
  9
$DIMDEC
 70
     4
  9
$DIMTDEC
 70
     4
  9
$DIMALTU
 70
     2
  9
$DIMALTTD
 70
     2
  9
$DIMTXSTY
  7
Standard
  9
$DIMAUNIT
 70
     0
  9
$DIMADEC
 70
     0
  9
$DIMALTRND
 40
0.0
  9
$DIMAZIN
 70
     0
  9
$DIMDSEP
 70
    46
  9
$DIMATFIT
 70
     3
  9
$DIMFRAC
 70
     0
  9
$DIMLDRBLK
  1

  9
$DIMLUNIT
 70
     2
  9
$DIMLWD
 70
    -2
  9
$DIMLWE
 70
    -2
  9
$DIMTMOVE
 70
     0
  9
$DIMFXL
 40
1.0
  9
$DIMFXLON
 70
     0
  9
$DIMJOGANG
 40
0.7853981633974483
  9
$DIMTFILL
 70
     0
  9
$DIMTFILLCLR
 70
     0
  9
$DIMARCSYM
 70
     0
  9
$DIMLTYPE
  6

  9
$DIMLTEX1
  6

  9
$DIMLTEX2
  6

  9
$DIMTXTDIRECTION
 70
     0
  9
$LUNITS
 70
     2
  9
$LUPREC
 70
     4
  9
$SKETCHINC
 40
0.1
  9
$FILLETRAD
 40
0.0
  9
$AUNITS
 70
     0
  9
$AUPREC
 70
     0
  9
$MENU
  1
.
  9
$ELEVATION
 40
0.0
  9
$PELEVATION
 40
0.0
  9
$THICKNESS
 40
0.0
  9
$LIMCHECK
 70
     0
  9
$CHAMFERA
 40
0.0
  9
$CHAMFERB
 40
0.0
  9
$CHAMFERC
 40
0.0
  9
$CHAMFERD
 40
0.0
  9
$SKPOLY
 70
     0
  9
$TDCREATE
 40
2460504.856817129
  9
$TDUCREATE
 40
2460504.773483797
  9
$TDUPDATE
 40
2460504.856817129
  9
$TDUUPDATE
 40
2460504.773483797
  9
$TDINDWG
 40
0.0000000000
  9
$TDUSRTIMER
 40
0.0000000000
  9
$USRTIMER
 70
     1
  9
$ANGBASE
 50
0.0
  9
$ANGDIR
 70
     0
  9
$PDMODE
 70
     0
  9
$PDSIZE
 40
0.0
  9
$PLINEWID
 40
0.0
  9
$SPLFRAME
 70
     0
  9
$SPLINETYPE
 70
     6
  9
$SPLINESEGS
 70
     8
  9
$HANDSEED
  5
BE
  9
$SURFTAB1
 70
     6
  9
$SURFTAB2
 70
     6
  9
$SURFTYPE
 70
     6
  9
$SURFU
 70
     6
  9
$SURFV
 70
     6
  9
$UCSBASE
  2

  9
$UCSNAME
  2

  9
$UCSORG
 10
0.0
 20
0.0
 30
0.0
  9
$UCSXDIR
 10
1.0
 20
0.0
 30
0.0
  9
$UCSYDIR
 10
0.0
 20
1.0
 30
0.0
  9
$UCSORTHOREF
  2

  9
$UCSORTHOVIEW
 70
     0
  9
$UCSORGTOP
 10
0.0
 20
0.0
 30
0.0
  9
$UCSORGBOTTOM
 10
0.0
 20
0.0
 30
0.0
  9
$UCSORGLEFT
 10
0.0
 20
0.0
 30
0.0
  9
$UCSORGRIGHT
 10
0.0
 20
0.0
 30
0.0
  9
$UCSORGFRONT
 10
0.0
 20
0.0
 30
0.0
  9
$UCSORGBACK
 10
0.0
 20
0.0
 30
0.0
  9
$PUCSBASE
  2

  9
$PUCSNAME
  2

  9
$PUCSORG
 10
0.0
 20
0.0
 30
0.0
  9
$PUCSXDIR
 10
1.0
 20
0.0
 30
0.0
  9
$PUCSYDIR
 10
0.0
 20
1.0
 30
0.0
  9
$PUCSORTHOREF
  2

  9
$PUCSORTHOVIEW
 70
     0
  9
$PUCSORGTOP
 10
0.0
 20
0.0
 30
0.0
  9
$PUCSORGBOTTOM
 10
0.0
 20
0.0
 30
0.0
  9
$PUCSORGLEFT
 10
0.0
 20
0.0
 30
0.0
  9
$PUCSORGRIGHT
 10
0.0
 20
0.0
 30
0.0
  9
$PUCSORGFRONT
 10
0.0
 20
0.0
 30
0.0
  9
$PUCSORGBACK
 10
0.0
 20
0.0
 30
0.0
  9
$USERI1
 70
     0
  9
$USERI2
 70
     0
  9
$USERI3
 70
     0
  9
$USERI4
 70
     0
  9
$USERI5
 70
     0
  9
$USERR1
 40
0.0
  9
$USERR2
 40
0.0
  9
$USERR3
 40
0.0
  9
$USERR4
 40
0.0
  9
$USERR5
 40
0.0
  9
$WORLDVIEW
 70
     1
  9
$SHADEDGE
 70
     3
  9
$SHADEDIF
 70
    70
  9
$TILEMODE
 70
     1
  9
$MAXACTVP
 70
    64
  9
$PINSBASE
 10
0.0
 20
0.0
 30
0.0
  9
$PLIMCHECK
 70
     0
  9
$PEXTMIN
 10
1.000000000000000E+20
 20
1.000000000000000E+20
 30
1.000000000000000E+20
  9
$PEXTMAX
 10
-1.000000000000000E+20
 20
-1.000000000000000E+20
 30
-1.000000000000000E+20
  9
$PLIMMIN
 10
0.0
 20
0.0
  9
$PLIMMAX
 10
12.0
 20
9.0
  9
$UNITMODE
 70
     0
  9
$VISRETAIN
 70
     1
  9
$PLINEGEN
 70
     0
  9
$PSLTSCALE
 70
     1
  9
$TREEDEPTH
 70
  3020
  9
$CMLSTYLE
  2
Standard
  9
$CMLJUST
 70
     0
  9
$CMLSCALE
 40
1.0
  9
$PROXYGRAPHICS
 70
     1
  9
$MEASUREMENT
 70
     0
  9
$CELWEIGHT
370
    -1
  9
$ENDCAPS
280
     0
  9
$JOINSTYLE
280
     0
  9
$LWDISPLAY
290
     1
  9
$INSUNITS
 70
     0
  9
$HYPERLINKBASE
  1

  9
$STYLESHEET
  1

  9
$XEDIT
290
     1
  9
$CEPSNTYPE
380
     0
  9
$PSTYLEMODE
290
     1
  9
$FINGERPRINTGUID
  2
{712AFACB-307D-9645-A9BF-84055973A858}
  9
$VERSIONGUID
  2
{767A8791-0A43-6345-9C84-1FA578A36D06}
  9
$EXTNAMES
290
     1
  9
$PSVPSCALE
 40
0.0
  9
$OLESTARTUP
290
     0
  9
$SORTENTS
280
   127
  9
$INDEXCTL
280
     0
  9
$HIDETEXT
280
     1
  9
$XCLIPFRAME
280
     2
  9
$HALOGAP
280
     0
  9
$OBSCOLOR
 70
   257
  9
$OBSLTYPE
280
     0
  9
$INTERSECTIONDISPLAY
280
     0
  9
$INTERSECTIONCOLOR
 70
   257
  9
$DIMASSOC
280
     2
  9
$PROJECTNAME
  1

  9
$CAMERADISPLAY
290
     0
  9
$LENSLENGTH
 40
50.0
  9
$CAMERAHEIGHT
 40
0.0
  9
$STEPSPERSEC
 40
2.0
  9
$STEPSIZE
 40
6.0
  9
$3DDWFPREC
 40
2.0
  9
$PSOLWIDTH
 40
0.25
  9
$PSOLHEIGHT
 40
4.0
  9
$LOFTANG1
 40
1.570796326794896
  9
$LOFTANG2
 40
1.570796326794896
  9
$LOFTMAG1
 40
0.0
  9
$LOFTMAG2
 40
0.0
  9
$LOFTPARAM
 70
     7
  9
$LOFTNORMALS
280
     1
  9
$LATITUDE
 40
37.795
  9
$LONGITUDE
 40
-122.394
  9
$NORTHDIRECTION
 40
0.0
  9
$TIMEZONE
 70
 -8000
  9
$LIGHTGLYPHDISPLAY
280
     1
  9
$TILEMODELIGHTSYNCH
280
     1
  9
$CMATERIAL
347
11
  9
$SOLIDHIST
280
     0
  9
$SHOWHIST
280
     1
  9
$DWFFRAME
280
     2
  9
$DGNFRAME
280
     0
  9
$REALWORLDSCALE
290
     1
  9
$INTERFERECOLOR
 62
     1
  9
$INTERFEREOBJVS
345
33
  9
$INTERFEREVPVS
346
30
  9
$CSHADOW
280
     0
  9
$SHADOWPLANELOCATION
 40
0.0
  0
ENDSEC
  0
SECTION
  2
CLASSES
  0
CLASS
  1
ACDBDICTIONARYWDFLT
  2
AcDbDictionaryWithDefault
  3
ObjectDBX Classes
 90
        0
 91
        1
280
     0
281
     0
  0
CLASS
  1
MATERIAL
  2
AcDbMaterial
  3
ObjectDBX Classes
 90
     1153
 91
        3
280
     0
281
     0
  0
CLASS
  1
VISUALSTYLE
  2
AcDbVisualStyle
  3
ObjectDBX Classes
 90
     4095
 91
       24
280
     0
281
     0
  0
CLASS
  1
SCALE
  2
AcDbScale
  3
ObjectDBX Classes
 90
     1153
 91
       17
280
     0
281
     0
  0
CLASS
  1
TABLESTYLE
  2
AcDbTableStyle
  3
ObjectDBX Classes
 90
     4095
 91
        1
280
     0
281
     0
  0
CLASS
  1
MLEADERSTYLE
  2
AcDbMLeaderStyle
  3
ACDB_MLEADERSTYLE_CLASS
 90
     4095
 91
        1
280
     0
281
     0
  0
CLASS
  1
ACDBSECTIONVIEWSTYLE
  2
AcDbSectionViewStyle
  3
ObjectDBX Classes
 90
     1025
 91
        1
280
     0
281
     0
  0
CLASS
  1
ACDBDETAILVIEWSTYLE
  2
AcDbDetailViewStyle
  3
ObjectDBX Classes
 90
     1025
 91
        1
280
     0
281
     0
  0
CLASS
  1
DICTIONARYVAR
  2
AcDbDictionaryVar
  3
ObjectDBX Classes
 90
        0
 91
        5
280
     0
281
     0
  0
CLASS
  1
CELLSTYLEMAP
  2
AcDbCellStyleMap
  3
ObjectDBX Classes
 90
     1152
 91
        1
280
     0
281
     0
  0
ENDSEC
  0
SECTION
  2
TABLES
  0
TABLE
  2
VPORT
  5
8
330
0
100
AcDbSymbolTable
 70
     1
  0
VPORT
  5
57
330
8
100
AcDbSymbolTableRecord
100
AcDbViewportTableRecord
  2
*Active
 70
     0
 10
0.0
 20
0.0
 11
1.0
 21
1.0
 12
0.0
 22
0.0
 13
0.0
 23
0.0
 14
1.0
 24
1.0
 15
0.0
 25
0.0
 16
0.0
 26
0.0
 36
1.0
 17
297.6379999999999
 27
-420.9449999999996
 37
0.0
 40
858.7277999999994
 41
0.7070709950231031
 42
50.0
 43
0.0
 44
0.0
 50
0.0
 51
0.0
 71
     0
 72
   100
 73
     1
 74
     1
 75
     0
 76
     0
 77
     0
 78
     0
281
     0
 65
     1
110
0.0
120
0.0
130
0.0
111
1.0
121
0.0
131
0.0
112
0.0
122
1.0
132
0.0
 79
     0
146
0.0
 60
     3
 61
     5
292
     1
282
     1
141
0.0
142
0.0
 63
   250
421
  3355443
  0
ENDTAB
  0
TABLE
  2
LTYPE
  5
5
330
0
100
AcDbSymbolTable
 70
     1
  0
LTYPE
  5
5B
330
5
100
AcDbSymbolTableRecord
100
AcDbLinetypeTableRecord
  2
ByBlock
 70
     0
  3

 72
    65
 73
     0
 40
0.0
  0
LTYPE
  5
5C
330
5
100
AcDbSymbolTableRecord
100
AcDbLinetypeTableRecord
  2
ByLayer
 70
     0
  3

 72
    65
 73
     0
 40
0.0
  0
LTYPE
  5
5D
330
5
100
AcDbSymbolTableRecord
100
AcDbLinetypeTableRecord
  2
Continuous
 70
     0
  3
Solid line
 72
    65
 73
     0
 40
0.0
  0
ENDTAB
  0
TABLE
  2
LAYER
  5
2
330
0
100
AcDbSymbolTable
 70
     2
  0
LAYER
  5
54
330
2
100
AcDbSymbolTableRecord
100
AcDbLayerTableRecord
  2
0
 70
     0
 62
     7
  6
Continuous
370
    -3
390
F
347
21
348
0
  0
LAYER
  5
78
330
2
100
AcDbSymbolTableRecord
100
AcDbLayerTableRecord
  2
Layer 1
 70
     0
 62
     7
  6
Continuous
370
     0
390
F
347
21
348
0
  0
ENDTAB
  0
TABLE
  2
STYLE
  5
3
330
0
100
AcDbSymbolTable
 70
     2
  0
STYLE
  5
55
330
3
100
AcDbSymbolTableRecord
100
AcDbTextStyleTableRecord
  2
Standard
 70
     0
 40
0.0
 41
1.0
 50
0.0
 71
     0
 42
0.2
  3
txt
  4

  0
STYLE
  5
5A
330
3
100
AcDbSymbolTableRecord
100
AcDbTextStyleTableRecord
  2
Annotative
 70
     0
 40
0.0
 41
1.0
 50
0.0
 71
     0
 42
0.2
  3
txt
  4

1001
AcadAnnotative
1000
AnnotativeData
1002
{
1070
     1
1070
     1
1002
}
  0
ENDTAB
  0
TABLE
  2
VIEW
  5
6
330
0
100
AcDbSymbolTable
 70
     0
  0
ENDTAB
  0
TABLE
  2
UCS
  5
7
330
0
100
AcDbSymbolTable
 70
     0
  0
ENDTAB
  0
TABLE
  2
APPID
  5
9
330
0
100
AcDbSymbolTable
 70
     2
  0
APPID
  5
56
330
9
100
AcDbSymbolTableRecord
100
AcDbRegAppTableRecord
  2
ACAD
 70
     0
  0
APPID
  5
5E
330
9
100
AcDbSymbolTableRecord
100
AcDbRegAppTableRecord
  2
AcadAnnotative
 70
     0
  0
ENDTAB
  0
TABLE
  2
DIMSTYLE
  5
A
330
0
100
AcDbSymbolTable
 70
     2
100
AcDbDimStyleTable
 71
     0
  0
DIMSTYLE
105
58
330
A
100
AcDbSymbolTableRecord
100
AcDbDimStyleTableRecord
  2
Standard
 70
     0
340
55
  0
DIMSTYLE
105
59
330
A
100
AcDbSymbolTableRecord
100
AcDbDimStyleTableRecord
  2
Annotative
 70
     0
340
55
1001
AcadAnnotative
1000
AnnotativeData
1002
{
1070
     1
1070
     1
1002
}
  0
ENDTAB
  0
TABLE
  2
BLOCK_RECORD
  5
1
330
0
100
AcDbSymbolTable
 70
     9
  0
BLOCK_RECORD
  5
70
330
1
100
AcDbSymbolTableRecord
100
AcDbBlockTableRecord
  2
*Model_Space
340
73
 70
     0
280
     1
281
     0
  0
BLOCK_RECORD
  5
6C
330
1
100
AcDbSymbolTableRecord
100
AcDbBlockTableRecord
  2
*Paper_Space
340
6F
 70
     0
280
     1
281
     0
  0
BLOCK_RECORD
  5
74
330
1
100
AcDbSymbolTableRecord
100
AcDbBlockTableRecord
  2
*Paper_Space0
340
77
 70
     0
280
     1
281
     0
  0
BLOCK_RECORD
  5
79
330
1
100
AcDbSymbolTableRecord
100
AcDbBlockTableRecord
  2
Block_0
340
0
102
{BLKREFS
331
7A
102
}
 70
     0
280
     1
281
     0
  0
BLOCK_RECORD
  5
7D
330
1
100
AcDbSymbolTableRecord
100
AcDbBlockTableRecord
  2
Block_1
340
0
102
{BLKREFS
331
7E
102
}
 70
     0
280
     1
281
     0
  0
BLOCK_RECORD
  5
87
330
1
100
AcDbSymbolTableRecord
100
AcDbBlockTableRecord
  2
Block_2
340
0
102
{BLKREFS
331
88
102
}
 70
     0
280
     1
281
     0
  0
BLOCK_RECORD
  5
8B
330
1
100
AcDbSymbolTableRecord
100
AcDbBlockTableRecord
  2
Block_3
340
0
102
{BLKREFS
331
8C
102
}
 70
     0
280
     1
281
     0
  0
BLOCK_RECORD
  5
97
330
1
100
AcDbSymbolTableRecord
100
AcDbBlockTableRecord
  2
Block_4
340
0
102
{BLKREFS
331
98
102
}
 70
     0
280
     1
281
     0
  0
BLOCK_RECORD
  5
9B
330
1
100
AcDbSymbolTableRecord
100
AcDbBlockTableRecord
  2
Block_5
340
0
102
{BLKREFS
331
9C
102
}
 70
     0
280
     1
281
     0
  0
BLOCK_RECORD
  5
A6
330
1
100
AcDbSymbolTableRecord
100
AcDbBlockTableRecord
  2
Block_6
340
0
102
{BLKREFS
331
A7
102
}
 70
     0
280
     1
281
     0
  0
BLOCK_RECORD
  5
AA
330
1
100
AcDbSymbolTableRecord
100
AcDbBlockTableRecord
  2
Block_7
340
0
102
{BLKREFS
331
AB
102
}
 70
     0
280
     1
281
     0
  0
ENDTAB
  0
ENDSEC
  0
SECTION
  2
BLOCKS
  0
BLOCK
  5
71
330
70
100
AcDbEntity
  8
0
100
AcDbBlockBegin
  2
*Model_Space
 70
     0
 10
0.0
 20
0.0
 30
0.0
  3
*Model_Space
  1

  0
ENDBLK
  5
72
330
70
100
AcDbEntity
  8
0
100
AcDbBlockEnd
  0
BLOCK
  5
6D
330
6C
100
AcDbEntity
 67
     1
  8
0
100
AcDbBlockBegin
  2
*Paper_Space
 70
     0
 10
0.0
 20
0.0
 30
0.0
  3
*Paper_Space
  1

  0
ENDBLK
  5
6E
330
6C
100
AcDbEntity
 67
     1
  8
0
100
AcDbBlockEnd
  0
BLOCK
  5
75
330
74
100
AcDbEntity
 67
     1
  8
0
100
AcDbBlockBegin
  2
*Paper_Space0
 70
     0
 10
0.0
 20
0.0
 30
0.0
  3
*Paper_Space0
  1

  0
ENDBLK
  5
76
330
74
100
AcDbEntity
 67
     1
  8
0
100
AcDbBlockEnd
  0
BLOCK
  5
7B
330
79
100
AcDbEntity
  8
0
100
AcDbBlockBegin
  2
Block_0
 70
     0
 10
0.0
 20
0.0
 30
0.0
  3
Block_0
  1

  0
INSERT
  5
7E
330
79
100
AcDbEntity
  8
Layer 1
100
AcDbBlockReference
  2
Block_1
 10
0.0
 20
0.0
 30
0.0
  0
ENDBLK
  5
7C
330
79
100
AcDbEntity
  8
0
100
AcDbBlockEnd
  0
BLOCK
  5
7F
330
7D
100
AcDbEntity
  8
0
100
AcDbBlockBegin
  2
Block_1
 70
     0
 10
0.0
 20
0.0
 30
0.0
  3
Block_1
  1

  0
SPLINE
  5
81
330
7D
100
AcDbEntity
  8
Layer 1
100
AcDbSpline
210
0.0
220
0.0
230
1.0
 70
    11
 71
     3
 72
    77
 73
    73
 74
     0
 42
0.0000000001
 43
0.0000000001
 40
0.0
 40
0.0
 40
0.0
 40
0.0
 40
1.0
 40
1.0
 40
1.0
 40
2.0
 40
2.0
 40
2.0
 40
3.0
 40
3.0
 40
3.0
 40
4.0
 40
4.0
 40
4.0
 40
5.0
 40
5.0
 40
5.0
 40
6.0
 40
6.0
 40
6.0
 40
7.0
 40
7.0
 40
7.0
 40
8.0
 40
8.0
 40
8.0
 40
9.0
 40
9.0
 40
9.0
 40
10.0
 40
10.0
 40
10.0
 40
11.0
 40
11.0
 40
11.0
 40
12.0
 40
12.0
 40
12.0
 40
13.0
 40
13.0
 40
13.0
 40
14.0
 40
14.0
 40
14.0
 40
15.0
 40
15.0
 40
15.0
 40
16.0
 40
16.0
 40
16.0
 40
17.0
 40
17.0
 40
17.0
 40
18.0
 40
18.0
 40
18.0
 40
19.0
 40
19.0
 40
19.0
 40
20.0
 40
20.0
 40
20.0
 40
21.0
 40
21.0
 40
21.0
 40
22.0
 40
22.0
 40
22.0
 40
23.0
 40
23.0
 40
23.0
 40
24.0
 40
24.0
 40
24.0
 40
24.0
 10
220.53857421875
 20
-329.0
 30
0.0
 10
220.53857421875
 20
-329.0
 30
0.0
 10
214.92529296875
 20
-329.0
 30
0.0
 10
214.92529296875
 20
-329.0
 30
0.0
 10
214.92529296875
 20
-329.0
 30
0.0
 10
214.92529296875
 20
-328.185546875
 30
0.0
 10
214.92529296875
 20
-328.185546875
 30
0.0
 10
214.92529296875
 20
-328.185546875
 30
0.0
 10
217.21630859375
 20
-325.859375
 30
0.0
 10
217.21630859375
 20
-325.859375
 30
0.0
 10
217.64208984375
 20
-325.4296875
 30
0.0
 10
218.00048828125
 20
-325.046875
 30
0.0
 10
218.29150390625
 20
-324.7109375
 30
0.0
 10
218.58251953125
 20
-324.375
 30
0.0
 10
218.80419921875
 20
-324.0439453125
 30
0.0
 10
218.95654296875
 20
-323.7177734375
 30
0.0
 10
219.10888671875
 20
-323.3916015625
 30
0.0
 10
219.18505859375
 20
-323.033203125
 30
0.0
 10
219.18505859375
 20
-322.642578125
 30
0.0
 10
219.18505859375
 20
-322.158203125
 30
0.0
 10
219.04150390625
 20
-321.7880859375
 30
0.0
 10
218.75439453125
 20
-321.5322265625
 30
0.0
 10
218.46728515625
 20
-321.2763671875
 30
0.0
 10
218.08935546875
 20
-321.1484375
 30
0.0
 10
217.62060546875
 20
-321.1484375
 30
0.0
 10
217.21044921875
 20
-321.1484375
 30
0.0
 10
216.84716796875
 20
-321.21875
 30
0.0
 10
216.53076171875
 20
-321.359375
 30
0.0
 10
216.21435546875
 20
-321.5
 30
0.0
 10
215.89013671875
 20
-321.69921875
 30
0.0
 10
215.55810546875
 20
-321.95703125
 30
0.0
 10
215.55810546875
 20
-321.95703125
 30
0.0
 10
215.03662109375
 20
-321.30078125
 30
0.0
 10
215.03662109375
 20
-321.30078125
 30
0.0
 10
215.26318359375
 20
-321.109375
 30
0.0
 10
215.51025390625
 20
-320.939453125
 30
0.0
 10
215.77783203125
 20
-320.791015625
 30
0.0
 10
216.04541015625
 20
-320.642578125
 30
0.0
 10
216.33251953125
 20
-320.525390625
 30
0.0
 10
216.63916015625
 20
-320.439453125
 30
0.0
 10
216.94580078125
 20
-320.353515625
 30
0.0
 10
217.27294921875
 20
-320.310546875
 30
0.0
 10
217.62060546875
 20
-320.310546875
 30
0.0
 10
218.14794921875
 20
-320.310546875
 30
0.0
 10
218.60302734375
 20
-320.40234375
 30
0.0
 10
218.98583984375
 20
-320.5859375
 30
0.0
 10
219.36865234375
 20
-320.76953125
 30
0.0
 10
219.66455078125
 20
-321.03125
 30
0.0
 10
219.87353515625
 20
-321.37109375
 30
0.0
 10
220.08251953125
 20
-321.7109375
 30
0.0
 10
220.18701171875
 20
-322.115234375
 30
0.0
 10
220.18701171875
 20
-322.583984375
 30
0.0
 10
220.18701171875
 20
-323.037109375
 30
0.0
 10
220.09716796875
 20
-323.4580078125
 30
0.0
 10
219.91748046875
 20
-323.8466796875
 30
0.0
 10
219.73779296875
 20
-324.2353515625
 30
0.0
 10
219.48583984375
 20
-324.6201171875
 30
0.0
 10
219.16162109375
 20
-325.0009765625
 30
0.0
 10
218.83740234375
 20
-325.3818359375
 30
0.0
 10
218.45849609375
 20
-325.78515625
 30
0.0
 10
218.02490234375
 20
-326.2109375
 30
0.0
 10
218.02490234375
 20
-326.2109375
 30
0.0
 10
216.16162109375
 20
-328.068359375
 30
0.0
 10
216.16162109375
 20
-328.068359375
 30
0.0
 10
216.16162109375
 20
-328.068359375
 30
0.0
 10
216.16162109375
 20
-328.109375
 30
0.0
 10
216.16162109375
 20
-328.109375
 30
0.0
 10
216.16162109375
 20
-328.109375
 30
0.0
 10
220.53857421875
 20
-328.109375
 30
0.0
 10
220.53857421875
 20
-328.109375
 30
0.0
 10
220.53857421875
 20
-328.109375
 30
0.0
 10
220.53857421875
 20
-329.0
 30
0.0
 10
220.53857421875
 20
-329.0
 30
0.0
  0
HATCH
  5
82
330
7D
100
AcDbEntity
  8
Layer 1
 62
   250
420
  2301728
440
 33554687
100
AcDbHatch
 10
0.0
 20
0.0
 30
0.0
210
0.0
220
0.0
230
1.0
  2
SOLID
 70
     1
 71
     1
 91
        1
 92
        1
 93
        1
 72
     4
 94
        3
 73
     0
 74
     0
 95
       77
 96
       73
 40
0.0
 40
0.0
 40
0.0
 40
0.0
 40
1.0
 40
1.0
 40
1.0
 40
2.0
 40
2.0
 40
2.0
 40
3.0
 40
3.0
 40
3.0
 40
4.0
 40
4.0
 40
4.0
 40
5.0
 40
5.0
 40
5.0
 40
6.0
 40
6.0
 40
6.0
 40
7.0
 40
7.0
 40
7.0
 40
8.0
 40
8.0
 40
8.0
 40
9.0
 40
9.0
 40
9.0
 40
10.0
 40
10.0
 40
10.0
 40
11.0
 40
11.0
 40
11.0
 40
12.0
 40
12.0
 40
12.0
 40
13.0
 40
13.0
 40
13.0
 40
14.0
 40
14.0
 40
14.0
 40
15.0
 40
15.0
 40
15.0
 40
16.0
 40
16.0
 40
16.0
 40
17.0
 40
17.0
 40
17.0
 40
18.0
 40
18.0
 40
18.0
 40
19.0
 40
19.0
 40
19.0
 40
20.0
 40
20.0
 40
20.0
 40
21.0
 40
21.0
 40
21.0
 40
22.0
 40
22.0
 40
22.0
 40
23.0
 40
23.0
 40
23.0
 40
24.0
 40
24.0
 40
24.0
 40
24.0
 10
220.53857421875
 20
-329.0
 10
220.53857421875
 20
-329.0
 10
214.92529296875
 20
-329.0
 10
214.92529296875
 20
-329.0
 10
214.92529296875
 20
-329.0
 10
214.92529296875
 20
-328.185546875
 10
214.92529296875
 20
-328.185546875
 10
214.92529296875
 20
-328.185546875
 10
217.21630859375
 20
-325.859375
 10
217.21630859375
 20
-325.859375
 10
217.64208984375
 20
-325.4296875
 10
218.00048828125
 20
-325.046875
 10
218.29150390625
 20
-324.7109375
 10
218.58251953125
 20
-324.375
 10
218.80419921875
 20
-324.0439453125
 10
218.95654296875
 20
-323.7177734375
 10
219.10888671875
 20
-323.3916015625
 10
219.18505859375
 20
-323.033203125
 10
219.18505859375
 20
-322.642578125
 10
219.18505859375
 20
-322.158203125
 10
219.04150390625
 20
-321.7880859375
 10
218.75439453125
 20
-321.5322265625
 10
218.46728515625
 20
-321.2763671875
 10
218.08935546875
 20
-321.1484375
 10
217.62060546875
 20
-321.1484375
 10
217.21044921875
 20
-321.1484375
 10
216.84716796875
 20
-321.21875
 10
216.53076171875
 20
-321.359375
 10
216.21435546875
 20
-321.5
 10
215.89013671875
 20
-321.69921875
 10
215.55810546875
 20
-321.95703125
 10
215.55810546875
 20
-321.95703125
 10
215.03662109375
 20
-321.30078125
 10
215.03662109375
 20
-321.30078125
 10
215.26318359375
 20
-321.109375
 10
215.51025390625
 20
-320.939453125
 10
215.77783203125
 20
-320.791015625
 10
216.04541015625
 20
-320.642578125
 10
216.33251953125
 20
-320.525390625
 10
216.63916015625
 20
-320.439453125
 10
216.94580078125
 20
-320.353515625
 10
217.27294921875
 20
-320.310546875
 10
217.62060546875
 20
-320.310546875
 10
218.14794921875
 20
-320.310546875
 10
218.60302734375
 20
-320.40234375
 10
218.98583984375
 20
-320.5859375
 10
219.36865234375
 20
-320.76953125
 10
219.66455078125
 20
-321.03125
 10
219.87353515625
 20
-321.37109375
 10
220.08251953125
 20
-321.7109375
 10
220.18701171875
 20
-322.115234375
 10
220.18701171875
 20
-322.583984375
 10
220.18701171875
 20
-323.037109375
 10
220.09716796875
 20
-323.4580078125
 10
219.91748046875
 20
-323.8466796875
 10
219.73779296875
 20
-324.2353515625
 10
219.48583984375
 20
-324.6201171875
 10
219.16162109375
 20
-325.0009765625
 10
218.83740234375
 20
-325.3818359375
 10
218.45849609375
 20
-325.78515625
 10
218.02490234375
 20
-326.2109375
 10
218.02490234375
 20
-326.2109375
 10
216.16162109375
 20
-328.068359375
 10
216.16162109375
 20
-328.068359375
 10
216.16162109375
 20
-328.068359375
 10
216.16162109375
 20
-328.109375
 10
216.16162109375
 20
-328.109375
 10
216.16162109375
 20
-328.109375
 10
220.53857421875
 20
-328.109375
 10
220.53857421875
 20
-328.109375
 10
220.53857421875
 20
-328.109375
 10
220.53857421875
 20
-329.0
 10
220.53857421875
 20
-329.0
 97
        0
 97
        1
330
81
 75
     2
 76
     1
 98
        1
 10
0.0
 20
0.0
450
        0
451
        0
460
0.0
461
0.0
452
        0
462
0.0
453
        0
470

  0
SPLINE
  5
83
330
7D
100
AcDbEntity
  8
Layer 1
100
AcDbSpline
210
0.0
220
0.0
230
1.0
 70
     9
 71
     3
 72
   110
 73
   106
 74
     0
 42
0.0000000001
 43
0.0000000001
 40
0.0
 40
0.0
 40
0.0
 40
0.0
 40
1.0
 40
1.0
 40
1.0
 40
2.0
 40
2.0
 40
2.0
 40
3.0
 40
3.0
 40
3.0
 40
4.0
 40
4.0
 40
4.0
 40
5.0
 40
5.0
 40
5.0
 40
6.0
 40
6.0
 40
6.0
 40
7.0
 40
7.0
 40
7.0
 40
8.0
 40
8.0
 40
8.0
 40
9.0
 40
9.0
 40
9.0
 40
10.0
 40
10.0
 40
10.0
 40
11.0
 40
11.0
 40
11.0
 40
12.0
 40
12.0
 40
12.0
 40
13.0
 40
13.0
 40
13.0
 40
14.0
 40
14.0
 40
14.0
 40
15.0
 40
15.0
 40
15.0
 40
16.0
 40
16.0
 40
16.0
 40
17.0
 40
17.0
 40
17.0
 40
18.0
 40
18.0
 40
18.0
 40
19.0
 40
19.0
 40
19.0
 40
20.0
 40
20.0
 40
20.0
 40
21.0
 40
21.0
 40
21.0
 40
22.0
 40
22.0
 40
22.0
 40
23.0
 40
23.0
 40
23.0
 40
24.0
 40
24.0
 40
24.0
 40
25.0
 40
25.0
 40
25.0
 40
26.0
 40
26.0
 40
26.0
 40
27.0
 40
27.0
 40
27.0
 40
28.0
 40
28.0
 40
28.0
 40
29.0
 40
29.0
 40
29.0
 40
30.0
 40
30.0
 40
30.0
 40
31.0
 40
31.0
 40
31.0
 40
32.0
 40
32.0
 40
32.0
 40
33.0
 40
33.0
 40
33.0
 40
34.0
 40
34.0
 40
34.0
 40
35.0
 40
35.0
 40
35.0
 40
35.0
 10
227.08349609375
 20
-322.431640625
 30
0.0
 10
227.08349609375
 20
-322.814453125
 30
0.0
 10
227.00927734375
 20
-323.146484375
 30
0.0
 10
226.86083984375
 20
-323.427734375
 30
0.0
 10
226.71240234375
 20
-323.708984375
 30
0.0
 10
226.50537109375
 20
-323.9384765625
 30
0.0
 10
226.23974609375
 20
-324.1162109375
 30
0.0
 10
225.97412109375
 20
-324.2939453125
 30
0.0
 10
225.66162109375
 20
-324.41796875
 30
0.0
 10
225.30224609375
 20
-324.48828125
 30
0.0
 10
225.30224609375
 20
-324.48828125
 30
0.0
 10
225.30224609375
 20
-324.53515625
 30
0.0
 10
225.30224609375
 20
-324.53515625
 30
0.0
 10
225.98193359375
 20
-324.62109375
 30
0.0
 10
226.49267578125
 20
-324.83984375
 30
0.0
 10
226.83447265625
 20
-325.19140625
 30
0.0
 10
227.17626953125
 20
-325.54296875
 30
0.0
 10
227.34716796875
 20
-326.00390625
 30
0.0
 10
227.34716796875
 20
-326.57421875
 30
0.0
 10
227.34716796875
 20
-327.0703125
 30
0.0
 10
227.23095703125
 20
-327.509765625
 30
0.0
 10
226.99853515625
 20
-327.892578125
 30
0.0
 10
226.76611328125
 20
-328.275390625
 30
0.0
 10
226.41064453125
 20
-328.5751953125
 30
0.0
 10
225.93212890625
 20
-328.7919921875
 30
0.0
 10
225.45361328125
 20
-329.0087890625
 30
0.0
 10
224.84130859375
 20
-329.1171875
 30
0.0
 10
224.09521484375
 20
-329.1171875
 30
0.0
 10
223.64208984375
 20
-329.1171875
 30
0.0
 10
223.22314453125
 20
-329.0810546875
 30
0.0
 10
222.83837890625
 20
-329.0087890625
 30
0.0
 10
222.45361328125
 20
-328.9365234375
 30
0.0
 10
222.08544921875
 20
-328.81640625
 30
0.0
 10
221.73388671875
 20
-328.6484375
 30
0.0
 10
221.73388671875
 20
-328.6484375
 30
0.0
 10
221.73388671875
 20
-327.734375
 30
0.0
 10
221.73388671875
 20
-327.734375
 30
0.0
 10
222.08935546875
 20
-327.91015625
 30
0.0
 10
222.47607421875
 20
-328.0478515625
 30
0.0
 10
222.89404296875
 20
-328.1474609375
 30
0.0
 10
223.31201171875
 20
-328.2470703125
 30
0.0
 10
223.71630859375
 20
-328.296875
 30
0.0
 10
224.10693359375
 20
-328.296875
 30
0.0
 10
224.88818359375
 20
-328.296875
 30
0.0
 10
225.45263671875
 20
-328.1416015625
 30
0.0
 10
225.80029296875
 20
-327.8310546875
 30
0.0
 10
226.14794921875
 20
-327.5205078125
 30
0.0
 10
226.32177734375
 20
-327.095703125
 30
0.0
 10
226.32177734375
 20
-326.556640625
 30
0.0
 10
226.32177734375
 20
-326.185546875
 30
0.0
 10
226.22509765625
 20
-325.8857421875
 30
0.0
 10
226.03173828125
 20
-325.6572265625
 30
0.0
 10
225.83837890625
 20
-325.4287109375
 30
0.0
 10
225.56103515625
 20
-325.2607421875
 30
0.0
 10
225.19970703125
 20
-325.1533203125
 30
0.0
 10
224.83837890625
 20
-325.0458984375
 30
0.0
 10
224.40380859375
 20
-324.9921875
 30
0.0
 10
223.89599609375
 20
-324.9921875
 30
0.0
 10
223.89599609375
 20
-324.9921875
 30
0.0
 10
223.04052734375
 20
-324.9921875
 30
0.0
 10
223.04052734375
 20
-324.9921875
 30
0.0
 10
223.04052734375
 20
-324.9921875
 30
0.0
 10
223.04052734375
 20
-324.16015625
 30
0.0
 10
223.04052734375
 20
-324.16015625
 30
0.0
 10
223.04052734375
 20
-324.16015625
 30
0.0
 10
223.90185546875
 20
-324.16015625
 30
0.0
 10
223.90185546875
 20
-324.16015625
 30
0.0
 10
224.36669921875
 20
-324.16015625
 30
0.0
 10
224.76123046875
 20
-324.091796875
 30
0.0
 10
225.08544921875
 20
-323.955078125
 30
0.0
 10
225.40966796875
 20
-323.818359375
 30
0.0
 10
225.65673828125
 20
-323.6259765625
 30
0.0
 10
225.82666015625
 20
-323.3779296875
 30
0.0
 10
225.99658203125
 20
-323.1298828125
 30
0.0
 10
226.08154296875
 20
-322.8359375
 30
0.0
 10
226.08154296875
 20
-322.49609375
 30
0.0
 10
226.08154296875
 20
-322.0625
 30
0.0
 10
225.93701171875
 20
-321.7275390625
 30
0.0
 10
225.64794921875
 20
-321.4912109375
 30
0.0
 10
225.35888671875
 20
-321.2548828125
 30
0.0
 10
224.96630859375
 20
-321.13671875
 30
0.0
 10
224.47021484375
 20
-321.13671875
 30
0.0
 10
224.16552734375
 20
-321.13671875
 30
0.0
 10
223.88818359375
 20
-321.16796875
 30
0.0
 10
223.63818359375
 20
-321.23046875
 30
0.0
 10
223.38818359375
 20
-321.29296875
 30
0.0
 10
223.15380859375
 20
-321.37890625
 30
0.0
 10
222.93505859375
 20
-321.48828125
 30
0.0
 10
222.71630859375
 20
-321.59765625
 30
0.0
 10
222.49755859375
 20
-321.724609375
 30
0.0
 10
222.27880859375
 20
-321.869140625
 30
0.0
 10
222.27880859375
 20
-321.869140625
 30
0.0
 10
221.78662109375
 20
-321.201171875
 30
0.0
 10
221.78662109375
 20
-321.201171875
 30
0.0
 10
222.09912109375
 20
-320.958984375
 30
0.0
 10
222.47998046875
 20
-320.75
 30
0.0
 10
222.92919921875
 20
-320.57421875
 30
0.0
 10
223.37841796875
 20
-320.3984375
 30
0.0
 10
223.88818359375
 20
-320.310546875
 30
0.0
 10
224.45849609375
 20
-320.310546875
 30
0.0
 10
225.33349609375
 20
-320.310546875
 30
0.0
 10
225.98974609375
 20
-320.509765625
 30
0.0
 10
226.42724609375
 20
-320.908203125
 30
0.0
 10
226.86474609375
 20
-321.306640625
 30
0.0
 10
227.08349609375
 20
-321.814453125
 30
0.0
 10
227.08349609375
 20
-322.431640625
 30
0.0
  0
HATCH
  5
84
330
7D
100
AcDbEntity
  8
Layer 1
 62
   250
420
  2301728
440
 33554687
100
AcDbHatch
 10
0.0
 20
0.0
 30
0.0
210
0.0
220
0.0
230
1.0
  2
SOLID
 70
     1
 71
     1
 91
        1
 92
        1
 93
        1
 72
     4
 94
        3
 73
     0
 74
     0
 95
      110
 96
      106
 40
0.0
 40
0.0
 40
0.0
 40
0.0
 40
1.0
 40
1.0
 40
1.0
 40
2.0
 40
2.0
 40
2.0
 40
3.0
 40
3.0
 40
3.0
 40
4.0
 40
4.0
 40
4.0
 40
5.0
 40
5.0
 40
5.0
 40
6.0
 40
6.0
 40
6.0
 40
7.0
 40
7.0
 40
7.0
 40
8.0
 40
8.0
 40
8.0
 40
9.0
 40
9.0
 40
9.0
 40
10.0
 40
10.0
 40
10.0
 40
11.0
 40
11.0
 40
11.0
 40
12.0
 40
12.0
 40
12.0
 40
13.0
 40
13.0
 40
13.0
 40
14.0
 40
14.0
 40
14.0
 40
15.0
 40
15.0
 40
15.0
 40
16.0
 40
16.0
 40
16.0
 40
17.0
 40
17.0
 40
17.0
 40
18.0
 40
18.0
 40
18.0
 40
19.0
 40
19.0
 40
19.0
 40
20.0
 40
20.0
 40
20.0
 40
21.0
 40
21.0
 40
21.0
 40
22.0
 40
22.0
 40
22.0
 40
23.0
 40
23.0
 40
23.0
 40
24.0
 40
24.0
 40
24.0
 40
25.0
 40
25.0
 40
25.0
 40
26.0
 40
26.0
 40
26.0
 40
27.0
 40
27.0
 40
27.0
 40
28.0
 40
28.0
 40
28.0
 40
29.0
 40
29.0
 40
29.0
 40
30.0
 40
30.0
 40
30.0
 40
31.0
 40
31.0
 40
31.0
 40
32.0
 40
32.0
 40
32.0
 40
33.0
 40
33.0
 40
33.0
 40
34.0
 40
34.0
 40
34.0
 40
35.0
 40
35.0
 40
35.0
 40
35.0
 10
227.08349609375
 20
-322.431640625
 10
227.08349609375
 20
-322.814453125
 10
227.00927734375
 20
-323.146484375
 10
226.86083984375
 20
-323.427734375
 10
226.71240234375
 20
-323.708984375
 10
226.50537109375
 20
-323.9384765625
 10
226.23974609375
 20
-324.1162109375
 10
225.97412109375
 20
-324.2939453125
 10
225.66162109375
 20
-324.41796875
 10
225.30224609375
 20
-324.48828125
 10
225.30224609375
 20
-324.48828125
 10
225.30224609375
 20
-324.53515625
 10
225.30224609375
 20
-324.53515625
 10
225.98193359375
 20
-324.62109375
 10
226.49267578125
 20
-324.83984375
 10
226.83447265625
 20
-325.19140625
 10
227.17626953125
 20
-325.54296875
 10
227.34716796875
 20
-326.00390625
 10
227.34716796875
 20
-326.57421875
 10
227.34716796875
 20
-327.0703125
 10
227.23095703125
 20
-327.509765625
 10
226.99853515625
 20
-327.892578125
 10
226.76611328125
 20
-328.275390625
 10
226.41064453125
 20
-328.5751953125
 10
225.93212890625
 20
-328.7919921875
 10
225.45361328125
 20
-329.0087890625
 10
224.84130859375
 20
-329.1171875
 10
224.09521484375
 20
-329.1171875
 10
223.64208984375
 20
-329.1171875
 10
223.22314453125
 20
-329.0810546875
 10
222.83837890625
 20
-329.0087890625
 10
222.45361328125
 20
-328.9365234375
 10
222.08544921875
 20
-328.81640625
 10
221.73388671875
 20
-328.6484375
 10
221.73388671875
 20
-328.6484375
 10
221.73388671875
 20
-327.734375
 10
221.73388671875
 20
-327.734375
 10
222.08935546875
 20
-327.91015625
 10
222.47607421875
 20
-328.0478515625
 10
222.89404296875
 20
-328.1474609375
 10
223.31201171875
 20
-328.2470703125
 10
223.71630859375
 20
-328.296875
 10
224.10693359375
 20
-328.296875
 10
224.88818359375
 20
-328.296875
 10
225.45263671875
 20
-328.1416015625
 10
225.80029296875
 20
-327.8310546875
 10
226.14794921875
 20
-327.5205078125
 10
226.32177734375
 20
-327.095703125
 10
226.32177734375
 20
-326.556640625
 10
226.32177734375
 20
-326.185546875
 10
226.22509765625
 20
-325.8857421875
 10
226.03173828125
 20
-325.6572265625
 10
225.83837890625
 20
-325.4287109375
 10
225.56103515625
 20
-325.2607421875
 10
225.19970703125
 20
-325.1533203125
 10
224.83837890625
 20
-325.0458984375
 10
224.40380859375
 20
-324.9921875
 10
223.89599609375
 20
-324.9921875
 10
223.89599609375
 20
-324.9921875
 10
223.04052734375
 20
-324.9921875
 10
223.04052734375
 20
-324.9921875
 10
223.04052734375
 20
-324.9921875
 10
223.04052734375
 20
-324.16015625
 10
223.04052734375
 20
-324.16015625
 10
223.04052734375
 20
-324.16015625
 10
223.90185546875
 20
-324.16015625
 10
223.90185546875
 20
-324.16015625
 10
224.36669921875
 20
-324.16015625
 10
224.76123046875
 20
-324.091796875
 10
225.08544921875
 20
-323.955078125
 10
225.40966796875
 20
-323.818359375
 10
225.65673828125
 20
-323.6259765625
 10
225.82666015625
 20
-323.3779296875
 10
225.99658203125
 20
-323.1298828125
 10
226.08154296875
 20
-322.8359375
 10
226.08154296875
 20
-322.49609375
 10
226.08154296875
 20
-322.0625
 10
225.93701171875
 20
-321.7275390625
 10
225.64794921875
 20
-321.4912109375
 10
225.35888671875
 20
-321.2548828125
 10
224.96630859375
 20
-321.13671875
 10
224.47021484375
 20
-321.13671875
 10
224.16552734375
 20
-321.13671875
 10
223.88818359375
 20
-321.16796875
 10
223.63818359375
 20
-321.23046875
 10
223.38818359375
 20
-321.29296875
 10
223.15380859375
 20
-321.37890625
 10
222.93505859375
 20
-321.48828125
 10
222.71630859375
 20
-321.59765625
 10
222.49755859375
 20
-321.724609375
 10
222.27880859375
 20
-321.869140625
 10
222.27880859375
 20
-321.869140625
 10
221.78662109375
 20
-321.201171875
 10
221.78662109375
 20
-321.201171875
 10
222.09912109375
 20
-320.958984375
 10
222.47998046875
 20
-320.75
 10
222.92919921875
 20
-320.57421875
 10
223.37841796875
 20
-320.3984375
 10
223.88818359375
 20
-320.310546875
 10
224.45849609375
 20
-320.310546875
 10
225.33349609375
 20
-320.310546875
 10
225.98974609375
 20
-320.509765625
 10
226.42724609375
 20
-320.908203125
 10
226.86474609375
 20
-321.306640625
 10
227.08349609375
 20
-321.814453125
 10
227.08349609375
 20
-322.431640625
 97
        0
 97
        1
330
83
 75
     2
 76
     1
 98
        1
 10
0.0
 20
0.0
450
        0
451
        0
460
0.0
461
0.0
452
        0
462
0.0
453
        0
470

  0
SPLINE
  5
85
330
7D
100
AcDbEntity
  8
Layer 1
100
AcDbSpline
210
0.0
220
0.0
230
1.0
 70
    11
 71
     3
 72
    23
 73
    19
 74
     0
 42
0.0000000001
 43
0.0000000001
 40
0.0
 40
0.0
 40
0.0
 40
0.0
 40
1.0
 40
1.0
 40
1.0
 40
2.0
 40
2.0
 40
2.0
 40
3.0
 40
3.0
 40
3.0
 40
4.0
 40
4.0
 40
4.0
 40
5.0
 40
5.0
 40
5.0
 40
6.0
 40
6.0
 40
6.0
 40
6.0
 10
229.22802734375
 20
-329.0
 30
0.0
 10
229.22802734375
 20
-329.0
 30
0.0
 10
229.22802734375
 20
-320.43359375
 30
0.0
 10
229.22802734375
 20
-320.43359375
 30
0.0
 10
229.22802734375
 20
-320.43359375
 30
0.0
 10
230.22412109375
 20
-320.43359375
 30
0.0
 10
230.22412109375
 20
-320.43359375
 30
0.0
 10
230.22412109375
 20
-320.43359375
 30
0.0
 10
230.22412109375
 20
-328.109375
 30
0.0
 10
230.22412109375
 20
-328.109375
 30
0.0
 10
230.22412109375
 20
-328.109375
 30
0.0
 10
234.02685546875
 20
-328.109375
 30
0.0
 10
234.02685546875
 20
-328.109375
 30
0.0
 10
234.02685546875
 20
-328.109375
 30
0.0
 10
234.02685546875
 20
-329.0
 30
0.0
 10
234.02685546875
 20
-329.0
 30
0.0
 10
234.02685546875
 20
-329.0
 30
0.0
 10
229.22802734375
 20
-329.0
 30
0.0
 10
229.22802734375
 20
-329.0
 30
0.0
  0
HATCH
  5
86
330
7D
100
AcDbEntity
  8
Layer 1
 62
   250
420
  2301728
440
 33554687
100
AcDbHatch
 10
0.0
 20
0.0
 30
0.0
210
0.0
220
0.0
230
1.0
  2
SOLID
 70
     1
 71
     1
 91
        1
 92
        1
 93
        1
 72
     4
 94
        3
 73
     0
 74
     0
 95
       23
 96
       19
 40
0.0
 40
0.0
 40
0.0
 40
0.0
 40
1.0
 40
1.0
 40
1.0
 40
2.0
 40
2.0
 40
2.0
 40
3.0
 40
3.0
 40
3.0
 40
4.0
 40
4.0
 40
4.0
 40
5.0
 40
5.0
 40
5.0
 40
6.0
 40
6.0
 40
6.0
 40
6.0
 10
229.22802734375
 20
-329.0
 10
229.22802734375
 20
-329.0
 10
229.22802734375
 20
-320.43359375
 10
229.22802734375
 20
-320.43359375
 10
229.22802734375
 20
-320.43359375
 10
230.22412109375
 20
-320.43359375
 10
230.22412109375
 20
-320.43359375
 10
230.22412109375
 20
-320.43359375
 10
230.22412109375
 20
-328.109375
 10
230.22412109375
 20
-328.109375
 10
230.22412109375
 20
-328.109375
 10
234.02685546875
 20
-328.109375
 10
234.02685546875
 20
-328.109375
 10
234.02685546875
 20
-328.109375
 10
234.02685546875
 20
-329.0
 10
234.02685546875
 20
-329.0
 10
234.02685546875
 20
-329.0
 10
229.22802734375
 20
-329.0
 10
229.22802734375
 20
-329.0
 97
        0
 97
        1
330
85
 75
     2
 76
     1
 98
        1
 10
0.0
 20
0.0
450
        0
451
        0
460
0.0
461
0.0
452
        0
462
0.0
453
        0
470

  0
ENDBLK
  5
80
330
7D
100
AcDbEntity
  8
0
100
AcDbBlockEnd
  0
BLOCK
  5
89
330
87
100
AcDbEntity
  8
0
100
AcDbBlockBegin
  2
Block_2
 70
     0
 10
0.0
 20
0.0
 30
0.0
  3
Block_2
  1

  0
INSERT
  5
8C
330
87
100
AcDbEntity
  8
Layer 1
100
AcDbBlockReference
  2
Block_3
 10
0.0
 20
0.0
 30
0.0
  0
ENDBLK
  5
8A
330
87
100
AcDbEntity
  8
0
100
AcDbBlockEnd
  0
BLOCK
  5
8D
330
8B
100
AcDbEntity
  8
0
100
AcDbBlockBegin
  2
Block_3
 70
     0
 10
0.0
 20
0.0
 30
0.0
  3
Block_3
  1

  0
SPLINE
  5
8F
330
8B
100
AcDbEntity
  8
Layer 1
100
AcDbSpline
210
0.0
220
0.0
230
1.0
 70
     9
 71
     3
 72
    41
 73
    37
 74
     0
 42
0.0000000001
 43
0.0000000001
 40
0.0
 40
0.0
 40
0.0
 40
0.0
 40
1.0
 40
1.0
 40
1.0
 40
2.0
 40
2.0
 40
2.0
 40
3.0
 40
3.0
 40
3.0
 40
4.0
 40
4.0
 40
4.0
 40
5.0
 40
5.0
 40
5.0
 40
6.0
 40
6.0
 40
6.0
 40
7.0
 40
7.0
 40
7.0
 40
8.0
 40
8.0
 40
8.0
 40
9.0
 40
9.0
 40
9.0
 40
10.0
 40
10.0
 40
10.0
 40
11.0
 40
11.0
 40
11.0
 40
12.0
 40
12.0
 40
12.0
 40
12.0
 10
237.58203125
 20
-324.455078125
 30
0.0
 10
237.58203125
 20
-325.251953125
 30
0.0
 10
237.642578125
 20
-325.916015625
 30
0.0
 10
237.763671875
 20
-326.447265625
 30
0.0
 10
237.884765625
 20
-326.978515625
 30
0.0
 10
238.0810546875
 20
-327.3759765625
 30
0.0
 10
238.3525390625
 20
-327.6396484375
 30
0.0
 10
238.6240234375
 20
-327.9033203125
 30
0.0
 10
238.98046875
 20
-328.03515625
 30
0.0
 10
239.421875
 20
-328.03515625
 30
0.0
 10
239.86328125
 20
-328.03515625
 30
0.0
 10
240.2197265625
 20
-327.904296875
 30
0.0
 10
240.4912109375
 20
-327.642578125
 30
0.0
 10
240.7626953125
 20
-327.380859375
 30
0.0
 10
240.9599609375
 20
-326.984375
 30
0.0
 10
241.0830078125
 20
-326.453125
 30
0.0
 10
241.2060546875
 20
-325.921875
 30
0.0
 10
241.267578125
 20
-325.255859375
 30
0.0
 10
241.267578125
 20
-324.455078125
 30
0.0
 10
241.267578125
 20
-323.669921875
 30
0.0
 10
241.20703125
 20
-323.0126953125
 30
0.0
 10
241.0859375
 20
-322.4833984375
 30
0.0
 10
240.96484375
 20
-321.9541015625
 30
0.0
 10
240.76953125
 20
-321.5556640625
 30
0.0
 10
240.5
 20
-321.2880859375
 30
0.0
 10
240.23046875
 20
-321.0205078125
 30
0.0
 10
239.87109375
 20
-320.88671875
 30
0.0
 10
239.421875
 20
-320.88671875
 30
0.0
 10
238.97265625
 20
-320.88671875
 30
0.0
 10
238.61328125
 20
-321.0205078125
 30
0.0
 10
238.34375
 20
-321.2880859375
 30
0.0
 10
238.07421875
 20
-321.5556640625
 30
0.0
 10
237.8798828125
 20
-321.9541015625
 30
0.0
 10
237.7607421875
 20
-322.4833984375
 30
0.0
 10
237.6416015625
 20
-323.0126953125
 30
0.0
 10
237.58203125
 20
-323.669921875
 30
0.0
 10
237.58203125
 20
-324.455078125
 30
0.0
  0
SPLINE
  5
90
330
8B
100
AcDbEntity
  8
Layer 1
100
AcDbSpline
210
0.0
220
0.0
230
1.0
 70
     9
 71
     3
 72
    44
 73
    40
 74
     0
 42
0.0000000001
 43
0.0000000001
 40
0.0
 40
0.0
 40
0.0
 40
0.0
 40
1.0
 40
1.0
 40
1.0
 40
2.0
 40
2.0
 40
2.0
 40
3.0
 40
3.0
 40
3.0
 40
4.0
 40
4.0
 40
4.0
 40
5.0
 40
5.0
 40
5.0
 40
6.0
 40
6.0
 40
6.0
 40
7.0
 40
7.0
 40
7.0
 40
8.0
 40
8.0
 40
8.0
 40
9.0
 40
9.0
 40
9.0
 40
10.0
 40
10.0
 40
10.0
 40
11.0
 40
11.0
 40
11.0
 40
12.0
 40
12.0
 40
12.0
 40
13.0
 40
13.0
 40
13.0
 40
13.0
 10
242.251953125
 20
-324.455078125
 30
0.0
 10
242.251953125
 20
-325.150390625
 30
0.0
 10
242.19921875
 20
-325.771484375
 30
0.0
 10
242.09375
 20
-326.318359375
 30
0.0
 10
241.98828125
 20
-326.865234375
 30
0.0
 10
241.822265625
 20
-327.328125
 30
0.0
 10
241.595703125
 20
-327.70703125
 30
0.0
 10
241.369140625
 20
-328.0859375
 30
0.0
 10
241.076171875
 20
-328.3740234375
 30
0.0
 10
240.716796875
 20
-328.5712890625
 30
0.0
 10
240.357421875
 20
-328.7685546875
 30
0.0
 10
239.92578125
 20
-328.8671875
 30
0.0
 10
239.421875
 20
-328.8671875
 30
0.0
 10
238.78515625
 20
-328.8671875
 30
0.0
 10
238.2587890625
 20
-328.693359375
 30
0.0
 10
237.8427734375
 20
-328.345703125
 30
0.0
 10
237.4267578125
 20
-327.998046875
 30
0.0
 10
237.1162109375
 20
-327.4951171875
 30
0.0
 10
236.9111328125
 20
-326.8369140625
 30
0.0
 10
236.7060546875
 20
-326.1787109375
 30
0.0
 10
236.603515625
 20
-325.384765625
 30
0.0
 10
236.603515625
 20
-324.455078125
 30
0.0
 10
236.603515625
 20
-323.541015625
 30
0.0
 10
236.6962890625
 20
-322.7548828125
 30
0.0
 10
236.8818359375
 20
-322.0966796875
 30
0.0
 10
237.0673828125
 20
-321.4384765625
 30
0.0
 10
237.3671875
 20
-320.9326171875
 30
0.0
 10
237.78125
 20
-320.5791015625
 30
0.0
 10
238.1953125
 20
-320.2255859375
 30
0.0
 10
238.7421875
 20
-320.048828125
 30
0.0
 10
239.421875
 20
-320.048828125
 30
0.0
 10
240.06640625
 20
-320.048828125
 30
0.0
 10
240.59765625
 20
-320.2236328125
 30
0.0
 10
241.015625
 20
-320.5732421875
 30
0.0
 10
241.43359375
 20
-320.9228515625
 30
0.0
 10
241.744140625
 20
-321.4267578125
 30
0.0
 10
241.947265625
 20
-322.0849609375
 30
0.0
 10
242.150390625
 20
-322.7431640625
 30
0.0
 10
242.251953125
 20
-323.533203125
 30
0.0
 10
242.251953125
 20
-324.455078125
 30
0.0
  0
HATCH
  5
91
330
8B
100
AcDbEntity
  8
Layer 1
 62
   250
420
  2301728
440
 33554687
100
AcDbHatch
 10
0.0
 20
0.0
 30
0.0
210
0.0
220
0.0
230
1.0
  2
SOLID
 70
     1
 71
     1
 91
        2
 92
        1
 93
        1
 72
     4
 94
        3
 73
     0
 74
     0
 95
       41
 96
       37
 40
0.0
 40
0.0
 40
0.0
 40
0.0
 40
1.0
 40
1.0
 40
1.0
 40
2.0
 40
2.0
 40
2.0
 40
3.0
 40
3.0
 40
3.0
 40
4.0
 40
4.0
 40
4.0
 40
5.0
 40
5.0
 40
5.0
 40
6.0
 40
6.0
 40
6.0
 40
7.0
 40
7.0
 40
7.0
 40
8.0
 40
8.0
 40
8.0
 40
9.0
 40
9.0
 40
9.0
 40
10.0
 40
10.0
 40
10.0
 40
11.0
 40
11.0
 40
11.0
 40
12.0
 40
12.0
 40
12.0
 40
12.0
 10
237.58203125
 20
-324.455078125
 10
237.58203125
 20
-325.251953125
 10
237.642578125
 20
-325.916015625
 10
237.763671875
 20
-326.447265625
 10
237.884765625
 20
-326.978515625
 10
238.0810546875
 20
-327.3759765625
 10
238.3525390625
 20
-327.6396484375
 10
238.6240234375
 20
-327.9033203125
 10
238.98046875
 20
-328.03515625
 10
239.421875
 20
-328.03515625
 10
239.86328125
 20
-328.03515625
 10
240.2197265625
 20
-327.904296875
 10
240.4912109375
 20
-327.642578125
 10
240.7626953125
 20
-327.380859375
 10
240.9599609375
 20
-326.984375
 10
241.0830078125
 20
-326.453125
 10
241.2060546875
 20
-325.921875
 10
241.267578125
 20
-325.255859375
 10
241.267578125
 20
-324.455078125
 10
241.267578125
 20
-323.669921875
 10
241.20703125
 20
-323.0126953125
 10
241.0859375
 20
-322.4833984375
 10
240.96484375
 20
-321.9541015625
 10
240.76953125
 20
-321.5556640625
 10
240.5
 20
-321.2880859375
 10
240.23046875
 20
-321.0205078125
 10
239.87109375
 20
-320.88671875
 10
239.421875
 20
-320.88671875
 10
238.97265625
 20
-320.88671875
 10
238.61328125
 20
-321.0205078125
 10
238.34375
 20
-321.2880859375
 10
238.07421875
 20
-321.5556640625
 10
237.8798828125
 20
-321.9541015625
 10
237.7607421875
 20
-322.4833984375
 10
237.6416015625
 20
-323.0126953125
 10
237.58203125
 20
-323.669921875
 10
237.58203125
 20
-324.455078125
 97
        0
 97
        1
330
8F
 92
        1
 93
        1
 72
     4
 94
        3
 73
     0
 74
     0
 95
       44
 96
       40
 40
0.0
 40
0.0
 40
0.0
 40
0.0
 40
1.0
 40
1.0
 40
1.0
 40
2.0
 40
2.0
 40
2.0
 40
3.0
 40
3.0
 40
3.0
 40
4.0
 40
4.0
 40
4.0
 40
5.0
 40
5.0
 40
5.0
 40
6.0
 40
6.0
 40
6.0
 40
7.0
 40
7.0
 40
7.0
 40
8.0
 40
8.0
 40
8.0
 40
9.0
 40
9.0
 40
9.0
 40
10.0
 40
10.0
 40
10.0
 40
11.0
 40
11.0
 40
11.0
 40
12.0
 40
12.0
 40
12.0
 40
13.0
 40
13.0
 40
13.0
 40
13.0
 10
242.251953125
 20
-324.455078125
 10
242.251953125
 20
-325.150390625
 10
242.19921875
 20
-325.771484375
 10
242.09375
 20
-326.318359375
 10
241.98828125
 20
-326.865234375
 10
241.822265625
 20
-327.328125
 10
241.595703125
 20
-327.70703125
 10
241.369140625
 20
-328.0859375
 10
241.076171875
 20
-328.3740234375
 10
240.716796875
 20
-328.5712890625
 10
240.357421875
 20
-328.7685546875
 10
239.92578125
 20
-328.8671875
 10
239.421875
 20
-328.8671875
 10
238.78515625
 20
-328.8671875
 10
238.2587890625
 20
-328.693359375
 10
237.8427734375
 20
-328.345703125
 10
237.4267578125
 20
-327.998046875
 10
237.1162109375
 20
-327.4951171875
 10
236.9111328125
 20
-326.8369140625
 10
236.7060546875
 20
-326.1787109375
 10
236.603515625
 20
-325.384765625
 10
236.603515625
 20
-324.455078125
 10
236.603515625
 20
-323.541015625
 10
236.6962890625
 20
-322.7548828125
 10
236.8818359375
 20
-322.0966796875
 10
237.0673828125
 20
-321.4384765625
 10
237.3671875
 20
-320.9326171875
 10
237.78125
 20
-320.5791015625
 10
238.1953125
 20
-320.2255859375
 10
238.7421875
 20
-320.048828125
 10
239.421875
 20
-320.048828125
 10
240.06640625
 20
-320.048828125
 10
240.59765625
 20
-320.2236328125
 10
241.015625
 20
-320.5732421875
 10
241.43359375
 20
-320.9228515625
 10
241.744140625
 20
-321.4267578125
 10
241.947265625
 20
-322.0849609375
 10
242.150390625
 20
-322.7431640625
 10
242.251953125
 20
-323.533203125
 10
242.251953125
 20
-324.455078125
 97
        0
 97
        1
330
90
 75
     2
 76
     1
 98
        1
 10
0.0
 20
0.0
450
        0
451
        0
460
0.0
461
0.0
452
        0
462
0.0
453
        0
470

  0
SPLINE
  5
92
330
8B
100
AcDbEntity
  8
Layer 1
100
AcDbSpline
210
0.0
220
0.0
230
1.0
 70
     9
 71
     3
 72
    83
 73
    79
 74
     0
 42
0.0000000001
 43
0.0000000001
 40
0.0
 40
0.0
 40
0.0
 40
0.0
 40
1.0
 40
1.0
 40
1.0
 40
2.0
 40
2.0
 40
2.0
 40
3.0
 40
3.0
 40
3.0
 40
4.0
 40
4.0
 40
4.0
 40
5.0
 40
5.0
 40
5.0
 40
6.0
 40
6.0
 40
6.0
 40
7.0
 40
7.0
 40
7.0
 40
8.0
 40
8.0
 40
8.0
 40
9.0
 40
9.0
 40
9.0
 40
10.0
 40
10.0
 40
10.0
 40
11.0
 40
11.0
 40
11.0
 40
12.0
 40
12.0
 40
12.0
 40
13.0
 40
13.0
 40
13.0
 40
14.0
 40
14.0
 40
14.0
 40
15.0
 40
15.0
 40
15.0
 40
16.0
 40
16.0
 40
16.0
 40
17.0
 40
17.0
 40
17.0
 40
18.0
 40
18.0
 40
18.0
 40
19.0
 40
19.0
 40
19.0
 40
20.0
 40
20.0
 40
20.0
 40
21.0
 40
21.0
 40
21.0
 40
22.0
 40
22.0
 40
22.0
 40
23.0
 40
23.0
 40
23.0
 40
24.0
 40
24.0
 40
24.0
 40
25.0
 40
25.0
 40
25.0
 40
26.0
 40
26.0
 40
26.0
 40
26.0
 10
246.16015625
 20
-323.51171875
 30
0.0
 10
246.7421875
 20
-323.51171875
 30
0.0
 10
247.248046875
 20
-323.6103515625
 30
0.0
 10
247.677734375
 20
-323.8076171875
 30
0.0
 10
248.107421875
 20
-324.0048828125
 30
0.0
 10
248.4404296875
 20
-324.291015625
 30
0.0
 10
248.6767578125
 20
-324.666015625
 30
0.0
 10
248.9130859375
 20
-325.041015625
 30
0.0
 10
249.03125
 20
-325.49609375
 30
0.0
 10
249.03125
 20
-326.03125
 30
0.0
 10
249.03125
 20
-326.6171875
 30
0.0
 10
248.904296875
 20
-327.1220703125
 30
0.0
 10
248.650390625
 20
-327.5458984375
 30
0.0
 10
248.396484375
 20
-327.9697265625
 30
0.0
 10
248.03125
 20
-328.2958984375
 30
0.0
 10
247.5546875
 20
-328.5244140625
 30
0.0
 10
247.078125
 20
-328.7529296875
 30
0.0
 10
246.5078125
 20
-328.8671875
 30
0.0
 10
245.84375
 20
-328.8671875
 30
0.0
 10
245.3984375
 20
-328.8671875
 30
0.0
 10
244.984375
 20
-328.828125
 30
0.0
 10
244.6015625
 20
-328.75
 30
0.0
 10
244.21875
 20
-328.671875
 30
0.0
 10
243.896484375
 20
-328.5546875
 30
0.0
 10
243.634765625
 20
-328.3984375
 30
0.0
 10
243.634765625
 20
-328.3984375
 30
0.0
 10
243.634765625
 20
-327.47265625
 30
0.0
 10
243.634765625
 20
-327.47265625
 30
0.0
 10
243.919921875
 20
-327.64453125
 30
0.0
 10
244.265625
 20
-327.78125
 30
0.0
 10
244.671875
 20
-327.8828125
 30
0.0
 10
245.078125
 20
-327.984375
 30
0.0
 10
245.47265625
 20
-328.03515625
 30
0.0
 10
245.85546875
 20
-328.03515625
 30
0.0
 10
246.2890625
 20
-328.03515625
 30
0.0
 10
246.6689453125
 20
-327.9658203125
 30
0.0
 10
246.9951171875
 20
-327.8271484375
 30
0.0
 10
247.3212890625
 20
-327.6884765625
 30
0.0
 10
247.5751953125
 20
-327.4775390625
 30
0.0
 10
247.7568359375
 20
-327.1943359375
 30
0.0
 10
247.9384765625
 20
-326.9111328125
 30
0.0
 10
248.029296875
 20
-326.5546875
 30
0.0
 10
248.029296875
 20
-326.125
 30
0.0
 10
248.029296875
 20
-325.5546875
 30
0.0
 10
247.8544921875
 20
-325.1142578125
 30
0.0
 10
247.5048828125
 20
-324.8037109375
 30
0.0
 10
247.1552734375
 20
-324.4931640625
 30
0.0
 10
246.603515625
 20
-324.337890625
 30
0.0
 10
245.849609375
 20
-324.337890625
 30
0.0
 10
245.607421875
 20
-324.337890625
 30
0.0
 10
245.341796875
 20
-324.357421875
 30
0.0
 10
245.052734375
 20
-324.396484375
 30
0.0
 10
244.763671875
 20
-324.435546875
 30
0.0
 10
244.525390625
 20
-324.478515625
 30
0.0
 10
244.337890625
 20
-324.525390625
 30
0.0
 10
244.337890625
 20
-324.525390625
 30
0.0
 10
243.845703125
 20
-324.203125
 30
0.0
 10
243.845703125
 20
-324.203125
 30
0.0
 10
243.845703125
 20
-324.203125
 30
0.0
 10
244.173828125
 20
-320.18359375
 30
0.0
 10
244.173828125
 20
-320.18359375
 30
0.0
 10
244.173828125
 20
-320.18359375
 30
0.0
 10
248.43359375
 20
-320.18359375
 30
0.0
 10
248.43359375
 20
-320.18359375
 30
0.0
 10
248.43359375
 20
-320.18359375
 30
0.0
 10
248.43359375
 20
-321.07421875
 30
0.0
 10
248.43359375
 20
-321.07421875
 30
0.0
 10
248.43359375
 20
-321.07421875
 30
0.0
 10
245.005859375
 20
-321.07421875
 30
0.0
 10
245.005859375
 20
-321.07421875
 30
0.0
 10
245.005859375
 20
-321.07421875
 30
0.0
 10
244.7890625
 20
-323.658203125
 30
0.0
 10
244.7890625
 20
-323.658203125
 30
0.0
 10
244.9375
 20
-323.626953125
 30
0.0
 10
245.12890625
 20
-323.5947265625
 30
0.0
 10
245.36328125
 20
-323.5615234375
 30
0.0
 10
245.59765625
 20
-323.5283203125
 30
0.0
 10
245.86328125
 20
-323.51171875
 30
0.0
 10
246.16015625
 20
-323.51171875
 30
0.0
  0
HATCH
  5
93
330
8B
100
AcDbEntity
  8
Layer 1
 62
   250
420
  2301728
440
 33554687
100
AcDbHatch
 10
0.0
 20
0.0
 30
0.0
210
0.0
220
0.0
230
1.0
  2
SOLID
 70
     1
 71
     1
 91
        1
 92
        1
 93
        1
 72
     4
 94
        3
 73
     0
 74
     0
 95
       83
 96
       79
 40
0.0
 40
0.0
 40
0.0
 40
0.0
 40
1.0
 40
1.0
 40
1.0
 40
2.0
 40
2.0
 40
2.0
 40
3.0
 40
3.0
 40
3.0
 40
4.0
 40
4.0
 40
4.0
 40
5.0
 40
5.0
 40
5.0
 40
6.0
 40
6.0
 40
6.0
 40
7.0
 40
7.0
 40
7.0
 40
8.0
 40
8.0
 40
8.0
 40
9.0
 40
9.0
 40
9.0
 40
10.0
 40
10.0
 40
10.0
 40
11.0
 40
11.0
 40
11.0
 40
12.0
 40
12.0
 40
12.0
 40
13.0
 40
13.0
 40
13.0
 40
14.0
 40
14.0
 40
14.0
 40
15.0
 40
15.0
 40
15.0
 40
16.0
 40
16.0
 40
16.0
 40
17.0
 40
17.0
 40
17.0
 40
18.0
 40
18.0
 40
18.0
 40
19.0
 40
19.0
 40
19.0
 40
20.0
 40
20.0
 40
20.0
 40
21.0
 40
21.0
 40
21.0
 40
22.0
 40
22.0
 40
22.0
 40
23.0
 40
23.0
 40
23.0
 40
24.0
 40
24.0
 40
24.0
 40
25.0
 40
25.0
 40
25.0
 40
26.0
 40
26.0
 40
26.0
 40
26.0
 10
246.16015625
 20
-323.51171875
 10
246.7421875
 20
-323.51171875
 10
247.248046875
 20
-323.6103515625
 10
247.677734375
 20
-323.8076171875
 10
248.107421875
 20
-324.0048828125
 10
248.4404296875
 20
-324.291015625
 10
248.6767578125
 20
-324.666015625
 10
248.9130859375
 20
-325.041015625
 10
249.03125
 20
-325.49609375
 10
249.03125
 20
-326.03125
 10
249.03125
 20
-326.6171875
 10
248.904296875
 20
-327.1220703125
 10
248.650390625
 20
-327.5458984375
 10
248.396484375
 20
-327.9697265625
 10
248.03125
 20
-328.2958984375
 10
247.5546875
 20
-328.5244140625
 10
247.078125
 20
-328.7529296875
 10
246.5078125
 20
-328.8671875
 10
245.84375
 20
-328.8671875
 10
245.3984375
 20
-328.8671875
 10
244.984375
 20
-328.828125
 10
244.6015625
 20
-328.75
 10
244.21875
 20
-328.671875
 10
243.896484375
 20
-328.5546875
 10
243.634765625
 20
-328.3984375
 10
243.634765625
 20
-328.3984375
 10
243.634765625
 20
-327.47265625
 10
243.634765625
 20
-327.47265625
 10
243.919921875
 20
-327.64453125
 10
244.265625
 20
-327.78125
 10
244.671875
 20
-327.8828125
 10
245.078125
 20
-327.984375
 10
245.47265625
 20
-328.03515625
 10
245.85546875
 20
-328.03515625
 10
246.2890625
 20
-328.03515625
 10
246.6689453125
 20
-327.9658203125
 10
246.9951171875
 20
-327.8271484375
 10
247.3212890625
 20
-327.6884765625
 10
247.5751953125
 20
-327.4775390625
 10
247.7568359375
 20
-327.1943359375
 10
247.9384765625
 20
-326.9111328125
 10
248.029296875
 20
-326.5546875
 10
248.029296875
 20
-326.125
 10
248.029296875
 20
-325.5546875
 10
247.8544921875
 20
-325.1142578125
 10
247.5048828125
 20
-324.8037109375
 10
247.1552734375
 20
-324.4931640625
 10
246.603515625
 20
-324.337890625
 10
245.849609375
 20
-324.337890625
 10
245.607421875
 20
-324.337890625
 10
245.341796875
 20
-324.357421875
 10
245.052734375
 20
-324.396484375
 10
244.763671875
 20
-324.435546875
 10
244.525390625
 20
-324.478515625
 10
244.337890625
 20
-324.525390625
 10
244.337890625
 20
-324.525390625
 10
243.845703125
 20
-324.203125
 10
243.845703125
 20
-324.203125
 10
243.845703125
 20
-324.203125
 10
244.173828125
 20
-320.18359375
 10
244.173828125
 20
-320.18359375
 10
244.173828125
 20
-320.18359375
 10
248.43359375
 20
-320.18359375
 10
248.43359375
 20
-320.18359375
 10
248.43359375
 20
-320.18359375
 10
248.43359375
 20
-321.07421875
 10
248.43359375
 20
-321.07421875
 10
248.43359375
 20
-321.07421875
 10
245.005859375
 20
-321.07421875
 10
245.005859375
 20
-321.07421875
 10
245.005859375
 20
-321.07421875
 10
244.7890625
 20
-323.658203125
 10
244.7890625
 20
-323.658203125
 10
244.9375
 20
-323.626953125
 10
245.12890625
 20
-323.5947265625
 10
245.36328125
 20
-323.5615234375
 10
245.59765625
 20
-323.5283203125
 10
245.86328125
 20
-323.51171875
 10
246.16015625
 20
-323.51171875
 97
        0
 97
        1
330
92
 75
     2
 76
     1
 98
        1
 10
0.0
 20
0.0
450
        0
451
        0
460
0.0
461
0.0
452
        0
462
0.0
453
        0
470

  0
SPLINE
  5
94
330
8B
100
AcDbEntity
  8
Layer 1
100
AcDbSpline
210
0.0
220
0.0
230
1.0
 70
     9
 71
     3
 72
    26
 73
    22
 74
     0
 42
0.0000000001
 43
0.0000000001
 40
0.0
 40
0.0
 40
0.0
 40
0.0
 40
1.0
 40
1.0
 40
1.0
 40
2.0
 40
2.0
 40
2.0
 40
3.0
 40
3.0
 40
3.0
 40
4.0
 40
4.0
 40
4.0
 40
5.0
 40
5.0
 40
5.0
 40
6.0
 40
6.0
 40
6.0
 40
7.0
 40
7.0
 40
7.0
 40
7.0
 10
253.150390625
 20
-321.044921875
 30
0.0
 10
253.150390625
 20
-321.044921875
 30
0.0
 10
251.890625
 20
-321.044921875
 30
0.0
 10
251.890625
 20
-321.044921875
 30
0.0
 10
251.890625
 20
-321.044921875
 30
0.0
 10
251.890625
 20
-324.33203125
 30
0.0
 10
251.890625
 20
-324.33203125
 30
0.0
 10
251.890625
 20
-324.33203125
 30
0.0
 10
253.25
 20
-324.33203125
 30
0.0
 10
253.25
 20
-324.33203125
 30
0.0
 10
253.94921875
 20
-324.33203125
 30
0.0
 10
254.4638671875
 20
-324.189453125
 30
0.0
 10
254.7939453125
 20
-323.904296875
 30
0.0
 10
255.1240234375
 20
-323.619140625
 30
0.0
 10
255.2890625
 20
-323.19921875
 30
0.0
 10
255.2890625
 20
-322.64453125
 30
0.0
 10
255.2890625
 20
-322.0625
 30
0.0
 10
255.1142578125
 20
-321.650390625
 30
0.0
 10
254.7646484375
 20
-321.408203125
 30
0.0
 10
254.4150390625
 20
-321.166015625
 30
0.0
 10
253.876953125
 20
-321.044921875
 30
0.0
 10
253.150390625
 20
-321.044921875
 30
0.0
  0
SPLINE
  5
95
330
8B
100
AcDbEntity
  8
Layer 1
100
AcDbSpline
210
0.0
220
0.0
230
1.0
 70
     9
 71
     3
 72
    47
 73
    43
 74
     0
 42
0.0000000001
 43
0.0000000001
 40
0.0
 40
0.0
 40
0.0
 40
0.0
 40
1.0
 40
1.0
 40
1.0
 40
2.0
 40
2.0
 40
2.0
 40
3.0
 40
3.0
 40
3.0
 40
4.0
 40
4.0
 40
4.0
 40
5.0
 40
5.0
 40
5.0
 40
6.0
 40
6.0
 40
6.0
 40
7.0
 40
7.0
 40
7.0
 40
8.0
 40
8.0
 40
8.0
 40
9.0
 40
9.0
 40
9.0
 40
10.0
 40
10.0
 40
10.0
 40
11.0
 40
11.0
 40
11.0
 40
12.0
 40
12.0
 40
12.0
 40
13.0
 40
13.0
 40
13.0
 40
14.0
 40
14.0
 40
14.0
 40
14.0
 10
253.208984375
 20
-320.18359375
 30
0.0
 10
253.912109375
 20
-320.18359375
 30
0.0
 10
254.4931640625
 20
-320.2705078125
 30
0.0
 10
254.9521484375
 20
-320.4443359375
 30
0.0
 10
255.4111328125
 20
-320.6181640625
 30
0.0
 10
255.75390625
 20
-320.8828125
 30
0.0
 10
255.98046875
 20
-321.23828125
 30
0.0
 10
256.20703125
 20
-321.59375
 30
0.0
 10
256.3203125
 20
-322.046875
 30
0.0
 10
256.3203125
 20
-322.59765625
 30
0.0
 10
256.3203125
 20
-323.05078125
 30
0.0
 10
256.23828125
 20
-323.4287109375
 30
0.0
 10
256.07421875
 20
-323.7314453125
 30
0.0
 10
255.91015625
 20
-324.0341796875
 30
0.0
 10
255.6953125
 20
-324.279296875
 30
0.0
 10
255.4296875
 20
-324.466796875
 30
0.0
 10
255.1640625
 20
-324.654296875
 30
0.0
 10
254.880859375
 20
-324.798828125
 30
0.0
 10
254.580078125
 20
-324.900390625
 30
0.0
 10
254.580078125
 20
-324.900390625
 30
0.0
 10
256.9296875
 20
-328.75
 30
0.0
 10
256.9296875
 20
-328.75
 30
0.0
 10
256.9296875
 20
-328.75
 30
0.0
 10
255.76953125
 20
-328.75
 30
0.0
 10
255.76953125
 20
-328.75
 30
0.0
 10
255.76953125
 20
-328.75
 30
0.0
 10
253.671875
 20
-325.17578125
 30
0.0
 10
253.671875
 20
-325.17578125
 30
0.0
 10
253.671875
 20
-325.17578125
 30
0.0
 10
251.890625
 20
-325.17578125
 30
0.0
 10
251.890625
 20
-325.17578125
 30
0.0
 10
251.890625
 20
-325.17578125
 30
0.0
 10
251.890625
 20
-328.75
 30
0.0
 10
251.890625
 20
-328.75
 30
0.0
 10
251.890625
 20
-328.75
 30
0.0
 10
250.89453125
 20
-328.75
 30
0.0
 10
250.89453125
 20
-328.75
 30
0.0
 10
250.89453125
 20
-328.75
 30
0.0
 10
250.89453125
 20
-320.18359375
 30
0.0
 10
250.89453125
 20
-320.18359375
 30
0.0
 10
250.89453125
 20
-320.18359375
 30
0.0
 10
253.208984375
 20
-320.18359375
 30
0.0
 10
253.208984375
 20
-320.18359375
 30
0.0
  0
HATCH
  5
96
330
8B
100
AcDbEntity
  8
Layer 1
 62
   250
420
  2301728
440
 33554687
100
AcDbHatch
 10
0.0
 20
0.0
 30
0.0
210
0.0
220
0.0
230
1.0
  2
SOLID
 70
     1
 71
     1
 91
        2
 92
        1
 93
        1
 72
     4
 94
        3
 73
     0
 74
     0
 95
       26
 96
       22
 40
0.0
 40
0.0
 40
0.0
 40
0.0
 40
1.0
 40
1.0
 40
1.0
 40
2.0
 40
2.0
 40
2.0
 40
3.0
 40
3.0
 40
3.0
 40
4.0
 40
4.0
 40
4.0
 40
5.0
 40
5.0
 40
5.0
 40
6.0
 40
6.0
 40
6.0
 40
7.0
 40
7.0
 40
7.0
 40
7.0
 10
253.150390625
 20
-321.044921875
 10
253.150390625
 20
-321.044921875
 10
251.890625
 20
-321.044921875
 10
251.890625
 20
-321.044921875
 10
251.890625
 20
-321.044921875
 10
251.890625
 20
-324.33203125
 10
251.890625
 20
-324.33203125
 10
251.890625
 20
-324.33203125
 10
253.25
 20
-324.33203125
 10
253.25
 20
-324.33203125
 10
253.94921875
 20
-324.33203125
 10
254.4638671875
 20
-324.189453125
 10
254.7939453125
 20
-323.904296875
 10
255.1240234375
 20
-323.619140625
 10
255.2890625
 20
-323.19921875
 10
255.2890625
 20
-322.64453125
 10
255.2890625
 20
-322.0625
 10
255.1142578125
 20
-321.650390625
 10
254.7646484375
 20
-321.408203125
 10
254.4150390625
 20
-321.166015625
 10
253.876953125
 20
-321.044921875
 10
253.150390625
 20
-321.044921875
 97
        0
 97
        1
330
94
 92
        1
 93
        1
 72
     4
 94
        3
 73
     0
 74
     0
 95
       47
 96
       43
 40
0.0
 40
0.0
 40
0.0
 40
0.0
 40
1.0
 40
1.0
 40
1.0
 40
2.0
 40
2.0
 40
2.0
 40
3.0
 40
3.0
 40
3.0
 40
4.0
 40
4.0
 40
4.0
 40
5.0
 40
5.0
 40
5.0
 40
6.0
 40
6.0
 40
6.0
 40
7.0
 40
7.0
 40
7.0
 40
8.0
 40
8.0
 40
8.0
 40
9.0
 40
9.0
 40
9.0
 40
10.0
 40
10.0
 40
10.0
 40
11.0
 40
11.0
 40
11.0
 40
12.0
 40
12.0
 40
12.0
 40
13.0
 40
13.0
 40
13.0
 40
14.0
 40
14.0
 40
14.0
 40
14.0
 10
253.208984375
 20
-320.18359375
 10
253.912109375
 20
-320.18359375
 10
254.4931640625
 20
-320.2705078125
 10
254.9521484375
 20
-320.4443359375
 10
255.4111328125
 20
-320.6181640625
 10
255.75390625
 20
-320.8828125
 10
255.98046875
 20
-321.23828125
 10
256.20703125
 20
-321.59375
 10
256.3203125
 20
-322.046875
 10
256.3203125
 20
-322.59765625
 10
256.3203125
 20
-323.05078125
 10
256.23828125
 20
-323.4287109375
 10
256.07421875
 20
-323.7314453125
 10
255.91015625
 20
-324.0341796875
 10
255.6953125
 20
-324.279296875
 10
255.4296875
 20
-324.466796875
 10
255.1640625
 20
-324.654296875
 10
254.880859375
 20
-324.798828125
 10
254.580078125
 20
-324.900390625
 10
254.580078125
 20
-324.900390625
 10
256.9296875
 20
-328.75
 10
256.9296875
 20
-328.75
 10
256.9296875
 20
-328.75
 10
255.76953125
 20
-328.75
 10
255.76953125
 20
-328.75
 10
255.76953125
 20
-328.75
 10
253.671875
 20
-325.17578125
 10
253.671875
 20
-325.17578125
 10
253.671875
 20
-325.17578125
 10
251.890625
 20
-325.17578125
 10
251.890625
 20
-325.17578125
 10
251.890625
 20
-325.17578125
 10
251.890625
 20
-328.75
 10
251.890625
 20
-328.75
 10
251.890625
 20
-328.75
 10
250.89453125
 20
-328.75
 10
250.89453125
 20
-328.75
 10
250.89453125
 20
-328.75
 10
250.89453125
 20
-320.18359375
 10
250.89453125
 20
-320.18359375
 10
250.89453125
 20
-320.18359375
 10
253.208984375
 20
-320.18359375
 10
253.208984375
 20
-320.18359375
 97
        0
 97
        1
330
95
 75
     2
 76
     1
 98
        1
 10
0.0
 20
0.0
450
        0
451
        0
460
0.0
461
0.0
452
        0
462
0.0
453
        0
470

  0
ENDBLK
  5
8E
330
8B
100
AcDbEntity
  8
0
100
AcDbBlockEnd
  0
BLOCK
  5
99
330
97
100
AcDbEntity
  8
0
100
AcDbBlockBegin
  2
Block_4
 70
     0
 10
0.0
 20
0.0
 30
0.0
  3
Block_4
  1

  0
INSERT
  5
9C
330
97
100
AcDbEntity
  8
Layer 1
100
AcDbBlockReference
  2
Block_5
 10
0.0
 20
0.0
 30
0.0
  0
ENDBLK
  5
9A
330
97
100
AcDbEntity
  8
0
100
AcDbBlockEnd
  0
BLOCK
  5
9D
330
9B
100
AcDbEntity
  8
0
100
AcDbBlockBegin
  2
Block_5
 70
     0
 10
0.0
 20
0.0
 30
0.0
  3
Block_5
  1

  0
SPLINE
  5
9F
330
9B
100
AcDbEntity
  8
Layer 1
100
AcDbSpline
210
0.0
220
0.0
230
1.0
 70
    11
 71
     3
 72
    77
 73
    73
 74
     0
 42
0.0000000001
 43
0.0000000001
 40
0.0
 40
0.0
 40
0.0
 40
0.0
 40
1.0
 40
1.0
 40
1.0
 40
2.0
 40
2.0
 40
2.0
 40
3.0
 40
3.0
 40
3.0
 40
4.0
 40
4.0
 40
4.0
 40
5.0
 40
5.0
 40
5.0
 40
6.0
 40
6.0
 40
6.0
 40
7.0
 40
7.0
 40
7.0
 40
8.0
 40
8.0
 40
8.0
 40
9.0
 40
9.0
 40
9.0
 40
10.0
 40
10.0
 40
10.0
 40
11.0
 40
11.0
 40
11.0
 40
12.0
 40
12.0
 40
12.0
 40
13.0
 40
13.0
 40
13.0
 40
14.0
 40
14.0
 40
14.0
 40
15.0
 40
15.0
 40
15.0
 40
16.0
 40
16.0
 40
16.0
 40
17.0
 40
17.0
 40
17.0
 40
18.0
 40
18.0
 40
18.0
 40
19.0
 40
19.0
 40
19.0
 40
20.0
 40
20.0
 40
20.0
 40
21.0
 40
21.0
 40
21.0
 40
22.0
 40
22.0
 40
22.0
 40
23.0
 40
23.0
 40
23.0
 40
24.0
 40
24.0
 40
24.0
 40
24.0
 10
220.28271484375
 20
-341.5400390625
 30
0.0
 10
220.28271484375
 20
-341.5400390625
 30
0.0
 10
214.66943359375
 20
-341.5400390625
 30
0.0
 10
214.66943359375
 20
-341.5400390625
 30
0.0
 10
214.66943359375
 20
-341.5400390625
 30
0.0
 10
214.66943359375
 20
-340.7255859375
 30
0.0
 10
214.66943359375
 20
-340.7255859375
 30
0.0
 10
214.66943359375
 20
-340.7255859375
 30
0.0
 10
216.96044921875
 20
-338.3994140625
 30
0.0
 10
216.96044921875
 20
-338.3994140625
 30
0.0
 10
217.38623046875
 20
-337.9697265625
 30
0.0
 10
217.74462890625
 20
-337.5869140625
 30
0.0
 10
218.03564453125
 20
-337.2509765625
 30
0.0
 10
218.32666015625
 20
-336.9150390625
 30
0.0
 10
218.54833984375
 20
-336.583984375
 30
0.0
 10
218.70068359375
 20
-336.2578125
 30
0.0
 10
218.85302734375
 20
-335.931640625
 30
0.0
 10
218.92919921875
 20
-335.5732421875
 30
0.0
 10
218.92919921875
 20
-335.1826171875
 30
0.0
 10
218.92919921875
 20
-334.6982421875
 30
0.0
 10
218.78564453125
 20
-334.328125
 30
0.0
 10
218.49853515625
 20
-334.072265625
 30
0.0
 10
218.21142578125
 20
-333.81640625
 30
0.0
 10
217.83349609375
 20
-333.6884765625
 30
0.0
 10
217.36474609375
 20
-333.6884765625
 30
0.0
 10
216.95458984375
 20
-333.6884765625
 30
0.0
 10
216.59130859375
 20
-333.7587890625
 30
0.0
 10
216.27490234375
 20
-333.8994140625
 30
0.0
 10
215.95849609375
 20
-334.0400390625
 30
0.0
 10
215.63427734375
 20
-334.2392578125
 30
0.0
 10
215.30224609375
 20
-334.4970703125
 30
0.0
 10
215.30224609375
 20
-334.4970703125
 30
0.0
 10
214.78076171875
 20
-333.8408203125
 30
0.0
 10
214.78076171875
 20
-333.8408203125
 30
0.0
 10
215.00732421875
 20
-333.6494140625
 30
0.0
 10
215.25439453125
 20
-333.4794921875
 30
0.0
 10
215.52197265625
 20
-333.3310546875
 30
0.0
 10
215.78955078125
 20
-333.1826171875
 30
0.0
 10
216.07666015625
 20
-333.0654296875
 30
0.0
 10
216.38330078125
 20
-332.9794921875
 30
0.0
 10
216.68994140625
 20
-332.8935546875
 30
0.0
 10
217.01708984375
 20
-332.8505859375
 30
0.0
 10
217.36474609375
 20
-332.8505859375
 30
0.0
 10
217.89208984375
 20
-332.8505859375
 30
0.0
 10
218.34716796875
 20
-332.9423828125
 30
0.0
 10
218.72998046875
 20
-333.1259765625
 30
0.0
 10
219.11279296875
 20
-333.3095703125
 30
0.0
 10
219.40869140625
 20
-333.5712890625
 30
0.0
 10
219.61767578125
 20
-333.9111328125
 30
0.0
 10
219.82666015625
 20
-334.2509765625
 30
0.0
 10
219.93115234375
 20
-334.6552734375
 30
0.0
 10
219.93115234375
 20
-335.1240234375
 30
0.0
 10
219.93115234375
 20
-335.5771484375
 30
0.0
 10
219.84130859375
 20
-335.998046875
 30
0.0
 10
219.66162109375
 20
-336.38671875
 30
0.0
 10
219.48193359375
 20
-336.775390625
 30
0.0
 10
219.22998046875
 20
-337.16015625
 30
0.0
 10
218.90576171875
 20
-337.541015625
 30
0.0
 10
218.58154296875
 20
-337.921875
 30
0.0
 10
218.20263671875
 20
-338.3251953125
 30
0.0
 10
217.76904296875
 20
-338.7509765625
 30
0.0
 10
217.76904296875
 20
-338.7509765625
 30
0.0
 10
215.90576171875
 20
-340.6083984375
 30
0.0
 10
215.90576171875
 20
-340.6083984375
 30
0.0
 10
215.90576171875
 20
-340.6083984375
 30
0.0
 10
215.90576171875
 20
-340.6494140625
 30
0.0
 10
215.90576171875
 20
-340.6494140625
 30
0.0
 10
215.90576171875
 20
-340.6494140625
 30
0.0
 10
220.28271484375
 20
-340.6494140625
 30
0.0
 10
220.28271484375
 20
-340.6494140625
 30
0.0
 10
220.28271484375
 20
-340.6494140625
 30
0.0
 10
220.28271484375
 20
-341.5400390625
 30
0.0
 10
220.28271484375
 20
-341.5400390625
 30
0.0
  0
HATCH
  5
A0
330
9B
100
AcDbEntity
  8
Layer 1
 62
   250
420
  2301728
440
 33554687
100
AcDbHatch
 10
0.0
 20
0.0
 30
0.0
210
0.0
220
0.0
230
1.0
  2
SOLID
 70
     1
 71
     1
 91
        1
 92
        1
 93
        1
 72
     4
 94
        3
 73
     0
 74
     0
 95
       77
 96
       73
 40
0.0
 40
0.0
 40
0.0
 40
0.0
 40
1.0
 40
1.0
 40
1.0
 40
2.0
 40
2.0
 40
2.0
 40
3.0
 40
3.0
 40
3.0
 40
4.0
 40
4.0
 40
4.0
 40
5.0
 40
5.0
 40
5.0
 40
6.0
 40
6.0
 40
6.0
 40
7.0
 40
7.0
 40
7.0
 40
8.0
 40
8.0
 40
8.0
 40
9.0
 40
9.0
 40
9.0
 40
10.0
 40
10.0
 40
10.0
 40
11.0
 40
11.0
 40
11.0
 40
12.0
 40
12.0
 40
12.0
 40
13.0
 40
13.0
 40
13.0
 40
14.0
 40
14.0
 40
14.0
 40
15.0
 40
15.0
 40
15.0
 40
16.0
 40
16.0
 40
16.0
 40
17.0
 40
17.0
 40
17.0
 40
18.0
 40
18.0
 40
18.0
 40
19.0
 40
19.0
 40
19.0
 40
20.0
 40
20.0
 40
20.0
 40
21.0
 40
21.0
 40
21.0
 40
22.0
 40
22.0
 40
22.0
 40
23.0
 40
23.0
 40
23.0
 40
24.0
 40
24.0
 40
24.0
 40
24.0
 10
220.28271484375
 20
-341.5400390625
 10
220.28271484375
 20
-341.5400390625
 10
214.66943359375
 20
-341.5400390625
 10
214.66943359375
 20
-341.5400390625
 10
214.66943359375
 20
-341.5400390625
 10
214.66943359375
 20
-340.7255859375
 10
214.66943359375
 20
-340.7255859375
 10
214.66943359375
 20
-340.7255859375
 10
216.96044921875
 20
-338.3994140625
 10
216.96044921875
 20
-338.3994140625
 10
217.38623046875
 20
-337.9697265625
 10
217.74462890625
 20
-337.5869140625
 10
218.03564453125
 20
-337.2509765625
 10
218.32666015625
 20
-336.9150390625
 10
218.54833984375
 20
-336.583984375
 10
218.70068359375
 20
-336.2578125
 10
218.85302734375
 20
-335.931640625
 10
218.92919921875
 20
-335.5732421875
 10
218.92919921875
 20
-335.1826171875
 10
218.92919921875
 20
-334.6982421875
 10
218.78564453125
 20
-334.328125
 10
218.49853515625
 20
-334.072265625
 10
218.21142578125
 20
-333.81640625
 10
217.83349609375
 20
-333.6884765625
 10
217.36474609375
 20
-333.6884765625
 10
216.95458984375
 20
-333.6884765625
 10
216.59130859375
 20
-333.7587890625
 10
216.27490234375
 20
-333.8994140625
 10
215.95849609375
 20
-334.0400390625
 10
215.63427734375
 20
-334.2392578125
 10
215.30224609375
 20
-334.4970703125
 10
215.30224609375
 20
-334.4970703125
 10
214.78076171875
 20
-333.8408203125
 10
214.78076171875
 20
-333.8408203125
 10
215.00732421875
 20
-333.6494140625
 10
215.25439453125
 20
-333.4794921875
 10
215.52197265625
 20
-333.3310546875
 10
215.78955078125
 20
-333.1826171875
 10
216.07666015625
 20
-333.0654296875
 10
216.38330078125
 20
-332.9794921875
 10
216.68994140625
 20
-332.8935546875
 10
217.01708984375
 20
-332.8505859375
 10
217.36474609375
 20
-332.8505859375
 10
217.89208984375
 20
-332.8505859375
 10
218.34716796875
 20
-332.9423828125
 10
218.72998046875
 20
-333.1259765625
 10
219.11279296875
 20
-333.3095703125
 10
219.40869140625
 20
-333.5712890625
 10
219.61767578125
 20
-333.9111328125
 10
219.82666015625
 20
-334.2509765625
 10
219.93115234375
 20
-334.6552734375
 10
219.93115234375
 20
-335.1240234375
 10
219.93115234375
 20
-335.5771484375
 10
219.84130859375
 20
-335.998046875
 10
219.66162109375
 20
-336.38671875
 10
219.48193359375
 20
-336.775390625
 10
219.22998046875
 20
-337.16015625
 10
218.90576171875
 20
-337.541015625
 10
218.58154296875
 20
-337.921875
 10
218.20263671875
 20
-338.3251953125
 10
217.76904296875
 20
-338.7509765625
 10
217.76904296875
 20
-338.7509765625
 10
215.90576171875
 20
-340.6083984375
 10
215.90576171875
 20
-340.6083984375
 10
215.90576171875
 20
-340.6083984375
 10
215.90576171875
 20
-340.6494140625
 10
215.90576171875
 20
-340.6494140625
 10
215.90576171875
 20
-340.6494140625
 10
220.28271484375
 20
-340.6494140625
 10
220.28271484375
 20
-340.6494140625
 10
220.28271484375
 20
-340.6494140625
 10
220.28271484375
 20
-341.5400390625
 10
220.28271484375
 20
-341.5400390625
 97
        0
 97
        1
330
9F
 75
     2
 76
     1
 98
        1
 10
0.0
 20
0.0
450
        0
451
        0
460
0.0
461
0.0
452
        0
462
0.0
453
        0
470

  0
SPLINE
  5
A1
330
9B
100
AcDbEntity
  8
Layer 1
100
AcDbSpline
210
0.0
220
0.0
230
1.0
 70
     9
 71
     3
 72
   110
 73
   106
 74
     0
 42
0.0000000001
 43
0.0000000001
 40
0.0
 40
0.0
 40
0.0
 40
0.0
 40
1.0
 40
1.0
 40
1.0
 40
2.0
 40
2.0
 40
2.0
 40
3.0
 40
3.0
 40
3.0
 40
4.0
 40
4.0
 40
4.0
 40
5.0
 40
5.0
 40
5.0
 40
6.0
 40
6.0
 40
6.0
 40
7.0
 40
7.0
 40
7.0
 40
8.0
 40
8.0
 40
8.0
 40
9.0
 40
9.0
 40
9.0
 40
10.0
 40
10.0
 40
10.0
 40
11.0
 40
11.0
 40
11.0
 40
12.0
 40
12.0
 40
12.0
 40
13.0
 40
13.0
 40
13.0
 40
14.0
 40
14.0
 40
14.0
 40
15.0
 40
15.0
 40
15.0
 40
16.0
 40
16.0
 40
16.0
 40
17.0
 40
17.0
 40
17.0
 40
18.0
 40
18.0
 40
18.0
 40
19.0
 40
19.0
 40
19.0
 40
20.0
 40
20.0
 40
20.0
 40
21.0
 40
21.0
 40
21.0
 40
22.0
 40
22.0
 40
22.0
 40
23.0
 40
23.0
 40
23.0
 40
24.0
 40
24.0
 40
24.0
 40
25.0
 40
25.0
 40
25.0
 40
26.0
 40
26.0
 40
26.0
 40
27.0
 40
27.0
 40
27.0
 40
28.0
 40
28.0
 40
28.0
 40
29.0
 40
29.0
 40
29.0
 40
30.0
 40
30.0
 40
30.0
 40
31.0
 40
31.0
 40
31.0
 40
32.0
 40
32.0
 40
32.0
 40
33.0
 40
33.0
 40
33.0
 40
34.0
 40
34.0
 40
34.0
 40
35.0
 40
35.0
 40
35.0
 40
35.0
 10
226.82763671875
 20
-334.9716796875
 30
0.0
 10
226.82763671875
 20
-335.3544921875
 30
0.0
 10
226.75341796875
 20
-335.6865234375
 30
0.0
 10
226.60498046875
 20
-335.9677734375
 30
0.0
 10
226.45654296875
 20
-336.2490234375
 30
0.0
 10
226.24951171875
 20
-336.478515625
 30
0.0
 10
225.98388671875
 20
-336.65625
 30
0.0
 10
225.71826171875
 20
-336.833984375
 30
0.0
 10
225.40576171875
 20
-336.9580078125
 30
0.0
 10
225.04638671875
 20
-337.0283203125
 30
0.0
 10
225.04638671875
 20
-337.0283203125
 30
0.0
 10
225.04638671875
 20
-337.0751953125
 30
0.0
 10
225.04638671875
 20
-337.0751953125
 30
0.0
 10
225.72607421875
 20
-337.1611328125
 30
0.0
 10
226.23681640625
 20
-337.3798828125
 30
0.0
 10
226.57861328125
 20
-337.7314453125
 30
0.0
 10
226.92041015625
 20
-338.0830078125
 30
0.0
 10
227.09130859375
 20
-338.5439453125
 30
0.0
 10
227.09130859375
 20
-339.1142578125
 30
0.0
 10
227.09130859375
 20
-339.6103515625
 30
0.0
 10
226.97509765625
 20
-340.0498046875
 30
0.0
 10
226.74267578125
 20
-340.4326171875
 30
0.0
 10
226.51025390625
 20
-340.8154296875
 30
0.0
 10
226.15478515625
 20
-341.115234375
 30
0.0
 10
225.67626953125
 20
-341.33203125
 30
0.0
 10
225.19775390625
 20
-341.548828125
 30
0.0
 10
224.58544921875
 20
-341.6572265625
 30
0.0
 10
223.83935546875
 20
-341.6572265625
 30
0.0
 10
223.38623046875
 20
-341.6572265625
 30
0.0
 10
222.96728515625
 20
-341.62109375
 30
0.0
 10
222.58251953125
 20
-341.548828125
 30
0.0
 10
222.19775390625
 20
-341.4765625
 30
0.0
 10
221.82958984375
 20
-341.3564453125
 30
0.0
 10
221.47802734375
 20
-341.1884765625
 30
0.0
 10
221.47802734375
 20
-341.1884765625
 30
0.0
 10
221.47802734375
 20
-340.2744140625
 30
0.0
 10
221.47802734375
 20
-340.2744140625
 30
0.0
 10
221.83349609375
 20
-340.4501953125
 30
0.0
 10
222.22021484375
 20
-340.587890625
 30
0.0
 10
222.63818359375
 20
-340.6875
 30
0.0
 10
223.05615234375
 20
-340.787109375
 30
0.0
 10
223.46044921875
 20
-340.8369140625
 30
0.0
 10
223.85107421875
 20
-340.8369140625
 30
0.0
 10
224.63232421875
 20
-340.8369140625
 30
0.0
 10
225.19677734375
 20
-340.681640625
 30
0.0
 10
225.54443359375
 20
-340.37109375
 30
0.0
 10
225.89208984375
 20
-340.060546875
 30
0.0
 10
226.06591796875
 20
-339.6357421875
 30
0.0
 10
226.06591796875
 20
-339.0966796875
 30
0.0
 10
226.06591796875
 20
-338.7255859375
 30
0.0
 10
225.96923828125
 20
-338.42578125
 30
0.0
 10
225.77587890625
 20
-338.197265625
 30
0.0
 10
225.58251953125
 20
-337.96875
 30
0.0
 10
225.30517578125
 20
-337.80078125
 30
0.0
 10
224.94384765625
 20
-337.693359375
 30
0.0
 10
224.58251953125
 20
-337.5859375
 30
0.0
 10
224.14794921875
 20
-337.5322265625
 30
0.0
 10
223.64013671875
 20
-337.5322265625
 30
0.0
 10
223.64013671875
 20
-337.5322265625
 30
0.0
 10
222.78466796875
 20
-337.5322265625
 30
0.0
 10
222.78466796875
 20
-337.5322265625
 30
0.0
 10
222.78466796875
 20
-337.5322265625
 30
0.0
 10
222.78466796875
 20
-336.7001953125
 30
0.0
 10
222.78466796875
 20
-336.7001953125
 30
0.0
 10
222.78466796875
 20
-336.7001953125
 30
0.0
 10
223.64599609375
 20
-336.7001953125
 30
0.0
 10
223.64599609375
 20
-336.7001953125
 30
0.0
 10
224.11083984375
 20
-336.7001953125
 30
0.0
 10
224.50537109375
 20
-336.6318359375
 30
0.0
 10
224.82958984375
 20
-336.4951171875
 30
0.0
 10
225.15380859375
 20
-336.3583984375
 30
0.0
 10
225.40087890625
 20
-336.166015625
 30
0.0
 10
225.57080078125
 20
-335.91796875
 30
0.0
 10
225.74072265625
 20
-335.669921875
 30
0.0
 10
225.82568359375
 20
-335.3759765625
 30
0.0
 10
225.82568359375
 20
-335.0361328125
 30
0.0
 10
225.82568359375
 20
-334.6025390625
 30
0.0
 10
225.68115234375
 20
-334.267578125
 30
0.0
 10
225.39208984375
 20
-334.03125
 30
0.0
 10
225.10302734375
 20
-333.794921875
 30
0.0
 10
224.71044921875
 20
-333.6767578125
 30
0.0
 10
224.21435546875
 20
-333.6767578125
 30
0.0
 10
223.90966796875
 20
-333.6767578125
 30
0.0
 10
223.63232421875
 20
-333.7080078125
 30
0.0
 10
223.38232421875
 20
-333.7705078125
 30
0.0
 10
223.13232421875
 20
-333.8330078125
 30
0.0
 10
222.89794921875
 20
-333.9189453125
 30
0.0
 10
222.67919921875
 20
-334.0283203125
 30
0.0
 10
222.46044921875
 20
-334.1376953125
 30
0.0
 10
222.24169921875
 20
-334.2646484375
 30
0.0
 10
222.02294921875
 20
-334.4091796875
 30
0.0
 10
222.02294921875
 20
-334.4091796875
 30
0.0
 10
221.53076171875
 20
-333.7412109375
 30
0.0
 10
221.53076171875
 20
-333.7412109375
 30
0.0
 10
221.84326171875
 20
-333.4990234375
 30
0.0
 10
222.22412109375
 20
-333.2900390625
 30
0.0
 10
222.67333984375
 20
-333.1142578125
 30
0.0
 10
223.12255859375
 20
-332.9384765625
 30
0.0
 10
223.63232421875
 20
-332.8505859375
 30
0.0
 10
224.20263671875
 20
-332.8505859375
 30
0.0
 10
225.07763671875
 20
-332.8505859375
 30
0.0
 10
225.73388671875
 20
-333.0498046875
 30
0.0
 10
226.17138671875
 20
-333.4482421875
 30
0.0
 10
226.60888671875
 20
-333.8466796875
 30
0.0
 10
226.82763671875
 20
-334.3544921875
 30
0.0
 10
226.82763671875
 20
-334.9716796875
 30
0.0
  0
HATCH
  5
A2
330
9B
100
AcDbEntity
  8
Layer 1
 62
   250
420
  2301728
440
 33554687
100
AcDbHatch
 10
0.0
 20
0.0
 30
0.0
210
0.0
220
0.0
230
1.0
  2
SOLID
 70
     1
 71
     1
 91
        1
 92
        1
 93
        1
 72
     4
 94
        3
 73
     0
 74
     0
 95
      110
 96
      106
 40
0.0
 40
0.0
 40
0.0
 40
0.0
 40
1.0
 40
1.0
 40
1.0
 40
2.0
 40
2.0
 40
2.0
 40
3.0
 40
3.0
 40
3.0
 40
4.0
 40
4.0
 40
4.0
 40
5.0
 40
5.0
 40
5.0
 40
6.0
 40
6.0
 40
6.0
 40
7.0
 40
7.0
 40
7.0
 40
8.0
 40
8.0
 40
8.0
 40
9.0
 40
9.0
 40
9.0
 40
10.0
 40
10.0
 40
10.0
 40
11.0
 40
11.0
 40
11.0
 40
12.0
 40
12.0
 40
12.0
 40
13.0
 40
13.0
 40
13.0
 40
14.0
 40
14.0
 40
14.0
 40
15.0
 40
15.0
 40
15.0
 40
16.0
 40
16.0
 40
16.0
 40
17.0
 40
17.0
 40
17.0
 40
18.0
 40
18.0
 40
18.0
 40
19.0
 40
19.0
 40
19.0
 40
20.0
 40
20.0
 40
20.0
 40
21.0
 40
21.0
 40
21.0
 40
22.0
 40
22.0
 40
22.0
 40
23.0
 40
23.0
 40
23.0
 40
24.0
 40
24.0
 40
24.0
 40
25.0
 40
25.0
 40
25.0
 40
26.0
 40
26.0
 40
26.0
 40
27.0
 40
27.0
 40
27.0
 40
28.0
 40
28.0
 40
28.0
 40
29.0
 40
29.0
 40
29.0
 40
30.0
 40
30.0
 40
30.0
 40
31.0
 40
31.0
 40
31.0
 40
32.0
 40
32.0
 40
32.0
 40
33.0
 40
33.0
 40
33.0
 40
34.0
 40
34.0
 40
34.0
 40
35.0
 40
35.0
 40
35.0
 40
35.0
 10
226.82763671875
 20
-334.9716796875
 10
226.82763671875
 20
-335.3544921875
 10
226.75341796875
 20
-335.6865234375
 10
226.60498046875
 20
-335.9677734375
 10
226.45654296875
 20
-336.2490234375
 10
226.24951171875
 20
-336.478515625
 10
225.98388671875
 20
-336.65625
 10
225.71826171875
 20
-336.833984375
 10
225.40576171875
 20
-336.9580078125
 10
225.04638671875
 20
-337.0283203125
 10
225.04638671875
 20
-337.0283203125
 10
225.04638671875
 20
-337.0751953125
 10
225.04638671875
 20
-337.0751953125
 10
225.72607421875
 20
-337.1611328125
 10
226.23681640625
 20
-337.3798828125
 10
226.57861328125
 20
-337.7314453125
 10
226.92041015625
 20
-338.0830078125
 10
227.09130859375
 20
-338.5439453125
 10
227.09130859375
 20
-339.1142578125
 10
227.09130859375
 20
-339.6103515625
 10
226.97509765625
 20
-340.0498046875
 10
226.74267578125
 20
-340.4326171875
 10
226.51025390625
 20
-340.8154296875
 10
226.15478515625
 20
-341.115234375
 10
225.67626953125
 20
-341.33203125
 10
225.19775390625
 20
-341.548828125
 10
224.58544921875
 20
-341.6572265625
 10
223.83935546875
 20
-341.6572265625
 10
223.38623046875
 20
-341.6572265625
 10
222.96728515625
 20
-341.62109375
 10
222.58251953125
 20
-341.548828125
 10
222.19775390625
 20
-341.4765625
 10
221.82958984375
 20
-341.3564453125
 10
221.47802734375
 20
-341.1884765625
 10
221.47802734375
 20
-341.1884765625
 10
221.47802734375
 20
-340.2744140625
 10
221.47802734375
 20
-340.2744140625
 10
221.83349609375
 20
-340.4501953125
 10
222.22021484375
 20
-340.587890625
 10
222.63818359375
 20
-340.6875
 10
223.05615234375
 20
-340.787109375
 10
223.46044921875
 20
-340.8369140625
 10
223.85107421875
 20
-340.8369140625
 10
224.63232421875
 20
-340.8369140625
 10
225.19677734375
 20
-340.681640625
 10
225.54443359375
 20
-340.37109375
 10
225.89208984375
 20
-340.060546875
 10
226.06591796875
 20
-339.6357421875
 10
226.06591796875
 20
-339.0966796875
 10
226.06591796875
 20
-338.7255859375
 10
225.96923828125
 20
-338.42578125
 10
225.77587890625
 20
-338.197265625
 10
225.58251953125
 20
-337.96875
 10
225.30517578125
 20
-337.80078125
 10
224.94384765625
 20
-337.693359375
 10
224.58251953125
 20
-337.5859375
 10
224.14794921875
 20
-337.5322265625
 10
223.64013671875
 20
-337.5322265625
 10
223.64013671875
 20
-337.5322265625
 10
222.78466796875
 20
-337.5322265625
 10
222.78466796875
 20
-337.5322265625
 10
222.78466796875
 20
-337.5322265625
 10
222.78466796875
 20
-336.7001953125
 10
222.78466796875
 20
-336.7001953125
 10
222.78466796875
 20
-336.7001953125
 10
223.64599609375
 20
-336.7001953125
 10
223.64599609375
 20
-336.7001953125
 10
224.11083984375
 20
-336.7001953125
 10
224.50537109375
 20
-336.6318359375
 10
224.82958984375
 20
-336.4951171875
 10
225.15380859375
 20
-336.3583984375
 10
225.40087890625
 20
-336.166015625
 10
225.57080078125
 20
-335.91796875
 10
225.74072265625
 20
-335.669921875
 10
225.82568359375
 20
-335.3759765625
 10
225.82568359375
 20
-335.0361328125
 10
225.82568359375
 20
-334.6025390625
 10
225.68115234375
 20
-334.267578125
 10
225.39208984375
 20
-334.03125
 10
225.10302734375
 20
-333.794921875
 10
224.71044921875
 20
-333.6767578125
 10
224.21435546875
 20
-333.6767578125
 10
223.90966796875
 20
-333.6767578125
 10
223.63232421875
 20
-333.7080078125
 10
223.38232421875
 20
-333.7705078125
 10
223.13232421875
 20
-333.8330078125
 10
222.89794921875
 20
-333.9189453125
 10
222.67919921875
 20
-334.0283203125
 10
222.46044921875
 20
-334.1376953125
 10
222.24169921875
 20
-334.2646484375
 10
222.02294921875
 20
-334.4091796875
 10
222.02294921875
 20
-334.4091796875
 10
221.53076171875
 20
-333.7412109375
 10
221.53076171875
 20
-333.7412109375
 10
221.84326171875
 20
-333.4990234375
 10
222.22412109375
 20
-333.2900390625
 10
222.67333984375
 20
-333.1142578125
 10
223.12255859375
 20
-332.9384765625
 10
223.63232421875
 20
-332.8505859375
 10
224.20263671875
 20
-332.8505859375
 10
225.07763671875
 20
-332.8505859375
 10
225.73388671875
 20
-333.0498046875
 10
226.17138671875
 20
-333.4482421875
 10
226.60888671875
 20
-333.8466796875
 10
226.82763671875
 20
-334.3544921875
 10
226.82763671875
 20
-334.9716796875
 97
        0
 97
        1
330
A1
 75
     2
 76
     1
 98
        1
 10
0.0
 20
0.0
450
        0
451
        0
460
0.0
461
0.0
452
        0
462
0.0
453
        0
470

  0
SPLINE
  5
A3
330
9B
100
AcDbEntity
  8
Layer 1
100
AcDbSpline
210
0.0
220
0.0
230
1.0
 70
     9
 71
     3
 72
    26
 73
    22
 74
     0
 42
0.0000000001
 43
0.0000000001
 40
0.0
 40
0.0
 40
0.0
 40
0.0
 40
1.0
 40
1.0
 40
1.0
 40
2.0
 40
2.0
 40
2.0
 40
3.0
 40
3.0
 40
3.0
 40
4.0
 40
4.0
 40
4.0
 40
5.0
 40
5.0
 40
5.0
 40
6.0
 40
6.0
 40
6.0
 40
7.0
 40
7.0
 40
7.0
 40
7.0
 10
231.22802734375
 20
-333.8349609375
 30
0.0
 10
231.22802734375
 20
-333.8349609375
 30
0.0
 10
229.96826171875
 20
-333.8349609375
 30
0.0
 10
229.96826171875
 20
-333.8349609375
 30
0.0
 10
229.96826171875
 20
-333.8349609375
 30
0.0
 10
229.96826171875
 20
-337.1220703125
 30
0.0
 10
229.96826171875
 20
-337.1220703125
 30
0.0
 10
229.96826171875
 20
-337.1220703125
 30
0.0
 10
231.32763671875
 20
-337.1220703125
 30
0.0
 10
231.32763671875
 20
-337.1220703125
 30
0.0
 10
232.02685546875
 20
-337.1220703125
 30
0.0
 10
232.54150390625
 20
-336.9794921875
 30
0.0
 10
232.87158203125
 20
-336.6943359375
 30
0.0
 10
233.20166015625
 20
-336.4091796875
 30
0.0
 10
233.36669921875
 20
-335.9892578125
 30
0.0
 10
233.36669921875
 20
-335.4345703125
 30
0.0
 10
233.36669921875
 20
-334.8525390625
 30
0.0
 10
233.19189453125
 20
-334.4404296875
 30
0.0
 10
232.84228515625
 20
-334.1982421875
 30
0.0
 10
232.49267578125
 20
-333.9560546875
 30
0.0
 10
231.95458984375
 20
-333.8349609375
 30
0.0
 10
231.22802734375
 20
-333.8349609375
 30
0.0
  0
SPLINE
  5
A4
330
9B
100
AcDbEntity
  8
Layer 1
100
AcDbSpline
210
0.0
220
0.0
230
1.0
 70
     9
 71
     3
 72
    47
 73
    43
 74
     0
 42
0.0000000001
 43
0.0000000001
 40
0.0
 40
0.0
 40
0.0
 40
0.0
 40
1.0
 40
1.0
 40
1.0
 40
2.0
 40
2.0
 40
2.0
 40
3.0
 40
3.0
 40
3.0
 40
4.0
 40
4.0
 40
4.0
 40
5.0
 40
5.0
 40
5.0
 40
6.0
 40
6.0
 40
6.0
 40
7.0
 40
7.0
 40
7.0
 40
8.0
 40
8.0
 40
8.0
 40
9.0
 40
9.0
 40
9.0
 40
10.0
 40
10.0
 40
10.0
 40
11.0
 40
11.0
 40
11.0
 40
12.0
 40
12.0
 40
12.0
 40
13.0
 40
13.0
 40
13.0
 40
14.0
 40
14.0
 40
14.0
 40
14.0
 10
231.28662109375
 20
-332.9736328125
 30
0.0
 10
231.98974609375
 20
-332.9736328125
 30
0.0
 10
232.57080078125
 20
-333.060546875
 30
0.0
 10
233.02978515625
 20
-333.234375
 30
0.0
 10
233.48876953125
 20
-333.408203125
 30
0.0
 10
233.83154296875
 20
-333.6728515625
 30
0.0
 10
234.05810546875
 20
-334.0283203125
 30
0.0
 10
234.28466796875
 20
-334.3837890625
 30
0.0
 10
234.39794921875
 20
-334.8369140625
 30
0.0
 10
234.39794921875
 20
-335.3876953125
 30
0.0
 10
234.39794921875
 20
-335.8408203125
 30
0.0
 10
234.31591796875
 20
-336.21875
 30
0.0
 10
234.15185546875
 20
-336.521484375
 30
0.0
 10
233.98779296875
 20
-336.82421875
 30
0.0
 10
233.77294921875
 20
-337.0693359375
 30
0.0
 10
233.50732421875
 20
-337.2568359375
 30
0.0
 10
233.24169921875
 20
-337.4443359375
 30
0.0
 10
232.95849609375
 20
-337.5888671875
 30
0.0
 10
232.65771484375
 20
-337.6904296875
 30
0.0
 10
232.65771484375
 20
-337.6904296875
 30
0.0
 10
235.00732421875
 20
-341.5400390625
 30
0.0
 10
235.00732421875
 20
-341.5400390625
 30
0.0
 10
235.00732421875
 20
-341.5400390625
 30
0.0
 10
233.84716796875
 20
-341.5400390625
 30
0.0
 10
233.84716796875
 20
-341.5400390625
 30
0.0
 10
233.84716796875
 20
-341.5400390625
 30
0.0
 10
231.74951171875
 20
-337.9658203125
 30
0.0
 10
231.74951171875
 20
-337.9658203125
 30
0.0
 10
231.74951171875
 20
-337.9658203125
 30
0.0
 10
229.96826171875
 20
-337.9658203125
 30
0.0
 10
229.96826171875
 20
-337.9658203125
 30
0.0
 10
229.96826171875
 20
-337.9658203125
 30
0.0
 10
229.96826171875
 20
-341.5400390625
 30
0.0
 10
229.96826171875
 20
-341.5400390625
 30
0.0
 10
229.96826171875
 20
-341.5400390625
 30
0.0
 10
228.97216796875
 20
-341.5400390625
 30
0.0
 10
228.97216796875
 20
-341.5400390625
 30
0.0
 10
228.97216796875
 20
-341.5400390625
 30
0.0
 10
228.97216796875
 20
-332.9736328125
 30
0.0
 10
228.97216796875
 20
-332.9736328125
 30
0.0
 10
228.97216796875
 20
-332.9736328125
 30
0.0
 10
231.28662109375
 20
-332.9736328125
 30
0.0
 10
231.28662109375
 20
-332.9736328125
 30
0.0
  0
HATCH
  5
A5
330
9B
100
AcDbEntity
  8
Layer 1
 62
   250
420
  2301728
440
 33554687
100
AcDbHatch
 10
0.0
 20
0.0
 30
0.0
210
0.0
220
0.0
230
1.0
  2
SOLID
 70
     1
 71
     1
 91
        2
 92
        1
 93
        1
 72
     4
 94
        3
 73
     0
 74
     0
 95
       26
 96
       22
 40
0.0
 40
0.0
 40
0.0
 40
0.0
 40
1.0
 40
1.0
 40
1.0
 40
2.0
 40
2.0
 40
2.0
 40
3.0
 40
3.0
 40
3.0
 40
4.0
 40
4.0
 40
4.0
 40
5.0
 40
5.0
 40
5.0
 40
6.0
 40
6.0
 40
6.0
 40
7.0
 40
7.0
 40
7.0
 40
7.0
 10
231.22802734375
 20
-333.8349609375
 10
231.22802734375
 20
-333.8349609375
 10
229.96826171875
 20
-333.8349609375
 10
229.96826171875
 20
-333.8349609375
 10
229.96826171875
 20
-333.8349609375
 10
229.96826171875
 20
-337.1220703125
 10
229.96826171875
 20
-337.1220703125
 10
229.96826171875
 20
-337.1220703125
 10
231.32763671875
 20
-337.1220703125
 10
231.32763671875
 20
-337.1220703125
 10
232.02685546875
 20
-337.1220703125
 10
232.54150390625
 20
-336.9794921875
 10
232.87158203125
 20
-336.6943359375
 10
233.20166015625
 20
-336.4091796875
 10
233.36669921875
 20
-335.9892578125
 10
233.36669921875
 20
-335.4345703125
 10
233.36669921875
 20
-334.8525390625
 10
233.19189453125
 20
-334.4404296875
 10
232.84228515625
 20
-334.1982421875
 10
232.49267578125
 20
-333.9560546875
 10
231.95458984375
 20
-333.8349609375
 10
231.22802734375
 20
-333.8349609375
 97
        0
 97
        1
330
A3
 92
        1
 93
        1
 72
     4
 94
        3
 73
     0
 74
     0
 95
       47
 96
       43
 40
0.0
 40
0.0
 40
0.0
 40
0.0
 40
1.0
 40
1.0
 40
1.0
 40
2.0
 40
2.0
 40
2.0
 40
3.0
 40
3.0
 40
3.0
 40
4.0
 40
4.0
 40
4.0
 40
5.0
 40
5.0
 40
5.0
 40
6.0
 40
6.0
 40
6.0
 40
7.0
 40
7.0
 40
7.0
 40
8.0
 40
8.0
 40
8.0
 40
9.0
 40
9.0
 40
9.0
 40
10.0
 40
10.0
 40
10.0
 40
11.0
 40
11.0
 40
11.0
 40
12.0
 40
12.0
 40
12.0
 40
13.0
 40
13.0
 40
13.0
 40
14.0
 40
14.0
 40
14.0
 40
14.0
 10
231.28662109375
 20
-332.9736328125
 10
231.98974609375
 20
-332.9736328125
 10
232.57080078125
 20
-333.060546875
 10
233.02978515625
 20
-333.234375
 10
233.48876953125
 20
-333.408203125
 10
233.83154296875
 20
-333.6728515625
 10
234.05810546875
 20
-334.0283203125
 10
234.28466796875
 20
-334.3837890625
 10
234.39794921875
 20
-334.8369140625
 10
234.39794921875
 20
-335.3876953125
 10
234.39794921875
 20
-335.8408203125
 10
234.31591796875
 20
-336.21875
 10
234.15185546875
 20
-336.521484375
 10
233.98779296875
 20
-336.82421875
 10
233.77294921875
 20
-337.0693359375
 10
233.50732421875
 20
-337.2568359375
 10
233.24169921875
 20
-337.4443359375
 10
232.95849609375
 20
-337.5888671875
 10
232.65771484375
 20
-337.6904296875
 10
232.65771484375
 20
-337.6904296875
 10
235.00732421875
 20
-341.5400390625
 10
235.00732421875
 20
-341.5400390625
 10
235.00732421875
 20
-341.5400390625
 10
233.84716796875
 20
-341.5400390625
 10
233.84716796875
 20
-341.5400390625
 10
233.84716796875
 20
-341.5400390625
 10
231.74951171875
 20
-337.9658203125
 10
231.74951171875
 20
-337.9658203125
 10
231.74951171875
 20
-337.9658203125
 10
229.96826171875
 20
-337.9658203125
 10
229.96826171875
 20
-337.9658203125
 10
229.96826171875
 20
-337.9658203125
 10
229.96826171875
 20
-341.5400390625
 10
229.96826171875
 20
-341.5400390625
 10
229.96826171875
 20
-341.5400390625
 10
228.97216796875
 20
-341.5400390625
 10
228.97216796875
 20
-341.5400390625
 10
228.97216796875
 20
-341.5400390625
 10
228.97216796875
 20
-332.9736328125
 10
228.97216796875
 20
-332.9736328125
 10
228.97216796875
 20
-332.9736328125
 10
231.28662109375
 20
-332.9736328125
 10
231.28662109375
 20
-332.9736328125
 97
        0
 97
        1
330
A4
 75
     2
 76
     1
 98
        1
 10
0.0
 20
0.0
450
        0
451
        0
460
0.0
461
0.0
452
        0
462
0.0
453
        0
470

  0
ENDBLK
  5
9E
330
9B
100
AcDbEntity
  8
0
100
AcDbBlockEnd
  0
BLOCK
  5
A8
330
A6
100
AcDbEntity
  8
0
100
AcDbBlockBegin
  2
Block_6
 70
     0
 10
0.0
 20
0.0
 30
0.0
  3
Block_6
  1

  0
INSERT
  5
AB
330
A6
100
AcDbEntity
  8
Layer 1
100
AcDbBlockReference
  2
Block_7
 10
0.0
 20
0.0
 30
0.0
  0
ENDBLK
  5
A9
330
A6
100
AcDbEntity
  8
0
100
AcDbBlockEnd
  0
BLOCK
  5
AC
330
AA
100
AcDbEntity
  8
0
100
AcDbBlockBegin
  2
Block_7
 70
     0
 10
0.0
 20
0.0
 30
0.0
  3
Block_7
  1

  0
SPLINE
  5
AE
330
AA
100
AcDbEntity
  8
Layer 1
100
AcDbSpline
210
0.0
220
0.0
230
1.0
 70
     9
 71
     3
 72
    41
 73
    37
 74
     0
 42
0.0000000001
 43
0.0000000001
 40
0.0
 40
0.0
 40
0.0
 40
0.0
 40
1.0
 40
1.0
 40
1.0
 40
2.0
 40
2.0
 40
2.0
 40
3.0
 40
3.0
 40
3.0
 40
4.0
 40
4.0
 40
4.0
 40
5.0
 40
5.0
 40
5.0
 40
6.0
 40
6.0
 40
6.0
 40
7.0
 40
7.0
 40
7.0
 40
8.0
 40
8.0
 40
8.0
 40
9.0
 40
9.0
 40
9.0
 40
10.0
 40
10.0
 40
10.0
 40
11.0
 40
11.0
 40
11.0
 40
12.0
 40
12.0
 40
12.0
 40
12.0
 10
237.7431640625
 20
-336.91162109375
 30
0.0
 10
237.7431640625
 20
-337.70849609375
 30
0.0
 10
237.8037109375
 20
-338.37255859375
 30
0.0
 10
237.9248046875
 20
-338.90380859375
 30
0.0
 10
238.0458984375
 20
-339.43505859375
 30
0.0
 10
238.2421875
 20
-339.83251953125
 30
0.0
 10
238.513671875
 20
-340.09619140625
 30
0.0
 10
238.78515625
 20
-340.35986328125
 30
0.0
 10
239.1416015625
 20
-340.49169921875
 30
0.0
 10
239.5830078125
 20
-340.49169921875
 30
0.0
 10
240.0244140625
 20
-340.49169921875
 30
0.0
 10
240.380859375
 20
-340.36083984375
 30
0.0
 10
240.65234375
 20
-340.09912109375
 30
0.0
 10
240.923828125
 20
-339.83740234375
 30
0.0
 10
241.12109375
 20
-339.44091796875
 30
0.0
 10
241.244140625
 20
-338.90966796875
 30
0.0
 10
241.3671875
 20
-338.37841796875
 30
0.0
 10
241.4287109375
 20
-337.71240234375
 30
0.0
 10
241.4287109375
 20
-336.91162109375
 30
0.0
 10
241.4287109375
 20
-336.12646484375
 30
0.0
 10
241.3681640625
 20
-335.46923828125
 30
0.0
 10
241.2470703125
 20
-334.93994140625
 30
0.0
 10
241.1259765625
 20
-334.41064453125
 30
0.0
 10
240.9306640625
 20
-334.01220703125
 30
0.0
 10
240.6611328125
 20
-333.74462890625
 30
0.0
 10
240.3916015625
 20
-333.47705078125
 30
0.0
 10
240.0322265625
 20
-333.34326171875
 30
0.0
 10
239.5830078125
 20
-333.34326171875
 30
0.0
 10
239.1337890625
 20
-333.34326171875
 30
0.0
 10
238.7744140625
 20
-333.47705078125
 30
0.0
 10
238.5048828125
 20
-333.74462890625
 30
0.0
 10
238.2353515625
 20
-334.01220703125
 30
0.0
 10
238.041015625
 20
-334.41064453125
 30
0.0
 10
237.921875
 20
-334.93994140625
 30
0.0
 10
237.802734375
 20
-335.46923828125
 30
0.0
 10
237.7431640625
 20
-336.12646484375
 30
0.0
 10
237.7431640625
 20
-336.91162109375
 30
0.0
  0
SPLINE
  5
AF
330
AA
100
AcDbEntity
  8
Layer 1
100
AcDbSpline
210
0.0
220
0.0
230
1.0
 70
     9
 71
     3
 72
    44
 73
    40
 74
     0
 42
0.0000000001
 43
0.0000000001
 40
0.0
 40
0.0
 40
0.0
 40
0.0
 40
1.0
 40
1.0
 40
1.0
 40
2.0
 40
2.0
 40
2.0
 40
3.0
 40
3.0
 40
3.0
 40
4.0
 40
4.0
 40
4.0
 40
5.0
 40
5.0
 40
5.0
 40
6.0
 40
6.0
 40
6.0
 40
7.0
 40
7.0
 40
7.0
 40
8.0
 40
8.0
 40
8.0
 40
9.0
 40
9.0
 40
9.0
 40
10.0
 40
10.0
 40
10.0
 40
11.0
 40
11.0
 40
11.0
 40
12.0
 40
12.0
 40
12.0
 40
13.0
 40
13.0
 40
13.0
 40
13.0
 10
242.4130859375
 20
-336.91162109375
 30
0.0
 10
242.4130859375
 20
-337.60693359375
 30
0.0
 10
242.3603515625
 20
-338.22802734375
 30
0.0
 10
242.2548828125
 20
-338.77490234375
 30
0.0
 10
242.1494140625
 20
-339.32177734375
 30
0.0
 10
241.9833984375
 20
-339.78466796875
 30
0.0
 10
241.7568359375
 20
-340.16357421875
 30
0.0
 10
241.5302734375
 20
-340.54248046875
 30
0.0
 10
241.2373046875
 20
-340.83056640625
 30
0.0
 10
240.8779296875
 20
-341.02783203125
 30
0.0
 10
240.5185546875
 20
-341.22509765625
 30
0.0
 10
240.0869140625
 20
-341.32373046875
 30
0.0
 10
239.5830078125
 20
-341.32373046875
 30
0.0
 10
238.9462890625
 20
-341.32373046875
 30
0.0
 10
238.419921875
 20
-341.14990234375
 30
0.0
 10
238.00390625
 20
-340.80224609375
 30
0.0
 10
237.587890625
 20
-340.45458984375
 30
0.0
 10
237.27734375
 20
-339.95166015625
 30
0.0
 10
237.072265625
 20
-339.29345703125
 30
0.0
 10
236.8671875
 20
-338.63525390625
 30
0.0
 10
236.7646484375
 20
-337.84130859375
 30
0.0
 10
236.7646484375
 20
-336.91162109375
 30
0.0
 10
236.7646484375
 20
-335.99755859375
 30
0.0
 10
236.857421875
 20
-335.21142578125
 30
0.0
 10
237.04296875
 20
-334.55322265625
 30
0.0
 10
237.228515625
 20
-333.89501953125
 30
0.0
 10
237.5283203125
 20
-333.38916015625
 30
0.0
 10
237.9423828125
 20
-333.03564453125
 30
0.0
 10
238.3564453125
 20
-332.68212890625
 30
0.0
 10
238.9033203125
 20
-332.50537109375
 30
0.0
 10
239.5830078125
 20
-332.50537109375
 30
0.0
 10
240.2275390625
 20
-332.50537109375
 30
0.0
 10
240.7587890625
 20
-332.68017578125
 30
0.0
 10
241.1767578125
 20
-333.02978515625
 30
0.0
 10
241.5947265625
 20
-333.37939453125
 30
0.0
 10
241.9052734375
 20
-333.88330078125
 30
0.0
 10
242.1083984375
 20
-334.54150390625
 30
0.0
 10
242.3115234375
 20
-335.19970703125
 30
0.0
 10
242.4130859375
 20
-335.98974609375
 30
0.0
 10
242.4130859375
 20
-336.91162109375
 30
0.0
  0
HATCH
  5
B0
330
AA
100
AcDbEntity
  8
Layer 1
 62
   250
420
  2301728
440
 33554687
100
AcDbHatch
 10
0.0
 20
0.0
 30
0.0
210
0.0
220
0.0
230
1.0
  2
SOLID
 70
     1
 71
     1
 91
        2
 92
        1
 93
        1
 72
     4
 94
        3
 73
     0
 74
     0
 95
       41
 96
       37
 40
0.0
 40
0.0
 40
0.0
 40
0.0
 40
1.0
 40
1.0
 40
1.0
 40
2.0
 40
2.0
 40
2.0
 40
3.0
 40
3.0
 40
3.0
 40
4.0
 40
4.0
 40
4.0
 40
5.0
 40
5.0
 40
5.0
 40
6.0
 40
6.0
 40
6.0
 40
7.0
 40
7.0
 40
7.0
 40
8.0
 40
8.0
 40
8.0
 40
9.0
 40
9.0
 40
9.0
 40
10.0
 40
10.0
 40
10.0
 40
11.0
 40
11.0
 40
11.0
 40
12.0
 40
12.0
 40
12.0
 40
12.0
 10
237.7431640625
 20
-336.91162109375
 10
237.7431640625
 20
-337.70849609375
 10
237.8037109375
 20
-338.37255859375
 10
237.9248046875
 20
-338.90380859375
 10
238.0458984375
 20
-339.43505859375
 10
238.2421875
 20
-339.83251953125
 10
238.513671875
 20
-340.09619140625
 10
238.78515625
 20
-340.35986328125
 10
239.1416015625
 20
-340.49169921875
 10
239.5830078125
 20
-340.49169921875
 10
240.0244140625
 20
-340.49169921875
 10
240.380859375
 20
-340.36083984375
 10
240.65234375
 20
-340.09912109375
 10
240.923828125
 20
-339.83740234375
 10
241.12109375
 20
-339.44091796875
 10
241.244140625
 20
-338.90966796875
 10
241.3671875
 20
-338.37841796875
 10
241.4287109375
 20
-337.71240234375
 10
241.4287109375
 20
-336.91162109375
 10
241.4287109375
 20
-336.12646484375
 10
241.3681640625
 20
-335.46923828125
 10
241.2470703125
 20
-334.93994140625
 10
241.1259765625
 20
-334.41064453125
 10
240.9306640625
 20
-334.01220703125
 10
240.6611328125
 20
-333.74462890625
 10
240.3916015625
 20
-333.47705078125
 10
240.0322265625
 20
-333.34326171875
 10
239.5830078125
 20
-333.34326171875
 10
239.1337890625
 20
-333.34326171875
 10
238.7744140625
 20
-333.47705078125
 10
238.5048828125
 20
-333.74462890625
 10
238.2353515625
 20
-334.01220703125
 10
238.041015625
 20
-334.41064453125
 10
237.921875
 20
-334.93994140625
 10
237.802734375
 20
-335.46923828125
 10
237.7431640625
 20
-336.12646484375
 10
237.7431640625
 20
-336.91162109375
 97
        0
 97
        1
330
AE
 92
        1
 93
        1
 72
     4
 94
        3
 73
     0
 74
     0
 95
       44
 96
       40
 40
0.0
 40
0.0
 40
0.0
 40
0.0
 40
1.0
 40
1.0
 40
1.0
 40
2.0
 40
2.0
 40
2.0
 40
3.0
 40
3.0
 40
3.0
 40
4.0
 40
4.0
 40
4.0
 40
5.0
 40
5.0
 40
5.0
 40
6.0
 40
6.0
 40
6.0
 40
7.0
 40
7.0
 40
7.0
 40
8.0
 40
8.0
 40
8.0
 40
9.0
 40
9.0
 40
9.0
 40
10.0
 40
10.0
 40
10.0
 40
11.0
 40
11.0
 40
11.0
 40
12.0
 40
12.0
 40
12.0
 40
13.0
 40
13.0
 40
13.0
 40
13.0
 10
242.4130859375
 20
-336.91162109375
 10
242.4130859375
 20
-337.60693359375
 10
242.3603515625
 20
-338.22802734375
 10
242.2548828125
 20
-338.77490234375
 10
242.1494140625
 20
-339.32177734375
 10
241.9833984375
 20
-339.78466796875
 10
241.7568359375
 20
-340.16357421875
 10
241.5302734375
 20
-340.54248046875
 10
241.2373046875
 20
-340.83056640625
 10
240.8779296875
 20
-341.02783203125
 10
240.5185546875
 20
-341.22509765625
 10
240.0869140625
 20
-341.32373046875
 10
239.5830078125
 20
-341.32373046875
 10
238.9462890625
 20
-341.32373046875
 10
238.419921875
 20
-341.14990234375
 10
238.00390625
 20
-340.80224609375
 10
237.587890625
 20
-340.45458984375
 10
237.27734375
 20
-339.95166015625
 10
237.072265625
 20
-339.29345703125
 10
236.8671875
 20
-338.63525390625
 10
236.7646484375
 20
-337.84130859375
 10
236.7646484375
 20
-336.91162109375
 10
236.7646484375
 20
-335.99755859375
 10
236.857421875
 20
-335.21142578125
 10
237.04296875
 20
-334.55322265625
 10
237.228515625
 20
-333.89501953125
 10
237.5283203125
 20
-333.38916015625
 10
237.9423828125
 20
-333.03564453125
 10
238.3564453125
 20
-332.68212890625
 10
238.9033203125
 20
-332.50537109375
 10
239.5830078125
 20
-332.50537109375
 10
240.2275390625
 20
-332.50537109375
 10
240.7587890625
 20
-332.68017578125
 10
241.1767578125
 20
-333.02978515625
 10
241.5947265625
 20
-333.37939453125
 10
241.9052734375
 20
-333.88330078125
 10
242.1083984375
 20
-334.54150390625
 10
242.3115234375
 20
-335.19970703125
 10
242.4130859375
 20
-335.98974609375
 10
242.4130859375
 20
-336.91162109375
 97
        0
 97
        1
330
AF
 75
     2
 76
     1
 98
        1
 10
0.0
 20
0.0
450
        0
451
        0
460
0.0
461
0.0
452
        0
462
0.0
453
        0
470

  0
SPLINE
  5
B1
330
AA
100
AcDbEntity
  8
Layer 1
100
AcDbSpline
210
0.0
220
0.0
230
1.0
 70
     9
 71
     3
 72
    83
 73
    79
 74
     0
 42
0.0000000001
 43
0.0000000001
 40
0.0
 40
0.0
 40
0.0
 40
0.0
 40
1.0
 40
1.0
 40
1.0
 40
2.0
 40
2.0
 40
2.0
 40
3.0
 40
3.0
 40
3.0
 40
4.0
 40
4.0
 40
4.0
 40
5.0
 40
5.0
 40
5.0
 40
6.0
 40
6.0
 40
6.0
 40
7.0
 40
7.0
 40
7.0
 40
8.0
 40
8.0
 40
8.0
 40
9.0
 40
9.0
 40
9.0
 40
10.0
 40
10.0
 40
10.0
 40
11.0
 40
11.0
 40
11.0
 40
12.0
 40
12.0
 40
12.0
 40
13.0
 40
13.0
 40
13.0
 40
14.0
 40
14.0
 40
14.0
 40
15.0
 40
15.0
 40
15.0
 40
16.0
 40
16.0
 40
16.0
 40
17.0
 40
17.0
 40
17.0
 40
18.0
 40
18.0
 40
18.0
 40
19.0
 40
19.0
 40
19.0
 40
20.0
 40
20.0
 40
20.0
 40
21.0
 40
21.0
 40
21.0
 40
22.0
 40
22.0
 40
22.0
 40
23.0
 40
23.0
 40
23.0
 40
24.0
 40
24.0
 40
24.0
 40
25.0
 40
25.0
 40
25.0
 40
26.0
 40
26.0
 40
26.0
 40
26.0
 10
246.3212890625
 20
-335.96826171875
 30
0.0
 10
246.9033203125
 20
-335.96826171875
 30
0.0
 10
247.4091796875
 20
-336.06689453125
 30
0.0
 10
247.8388671875
 20
-336.26416015625
 30
0.0
 10
248.2685546875
 20
-336.46142578125
 30
0.0
 10
248.6015625
 20
-336.74755859375
 30
0.0
 10
248.837890625
 20
-337.12255859375
 30
0.0
 10
249.07421875
 20
-337.49755859375
 30
0.0
 10
249.1923828125
 20
-337.95263671875
 30
0.0
 10
249.1923828125
 20
-338.48779296875
 30
0.0
 10
249.1923828125
 20
-339.07373046875
 30
0.0
 10
249.0654296875
 20
-339.57861328125
 30
0.0
 10
248.8115234375
 20
-340.00244140625
 30
0.0
 10
248.5576171875
 20
-340.42626953125
 30
0.0
 10
248.1923828125
 20
-340.75244140625
 30
0.0
 10
247.7158203125
 20
-340.98095703125
 30
0.0
 10
247.2392578125
 20
-341.20947265625
 30
0.0
 10
246.6689453125
 20
-341.32373046875
 30
0.0
 10
246.0048828125
 20
-341.32373046875
 30
0.0
 10
245.5595703125
 20
-341.32373046875
 30
0.0
 10
245.1455078125
 20
-341.28466796875
 30
0.0
 10
244.7626953125
 20
-341.20654296875
 30
0.0
 10
244.3798828125
 20
-341.12841796875
 30
0.0
 10
244.0576171875
 20
-341.01123046875
 30
0.0
 10
243.7958984375
 20
-340.85498046875
 30
0.0
 10
243.7958984375
 20
-340.85498046875
 30
0.0
 10
243.7958984375
 20
-339.92919921875
 30
0.0
 10
243.7958984375
 20
-339.92919921875
 30
0.0
 10
244.0810546875
 20
-340.10107421875
 30
0.0
 10
244.4267578125
 20
-340.23779296875
 30
0.0
 10
244.8330078125
 20
-340.33935546875
 30
0.0
 10
245.2392578125
 20
-340.44091796875
 30
0.0
 10
245.6337890625
 20
-340.49169921875
 30
0.0
 10
246.0166015625
 20
-340.49169921875
 30
0.0
 10
246.4501953125
 20
-340.49169921875
 30
0.0
 10
246.830078125
 20
-340.42236328125
 30
0.0
 10
247.15625
 20
-340.28369140625
 30
0.0
 10
247.482421875
 20
-340.14501953125
 30
0.0
 10
247.736328125
 20
-339.93408203125
 30
0.0
 10
247.91796875
 20
-339.65087890625
 30
0.0
 10
248.099609375
 20
-339.36767578125
 30
0.0
 10
248.1904296875
 20
-339.01123046875
 30
0.0
 10
248.1904296875
 20
-338.58154296875
 30
0.0
 10
248.1904296875
 20
-338.01123046875
 30
0.0
 10
248.015625
 20
-337.57080078125
 30
0.0
 10
247.666015625
 20
-337.26025390625
 30
0.0
 10
247.31640625
 20
-336.94970703125
 30
0.0
 10
246.7646484375
 20
-336.79443359375
 30
0.0
 10
246.0107421875
 20
-336.79443359375
 30
0.0
 10
245.7685546875
 20
-336.79443359375
 30
0.0
 10
245.5029296875
 20
-336.81396484375
 30
0.0
 10
245.2138671875
 20
-336.85302734375
 30
0.0
 10
244.9248046875
 20
-336.89208984375
 30
0.0
 10
244.6865234375
 20
-336.93505859375
 30
0.0
 10
244.4990234375
 20
-336.98193359375
 30
0.0
 10
244.4990234375
 20
-336.98193359375
 30
0.0
 10
244.0068359375
 20
-336.65966796875
 30
0.0
 10
244.0068359375
 20
-336.65966796875
 30
0.0
 10
244.0068359375
 20
-336.65966796875
 30
0.0
 10
244.3349609375
 20
-332.64013671875
 30
0.0
 10
244.3349609375
 20
-332.64013671875
 30
0.0
 10
244.3349609375
 20
-332.64013671875
 30
0.0
 10
248.5947265625
 20
-332.64013671875
 30
0.0
 10
248.5947265625
 20
-332.64013671875
 30
0.0
 10
248.5947265625
 20
-332.64013671875
 30
0.0
 10
248.5947265625
 20
-333.53076171875
 30
0.0
 10
248.5947265625
 20
-333.53076171875
 30
0.0
 10
248.5947265625
 20
-333.53076171875
 30
0.0
 10
245.1669921875
 20
-333.53076171875
 30
0.0
 10
245.1669921875
 20
-333.53076171875
 30
0.0
 10
245.1669921875
 20
-333.53076171875
 30
0.0
 10
244.9501953125
 20
-336.11474609375
 30
0.0
 10
244.9501953125
 20
-336.11474609375
 30
0.0
 10
245.0986328125
 20
-336.08349609375
 30
0.0
 10
245.2900390625
 20
-336.05126953125
 30
0.0
 10
245.5244140625
 20
-336.01806640625
 30
0.0
 10
245.7587890625
 20
-335.98486328125
 30
0.0
 10
246.0244140625
 20
-335.96826171875
 30
0.0
 10
246.3212890625
 20
-335.96826171875
 30
0.0
  0
HATCH
  5
B2
330
AA
100
AcDbEntity
  8
Layer 1
 62
   250
420
  2301728
440
 33554687
100
AcDbHatch
 10
0.0
 20
0.0
 30
0.0
210
0.0
220
0.0
230
1.0
  2
SOLID
 70
     1
 71
     1
 91
        1
 92
        1
 93
        1
 72
     4
 94
        3
 73
     0
 74
     0
 95
       83
 96
       79
 40
0.0
 40
0.0
 40
0.0
 40
0.0
 40
1.0
 40
1.0
 40
1.0
 40
2.0
 40
2.0
 40
2.0
 40
3.0
 40
3.0
 40
3.0
 40
4.0
 40
4.0
 40
4.0
 40
5.0
 40
5.0
 40
5.0
 40
6.0
 40
6.0
 40
6.0
 40
7.0
 40
7.0
 40
7.0
 40
8.0
 40
8.0
 40
8.0
 40
9.0
 40
9.0
 40
9.0
 40
10.0
 40
10.0
 40
10.0
 40
11.0
 40
11.0
 40
11.0
 40
12.0
 40
12.0
 40
12.0
 40
13.0
 40
13.0
 40
13.0
 40
14.0
 40
14.0
 40
14.0
 40
15.0
 40
15.0
 40
15.0
 40
16.0
 40
16.0
 40
16.0
 40
17.0
 40
17.0
 40
17.0
 40
18.0
 40
18.0
 40
18.0
 40
19.0
 40
19.0
 40
19.0
 40
20.0
 40
20.0
 40
20.0
 40
21.0
 40
21.0
 40
21.0
 40
22.0
 40
22.0
 40
22.0
 40
23.0
 40
23.0
 40
23.0
 40
24.0
 40
24.0
 40
24.0
 40
25.0
 40
25.0
 40
25.0
 40
26.0
 40
26.0
 40
26.0
 40
26.0
 10
246.3212890625
 20
-335.96826171875
 10
246.9033203125
 20
-335.96826171875
 10
247.4091796875
 20
-336.06689453125
 10
247.8388671875
 20
-336.26416015625
 10
248.2685546875
 20
-336.46142578125
 10
248.6015625
 20
-336.74755859375
 10
248.837890625
 20
-337.12255859375
 10
249.07421875
 20
-337.49755859375
 10
249.1923828125
 20
-337.95263671875
 10
249.1923828125
 20
-338.48779296875
 10
249.1923828125
 20
-339.07373046875
 10
249.0654296875
 20
-339.57861328125
 10
248.8115234375
 20
-340.00244140625
 10
248.5576171875
 20
-340.42626953125
 10
248.1923828125
 20
-340.75244140625
 10
247.7158203125
 20
-340.98095703125
 10
247.2392578125
 20
-341.20947265625
 10
246.6689453125
 20
-341.32373046875
 10
246.0048828125
 20
-341.32373046875
 10
245.5595703125
 20
-341.32373046875
 10
245.1455078125
 20
-341.28466796875
 10
244.7626953125
 20
-341.20654296875
 10
244.3798828125
 20
-341.12841796875
 10
244.0576171875
 20
-341.01123046875
 10
243.7958984375
 20
-340.85498046875
 10
243.7958984375
 20
-340.85498046875
 10
243.7958984375
 20
-339.92919921875
 10
243.7958984375
 20
-339.92919921875
 10
244.0810546875
 20
-340.10107421875
 10
244.4267578125
 20
-340.23779296875
 10
244.8330078125
 20
-340.33935546875
 10
245.2392578125
 20
-340.44091796875
 10
245.6337890625
 20
-340.49169921875
 10
246.0166015625
 20
-340.49169921875
 10
246.4501953125
 20
-340.49169921875
 10
246.830078125
 20
-340.42236328125
 10
247.15625
 20
-340.28369140625
 10
247.482421875
 20
-340.14501953125
 10
247.736328125
 20
-339.93408203125
 10
247.91796875
 20
-339.65087890625
 10
248.099609375
 20
-339.36767578125
 10
248.1904296875
 20
-339.01123046875
 10
248.1904296875
 20
-338.58154296875
 10
248.1904296875
 20
-338.01123046875
 10
248.015625
 20
-337.57080078125
 10
247.666015625
 20
-337.26025390625
 10
247.31640625
 20
-336.94970703125
 10
246.7646484375
 20
-336.79443359375
 10
246.0107421875
 20
-336.79443359375
 10
245.7685546875
 20
-336.79443359375
 10
245.5029296875
 20
-336.81396484375
 10
245.2138671875
 20
-336.85302734375
 10
244.9248046875
 20
-336.89208984375
 10
244.6865234375
 20
-336.93505859375
 10
244.4990234375
 20
-336.98193359375
 10
244.4990234375
 20
-336.98193359375
 10
244.0068359375
 20
-336.65966796875
 10
244.0068359375
 20
-336.65966796875
 10
244.0068359375
 20
-336.65966796875
 10
244.3349609375
 20
-332.64013671875
 10
244.3349609375
 20
-332.64013671875
 10
244.3349609375
 20
-332.64013671875
 10
248.5947265625
 20
-332.64013671875
 10
248.5947265625
 20
-332.64013671875
 10
248.5947265625
 20
-332.64013671875
 10
248.5947265625
 20
-333.53076171875
 10
248.5947265625
 20
-333.53076171875
 10
248.5947265625
 20
-333.53076171875
 10
245.1669921875
 20
-333.53076171875
 10
245.1669921875
 20
-333.53076171875
 10
245.1669921875
 20
-333.53076171875
 10
244.9501953125
 20
-336.11474609375
 10
244.9501953125
 20
-336.11474609375
 10
245.0986328125
 20
-336.08349609375
 10
245.2900390625
 20
-336.05126953125
 10
245.5244140625
 20
-336.01806640625
 10
245.7587890625
 20
-335.98486328125
 10
246.0244140625
 20
-335.96826171875
 10
246.3212890625
 20
-335.96826171875
 97
        0
 97
        1
330
B1
 75
     2
 76
     1
 98
        1
 10
0.0
 20
0.0
450
        0
451
        0
460
0.0
461
0.0
452
        0
462
0.0
453
        0
470

  0
SPLINE
  5
B3
330
AA
100
AcDbEntity
  8
Layer 1
100
AcDbSpline
210
0.0
220
0.0
230
1.0
 70
    11
 71
     3
 72
    23
 73
    19
 74
     0
 42
0.0000000001
 43
0.0000000001
 40
0.0
 40
0.0
 40
0.0
 40
0.0
 40
1.0
 40
1.0
 40
1.0
 40
2.0
 40
2.0
 40
2.0
 40
3.0
 40
3.0
 40
3.0
 40
4.0
 40
4.0
 40
4.0
 40
5.0
 40
5.0
 40
5.0
 40
6.0
 40
6.0
 40
6.0
 40
6.0
 10
251.0556640625
 20
-341.20654296875
 30
0.0
 10
251.0556640625
 20
-341.20654296875
 30
0.0
 10
251.0556640625
 20
-332.64013671875
 30
0.0
 10
251.0556640625
 20
-332.64013671875
 30
0.0
 10
251.0556640625
 20
-332.64013671875
 30
0.0
 10
252.0517578125
 20
-332.64013671875
 30
0.0
 10
252.0517578125
 20
-332.64013671875
 30
0.0
 10
252.0517578125
 20
-332.64013671875
 30
0.0
 10
252.0517578125
 20
-340.31591796875
 30
0.0
 10
252.0517578125
 20
-340.31591796875
 30
0.0
 10
252.0517578125
 20
-340.31591796875
 30
0.0
 10
255.8544921875
 20
-340.31591796875
 30
0.0
 10
255.8544921875
 20
-340.31591796875
 30
0.0
 10
255.8544921875
 20
-340.31591796875
 30
0.0
 10
255.8544921875
 20
-341.20654296875
 30
0.0
 10
255.8544921875
 20
-341.20654296875
 30
0.0
 10
255.8544921875
 20
-341.20654296875
 30
0.0
 10
251.0556640625
 20
-341.20654296875
 30
0.0
 10
251.0556640625
 20
-341.20654296875
 30
0.0
  0
HATCH
  5
B4
330
AA
100
AcDbEntity
  8
Layer 1
 62
   250
420
  2301728
440
 33554687
100
AcDbHatch
 10
0.0
 20
0.0
 30
0.0
210
0.0
220
0.0
230
1.0
  2
SOLID
 70
     1
 71
     1
 91
        1
 92
        1
 93
        1
 72
     4
 94
        3
 73
     0
 74
     0
 95
       23
 96
       19
 40
0.0
 40
0.0
 40
0.0
 40
0.0
 40
1.0
 40
1.0
 40
1.0
 40
2.0
 40
2.0
 40
2.0
 40
3.0
 40
3.0
 40
3.0
 40
4.0
 40
4.0
 40
4.0
 40
5.0
 40
5.0
 40
5.0
 40
6.0
 40
6.0
 40
6.0
 40
6.0
 10
251.0556640625
 20
-341.20654296875
 10
251.0556640625
 20
-341.20654296875
 10
251.0556640625
 20
-332.64013671875
 10
251.0556640625
 20
-332.64013671875
 10
251.0556640625
 20
-332.64013671875
 10
252.0517578125
 20
-332.64013671875
 10
252.0517578125
 20
-332.64013671875
 10
252.0517578125
 20
-332.64013671875
 10
252.0517578125
 20
-340.31591796875
 10
252.0517578125
 20
-340.31591796875
 10
252.0517578125
 20
-340.31591796875
 10
255.8544921875
 20
-340.31591796875
 10
255.8544921875
 20
-340.31591796875
 10
255.8544921875
 20
-340.31591796875
 10
255.8544921875
 20
-341.20654296875
 10
255.8544921875
 20
-341.20654296875
 10
255.8544921875
 20
-341.20654296875
 10
251.0556640625
 20
-341.20654296875
 10
251.0556640625
 20
-341.20654296875
 97
        0
 97
        1
330
B3
 75
     2
 76
     1
 98
        1
 10
0.0
 20
0.0
450
        0
451
        0
460
0.0
461
0.0
452
        0
462
0.0
453
        0
470

  0
ENDBLK
  5
AD
330
AA
100
AcDbEntity
  8
0
100
AcDbBlockEnd
  0
ENDSEC
  0
SECTION
  2
ENTITIES
  0
INSERT
  5
7A
330
70
100
AcDbEntity
  8
Layer 1
100
AcDbBlockReference
  2
Block_0
 10
0.0
 20
0.0
 30
0.0
  0
INSERT
  5
88
330
70
100
AcDbEntity
  8
Layer 1
100
AcDbBlockReference
  2
Block_2
 10
0.0
 20
0.0
 30
0.0
  0
INSERT
  5
98
330
70
100
AcDbEntity
  8
Layer 1
100
AcDbBlockReference
  2
Block_4
 10
0.0
 20
0.0
 30
0.0
  0
INSERT
  5
A7
330
70
100
AcDbEntity
  8
Layer 1
100
AcDbBlockReference
  2
Block_6
 10
0.0
 20
0.0
 30
0.0
  0
ENDSEC
  0
SECTION
  2
OBJECTS
  0
DICTIONARY
  5
C
330
0
100
AcDbDictionary
281
     1
  3
ACAD_COLOR
350
63
  3
ACAD_DETAILVIEWSTYLE
350
6A
  3
ACAD_GROUP
350
D
  3
ACAD_LAYOUT
350
62
  3
ACAD_MATERIAL
350
10
  3
ACAD_MLEADERSTYLE
350
66
  3
ACAD_MLINESTYLE
350
5F
  3
ACAD_PLOTSETTINGS
350
61
  3
ACAD_PLOTSTYLENAME
350
E
  3
ACAD_SCALELIST
350
42
  3
ACAD_SECTIONVIEWSTYLE
350
68
  3
ACAD_TABLESTYLE
350
64
  3
ACAD_VISUALSTYLE
350
29
  3
ACDB_RECOMPOSE_DATA
350
BD
  3
AcDbVariableDictionary
350
B5
  0
DICTIONARY
  5
63
102
{ACAD_REACTORS
330
C
102
}
330
C
100
AcDbDictionary
281
     1
  0
DICTIONARY
  5
6A
102
{ACAD_REACTORS
330
C
102
}
330
C
100
AcDbDictionary
281
     1
  3
Imperial24
350
6B
  0
DICTIONARY
  5
D
102
{ACAD_REACTORS
330
C
102
}
330
C
100
AcDbDictionary
281
     1
  0
DICTIONARY
  5
62
102
{ACAD_REACTORS
330
C
102
}
330
C
100
AcDbDictionary
281
     1
  3
Layout1
350
6F
  3
Layout2
350
77
  3
Model
350
73
  0
DICTIONARY
  5
10
102
{ACAD_REACTORS
330
C
102
}
330
C
100
AcDbDictionary
281
     1
  3
ByBlock
350
19
  3
ByLayer
350
11
  3
Global
350
21
  0
DICTIONARY
  5
66
102
{ACAD_REACTORS
330
C
102
}
330
C
100
AcDbDictionary
281
     1
  3
Standard
350
67
  0
DICTIONARY
  5
5F
102
{ACAD_REACTORS
330
C
102
}
330
C
100
AcDbDictionary
281
     1
  3
Standard
350
60
  0
DICTIONARY
  5
61
102
{ACAD_REACTORS
330
C
102
}
330
C
100
AcDbDictionary
281
     1
  0
ACDBDICTIONARYWDFLT
  5
E
102
{ACAD_REACTORS
330
C
102
}
330
C
100
AcDbDictionary
281
     1
  3
Normal
350
F
100
AcDbDictionaryWithDefault
340
F
  0
DICTIONARY
  5
42
102
{ACAD_REACTORS
330
C
102
}
330
C
100
AcDbDictionary
281
     1
  3
A0
350
43
  3
A1
350
44
  3
A2
350
45
  3
A3
350
46
  3
A4
350
47
  3
A5
350
48
  3
A6
350
49
  3
A7
350
4A
  3
A8
350
4B
  3
A9
350
4C
  3
B0
350
4D
  3
B1
350
4E
  3
B2
350
4F
  3
B3
350
50
  3
B4
350
51
  3
B5
350
52
  3
B6
350
53
  0
DICTIONARY
  5
68
102
{ACAD_REACTORS
330
C
102
}
330
C
100
AcDbDictionary
281
     1
  3
Imperial24
350
69
  0
DICTIONARY
  5
64
102
{ACAD_REACTORS
330
C
102
}
330
C
100
AcDbDictionary
281
     1
  3
Standard
350
65
  0
DICTIONARY
  5
29
102
{ACAD_REACTORS
330
C
102
}
330
C
100
AcDbDictionary
281
     1
  3
2dWireframe
350
2F
  3
Basic
350
2E
  3
Brighten
350
35
  3
ColorChange
350
39
  3
Conceptual
350
32
  3
Dim
350
34
  3
EdgeColorOff
350
41
  3
Facepattern
350
38
  3
Flat
350
2A
  3
FlatWithEdges
350
2B
  3
Gouraud
350
2C
  3
GouraudWithEdges
350
2D
  3
Hidden
350
31
  3
JitterOff
350
3F
  3
Linepattern
350
37
  3
OverhangOff
350
40
  3
Realistic
350
33
  3
Shaded
350
3E
  3
Shaded with edges
350
3D
  3
Shades of Gray
350
3A
  3
Sketchy
350
3B
  3
Thicken
350
36
  3
Wireframe
350
30
  3
X-Ray
350
3C
  0
XRECORD
  5
BD
102
{ACAD_REACTORS
330
C
102
}
330
C
100
AcDbXrecord
280
     1
 90
        1
330
65
  0
DICTIONARY
  5
B5
102
{ACAD_REACTORS
330
C
102
}
330
C
100
AcDbDictionary
281
     1
  3
CANNOSCALE
350
BA
  3
CMLEADERSTYLE
350
B7
  3
CTABLESTYLE
350
B6
  3
CVIEWDETAILSTYLE
350
B8
  3
CVIEWSECTIONSTYLE
350
B9
  0
ACDBDETAILVIEWSTYLE
  5
6B
102
{ACAD_REACTORS
330
6A
102
}
330
6A
100
AcDbModelDocViewStyle
 70
     0
  3
Imperial24
290
     1
300
Imperial24
 90
        0
100
AcDbDetailViewStyle
 70
     0
 71
     0
 90
        3
 71
     1
340
55
 62
   256
 40
0.24
340
0
 62
   256
 40
0.24
300

 40
0.36
280
     3
 71
     2
340
5D
 90
       25
 62
   256
 71
     3
340
55
 62
   256
 40
0.24
 90
        1
 40
0.75
 90
        1
300
%<\AcVar ViewType \f "%tc1">% %<\AcVar ViewDetailId>%\PSCALE %<\AcVar ViewScale \f "%sn">%
 71
     4
340
5D
 90
       25
 62
   256
340
5D
 90
       25
 62
   256
280
     0
  0
LAYOUT
  5
6F
102
{ACAD_REACTORS
330
62
102
}
330
62
100
AcDbPlotSettings
  1

  2

  4

  6

 40
0.0
 41
0.0
 42
0.0
 43
0.0
 44
0.0
 45
0.0
 46
0.0
 47
0.0
 48
0.0
 49
0.0
140
0.0
141
0.0
142
1.0
143
1.0
 70
   688
 72
     0
 73
     0
 74
     5
  7

 75
    16
147
1.0
 76
     0
 77
     2
 78
   300
148
0.0
149
0.0
100
AcDbLayout
  1
Layout1
 70
     1
 71
     1
 10
0.0
 20
0.0
 11
12.0
 21
9.0
 12
0.0
 22
0.0
 32
0.0
 14
0.0
 24
0.0
 34
0.0
 15
0.0
 25
0.0
 35
0.0
146
0.0
 13
0.0
 23
0.0
 33
0.0
 16
1.0
 26
0.0
 36
0.0
 17
0.0
 27
1.0
 37
0.0
 76
     0
330
6C
  0
LAYOUT
  5
77
102
{ACAD_REACTORS
330
62
102
}
330
62
100
AcDbPlotSettings
  1

  2

  4

  6

 40
0.0
 41
0.0
 42
0.0
 43
0.0
 44
0.0
 45
0.0
 46
0.0
 47
0.0
 48
0.0
 49
0.0
140
0.0
141
0.0
142
1.0
143
1.0
 70
   688
 72
     0
 73
     0
 74
     5
  7

 75
    16
147
1.0
 76
     0
 77
     2
 78
   300
148
0.0
149
0.0
100
AcDbLayout
  1
Layout2
 70
     1
 71
     2
 10
0.0
 20
0.0
 11
12.0
 21
9.0
 12
0.0
 22
0.0
 32
0.0
 14
0.0
 24
0.0
 34
0.0
 15
0.0
 25
0.0
 35
0.0
146
0.0
 13
0.0
 23
0.0
 33
0.0
 16
1.0
 26
0.0
 36
0.0
 17
0.0
 27
1.0
 37
0.0
 76
     0
330
74
  0
LAYOUT
  5
73
102
{ACAD_REACTORS
330
62
102
}
330
62
100
AcDbPlotSettings
  1

  2

  4

  6

 40
0.0
 41
0.0
 42
0.0
 43
0.0
 44
0.0
 45
0.0
 46
0.0
 47
0.0
 48
0.0
 49
0.0
140
0.0
141
0.0
142
1.0
143
1.0
 70
  1712
 72
     0
 73
     0
 74
     0
  7

 75
     0
147
1.0
 76
     0
 77
     2
 78
   300
148
0.0
149
0.0
100
AcDbLayout
  1
Model
 70
     1
 71
     0
 10
0.0
 20
0.0
 11
12.0
 21
9.0
 12
0.0
 22
0.0
 32
0.0
 14
0.0
 24
0.0
 34
0.0
 15
0.0
 25
0.0
 35
0.0
146
0.0
 13
0.0
 23
0.0
 33
0.0
 16
1.0
 26
0.0
 36
0.0
 17
0.0
 27
1.0
 37
0.0
 76
     0
330
70
  0
MATERIAL
  5
19
102
{ACAD_XDICTIONARY
360
1A
102
}
102
{ACAD_REACTORS
330
10
102
}
330
10
100
AcDbMaterial
  1
ByBlock
 72
     0
 43
0.0208333333333333
 43
0.0
 43
0.0
 43
0.0
 43
0.0
 43
0.0208333333333333
 43
0.0
 43
0.0
 43
0.0
 43
0.0
 43
1.0
 43
0.0
 43
0.0
 43
0.0
 43
0.0
 43
1.0
 77
     0
 47
0.0208333333333333
 47
0.0
 47
0.0
 47
0.0
 47
0.0
 47
0.0208333333333333
 47
0.0
 47
0.0
 47
0.0
 47
0.0
 47
1.0
 47
0.0
 47
0.0
 47
0.0
 47
0.0
 47
1.0
171
     0
 49
0.0208333333333333
 49
0.0
 49
0.0
 49
0.0
 49
0.0
 49
0.0208333333333333
 49
0.0
 49
0.0
 49
0.0
 49
0.0
 49
1.0
 49
0.0
 49
0.0
 49
0.0
 49
0.0
 49
1.0
175
     0
142
0.0208333333333333
142
0.0
142
0.0
142
0.0
142
0.0
142
0.0208333333333333
142
0.0
142
0.0
142
0.0
142
0.0
142
1.0
142
0.0
142
0.0
142
0.0
142
0.0
142
1.0
179
     0
144
0.0208333333333333
144
0.0
144
0.0
144
0.0
144
0.0
144
0.0208333333333333
144
0.0
144
0.0
144
0.0
144
0.0
144
1.0
144
0.0
144
0.0
144
0.0
144
0.0
144
1.0
147
0.0208333333333333
147
0.0
147
0.0
147
0.0
147
0.0
147
0.0208333333333333
147
0.0
147
0.0
147
0.0
147
0.0
147
1.0
147
0.0
147
0.0
147
0.0
147
0.0
147
1.0
  0
MATERIAL
  5
11
102
{ACAD_XDICTIONARY
360
12
102
}
102
{ACAD_REACTORS
330
10
102
}
330
10
100
AcDbMaterial
  1
ByLayer
 72
     0
 43
0.0208333333333333
 43
0.0
 43
0.0
 43
0.0
 43
0.0
 43
0.0208333333333333
 43
0.0
 43
0.0
 43
0.0
 43
0.0
 43
1.0
 43
0.0
 43
0.0
 43
0.0
 43
0.0
 43
1.0
 77
     0
 47
0.0208333333333333
 47
0.0
 47
0.0
 47
0.0
 47
0.0
 47
0.0208333333333333
 47
0.0
 47
0.0
 47
0.0
 47
0.0
 47
1.0
 47
0.0
 47
0.0
 47
0.0
 47
0.0
 47
1.0
171
     0
 49
0.0208333333333333
 49
0.0
 49
0.0
 49
0.0
 49
0.0
 49
0.0208333333333333
 49
0.0
 49
0.0
 49
0.0
 49
0.0
 49
1.0
 49
0.0
 49
0.0
 49
0.0
 49
0.0
 49
1.0
175
     0
142
0.0208333333333333
142
0.0
142
0.0
142
0.0
142
0.0
142
0.0208333333333333
142
0.0
142
0.0
142
0.0
142
0.0
142
1.0
142
0.0
142
0.0
142
0.0
142
0.0
142
1.0
179
     0
144
0.0208333333333333
144
0.0
144
0.0
144
0.0
144
0.0
144
0.0208333333333333
144
0.0
144
0.0
144
0.0
144
0.0
144
1.0
144
0.0
144
0.0
144
0.0
144
0.0
144
1.0
147
0.0208333333333333
147
0.0
147
0.0
147
0.0
147
0.0
147
0.0208333333333333
147
0.0
147
0.0
147
0.0
147
0.0
147
1.0
147
0.0
147
0.0
147
0.0
147
0.0
147
1.0
  0
MATERIAL
  5
21
102
{ACAD_XDICTIONARY
360
22
102
}
102
{ACAD_REACTORS
330
10
102
}
330
10
100
AcDbMaterial
  1
Global
 72
     0
 43
0.0208333333333333
 43
0.0
 43
0.0
 43
0.0
 43
0.0
 43
0.0208333333333333
 43
0.0
 43
0.0
 43
0.0
 43
0.0
 43
1.0
 43
0.0
 43
0.0
 43
0.0
 43
0.0
 43
1.0
 77
     0
 47
0.0208333333333333
 47
0.0
 47
0.0
 47
0.0
 47
0.0
 47
0.0208333333333333
 47
0.0
 47
0.0
 47
0.0
 47
0.0
 47
1.0
 47
0.0
 47
0.0
 47
0.0
 47
0.0
 47
1.0
171
     0
 49
0.0208333333333333
 49
0.0
 49
0.0
 49
0.0
 49
0.0
 49
0.0208333333333333
 49
0.0
 49
0.0
 49
0.0
 49
0.0
 49
1.0
 49
0.0
 49
0.0
 49
0.0
 49
0.0
 49
1.0
175
     0
142
0.0208333333333333
142
0.0
142
0.0
142
0.0
142
0.0
142
0.0208333333333333
142
0.0
142
0.0
142
0.0
142
0.0
142
1.0
142
0.0
142
0.0
142
0.0
142
0.0
142
1.0
179
     0
144
0.0208333333333333
144
0.0
144
0.0
144
0.0
144
0.0
144
0.0208333333333333
144
0.0
144
0.0
144
0.0
144
0.0
144
1.0
144
0.0
144
0.0
144
0.0
144
0.0
144
1.0
147
0.0208333333333333
147
0.0
147
0.0
147
0.0
147
0.0
147
0.0208333333333333
147
0.0
147
0.0
147
0.0
147
0.0
147
1.0
147
0.0
147
0.0
147
0.0
147
0.0
147
1.0
  0
MLEADERSTYLE
  5
67
102
{ACAD_REACTORS
330
66
102
}
330
66
100
AcDbMLeaderStyle
179
     2
170
     2
171
     1
172
     0
 90
        2
 40
0.0
 41
0.0
173
     1
 91
-1056964608
340
5B
 92
       -2
290
     1
 42
0.09
291
     1
 43
0.36
  3
Standard
 44
0.18
300

342
55
174
     1
178
     6
175
     1
176
     0
 93
-1056964608
 45
0.18
292
     0
297
     0
 46
0.18
 94
-1056964608
 47
1.0
 49
1.0
140
1.0
293
     1
141
0.0
294
     1
177
     0
142
1.0
295
     1
296
     0
143
0.125
271
     0
272
     9
273
     9
298
     1
  0
MLINESTYLE
  5
60
102
{ACAD_REACTORS
330
5F
102
}
330
5F
100
AcDbMlineStyle
  2
STANDARD
 70
     0
  3

 62
   256
 51
90.0
 52
90.0
 71
     2
 49
0.5
 62
   256
  6
BYLAYER
 49
-0.5
 62
   256
  6
BYLAYER
  0
ACDBPLACEHOLDER
  5
F
102
{ACAD_REACTORS
330
E
102
}
330
E
  0
SCALE
  5
43
102
{ACAD_REACTORS
330
42
102
}
330
42
100
AcDbScale
 70
     0
300
1:1
140
1.0
141
1.0
290
     1
  0
SCALE
  5
44
102
{ACAD_REACTORS
330
42
102
}
330
42
100
AcDbScale
 70
     0
300
1/128" = 1'-0"
140
0.0078125
141
12.0
290
     0
  0
SCALE
  5
45
102
{ACAD_REACTORS
330
42
102
}
330
42
100
AcDbScale
 70
     0
300
1/64" = 1'-0"
140
0.015625
141
12.0
290
     0
  0
SCALE
  5
46
102
{ACAD_REACTORS
330
42
102
}
330
42
100
AcDbScale
 70
     0
300
1/32" = 1'-0"
140
0.03125
141
12.0
290
     0
  0
SCALE
  5
47
102
{ACAD_REACTORS
330
42
102
}
330
42
100
AcDbScale
 70
     0
300
1/16" = 1'-0"
140
0.0625
141
12.0
290
     0
  0
SCALE
  5
48
102
{ACAD_REACTORS
330
42
102
}
330
42
100
AcDbScale
 70
     0
300
3/32" = 1'-0"
140
0.09375
141
12.0
290
     0
  0
SCALE
  5
49
102
{ACAD_REACTORS
330
42
102
}
330
42
100
AcDbScale
 70
     0
300
1/8" = 1'-0"
140
0.125
141
12.0
290
     0
  0
SCALE
  5
4A
102
{ACAD_REACTORS
330
42
102
}
330
42
100
AcDbScale
 70
     0
300
3/16" = 1'-0"
140
0.1875
141
12.0
290
     0
  0
SCALE
  5
4B
102
{ACAD_REACTORS
330
42
102
}
330
42
100
AcDbScale
 70
     0
300
1/4" = 1'-0"
140
0.25
141
12.0
290
     0
  0
SCALE
  5
4C
102
{ACAD_REACTORS
330
42
102
}
330
42
100
AcDbScale
 70
     0
300
3/8" = 1'-0"
140
0.375
141
12.0
290
     0
  0
SCALE
  5
4D
102
{ACAD_REACTORS
330
42
102
}
330
42
100
AcDbScale
 70
     0
300
1/2" = 1'-0"
140
0.5
141
12.0
290
     0
  0
SCALE
  5
4E
102
{ACAD_REACTORS
330
42
102
}
330
42
100
AcDbScale
 70
     0
300
3/4" = 1'-0"
140
0.75
141
12.0
290
     0
  0
SCALE
  5
4F
102
{ACAD_REACTORS
330
42
102
}
330
42
100
AcDbScale
 70
     0
300
1" = 1'-0"
140
1.0
141
12.0
290
     0
  0
SCALE
  5
50
102
{ACAD_REACTORS
330
42
102
}
330
42
100
AcDbScale
 70
     0
300
1-1/2" = 1'-0"
140
1.5
141
12.0
290
     0
  0
SCALE
  5
51
102
{ACAD_REACTORS
330
42
102
}
330
42
100
AcDbScale
 70
     0
300
3" = 1'-0"
140
3.0
141
12.0
290
     0
  0
SCALE
  5
52
102
{ACAD_REACTORS
330
42
102
}
330
42
100
AcDbScale
 70
     0
300
6" = 1'-0"
140
6.0
141
12.0
290
     0
  0
SCALE
  5
53
102
{ACAD_REACTORS
330
42
102
}
330
42
100
AcDbScale
 70
     0
300
1'-0" = 1'-0"
140
12.0
141
12.0
290
     0
  0
ACDBSECTIONVIEWSTYLE
  5
69
102
{ACAD_REACTORS
330
68
102
}
330
68
100
AcDbModelDocViewStyle
 70
     0
  3
Imperial24
290
     1
300
Imperial24
 90
        0
100
AcDbSectionViewStyle
 70
     0
 71
     0
 90
       78
 71
     1
340
55
 62
   256
 40
0.24
340
0
340
0
 62
   256
 40
0.24
300
I, O, Q, S, X, Z
 40
0.48
 90
        3
 40
0.18
 90
        1
 71
     2
340
5D
 90
       25
 62
   256
340
5D
 90
       50
 62
   256
 40
0.24
 40
0.0
 40
0.24
 71
     3
340
55
 62
   256
 40
0.24
 90
        1
 40
0.75
 90
        1
300
%<\AcVar ViewType \f "%tc1">% %<\AcVar ViewSectionStartId>%-%<\AcVar ViewSectionEndId>%\PSCALE %<\AcVar ViewScale \f "%sn">%
 71
     4
 62
   256
 62
   257
300
ANSI31
 40
1.0
 90
        0
290
     0
290
     0
 90
        6
 40
0.0
 40
1.570796326794896
 40
0.2617993877991494
 40
1.308996938995747
 40
-0.2617993877991494
 40
1.832595714594046
  0
TABLESTYLE
  5
65
102
{ACAD_XDICTIONARY
360
BB
102
}
102
{ACAD_REACTORS
330
64
102
}
330
64
100
AcDbTableStyle
280
     0
  3
Standard
 70
     0
 71
     0
 40
0.06
 41
0.06
280
     0
281
     0
  7
Standard
140
0.18
170
     2
 62
     0
 63
     7
283
     0
 90
      512
 91
        0
  1

274
    -2
284
     1
 64
     0
275
    -2
285
     1
 65
     0
276
    -2
286
     1
 66
     0
277
    -2
287
     1
 67
     0
278
    -2
288
     1
 68
     0
279
    -2
289
     1
 69
     0
  7
Standard
140
0.25
170
     5
 62
     0
 63
     7
283
     0
 90
      512
 91
        0
  1

274
    -2
284
     1
 64
     0
275
    -2
285
     1
 65
     0
276
    -2
286
     1
 66
     0
277
    -2
287
     1
 67
     0
278
    -2
288
     1
 68
     0
279
    -2
289
     1
 69
     0
  7
Standard
140
0.18
170
     5
 62
     0
 63
     7
283
     0
 90
      512
 91
        0
  1

274
    -2
284
     1
 64
     0
275
    -2
285
     1
 65
     0
276
    -2
286
     1
 66
     0
277
    -2
287
     1
 67
     0
278
    -2
288
     1
 68
     0
279
    -2
289
     1
 69
     0
  0
VISUALSTYLE
  5
2F
102
{ACAD_REACTORS
330
29
102
}
330
29
100
AcDbVisualStyle
  2
2dWireframe
 70
     4
177
     3
291
     0
 70
    58
 90
        0
176
     1
 90
        2
176
     1
 90
        0
176
     1
 90
        0
176
     1
 40
0.6
176
     1
 40
30.0
176
     1
 62
     7
420
 16777215
176
     1
 90
        1
176
     1
 90
        4
176
     1
 62
     7
176
     1
 62
   257
176
     1
 90
        1
176
     1
 90
        1
176
     1
 40
1.0
176
     1
 90
        0
176
     1
 62
   257
176
     1
 40
1.0
176
     1
 90
        1
176
     1
 90
        6
176
     1
 90
        2
176
     1
 62
     7
176
     1
 90
        5
176
     1
 90
        0
176
     1
 90
        0
176
     1
290
     0
176
     1
 90
        1
176
     1
 40
0.0
176
     1
 90
        0
176
     1
290
     1
176
     1
290
     1
176
     1
290
     0
176
     1
290
     0
176
     1
290
     0
176
     1
290
     0
176
     1
290
     0
176
     1
290
     0
176
     1
290
     0
176
     1
 90
       50
176
     1
 40
0.0
176
     1
 40
1.0
176
     1
 90
        0
176
     1
 62
    18
420
        0
176
     1
 90
       50
176
     1
 90
        3
176
     1
 62
     5
420
      255
176
     1
290
     0
176
     1
 90
       50
176
     1
 90
       50
176
     1
 90
       50
176
     1
290
     0
176
     1
 90
       50
176
     1
 62
   256
176
     0
 40
1.0
176
     0
 90
        2
176
     1
  1
strokes_ogs.tif
176
     1
290
     0
176
     1
 40
1.0
176
     1
 40
1.0
176
     1
  0
VISUALSTYLE
  5
2E
102
{ACAD_REACTORS
330
29
102
}
330
29
100
AcDbVisualStyle
  2
Basic
 70
     7
177
     3
291
     1
 70
    58
 90
        1
176
     1
 90
        0
176
     1
 90
        1
176
     1
 90
        0
176
     1
 40
0.6
176
     1
 40
30.0
176
     1
 62
     7
420
 16777215
176
     1
 90
        0
176
     1
 90
        4
176
     1
 62
     7
176
     1
 62
   257
176
     1
 90
        1
176
     1
 90
        1
176
     1
 40
1.0
176
     1
 90
        8
176
     1
 62
     7
176
     1
 40
1.0
176
     1
 90
        1
176
     1
 90
        6
176
     1
 90
        2
176
     1
 62
     7
176
     1
 90
        5
176
     1
 90
        0
176
     1
 90
        0
176
     1
290
     0
176
     1
 90
        1
176
     1
 40
0.0
176
     1
 90
        0
176
     1
290
     0
176
     1
290
     1
176
     1
290
     1
176
     1
290
     0
176
     1
290
     0
176
     1
290
     0
176
     1
290
     0
176
     1
290
     0
176
     1
290
     0
176
     1
 90
       50
176
     1
 40
0.0
176
     1
 40
1.0
176
     1
 90
        0
176
     1
 62
    18
420
        0
176
     1
 90
       50
176
     1
 90
        3
176
     1
 62
     5
420
      255
176
     1
290
     0
176
     1
 90
       50
176
     1
 90
       50
176
     1
 90
       50
176
     1
290
     0
176
     1
 90
       50
176
     1
 62
   256
176
     0
 40
1.0
176
     0
 90
        2
176
     1
  1
strokes_ogs.tif
176
     1
290
     0
176
     1
 40
1.0
176
     1
 40
1.0
176
     1
  0
VISUALSTYLE
  5
35
102
{ACAD_REACTORS
330
29
102
}
330
29
100
AcDbVisualStyle
  2
Brighten
 70
    12
177
     3
291
     1
 70
    58
 90
        2
176
     1
 90
        2
176
     1
 90
        0
176
     1
 90
        0
176
     1
 40
0.6
176
     1
 40
30.0
176
     1
 62
     7
420
 16777215
176
     1
 90
        1
176
     1
 90
        4
176
     1
 62
     7
176
     1
 62
   257
176
     1
 90
        1
176
     1
 90
        1
176
     1
 40
1.0
176
     1
 90
        8
176
     1
 62
     7
176
     1
 40
1.0
176
     1
 90
        1
176
     1
 90
        6
176
     1
 90
        2
176
     1
 62
     7
176
     1
 90
        5
176
     1
 90
        0
176
     1
 90
        0
176
     1
290
     0
176
     1
 90
        1
176
     1
 40
50.0
176
     1
 90
        0
176
     1
290
     0
176
     1
290
     1
176
     1
290
     1
176
     1
290
     0
176
     1
290
     0
176
     1
290
     0
176
     1
290
     0
176
     1
290
     0
176
     1
290
     0
176
     1
 90
       50
176
     1
 40
0.0
176
     1
 40
1.0
176
     1
 90
        0
176
     1
 62
    18
420
        0
176
     1
 90
       50
176
     1
 90
        3
176
     1
 62
     5
420
      255
176
     1
290
     0
176
     1
 90
       50
176
     1
 90
       50
176
     1
 90
       50
176
     1
290
     0
176
     1
 90
       50
176
     1
 62
   256
176
     0
 40
1.0
176
     0
 90
        2
176
     1
  1
strokes_ogs.tif
176
     1
290
     0
176
     1
 40
1.0
176
     1
 40
1.0
176
     1
  0
VISUALSTYLE
  5
39
102
{ACAD_REACTORS
330
29
102
}
330
29
100
AcDbVisualStyle
  2
ColorChange
 70
    16
177
     3
291
     1
 70
    58
 90
        2
176
     1
 90
        2
176
     1
 90
        3
176
     1
 90
        0
176
     1
 40
0.6
176
     1
 40
30.0
176
     1
 62
     8
420
  8421504
176
     1
 90
        1
176
     1
 90
        4
176
     1
 62
     7
176
     1
 62
   257
176
     1
 90
        1
176
     1
 90
        1
176
     1
 40
1.0
176
     1
 90
        8
176
     1
 62
     8
420
  8421504
176
     1
 40
1.0
176
     1
 90
        1
176
     1
 90
        6
176
     1
 90
        2
176
     1
 62
     7
176
     1
 90
        5
176
     1
 90
        0
176
     1
 90
        0
176
     1
290
     0
176
     1
 90
        1
176
     1
 40
0.0
176
     1
 90
        0
176
     1
290
     0
176
     1
290
     1
176
     1
290
     1
176
     1
290
     0
176
     1
290
     0
176
     1
290
     0
176
     1
290
     0
176
     1
290
     0
176
     1
290
     0
176
     1
 90
       50
176
     1
 40
0.0
176
     1
 40
1.0
176
     1
 90
        0
176
     1
 62
    18
420
        0
176
     1
 90
       50
176
     1
 90
        3
176
     1
 62
     5
420
      255
176
     1
290
     0
176
     1
 90
       50
176
     1
 90
       50
176
     1
 90
       50
176
     1
290
     0
176
     1
 90
       50
176
     1
 62
   256
176
     0
 40
1.0
176
     0
 90
        2
176
     1
  1
strokes_ogs.tif
176
     1
290
     0
176
     1
 40
1.0
176
     1
 40
1.0
176
     1
  0
VISUALSTYLE
  5
32
102
{ACAD_REACTORS
330
29
102
}
330
29
100
AcDbVisualStyle
  2
Conceptual
 70
     9
177
     3
291
     0
 70
    58
 90
        3
176
     1
 90
        2
176
     1
 90
        0
176
     1
 90
        0
176
     1
 40
0.6
176
     1
 40
30.0
176
     1
 62
     7
420
 16777215
176
     1
 90
        2
176
     1
 90
        2
176
     1
 62
     7
176
     1
 62
   257
176
     1
 90
        1
176
     1
 90
        1
176
     1
 40
179.0
176
     1
 90
        8
176
     1
 62
     7
176
     1
 40
1.0
176
     1
 90
        1
176
     1
 90
        6
176
     1
 90
        2
176
     1
 62
     7
176
     1
 90
        3
176
     1
 90
        0
176
     1
 90
        0
176
     1
290
     0
176
     1
 90
        1
176
     1
 40
0.0
176
     1
 90
        0
176
     1
290
     0
176
     1
290
     1
176
     1
290
     1
176
     1
290
     0
176
     1
290
     0
176
     1
290
     0
176
     1
290
     0
176
     1
290
     0
176
     1
290
     0
176
     1
 90
       50
176
     1
 40
0.0
176
     1
 40
1.0
176
     1
 90
        0
176
     1
 62
    18
420
        0
176
     1
 90
       50
176
     1
 90
        3
176
     1
 62
     5
420
      255
176
     1
290
     0
176
     1
 90
       50
176
     1
 90
       50
176
     1
 90
       50
176
     1
290
     0
176
     1
 90
       50
176
     1
 62
   256
176
     0
 40
1.0
176
     0
 90
        2
176
     1
  1
strokes_ogs.tif
176
     1
290
     0
176
     1
 40
1.0
176
     1
 40
1.0
176
     1
  0
VISUALSTYLE
  5
34
102
{ACAD_REACTORS
330
29
102
}
330
29
100
AcDbVisualStyle
  2
Dim
 70
    11
177
     3
291
     1
 70
    58
 90
        2
176
     1
 90
        2
176
     1
 90
        0
176
     1
 90
        0
176
     1
 40
0.6
176
     1
 40
30.0
176
     1
 62
     7
420
 16777215
176
     1
 90
        1
176
     1
 90
        4
176
     1
 62
     7
176
     1
 62
   257
176
     1
 90
        1
176
     1
 90
        1
176
     1
 40
1.0
176
     1
 90
        8
176
     1
 62
     7
176
     1
 40
1.0
176
     1
 90
        1
176
     1
 90
        6
176
     1
 90
        2
176
     1
 62
     7
176
     1
 90
        5
176
     1
 90
        0
176
     1
 90
        0
176
     1
290
     0
176
     1
 90
        1
176
     1
 40
-50.0
176
     1
 90
        0
176
     1
290
     0
176
     1
290
     1
176
     1
290
     1
176
     1
290
     0
176
     1
290
     0
176
     1
290
     0
176
     1
290
     0
176
     1
290
     0
176
     1
290
     0
176
     1
 90
       50
176
     1
 40
0.0
176
     1
 40
1.0
176
     1
 90
        0
176
     1
 62
    18
420
        0
176
     1
 90
       50
176
     1
 90
        3
176
     1
 62
     5
420
      255
176
     1
290
     0
176
     1
 90
       50
176
     1
 90
       50
176
     1
 90
       50
176
     1
290
     0
176
     1
 90
       50
176
     1
 62
   256
176
     0
 40
1.0
176
     0
 90
        2
176
     1
  1
strokes_ogs.tif
176
     1
290
     0
176
     1
 40
1.0
176
     1
 40
1.0
176
     1
  0
VISUALSTYLE
  5
41
102
{ACAD_REACTORS
330
29
102
}
330
29
100
AcDbVisualStyle
  2
EdgeColorOff
 70
    22
177
     3
291
     1
 70
    58
 90
        2
176
     0
 90
        2
176
     0
 90
        0
176
     0
 90
        0
176
     0
 40
0.6
176
     0
 40
30.0
176
     0
 62
     7
420
 16777215
176
     0
 90
        1
176
     0
 90
        4
176
     0
 62
     7
176
     0
 62
   257
176
     0
 90
        1
176
     0
 90
        1
176
     0
 40
1.0
176
     0
 90
        8
176
     2
 62
     7
176
     0
 40
1.0
176
     0
 90
        1
176
     0
 90
        6
176
     0
 90
        2
176
     0
 62
     7
176
     0
 90
        5
176
     0
 90
        0
176
     0
 90
        0
176
     0
290
     0
176
     0
 90
        1
176
     0
 40
0.0
176
     0
 90
        0
176
     0
290
     0
176
     0
290
     1
176
     0
290
     1
176
     0
290
     0
176
     0
290
     0
176
     0
290
     0
176
     0
290
     0
176
     0
290
     0
176
     0
290
     0
176
     0
 90
       50
176
     0
 40
0.0
176
     0
 40
1.0
176
     0
 90
        0
176
     0
 62
    18
420
        0
176
     0
 90
       50
176
     0
 90
        3
176
     0
 62
     5
420
      255
176
     0
290
     0
176
     0
 90
       50
176
     0
 90
       50
176
     0
 90
       50
176
     0
290
     0
176
     0
 90
       50
176
     0
 62
   256
176
     0
 40
1.0
176
     0
 90
        2
176
     0
  1
strokes_ogs.tif
176
     0
290
     0
176
     0
 40
1.0
176
     0
 40
1.0
176
     0
  0
VISUALSTYLE
  5
38
102
{ACAD_REACTORS
330
29
102
}
330
29
100
AcDbVisualStyle
  2
Facepattern
 70
    15
177
     3
291
     1
 70
    58
 90
        2
176
     1
 90
        2
176
     1
 90
        0
176
     1
 90
        0
176
     1
 40
0.6
176
     1
 40
30.0
176
     1
 62
     7
420
 16777215
176
     1
 90
        1
176
     1
 90
        4
176
     1
 62
     7
176
     1
 62
   257
176
     1
 90
        1
176
     1
 90
        1
176
     1
 40
1.0
176
     1
 90
        8
176
     1
 62
     7
176
     1
 40
1.0
176
     1
 90
        1
176
     1
 90
        6
176
     1
 90
        2
176
     1
 62
     7
176
     1
 90
        5
176
     1
 90
        0
176
     1
 90
        0
176
     1
290
     0
176
     1
 90
        1
176
     1
 40
0.0
176
     1
 90
        0
176
     1
290
     0
176
     1
290
     1
176
     1
290
     1
176
     1
290
     0
176
     1
290
     0
176
     1
290
     0
176
     1
290
     0
176
     1
290
     0
176
     1
290
     0
176
     1
 90
       50
176
     1
 40
0.0
176
     1
 40
1.0
176
     1
 90
        0
176
     1
 62
    18
420
        0
176
     1
 90
       50
176
     1
 90
        3
176
     1
 62
     5
420
      255
176
     1
290
     0
176
     1
 90
       50
176
     1
 90
       50
176
     1
 90
       50
176
     1
290
     0
176
     1
 90
       50
176
     1
 62
   256
176
     0
 40
1.0
176
     0
 90
        2
176
     1
  1
strokes_ogs.tif
176
     1
290
     0
176
     1
 40
1.0
176
     1
 40
1.0
176
     1
  0
VISUALSTYLE
  5
2A
102
{ACAD_REACTORS
330
29
102
}
330
29
100
AcDbVisualStyle
  2
Flat
 70
     0
177
     3
291
     1
 70
    58
 90
        2
176
     1
 90
        1
176
     1
 90
        1
176
     1
 90
        2
176
     1
 40
0.6
176
     1
 40
30.0
176
     1
 62
     7
420
 16777215
176
     1
 90
        0
176
     1
 90
        0
176
     1
 62
     7
176
     1
 62
   257
176
     1
 90
        1
176
     1
 90
        1
176
     1
 40
1.0
176
     1
 90
        8
176
     1
 62
     7
176
     1
 40
1.0
176
     1
 90
        1
176
     1
 90
        6
176
     1
 90
        2
176
     1
 62
     7
176
     1
 90
        5
176
     1
 90
        0
176
     1
 90
        0
176
     1
290
     0
176
     1
 90
       13
176
     1
 40
0.0
176
     1
 90
        0
176
     1
290
     0
176
     1
290
     1
176
     1
290
     1
176
     1
290
     0
176
     1
290
     0
176
     1
290
     0
176
     1
290
     0
176
     1
290
     0
176
     1
290
     0
176
     1
 90
       50
176
     1
 40
0.0
176
     1
 40
1.0
176
     1
 90
        0
176
     1
 62
    18
420
        0
176
     1
 90
       50
176
     1
 90
        3
176
     1
 62
     5
420
      255
176
     1
290
     0
176
     1
 90
       50
176
     1
 90
       50
176
     1
 90
       50
176
     1
290
     0
176
     1
 90
       50
176
     1
 62
   256
176
     0
 40
1.0
176
     0
 90
        2
176
     1
  1
strokes_ogs.tif
176
     1
290
     0
176
     1
 40
1.0
176
     1
 40
1.0
176
     1
  0
VISUALSTYLE
  5
2B
102
{ACAD_REACTORS
330
29
102
}
330
29
100
AcDbVisualStyle
  2
FlatWithEdges
 70
     1
177
     3
291
     1
 70
    58
 90
        2
176
     1
 90
        1
176
     1
 90
        1
176
     1
 90
        2
176
     1
 40
0.6
176
     1
 40
30.0
176
     1
 62
     7
420
 16777215
176
     1
 90
        1
176
     1
 90
        0
176
     1
 62
     7
176
     1
 62
   257
176
     1
 90
        1
176
     1
 90
        1
176
     1
 40
1.0
176
     1
 90
        0
176
     1
 62
   257
176
     1
 40
1.0
176
     1
 90
        1
176
     1
 90
        6
176
     1
 90
        2
176
     1
 62
     7
176
     1
 90
        5
176
     1
 90
        0
176
     1
 90
        0
176
     1
290
     0
176
     1
 90
       13
176
     1
 40
0.0
176
     1
 90
        0
176
     1
290
     0
176
     1
290
     1
176
     1
290
     1
176
     1
290
     0
176
     1
290
     0
176
     1
290
     0
176
     1
290
     0
176
     1
290
     0
176
     1
290
     0
176
     1
 90
       50
176
     1
 40
0.0
176
     1
 40
1.0
176
     1
 90
        0
176
     1
 62
    18
420
        0
176
     1
 90
       50
176
     1
 90
        3
176
     1
 62
     5
420
      255
176
     1
290
     0
176
     1
 90
       50
176
     1
 90
       50
176
     1
 90
       50
176
     1
290
     0
176
     1
 90
       50
176
     1
 62
   256
176
     0
 40
1.0
176
     0
 90
        2
176
     1
  1
strokes_ogs.tif
176
     1
290
     0
176
     1
 40
1.0
176
     1
 40
1.0
176
     1
  0
VISUALSTYLE
  5
2C
102
{ACAD_REACTORS
330
29
102
}
330
29
100
AcDbVisualStyle
  2
Gouraud
 70
     2
177
     3
291
     1
 70
    58
 90
        2
176
     1
 90
        2
176
     1
 90
        1
176
     1
 90
        2
176
     1
 40
0.6
176
     1
 40
30.0
176
     1
 62
     7
420
 16777215
176
     1
 90
        0
176
     1
 90
        0
176
     1
 62
     7
176
     1
 62
   257
176
     1
 90
        1
176
     1
 90
        1
176
     1
 40
1.0
176
     1
 90
        0
176
     1
 62
     7
176
     1
 40
1.0
176
     1
 90
        1
176
     1
 90
        6
176
     1
 90
        2
176
     1
 62
     7
176
     1
 90
        5
176
     1
 90
        0
176
     1
 90
        0
176
     1
290
     0
176
     1
 90
       13
176
     1
 40
0.0
176
     1
 90
        0
176
     1
290
     0
176
     1
290
     1
176
     1
290
     1
176
     1
290
     0
176
     1
290
     0
176
     1
290
     0
176
     1
290
     0
176
     1
290
     0
176
     1
290
     0
176
     1
 90
       50
176
     1
 40
0.0
176
     1
 40
1.0
176
     1
 90
        0
176
     1
 62
    18
420
        0
176
     1
 90
       50
176
     1
 90
        3
176
     1
 62
     5
420
      255
176
     1
290
     0
176
     1
 90
       50
176
     1
 90
       50
176
     1
 90
       50
176
     1
290
     0
176
     1
 90
       50
176
     1
 62
   256
176
     0
 40
1.0
176
     0
 90
        2
176
     1
  1
strokes_ogs.tif
176
     1
290
     0
176
     1
 40
1.0
176
     1
 40
1.0
176
     1
  0
VISUALSTYLE
  5
2D
102
{ACAD_REACTORS
330
29
102
}
330
29
100
AcDbVisualStyle
  2
GouraudWithEdges
 70
     3
177
     3
291
     1
 70
    58
 90
        2
176
     1
 90
        2
176
     1
 90
        1
176
     1
 90
        2
176
     1
 40
0.6
176
     1
 40
30.0
176
     1
 62
     7
420
 16777215
176
     1
 90
        1
176
     1
 90
        0
176
     1
 62
     7
176
     1
 62
   257
176
     1
 90
        1
176
     1
 90
        1
176
     1
 40
1.0
176
     1
 90
        0
176
     1
 62
   257
176
     1
 40
1.0
176
     1
 90
        1
176
     1
 90
        6
176
     1
 90
        2
176
     1
 62
     7
176
     1
 90
        5
176
     1
 90
        0
176
     1
 90
        0
176
     1
290
     0
176
     1
 90
       13
176
     1
 40
0.0
176
     1
 90
        0
176
     1
290
     0
176
     1
290
     1
176
     1
290
     1
176
     1
290
     0
176
     1
290
     0
176
     1
290
     0
176
     1
290
     0
176
     1
290
     0
176
     1
290
     0
176
     1
 90
       50
176
     1
 40
0.0
176
     1
 40
1.0
176
     1
 90
        0
176
     1
 62
    18
420
        0
176
     1
 90
       50
176
     1
 90
        3
176
     1
 62
     5
420
      255
176
     1
290
     0
176
     1
 90
       50
176
     1
 90
       50
176
     1
 90
       50
176
     1
290
     0
176
     1
 90
       50
176
     1
 62
   256
176
     0
 40
1.0
176
     0
 90
        2
176
     1
  1
strokes_ogs.tif
176
     1
290
     0
176
     1
 40
1.0
176
     1
 40
1.0
176
     1
  0
VISUALSTYLE
  5
31
102
{ACAD_REACTORS
330
29
102
}
330
29
100
AcDbVisualStyle
  2
Hidden
 70
     6
177
     3
291
     0
 70
    58
 90
        1
176
     1
 90
        2
176
     1
 90
        2
176
     1
 90
        0
176
     1
 40
0.6
176
     1
 40
30.0
176
     1
 62
     7
420
 16777215
176
     1
 90
        2
176
     1
 90
        2
176
     1
 62
     7
176
     1
 62
   257
176
     1
 90
        2
176
     1
 90
        1
176
     1
 40
40.0
176
     1
 90
        0
176
     1
 62
   257
176
     1
 40
1.0
176
     1
 90
        1
176
     1
 90
        6
176
     1
 90
        2
176
     1
 62
     7
176
     1
 90
        3
176
     1
 90
        0
176
     1
 90
        0
176
     1
290
     0
176
     1
 90
        1
176
     1
 40
0.0
176
     1
 90
        0
176
     1
290
     0
176
     1
290
     1
176
     1
290
     1
176
     1
290
     0
176
     1
290
     0
176
     1
290
     0
176
     1
290
     0
176
     1
290
     0
176
     1
290
     0
176
     1
 90
       50
176
     1
 40
0.0
176
     1
 40
1.0
176
     1
 90
        0
176
     1
 62
    18
420
        0
176
     1
 90
       50
176
     1
 90
        3
176
     1
 62
     5
420
      255
176
     1
290
     0
176
     1
 90
       50
176
     1
 90
       50
176
     1
 90
       50
176
     1
290
     0
176
     1
 90
       50
176
     1
 62
   256
176
     0
 40
1.0
176
     0
 90
        2
176
     1
  1
strokes_ogs.tif
176
     1
290
     0
176
     1
 40
1.0
176
     1
 40
1.0
176
     1
  0
VISUALSTYLE
  5
3F
102
{ACAD_REACTORS
330
29
102
}
330
29
100
AcDbVisualStyle
  2
JitterOff
 70
    20
177
     3
291
     1
 70
    58
 90
        2
176
     0
 90
        2
176
     0
 90
        0
176
     0
 90
        0
176
     0
 40
0.6
176
     0
 40
30.0
176
     0
 62
     7
420
 16777215
176
     0
 90
        1
176
     0
 90
        4
176
     0
 62
     7
176
     0
 62
   257
176
     0
 90
        1
176
     0
 90
        1
176
     0
 40
1.0
176
     0
 90
       10
176
     2
 62
     7
176
     0
 40
1.0
176
     0
 90
        1
176
     0
 90
        6
176
     0
 90
        2
176
     0
 62
     7
176
     0
 90
        5
176
     0
 90
        0
176
     0
 90
        0
176
     0
290
     0
176
     0
 90
        1
176
     0
 40
0.0
176
     0
 90
        0
176
     0
290
     0
176
     0
290
     1
176
     0
290
     1
176
     0
290
     0
176
     0
290
     0
176
     0
290
     0
176
     0
290
     0
176
     0
290
     0
176
     0
290
     0
176
     0
 90
       50
176
     0
 40
0.0
176
     0
 40
1.0
176
     0
 90
        0
176
     0
 62
    18
420
        0
176
     0
 90
       50
176
     0
 90
        3
176
     0
 62
     5
420
      255
176
     0
290
     0
176
     0
 90
       50
176
     0
 90
       50
176
     0
 90
       50
176
     0
290
     0
176
     0
 90
       50
176
     0
 62
   256
176
     0
 40
1.0
176
     0
 90
        2
176
     0
  1
strokes_ogs.tif
176
     0
290
     0
176
     0
 40
1.0
176
     0
 40
1.0
176
     0
  0
VISUALSTYLE
  5
37
102
{ACAD_REACTORS
330
29
102
}
330
29
100
AcDbVisualStyle
  2
Linepattern
 70
    14
177
     3
291
     1
 70
    58
 90
        2
176
     1
 90
        2
176
     1
 90
        0
176
     1
 90
        0
176
     1
 40
0.6
176
     1
 40
30.0
176
     1
 62
     7
420
 16777215
176
     1
 90
        1
176
     1
 90
        4
176
     1
 62
     7
176
     1
 62
   257
176
     1
 90
        7
176
     1
 90
        7
176
     1
 40
1.0
176
     1
 90
        8
176
     1
 62
     7
176
     1
 40
1.0
176
     1
 90
        1
176
     1
 90
        6
176
     1
 90
        2
176
     1
 62
     7
176
     1
 90
        5
176
     1
 90
        0
176
     1
 90
        0
176
     1
290
     0
176
     1
 90
        1
176
     1
 40
0.0
176
     1
 90
        0
176
     1
290
     0
176
     1
290
     1
176
     1
290
     1
176
     1
290
     0
176
     1
290
     0
176
     1
290
     0
176
     1
290
     0
176
     1
290
     0
176
     1
290
     0
176
     1
 90
       50
176
     1
 40
0.0
176
     1
 40
1.0
176
     1
 90
        0
176
     1
 62
    18
420
        0
176
     1
 90
       50
176
     1
 90
        3
176
     1
 62
     5
420
      255
176
     1
290
     0
176
     1
 90
       50
176
     1
 90
       50
176
     1
 90
       50
176
     1
290
     0
176
     1
 90
       50
176
     1
 62
   256
176
     0
 40
1.0
176
     0
 90
        2
176
     1
  1
strokes_ogs.tif
176
     1
290
     0
176
     1
 40
1.0
176
     1
 40
1.0
176
     1
  0
VISUALSTYLE
  5
40
102
{ACAD_REACTORS
330
29
102
}
330
29
100
AcDbVisualStyle
  2
OverhangOff
 70
    21
177
     3
291
     1
 70
    58
 90
        2
176
     0
 90
        2
176
     0
 90
        0
176
     0
 90
        0
176
     0
 40
0.6
176
     0
 40
30.0
176
     0
 62
     7
420
 16777215
176
     0
 90
        1
176
     0
 90
        4
176
     0
 62
     7
176
     0
 62
   257
176
     0
 90
        1
176
     0
 90
        1
176
     0
 40
1.0
176
     0
 90
        9
176
     2
 62
     7
176
     0
 40
1.0
176
     0
 90
        1
176
     0
 90
        6
176
     0
 90
        2
176
     0
 62
     7
176
     0
 90
        5
176
     0
 90
        0
176
     0
 90
        0
176
     0
290
     0
176
     0
 90
        1
176
     0
 40
0.0
176
     0
 90
        0
176
     0
290
     0
176
     0
290
     1
176
     0
290
     1
176
     0
290
     0
176
     0
290
     0
176
     0
290
     0
176
     0
290
     0
176
     0
290
     0
176
     0
290
     0
176
     0
 90
       50
176
     0
 40
0.0
176
     0
 40
1.0
176
     0
 90
        0
176
     0
 62
    18
420
        0
176
     0
 90
       50
176
     0
 90
        3
176
     0
 62
     5
420
      255
176
     0
290
     0
176
     0
 90
       50
176
     0
 90
       50
176
     0
 90
       50
176
     0
290
     0
176
     0
 90
       50
176
     0
 62
   256
176
     0
 40
1.0
176
     0
 90
        2
176
     0
  1
strokes_ogs.tif
176
     0
290
     0
176
     0
 40
1.0
176
     0
 40
1.0
176
     0
  0
VISUALSTYLE
  5
33
102
{ACAD_REACTORS
330
29
102
}
330
29
100
AcDbVisualStyle
  2
Realistic
 70
     8
177
     3
291
     0
 70
    58
 90
        2
176
     1
 90
        3
176
     1
 90
        0
176
     1
 90
        2
176
     1
 40
0.6
176
     1
 40
30.0
176
     1
 62
     7
420
 16777215
176
     1
 90
        0
176
     1
 90
        0
176
     1
 62
     7
176
     1
 62
   257
176
     1
 90
        1
176
     1
 90
        1
176
     1
 40
1.0
176
     1
 90
        8
176
     1
 62
   257
176
     1
 40
1.0
176
     1
 90
        1
176
     1
 90
        6
176
     1
 90
        2
176
     1
 62
     7
176
     1
 90
        3
176
     1
 90
        0
176
     1
 90
        0
176
     1
290
     0
176
     1
 90
       13
176
     1
 40
0.0
176
     1
 90
        0
176
     1
290
     0
176
     1
290
     1
176
     1
290
     1
176
     1
290
     0
176
     1
290
     0
176
     1
290
     0
176
     1
290
     0
176
     1
290
     0
176
     1
290
     0
176
     1
 90
       50
176
     1
 40
0.0
176
     1
 40
1.0
176
     1
 90
        0
176
     1
 62
    18
420
        0
176
     1
 90
       50
176
     1
 90
        3
176
     1
 62
     5
420
      255
176
     1
290
     0
176
     1
 90
       50
176
     1
 90
       50
176
     1
 90
       50
176
     1
290
     0
176
     1
 90
       50
176
     1
 62
   256
176
     0
 40
1.0
176
     0
 90
        2
176
     1
  1
strokes_ogs.tif
176
     1
290
     0
176
     1
 40
1.0
176
     1
 40
1.0
176
     1
  0
VISUALSTYLE
  5
3E
102
{ACAD_REACTORS
330
29
102
}
330
29
100
AcDbVisualStyle
  2
Shaded
 70
    27
177
     3
291
     0
 70
    58
 90
        2
176
     1
 90
        2
176
     1
 90
        1
176
     1
 90
        2
176
     1
 40
0.6
176
     1
 40
30.0
176
     1
 62
     7
420
 16777215
176
     1
 90
        0
176
     1
 90
        4
176
     1
 62
     7
176
     1
 62
   257
176
     1
 90
        1
176
     1
 90
        1
176
     1
 40
1.0
176
     1
 90
        8
176
     1
 62
   257
176
     1
 40
1.0
176
     1
 90
        1
176
     1
 90
        6
176
     1
 90
        2
176
     1
 62
     8
420
  7895160
176
     1
 90
        3
176
     1
 90
        0
176
     1
 90
        0
176
     1
290
     0
176
     1
 90
        5
176
     1
 40
0.0
176
     1
 90
        0
176
     1
290
     0
176
     1
290
     1
176
     1
290
     1
176
     1
290
     0
176
     1
290
     0
176
     1
290
     0
176
     1
290
     0
176
     1
290
     0
176
     1
290
     0
176
     1
 90
       50
176
     1
 40
0.0
176
     1
 40
1.0
176
     1
 90
        0
176
     1
 62
    18
420
        0
176
     1
 90
       50
176
     1
 90
        3
176
     1
 62
     5
420
      255
176
     1
290
     0
176
     1
 90
       50
176
     1
 90
       50
176
     1
 90
       50
176
     1
290
     0
176
     1
 90
       50
176
     1
 62
   256
176
     0
 40
1.0
176
     0
 90
        2
176
     1
  1
strokes_ogs.tif
176
     1
290
     0
176
     1
 40
1.0
176
     1
 40
1.0
176
     1
  0
VISUALSTYLE
  5
3D
102
{ACAD_REACTORS
330
29
102
}
330
29
100
AcDbVisualStyle
  2
Shaded with edges
 70
    26
177
     3
291
     0
 70
    58
 90
        2
176
     1
 90
        2
176
     1
 90
        1
176
     1
 90
        2
176
     1
 40
0.6
176
     1
 40
30.0
176
     1
 62
     7
420
 16777215
176
     1
 90
        1
176
     1
 90
        2
176
     1
 62
     7
176
     1
 62
   257
176
     1
 90
        2
176
     1
 90
        1
176
     1
 40
1.0
176
     1
 90
        8
176
     1
 62
   257
176
     1
 40
1.0
176
     1
 90
        1
176
     1
 90
        6
176
     1
 90
        2
176
     1
 62
     7
176
     1
 90
        3
176
     1
 90
        0
176
     1
 90
        0
176
     1
290
     0
176
     1
 90
        5
176
     1
 40
0.0
176
     1
 90
        0
176
     1
290
     0
176
     1
290
     1
176
     1
290
     1
176
     1
290
     0
176
     1
290
     0
176
     1
290
     0
176
     1
290
     0
176
     1
290
     0
176
     1
290
     0
176
     1
 90
       50
176
     1
 40
0.0
176
     1
 40
1.0
176
     1
 90
        0
176
     1
 62
    18
420
        0
176
     1
 90
       50
176
     1
 90
        3
176
     1
 62
     5
420
      255
176
     1
290
     0
176
     1
 90
       50
176
     1
 90
       50
176
     1
 90
       50
176
     1
290
     0
176
     1
 90
       50
176
     1
 62
   256
176
     0
 40
1.0
176
     0
 90
        2
176
     1
  1
strokes_ogs.tif
176
     1
290
     0
176
     1
 40
1.0
176
     1
 40
1.0
176
     1
  0
VISUALSTYLE
  5
3A
102
{ACAD_REACTORS
330
29
102
}
330
29
100
AcDbVisualStyle
  2
Shades of Gray
 70
    23
177
     3
291
     0
 70
    58
 90
        2
176
     1
 90
        2
176
     1
 90
        3
176
     1
 90
        0
176
     1
 40
0.6
176
     1
 40
30.0
176
     1
 62
     7
420
 16777215
176
     1
 90
        2
176
     1
 90
        2
176
     1
 62
     7
176
     1
 62
     7
176
     1
 90
        1
176
     1
 90
        1
176
     1
 40
40.0
176
     1
 90
        8
176
     1
 62
     7
176
     1
 40
1.0
176
     1
 90
        1
176
     1
 90
        6
176
     1
 90
        2
176
     1
 62
     7
176
     1
 90
        3
176
     1
 90
        0
176
     1
 90
        0
176
     1
290
     0
176
     1
 90
        1
176
     1
 40
0.0
176
     1
 90
        0
176
     1
290
     0
176
     1
290
     1
176
     1
290
     1
176
     1
290
     0
176
     1
290
     0
176
     1
290
     0
176
     1
290
     0
176
     1
290
     0
176
     1
290
     0
176
     1
 90
       50
176
     1
 40
0.0
176
     1
 40
1.0
176
     1
 90
        0
176
     1
 62
    18
420
        0
176
     1
 90
       50
176
     1
 90
        3
176
     1
 62
     5
420
      255
176
     1
290
     0
176
     1
 90
       50
176
     1
 90
       50
176
     1
 90
       50
176
     1
290
     0
176
     1
 90
       50
176
     1
 62
   256
176
     0
 40
1.0
176
     0
 90
        2
176
     1
  1
strokes_ogs.tif
176
     1
290
     0
176
     1
 40
1.0
176
     1
 40
1.0
176
     1
  0
VISUALSTYLE
  5
3B
102
{ACAD_REACTORS
330
29
102
}
330
29
100
AcDbVisualStyle
  2
Sketchy
 70
    24
177
     3
291
     0
 70
    58
 90
        1
176
     1
 90
        2
176
     1
 90
        2
176
     1
 90
        0
176
     1
 40
0.6
176
     1
 40
30.0
176
     1
 62
     7
420
 16777215
176
     1
 90
        2
176
     1
 90
        2
176
     1
 62
     7
176
     1
 62
     7
176
     1
 90
        1
176
     1
 90
        1
176
     1
 40
40.0
176
     1
 90
       11
176
     1
 62
     7
176
     1
 40
1.0
176
     1
 90
        1
176
     1
 90
        6
176
     1
 90
        2
176
     1
 62
     7
176
     1
 90
        6
176
     1
 90
        0
176
     1
 90
        0
176
     1
290
     0
176
     1
 90
        1
176
     1
 40
0.0
176
     1
 90
        0
176
     1
290
     0
176
     1
290
     1
176
     1
290
     1
176
     1
290
     0
176
     1
290
     0
176
     1
290
     0
176
     1
290
     0
176
     1
290
     0
176
     1
290
     0
176
     1
 90
       50
176
     1
 40
0.0
176
     1
 40
1.0
176
     1
 90
        0
176
     1
 62
    18
420
        0
176
     1
 90
       50
176
     1
 90
        3
176
     1
 62
     5
420
      255
176
     1
290
     0
176
     1
 90
       50
176
     1
 90
       50
176
     1
 90
       50
176
     1
290
     0
176
     1
 90
       50
176
     1
 62
   256
176
     0
 40
1.0
176
     0
 90
        2
176
     1
  1
strokes_ogs.tif
176
     1
290
     0
176
     1
 40
1.0
176
     1
 40
1.0
176
     1
  0
VISUALSTYLE
  5
36
102
{ACAD_REACTORS
330
29
102
}
330
29
100
AcDbVisualStyle
  2
Thicken
 70
    13
177
     3
291
     1
 70
    58
 90
        2
176
     1
 90
        2
176
     1
 90
        0
176
     1
 90
        0
176
     1
 40
0.6
176
     1
 40
30.0
176
     1
 62
     7
420
 16777215
176
     1
 90
        1
176
     1
 90
        4
176
     1
 62
     7
176
     1
 62
   257
176
     1
 90
        1
176
     1
 90
        1
176
     1
 40
1.0
176
     1
 90
       12
176
     1
 62
     7
176
     1
 40
1.0
176
     1
 90
        1
176
     1
 90
        6
176
     1
 90
        2
176
     1
 62
     7
176
     1
 90
        5
176
     1
 90
        0
176
     1
 90
        0
176
     1
290
     0
176
     1
 90
        1
176
     1
 40
0.0
176
     1
 90
        0
176
     1
290
     0
176
     1
290
     1
176
     1
290
     1
176
     1
290
     0
176
     1
290
     0
176
     1
290
     0
176
     1
290
     0
176
     1
290
     0
176
     1
290
     0
176
     1
 90
       50
176
     1
 40
0.0
176
     1
 40
1.0
176
     1
 90
        0
176
     1
 62
    18
420
        0
176
     1
 90
       50
176
     1
 90
        3
176
     1
 62
     5
420
      255
176
     1
290
     0
176
     1
 90
       50
176
     1
 90
       50
176
     1
 90
       50
176
     1
290
     0
176
     1
 90
       50
176
     1
 62
   256
176
     0
 40
1.0
176
     0
 90
        2
176
     1
  1
strokes_ogs.tif
176
     1
290
     0
176
     1
 40
1.0
176
     1
 40
1.0
176
     1
  0
VISUALSTYLE
  5
30
102
{ACAD_REACTORS
330
29
102
}
330
29
100
AcDbVisualStyle
  2
Wireframe
 70
     5
177
     3
291
     0
 70
    58
 90
        0
176
     1
 90
        2
176
     1
 90
        0
176
     1
 90
        0
176
     1
 40
0.6
176
     1
 40
30.0
176
     1
 62
     7
420
 16777215
176
     1
 90
        1
176
     1
 90
        4
176
     1
 62
     7
176
     1
 62
   257
176
     1
 90
        1
176
     1
 90
        1
176
     1
 40
1.0
176
     1
 90
        0
176
     1
 62
   257
176
     1
 40
1.0
176
     1
 90
        1
176
     1
 90
        6
176
     1
 90
        2
176
     1
 62
     7
176
     1
 90
        3
176
     1
 90
        0
176
     1
 90
        0
176
     1
290
     0
176
     1
 90
        1
176
     1
 40
0.0
176
     1
 90
        0
176
     1
290
     0
176
     1
290
     1
176
     1
290
     1
176
     1
290
     0
176
     1
290
     0
176
     1
290
     0
176
     1
290
     0
176
     1
290
     0
176
     1
290
     0
176
     1
 90
       50
176
     1
 40
0.0
176
     1
 40
1.0
176
     1
 90
        0
176
     1
 62
    18
420
        0
176
     1
 90
       50
176
     1
 90
        3
176
     1
 62
     5
420
      255
176
     1
290
     0
176
     1
 90
       50
176
     1
 90
       50
176
     1
 90
       50
176
     1
290
     0
176
     1
 90
       50
176
     1
 62
   256
176
     0
 40
1.0
176
     0
 90
        2
176
     1
  1
strokes_ogs.tif
176
     1
290
     0
176
     1
 40
1.0
176
     1
 40
1.0
176
     1
  0
VISUALSTYLE
  5
3C
102
{ACAD_REACTORS
330
29
102
}
330
29
100
AcDbVisualStyle
  2
X-Ray
 70
    25
177
     3
291
     0
 70
    58
 90
        2
176
     1
 90
        2
176
     1
 90
        1
176
     1
 90
        1
176
     1
 40
0.5
176
     1
 40
30.0
176
     1
 62
     7
420
 16777215
176
     1
 90
        1
176
     1
 90
        0
176
     1
 62
     7
176
     1
 62
   257
176
     1
 90
        1
176
     1
 90
        1
176
     1
 40
1.0
176
     1
 90
        8
176
     1
 62
     7
176
     1
 40
1.0
176
     1
 90
        1
176
     1
 90
        6
176
     1
 90
        2
176
     1
 62
     7
176
     1
 90
        3
176
     1
 90
        0
176
     1
 90
        0
176
     1
290
     0
176
     1
 90
       13
176
     1
 40
0.0
176
     1
 90
        0
176
     1
290
     0
176
     1
290
     1
176
     1
290
     1
176
     1
290
     0
176
     1
290
     0
176
     1
290
     0
176
     1
290
     0
176
     1
290
     0
176
     1
290
     0
176
     1
 90
       50
176
     1
 40
0.0
176
     1
 40
1.0
176
     1
 90
        0
176
     1
 62
    18
420
        0
176
     1
 90
       50
176
     1
 90
        3
176
     1
 62
     5
420
      255
176
     1
290
     0
176
     1
 90
       50
176
     1
 90
       50
176
     1
 90
       50
176
     1
290
     0
176
     1
 90
       50
176
     1
 62
   256
176
     0
 40
1.0
176
     0
 90
        2
176
     1
  1
strokes_ogs.tif
176
     1
290
     0
176
     1
 40
1.0
176
     1
 40
1.0
176
     1
  0
DICTIONARYVAR
  5
BA
102
{ACAD_REACTORS
330
B5
102
}
330
B5
100
DictionaryVariables
280
     0
  1
1:1
  0
DICTIONARYVAR
  5
B7
102
{ACAD_REACTORS
330
B5
102
}
330
B5
100
DictionaryVariables
280
     0
  1
STANDARD
  0
DICTIONARYVAR
  5
B6
102
{ACAD_REACTORS
330
B5
102
}
330
B5
100
DictionaryVariables
280
     0
  1
STANDARD
  0
DICTIONARYVAR
  5
B8
102
{ACAD_REACTORS
330
B5
102
}
330
B5
100
DictionaryVariables
280
     0
  1
Imperial24
  0
DICTIONARYVAR
  5
B9
102
{ACAD_REACTORS
330
B5
102
}
330
B5
100
DictionaryVariables
280
     0
  1
Imperial24
  0
DICTIONARY
  5
1A
330
19
100
AcDbDictionary
280
     1
281
     1
  3
BUMPTILE
360
1C
  3
DIFFUSETILE
360
1B
  3
OPACITYTILE
360
1F
  3
REFLECTIONTILE
360
1E
  3
REFRACTIONTILE
360
20
  3
SPECULARTILE
360
1D
  0
DICTIONARY
  5
12
330
11
100
AcDbDictionary
280
     1
281
     1
  3
BUMPTILE
360
14
  3
DIFFUSETILE
360
13
  3
OPACITYTILE
360
17
  3
REFLECTIONTILE
360
16
  3
REFRACTIONTILE
360
18
  3
SPECULARTILE
360
15
  0
DICTIONARY
  5
22
330
21
100
AcDbDictionary
280
     1
281
     1
  3
BUMPTILE
360
24
  3
DIFFUSETILE
360
23
  3
OPACITYTILE
360
27
  3
REFLECTIONTILE
360
26
  3
REFRACTIONTILE
360
28
  3
SPECULARTILE
360
25
  0
DICTIONARY
  5
BB
330
65
100
AcDbDictionary
280
     1
281
     1
  3
ACAD_ROUNDTRIP_2008_TABLESTYLE_CELLSTYLEMAP
360
BC
  0
XRECORD
  5
1C
102
{ACAD_REACTORS
330
1A
102
}
330
1A
100
AcDbXrecord
280
     1
270
     1
271
     1
  0
XRECORD
  5
1B
102
{ACAD_REACTORS
330
1A
102
}
330
1A
100
AcDbXrecord
280
     1
270
     1
271
     1
  0
XRECORD
  5
1F
102
{ACAD_REACTORS
330
1A
102
}
330
1A
100
AcDbXrecord
280
     1
270
     1
271
     1
  0
XRECORD
  5
1E
102
{ACAD_REACTORS
330
1A
102
}
330
1A
100
AcDbXrecord
280
     1
270
     1
271
     1
  0
XRECORD
  5
20
102
{ACAD_REACTORS
330
1A
102
}
330
1A
100
AcDbXrecord
280
     1
270
     1
271
     1
  0
XRECORD
  5
1D
102
{ACAD_REACTORS
330
1A
102
}
330
1A
100
AcDbXrecord
280
     1
270
     1
271
     1
  0
XRECORD
  5
14
102
{ACAD_REACTORS
330
12
102
}
330
12
100
AcDbXrecord
280
     1
270
     1
271
     1
  0
XRECORD
  5
13
102
{ACAD_REACTORS
330
12
102
}
330
12
100
AcDbXrecord
280
     1
270
     1
271
     1
  0
XRECORD
  5
17
102
{ACAD_REACTORS
330
12
102
}
330
12
100
AcDbXrecord
280
     1
270
     1
271
     1
  0
XRECORD
  5
16
102
{ACAD_REACTORS
330
12
102
}
330
12
100
AcDbXrecord
280
     1
270
     1
271
     1
  0
XRECORD
  5
18
102
{ACAD_REACTORS
330
12
102
}
330
12
100
AcDbXrecord
280
     1
270
     1
271
     1
  0
XRECORD
  5
15
102
{ACAD_REACTORS
330
12
102
}
330
12
100
AcDbXrecord
280
     1
270
     1
271
     1
  0
XRECORD
  5
24
102
{ACAD_REACTORS
330
22
102
}
330
22
100
AcDbXrecord
280
     1
270
     1
271
     1
  0
XRECORD
  5
23
102
{ACAD_REACTORS
330
22
102
}
330
22
100
AcDbXrecord
280
     1
270
     1
271
     1
  0
XRECORD
  5
27
102
{ACAD_REACTORS
330
22
102
}
330
22
100
AcDbXrecord
280
     1
270
     1
271
     1
  0
XRECORD
  5
26
102
{ACAD_REACTORS
330
22
102
}
330
22
100
AcDbXrecord
280
     1
270
     1
271
     1
  0
XRECORD
  5
28
102
{ACAD_REACTORS
330
22
102
}
330
22
100
AcDbXrecord
280
     1
270
     1
271
     1
  0
XRECORD
  5
25
102
{ACAD_REACTORS
330
22
102
}
330
22
100
AcDbXrecord
280
     1
270
     1
271
     1
  0
CELLSTYLEMAP
  5
BC
102
{ACAD_REACTORS
330
BB
102
}
330
BB
100
AcDbCellStyleMap
 90
        3
300
CELLSTYLE
  1
TABLEFORMAT_BEGIN
 90
        5
170
     1
 91
        0
 92
    32768
 62
   257
 93
        1
300
CONTENTFORMAT
  1
CONTENTFORMAT_BEGIN
 90
        0
 91
        0
 92
      512
 93
        0
300

 40
0.0
140
1.0
 94
        5
 62
     0
340
55
144
0.25
309
CONTENTFORMAT_END
171
     0
 94
        0
309
TABLEFORMAT_END
  1
CELLSTYLE_BEGIN
 90
        1
 91
        1
300
_TITLE
309
CELLSTYLE_END
300
CELLSTYLE
  1
TABLEFORMAT_BEGIN
 90
        5
170
     1
 91
        0
 92
        0
 62
   257
 93
        1
300
CONTENTFORMAT
  1
CONTENTFORMAT_BEGIN
 90
        0
 91
        0
 92
      512
 93
        0
300

 40
0.0
140
1.0
 94
        5
 62
     0
340
55
144
0.18
309
CONTENTFORMAT_END
171
     0
 94
        0
309
TABLEFORMAT_END
  1
CELLSTYLE_BEGIN
 90
        2
 91
        1
300
_HEADER
309
CELLSTYLE_END
300
CELLSTYLE
  1
TABLEFORMAT_BEGIN
 90
        5
170
     1
 91
        0
 92
        0
 62
   257
 93
        1
300
CONTENTFORMAT
  1
CONTENTFORMAT_BEGIN
 90
        0
 91
        0
 92
      512
 93
        0
300

 40
0.0
140
1.0
 94
        2
 62
     0
340
55
144
0.18
309
CONTENTFORMAT_END
171
     0
 94
        0
309
TABLEFORMAT_END
  1
CELLSTYLE_BEGIN
 90
        3
 91
        2
300
_DATA
309
CELLSTYLE_END
  0
ENDSEC
  0
EOF
