  0
SECTION
  2
HEADER
  9
$ACADVER
  1
AC1032
  9
$ACADMAINTVER
 90
      228
  9
$DWGCODEPAGE
  3
ANSI_1252
  9
$REQUIREDVERSIONS
160
                 0
  9
$INSBASE
 10
0.0
 20
0.0
 30
0.0
  9
$EXTMIN
 10
1.000000000000000E+20
 20
1.000000000000000E+20
 30
1.000000000000000E+20
  9
$EXTMAX
 10
-1.000000000000000E+20
 20
-1.000000000000000E+20
 30
-1.000000000000000E+20
  9
$LIMMIN
 10
0.0
 20
0.0
  9
$LIMMAX
 10
12.0
 20
9.0
  9
$ORTHOMODE
 70
     0
  9
$REGENMODE
 70
     1
  9
$FILLMODE
 70
     1
  9
$QTEXTMODE
 70
     0
  9
$MIRRTEXT
 70
     0
  9
$LTSCALE
 40
1.0
  9
$ATTMODE
 70
     1
  9
$TEXTSIZE
 40
0.2
  9
$TRACEWID
 40
0.05
  9
$TEXTSTYLE
  7
Standard
  9
$CLAYER
  8
0
  9
$CELTYPE
  6
ByLayer
  9
$CECOLOR
 62
   256
  9
$CELTSCALE
 40
1.0
  9
$DISPSILH
 70
     0
  9
$DIMSCALE
 40
1.0
  9
$DIMASZ
 40
0.18
  9
$DIMEXO
 40
0.0625
  9
$DIMDLI
 40
0.38
  9
$DIMRND
 40
0.0
  9
$DIMDLE
 40
0.0
  9
$DIMEXE
 40
0.18
  9
$DIMTP
 40
0.0
  9
$DIMTM
 40
0.0
  9
$DIMTXT
 40
0.18
  9
$DIMCEN
 40
0.09
  9
$DIMTSZ
 40
0.0
  9
$DIMTOL
 70
     0
  9
$DIMLIM
 70
     0
  9
$DIMTIH
 70
     1
  9
$DIMTOH
 70
     1
  9
$DIMSE1
 70
     0
  9
$DIMSE2
 70
     0
  9
$DIMTAD
 70
     0
  9
$DIMZIN
 70
     0
  9
$DIMBLK
  1

  9
$DIMASO
 70
     1
  9
$DIMSHO
 70
     1
  9
$DIMPOST
  1

  9
$DIMAPOST
  1

  9
$DIMALT
 70
     0
  9
$DIMALTD
 70
     2
  9
$DIMALTF
 40
25.4
  9
$DIMLFAC
 40
1.0
  9
$DIMTOFL
 70
     0
  9
$DIMTVP
 40
0.0
  9
$DIMTIX
 70
     0
  9
$DIMSOXD
 70
     0
  9
$DIMSAH
 70
     0
  9
$DIMBLK1
  1

  9
$DIMBLK2
  1

  9
$DIMSTYLE
  2
Standard
  9
$DIMCLRD
 70
     0
  9
$DIMCLRE
 70
     0
  9
$DIMCLRT
 70
     0
  9
$DIMTFAC
 40
1.0
  9
$DIMGAP
 40
0.09
  9
$DIMJUST
 70
     0
  9
$DIMSD1
 70
     0
  9
$DIMSD2
 70
     0
  9
$DIMTOLJ
 70
     1
  9
$DIMTZIN
 70
     0
  9
$DIMALTZ
 70
     0
  9
$DIMALTTZ
 70
     0
  9
$DIMUPT
 70
     0
  9
$DIMDEC
 70
     4
  9
$DIMTDEC
 70
     4
  9
$DIMALTU
 70
     2
  9
$DIMALTTD
 70
     2
  9
$DIMTXSTY
  7
Standard
  9
$DIMAUNIT
 70
     0
  9
$DIMADEC
 70
     0
  9
$DIMALTRND
 40
0.0
  9
$DIMAZIN
 70
     0
  9
$DIMDSEP
 70
    46
  9
$DIMATFIT
 70
     3
  9
$DIMFRAC
 70
     0
  9
$DIMLDRBLK
  1

  9
$DIMLUNIT
 70
     2
  9
$DIMLWD
 70
    -2
  9
$DIMLWE
 70
    -2
  9
$DIMTMOVE
 70
     0
  9
$DIMFXL
 40
1.0
  9
$DIMFXLON
 70
     0
  9
$DIMJOGANG
 40
0.7853981633974483
  9
$DIMTFILL
 70
     0
  9
$DIMTFILLCLR
 70
     0
  9
$DIMARCSYM
 70
     0
  9
$DIMLTYPE
  6

  9
$DIMLTEX1
  6

  9
$DIMLTEX2
  6

  9
$DIMTXTDIRECTION
 70
     0
  9
$LUNITS
 70
     2
  9
$LUPREC
 70
     4
  9
$SKETCHINC
 40
0.1
  9
$FILLETRAD
 40
0.0
  9
$AUNITS
 70
     0
  9
$AUPREC
 70
     0
  9
$MENU
  1
.
  9
$ELEVATION
 40
0.0
  9
$PELEVATION
 40
0.0
  9
$THICKNESS
 40
0.0
  9
$LIMCHECK
 70
     0
  9
$CHAMFERA
 40
0.0
  9
$CHAMFERB
 40
0.0
  9
$CHAMFERC
 40
0.0
  9
$CHAMFERD
 40
0.0
  9
$SKPOLY
 70
     0
  9
$TDCREATE
 40
2460583.783495370
  9
$TDUCREATE
 40
2460583.700162037
  9
$TDUPDATE
 40
2460583.783495370
  9
$TDUUPDATE
 40
2460583.700162037
  9
$TDINDWG
 40
0.0000000000
  9
$TDUSRTIMER
 40
0.0000000000
  9
$USRTIMER
 70
     1
  9
$ANGBASE
 50
0.0
  9
$ANGDIR
 70
     0
  9
$PDMODE
 70
     0
  9
$PDSIZE
 40
0.0
  9
$PLINEWID
 40
0.0
  9
$SPLFRAME
 70
     0
  9
$SPLINETYPE
 70
     6
  9
$SPLINESEGS
 70
     8
  9
$HANDSEED
  5
AF
  9
$SURFTAB1
 70
     6
  9
$SURFTAB2
 70
     6
  9
$SURFTYPE
 70
     6
  9
$SURFU
 70
     6
  9
$SURFV
 70
     6
  9
$UCSBASE
  2

  9
$UCSNAME
  2

  9
$UCSORG
 10
0.0
 20
0.0
 30
0.0
  9
$UCSXDIR
 10
1.0
 20
0.0
 30
0.0
  9
$UCSYDIR
 10
0.0
 20
1.0
 30
0.0
  9
$UCSORTHOREF
  2

  9
$UCSORTHOVIEW
 70
     0
  9
$UCSORGTOP
 10
0.0
 20
0.0
 30
0.0
  9
$UCSORGBOTTOM
 10
0.0
 20
0.0
 30
0.0
  9
$UCSORGLEFT
 10
0.0
 20
0.0
 30
0.0
  9
$UCSORGRIGHT
 10
0.0
 20
0.0
 30
0.0
  9
$UCSORGFRONT
 10
0.0
 20
0.0
 30
0.0
  9
$UCSORGBACK
 10
0.0
 20
0.0
 30
0.0
  9
$PUCSBASE
  2

  9
$PUCSNAME
  2

  9
$PUCSORG
 10
0.0
 20
0.0
 30
0.0
  9
$PUCSXDIR
 10
1.0
 20
0.0
 30
0.0
  9
$PUCSYDIR
 10
0.0
 20
1.0
 30
0.0
  9
$PUCSORTHOREF
  2

  9
$PUCSORTHOVIEW
 70
     0
  9
$PUCSORGTOP
 10
0.0
 20
0.0
 30
0.0
  9
$PUCSORGBOTTOM
 10
0.0
 20
0.0
 30
0.0
  9
$PUCSORGLEFT
 10
0.0
 20
0.0
 30
0.0
  9
$PUCSORGRIGHT
 10
0.0
 20
0.0
 30
0.0
  9
$PUCSORGFRONT
 10
0.0
 20
0.0
 30
0.0
  9
$PUCSORGBACK
 10
0.0
 20
0.0
 30
0.0
  9
$USERI1
 70
     0
  9
$USERI2
 70
     0
  9
$USERI3
 70
     0
  9
$USERI4
 70
     0
  9
$USERI5
 70
     0
  9
$USERR1
 40
0.0
  9
$USERR2
 40
0.0
  9
$USERR3
 40
0.0
  9
$USERR4
 40
0.0
  9
$USERR5
 40
0.0
  9
$WORLDVIEW
 70
     1
  9
$SHADEDGE
 70
     3
  9
$SHADEDIF
 70
    70
  9
$TILEMODE
 70
     1
  9
$MAXACTVP
 70
    64
  9
$PINSBASE
 10
0.0
 20
0.0
 30
0.0
  9
$PLIMCHECK
 70
     0
  9
$PEXTMIN
 10
1.000000000000000E+20
 20
1.000000000000000E+20
 30
1.000000000000000E+20
  9
$PEXTMAX
 10
-1.000000000000000E+20
 20
-1.000000000000000E+20
 30
-1.000000000000000E+20
  9
$PLIMMIN
 10
0.0
 20
0.0
  9
$PLIMMAX
 10
12.0
 20
9.0
  9
$UNITMODE
 70
     0
  9
$VISRETAIN
 70
     1
  9
$PLINEGEN
 70
     0
  9
$PSLTSCALE
 70
     1
  9
$TREEDEPTH
 70
  3020
  9
$CMLSTYLE
  2
Standard
  9
$CMLJUST
 70
     0
  9
$CMLSCALE
 40
1.0
  9
$PROXYGRAPHICS
 70
     1
  9
$MEASUREMENT
 70
     0
  9
$CELWEIGHT
370
    -1
  9
$ENDCAPS
280
     0
  9
$JOINSTYLE
280
     0
  9
$LWDISPLAY
290
     1
  9
$INSUNITS
 70
     0
  9
$HYPERLINKBASE
  1

  9
$STYLESHEET
  1

  9
$XEDIT
290
     1
  9
$CEPSNTYPE
380
     0
  9
$PSTYLEMODE
290
     1
  9
$FINGERPRINTGUID
  2
{DC0E30F7-BBDB-6047-9DC9-F817614CA8B3}
  9
$VERSIONGUID
  2
{825DD780-F66F-F143-8961-D1745EC0E435}
  9
$EXTNAMES
290
     1
  9
$PSVPSCALE
 40
0.0
  9
$OLESTARTUP
290
     0
  9
$SORTENTS
280
   127
  9
$INDEXCTL
280
     0
  9
$HIDETEXT
280
     1
  9
$XCLIPFRAME
280
     2
  9
$HALOGAP
280
     0
  9
$OBSCOLOR
 70
   257
  9
$OBSLTYPE
280
     0
  9
$INTERSECTIONDISPLAY
280
     0
  9
$INTERSECTIONCOLOR
 70
   257
  9
$DIMASSOC
280
     2
  9
$PROJECTNAME
  1

  9
$CAMERADISPLAY
290
     0
  9
$LENSLENGTH
 40
50.0
  9
$CAMERAHEIGHT
 40
0.0
  9
$STEPSPERSEC
 40
2.0
  9
$STEPSIZE
 40
6.0
  9
$3DDWFPREC
 40
2.0
  9
$PSOLWIDTH
 40
0.25
  9
$PSOLHEIGHT
 40
4.0
  9
$LOFTANG1
 40
1.570796326794896
  9
$LOFTANG2
 40
1.570796326794896
  9
$LOFTMAG1
 40
0.0
  9
$LOFTMAG2
 40
0.0
  9
$LOFTPARAM
 70
     7
  9
$LOFTNORMALS
280
     1
  9
$LATITUDE
 40
37.795
  9
$LONGITUDE
 40
-122.394
  9
$NORTHDIRECTION
 40
0.0
  9
$TIMEZONE
 70
 -8000
  9
$LIGHTGLYPHDISPLAY
280
     1
  9
$TILEMODELIGHTSYNCH
280
     1
  9
$CMATERIAL
347
11
  9
$SOLIDHIST
280
     0
  9
$SHOWHIST
280
     1
  9
$DWFFRAME
280
     2
  9
$DGNFRAME
280
     0
  9
$REALWORLDSCALE
290
     1
  9
$INTERFERECOLOR
 62
     1
  9
$INTERFEREOBJVS
345
33
  9
$INTERFEREVPVS
346
30
  9
$CSHADOW
280
     0
  9
$SHADOWPLANELOCATION
 40
0.0
  0
ENDSEC
  0
SECTION
  2
CLASSES
  0
CLASS
  1
ACDBDICTIONARYWDFLT
  2
AcDbDictionaryWithDefault
  3
ObjectDBX Classes
 90
        0
 91
        1
280
     0
281
     0
  0
CLASS
  1
MATERIAL
  2
AcDbMaterial
  3
ObjectDBX Classes
 90
     1153
 91
        3
280
     0
281
     0
  0
CLASS
  1
VISUALSTYLE
  2
AcDbVisualStyle
  3
ObjectDBX Classes
 90
     4095
 91
       24
280
     0
281
     0
  0
CLASS
  1
SCALE
  2
AcDbScale
  3
ObjectDBX Classes
 90
     1153
 91
       17
280
     0
281
     0
  0
CLASS
  1
TABLESTYLE
  2
AcDbTableStyle
  3
ObjectDBX Classes
 90
     4095
 91
        1
280
     0
281
     0
  0
CLASS
  1
MLEADERSTYLE
  2
AcDbMLeaderStyle
  3
ACDB_MLEADERSTYLE_CLASS
 90
     4095
 91
        1
280
     0
281
     0
  0
CLASS
  1
ACDBSECTIONVIEWSTYLE
  2
AcDbSectionViewStyle
  3
ObjectDBX Classes
 90
     1025
 91
        1
280
     0
281
     0
  0
CLASS
  1
ACDBDETAILVIEWSTYLE
  2
AcDbDetailViewStyle
  3
ObjectDBX Classes
 90
     1025
 91
        1
280
     0
281
     0
  0
CLASS
  1
DICTIONARYVAR
  2
AcDbDictionaryVar
  3
ObjectDBX Classes
 90
        0
 91
        5
280
     0
281
     0
  0
CLASS
  1
CELLSTYLEMAP
  2
AcDbCellStyleMap
  3
ObjectDBX Classes
 90
     1152
 91
        1
280
     0
281
     0
  0
ENDSEC
  0
SECTION
  2
TABLES
  0
TABLE
  2
VPORT
  5
8
330
0
100
AcDbSymbolTable
 70
     1
  0
VPORT
  5
57
330
8
100
AcDbSymbolTableRecord
100
AcDbViewportTableRecord
  2
*Active
 70
     0
 10
0.0
 20
0.0
 11
1.0
 21
1.0
 12
0.0
 22
0.0
 13
0.0
 23
0.0
 14
1.0
 24
1.0
 15
0.0
 25
0.0
 16
0.0
 26
0.0
 36
1.0
 17
297.6379999999999
 27
-420.9449999999996
 37
0.0
 40
858.7277999999994
 41
0.7070709950231031
 42
50.0
 43
0.0
 44
0.0
 50
0.0
 51
0.0
 71
     0
 72
   100
 73
     1
 74
     1
 75
     0
 76
     0
 77
     0
 78
     0
281
     0
 65
     1
110
0.0
120
0.0
130
0.0
111
1.0
121
0.0
131
0.0
112
0.0
122
1.0
132
0.0
 79
     0
146
0.0
 60
     3
 61
     5
292
     1
282
     1
141
0.0
142
0.0
 63
   250
421
  3355443
  0
ENDTAB
  0
TABLE
  2
LTYPE
  5
5
330
0
100
AcDbSymbolTable
 70
     1
  0
LTYPE
  5
5B
330
5
100
AcDbSymbolTableRecord
100
AcDbLinetypeTableRecord
  2
ByBlock
 70
     0
  3

 72
    65
 73
     0
 40
0.0
  0
LTYPE
  5
5C
330
5
100
AcDbSymbolTableRecord
100
AcDbLinetypeTableRecord
  2
ByLayer
 70
     0
  3

 72
    65
 73
     0
 40
0.0
  0
LTYPE
  5
5D
330
5
100
AcDbSymbolTableRecord
100
AcDbLinetypeTableRecord
  2
Continuous
 70
     0
  3
Solid line
 72
    65
 73
     0
 40
0.0
  0
ENDTAB
  0
TABLE
  2
LAYER
  5
2
330
0
100
AcDbSymbolTable
 70
     2
  0
LAYER
  5
54
330
2
100
AcDbSymbolTableRecord
100
AcDbLayerTableRecord
  2
0
 70
     0
 62
     7
  6
Continuous
370
    -3
390
F
347
21
348
0
  0
LAYER
  5
78
330
2
100
AcDbSymbolTableRecord
100
AcDbLayerTableRecord
  2
Layer 1
 70
     0
 62
     7
  6
Continuous
370
     0
390
F
347
21
348
0
  0
ENDTAB
  0
TABLE
  2
STYLE
  5
3
330
0
100
AcDbSymbolTable
 70
     2
  0
STYLE
  5
55
330
3
100
AcDbSymbolTableRecord
100
AcDbTextStyleTableRecord
  2
Standard
 70
     0
 40
0.0
 41
1.0
 50
0.0
 71
     0
 42
0.2
  3
txt
  4

  0
STYLE
  5
5A
330
3
100
AcDbSymbolTableRecord
100
AcDbTextStyleTableRecord
  2
Annotative
 70
     0
 40
0.0
 41
1.0
 50
0.0
 71
     0
 42
0.2
  3
txt
  4

1001
AcadAnnotative
1000
AnnotativeData
1002
{
1070
     1
1070
     1
1002
}
  0
ENDTAB
  0
TABLE
  2
VIEW
  5
6
330
0
100
AcDbSymbolTable
 70
     0
  0
ENDTAB
  0
TABLE
  2
UCS
  5
7
330
0
100
AcDbSymbolTable
 70
     0
  0
ENDTAB
  0
TABLE
  2
APPID
  5
9
330
0
100
AcDbSymbolTable
 70
     2
  0
APPID
  5
56
330
9
100
AcDbSymbolTableRecord
100
AcDbRegAppTableRecord
  2
ACAD
 70
     0
  0
APPID
  5
5E
330
9
100
AcDbSymbolTableRecord
100
AcDbRegAppTableRecord
  2
AcadAnnotative
 70
     0
  0
ENDTAB
  0
TABLE
  2
DIMSTYLE
  5
A
330
0
100
AcDbSymbolTable
 70
     2
100
AcDbDimStyleTable
 71
     0
  0
DIMSTYLE
105
58
330
A
100
AcDbSymbolTableRecord
100
AcDbDimStyleTableRecord
  2
Standard
 70
     0
340
55
  0
DIMSTYLE
105
59
330
A
100
AcDbSymbolTableRecord
100
AcDbDimStyleTableRecord
  2
Annotative
 70
     0
340
55
1001
AcadAnnotative
1000
AnnotativeData
1002
{
1070
     1
1070
     1
1002
}
  0
ENDTAB
  0
TABLE
  2
BLOCK_RECORD
  5
1
330
0
100
AcDbSymbolTable
 70
     3
  0
BLOCK_RECORD
  5
70
330
1
100
AcDbSymbolTableRecord
100
AcDbBlockTableRecord
  2
*Model_Space
340
73
 70
     0
280
     1
281
     0
  0
BLOCK_RECORD
  5
6C
330
1
100
AcDbSymbolTableRecord
100
AcDbBlockTableRecord
  2
*Paper_Space
340
6F
 70
     0
280
     1
281
     0
  0
BLOCK_RECORD
  5
74
330
1
100
AcDbSymbolTableRecord
100
AcDbBlockTableRecord
  2
*Paper_Space0
340
77
 70
     0
280
     1
281
     0
  0
BLOCK_RECORD
  5
79
330
1
100
AcDbSymbolTableRecord
100
AcDbBlockTableRecord
  2
Block_0
340
0
102
{BLKREFS
331
7A
102
}
 70
     0
280
     1
281
     0
  0
BLOCK_RECORD
  5
7D
330
1
100
AcDbSymbolTableRecord
100
AcDbBlockTableRecord
  2
Block_1
340
0
102
{BLKREFS
331
7E
102
}
 70
     0
280
     1
281
     0
  0
ENDTAB
  0
ENDSEC
  0
SECTION
  2
BLOCKS
  0
BLOCK
  5
71
330
70
100
AcDbEntity
  8
0
100
AcDbBlockBegin
  2
*Model_Space
 70
     0
 10
0.0
 20
0.0
 30
0.0
  3
*Model_Space
  1

  0
ENDBLK
  5
72
330
70
100
AcDbEntity
  8
0
100
AcDbBlockEnd
  0
BLOCK
  5
6D
330
6C
100
AcDbEntity
 67
     1
  8
0
100
AcDbBlockBegin
  2
*Paper_Space
 70
     0
 10
0.0
 20
0.0
 30
0.0
  3
*Paper_Space
  1

  0
ENDBLK
  5
6E
330
6C
100
AcDbEntity
 67
     1
  8
0
100
AcDbBlockEnd
  0
BLOCK
  5
75
330
74
100
AcDbEntity
 67
     1
  8
0
100
AcDbBlockBegin
  2
*Paper_Space0
 70
     0
 10
0.0
 20
0.0
 30
0.0
  3
*Paper_Space0
  1

  0
ENDBLK
  5
76
330
74
100
AcDbEntity
 67
     1
  8
0
100
AcDbBlockEnd
  0
BLOCK
  5
7B
330
79
100
AcDbEntity
  8
0
100
AcDbBlockBegin
  2
Block_0
 70
     0
 10
0.0
 20
0.0
 30
0.0
  3
Block_0
  1

  0
INSERT
  5
7E
330
79
100
AcDbEntity
  8
Layer 1
100
AcDbBlockReference
  2
Block_1
 10
0.0
 20
0.0
 30
0.0
  0
ENDBLK
  5
7C
330
79
100
AcDbEntity
  8
0
100
AcDbBlockEnd
  0
BLOCK
  5
7F
330
7D
100
AcDbEntity
  8
0
100
AcDbBlockBegin
  2
Block_1
 70
     0
 10
0.0
 20
0.0
 30
0.0
  3
Block_1
  1

  0
SPLINE
  5
81
330
7D
100
AcDbEntity
  8
Layer 1
100
AcDbSpline
210
0.0
220
0.0
230
1.0
 70
     9
 71
     3
 72
   110
 73
   106
 74
     0
 42
0.0000000001
 43
0.0000000001
 40
0.0
 40
0.0
 40
0.0
 40
0.0
 40
1.0
 40
1.0
 40
1.0
 40
2.0
 40
2.0
 40
2.0
 40
3.0
 40
3.0
 40
3.0
 40
4.0
 40
4.0
 40
4.0
 40
5.0
 40
5.0
 40
5.0
 40
6.0
 40
6.0
 40
6.0
 40
7.0
 40
7.0
 40
7.0
 40
8.0
 40
8.0
 40
8.0
 40
9.0
 40
9.0
 40
9.0
 40
10.0
 40
10.0
 40
10.0
 40
11.0
 40
11.0
 40
11.0
 40
12.0
 40
12.0
 40
12.0
 40
13.0
 40
13.0
 40
13.0
 40
14.0
 40
14.0
 40
14.0
 40
15.0
 40
15.0
 40
15.0
 40
16.0
 40
16.0
 40
16.0
 40
17.0
 40
17.0
 40
17.0
 40
18.0
 40
18.0
 40
18.0
 40
19.0
 40
19.0
 40
19.0
 40
20.0
 40
20.0
 40
20.0
 40
21.0
 40
21.0
 40
21.0
 40
22.0
 40
22.0
 40
22.0
 40
23.0
 40
23.0
 40
23.0
 40
24.0
 40
24.0
 40
24.0
 40
25.0
 40
25.0
 40
25.0
 40
26.0
 40
26.0
 40
26.0
 40
27.0
 40
27.0
 40
27.0
 40
28.0
 40
28.0
 40
28.0
 40
29.0
 40
29.0
 40
29.0
 40
30.0
 40
30.0
 40
30.0
 40
31.0
 40
31.0
 40
31.0
 40
32.0
 40
32.0
 40
32.0
 40
33.0
 40
33.0
 40
33.0
 40
34.0
 40
34.0
 40
34.0
 40
35.0
 40
35.0
 40
35.0
 40
35.0
 10
153.58251953125
 20
-280.62451171875
 30
0.0
 10
153.58251953125
 20
-284.1748046875
 30
0.0
 10
152.89404296875
 20
-287.2529296875
 30
0.0
 10
151.51708984375
 20
-289.86083984375
 30
0.0
 10
150.14013671875
 20
-292.46923828125
 30
0.0
 10
148.22119140625
 20
-294.59716796875
 30
0.0
 10
145.75830078125
 20
-296.2451171875
 30
0.0
 10
143.29443359375
 20
-297.8935546875
 30
0.0
 10
140.39697265625
 20
-299.04345703125
 30
0.0
 10
137.06494140625
 20
-299.6953125
 30
0.0
 10
137.06494140625
 20
-299.6953125
 30
0.0
 10
137.06494140625
 20
-300.1298828125
 30
0.0
 10
137.06494140625
 20
-300.1298828125
 30
0.0
 10
143.36767578125
 20
-300.92724609375
 30
0.0
 10
148.10302734375
 20
-302.955078125
 30
0.0
 10
151.27294921875
 20
-306.21533203125
 30
0.0
 10
154.44189453125
 20
-309.47509765625
 30
0.0
 10
156.02685546875
 20
-313.74951171875
 30
0.0
 10
156.02685546875
 20
-319.03759765625
 30
0.0
 10
156.02685546875
 20
-323.63818359375
 30
0.0
 10
154.94873046875
 20
-327.712890625
 30
0.0
 10
152.79443359375
 20
-331.26220703125
 30
0.0
 10
150.63916015625
 20
-334.8125
 30
0.0
 10
147.34228515625
 20
-337.59228515625
 30
0.0
 10
142.90576171875
 20
-339.6025390625
 30
0.0
 10
138.46826171875
 20
-341.61279296875
 30
0.0
 10
132.79052734375
 20
-342.61767578125
 30
0.0
 10
125.87255859375
 20
-342.61767578125
 30
0.0
 10
121.67041015625
 20
-342.61767578125
 30
0.0
 10
117.78564453125
 20
-342.28271484375
 30
0.0
 10
114.21826171875
 20
-341.61279296875
 30
0.0
 10
110.64990234375
 20
-340.94287109375
 30
0.0
 10
107.23681640625
 20
-339.8291015625
 30
0.0
 10
103.97705078125
 20
-338.271484375
 30
0.0
 10
103.97705078125
 20
-338.271484375
 30
0.0
 10
103.97705078125
 20
-329.79541015625
 30
0.0
 10
103.97705078125
 20
-329.79541015625
 30
0.0
 10
107.27197265625
 20
-331.42529296875
 30
0.0
 10
110.85791015625
 20
-332.7021484375
 30
0.0
 10
114.73486328125
 20
-333.6259765625
 30
0.0
 10
118.60986328125
 20
-334.54931640625
 30
0.0
 10
122.35888671875
 20
-335.01123046875
 30
0.0
 10
125.98095703125
 20
-335.01123046875
 30
0.0
 10
133.22509765625
 20
-335.01123046875
 30
0.0
 10
138.45947265625
 20
-333.57177734375
 30
0.0
 10
141.68310546875
 20
-330.69189453125
 30
0.0
 10
144.90673828125
 20
-327.8125
 30
0.0
 10
146.51904296875
 20
-323.873046875
 30
0.0
 10
146.51904296875
 20
-318.87451171875
 30
0.0
 10
146.51904296875
 20
-315.43359375
 30
0.0
 10
145.62255859375
 20
-312.6533203125
 30
0.0
 10
143.82958984375
 20
-310.53466796875
 30
0.0
 10
142.03662109375
 20
-308.41552734375
 30
0.0
 10
139.46435546875
 20
-306.8583984375
 30
0.0
 10
136.11474609375
 20
-305.86181640625
 30
0.0
 10
132.76318359375
 20
-304.8662109375
 30
0.0
 10
128.73388671875
 20
-304.36767578125
 30
0.0
 10
124.02490234375
 20
-304.36767578125
 30
0.0
 10
124.02490234375
 20
-304.36767578125
 30
0.0
 10
116.09228515625
 20
-304.36767578125
 30
0.0
 10
116.09228515625
 20
-304.36767578125
 30
0.0
 10
116.09228515625
 20
-304.36767578125
 30
0.0
 10
116.09228515625
 20
-296.65283203125
 30
0.0
 10
116.09228515625
 20
-296.65283203125
 30
0.0
 10
116.09228515625
 20
-296.65283203125
 30
0.0
 10
124.07958984375
 20
-296.65283203125
 30
0.0
 10
124.07958984375
 20
-296.65283203125
 30
0.0
 10
128.39013671875
 20
-296.65283203125
 30
0.0
 10
132.04736328125
 20
-296.01953125
 30
0.0
 10
135.05517578125
 20
-294.7509765625
 30
0.0
 10
138.06103515625
 20
-293.4833984375
 30
0.0
 10
140.35205078125
 20
-291.69970703125
 30
0.0
 10
141.92822265625
 20
-289.3994140625
 30
0.0
 10
143.50341796875
 20
-287.099609375
 30
0.0
 10
144.29150390625
 20
-284.37353515625
 30
0.0
 10
144.29150390625
 20
-281.22216796875
 30
0.0
 10
144.29150390625
 20
-277.20166015625
 30
0.0
 10
142.95068359375
 20
-274.09619140625
 30
0.0
 10
140.27099609375
 20
-271.904296875
 30
0.0
 10
137.58935546875
 20
-269.712890625
 30
0.0
 10
133.94970703125
 20
-268.6171875
 30
0.0
 10
129.35009765625
 20
-268.6171875
 30
0.0
 10
126.52490234375
 20
-268.6171875
 30
0.0
 10
123.95263671875
 20
-268.9072265625
 30
0.0
 10
121.63427734375
 20
-269.486328125
 30
0.0
 10
119.31591796875
 20
-270.06640625
 30
0.0
 10
117.14306640625
 20
-270.86328125
 30
0.0
 10
115.11474609375
 20
-271.876953125
 30
0.0
 10
113.08544921875
 20
-272.8916015625
 30
0.0
 10
111.05810546875
 20
-274.06884765625
 30
0.0
 10
109.02978515625
 20
-275.40869140625
 30
0.0
 10
109.02978515625
 20
-275.40869140625
 30
0.0
 10
104.46533203125
 20
-269.21484375
 30
0.0
 10
104.46533203125
 20
-269.21484375
 30
0.0
 10
107.36279296875
 20
-266.96923828125
 30
0.0
 10
110.89501953125
 20
-265.03125
 30
0.0
 10
115.06005859375
 20
-263.4013671875
 30
0.0
 10
119.22509765625
 20
-261.77099609375
 30
0.0
 10
123.95263671875
 20
-260.9560546875
 30
0.0
 10
129.24169921875
 20
-260.9560546875
 30
0.0
 10
137.35498046875
 20
-260.9560546875
 30
0.0
 10
143.43994140625
 20
-262.8037109375
 30
0.0
 10
147.49658203125
 20
-266.498046875
 30
0.0
 10
151.55322265625
 20
-270.19287109375
 30
0.0
 10
153.58251953125
 20
-274.90185546875
 30
0.0
 10
153.58251953125
 20
-280.62451171875
 30
0.0
  0
HATCH
  5
82
330
7D
100
AcDbEntity
  8
Layer 1
 62
    18
420
    65793
440
 33554687
100
AcDbHatch
 10
0.0
 20
0.0
 30
0.0
210
0.0
220
0.0
230
1.0
  2
SOLID
 70
     1
 71
     1
 91
        1
 92
        1
 93
        1
 72
     4
 94
        3
 73
     0
 74
     0
 95
      110
 96
      106
 40
0.0
 40
0.0
 40
0.0
 40
0.0
 40
1.0
 40
1.0
 40
1.0
 40
2.0
 40
2.0
 40
2.0
 40
3.0
 40
3.0
 40
3.0
 40
4.0
 40
4.0
 40
4.0
 40
5.0
 40
5.0
 40
5.0
 40
6.0
 40
6.0
 40
6.0
 40
7.0
 40
7.0
 40
7.0
 40
8.0
 40
8.0
 40
8.0
 40
9.0
 40
9.0
 40
9.0
 40
10.0
 40
10.0
 40
10.0
 40
11.0
 40
11.0
 40
11.0
 40
12.0
 40
12.0
 40
12.0
 40
13.0
 40
13.0
 40
13.0
 40
14.0
 40
14.0
 40
14.0
 40
15.0
 40
15.0
 40
15.0
 40
16.0
 40
16.0
 40
16.0
 40
17.0
 40
17.0
 40
17.0
 40
18.0
 40
18.0
 40
18.0
 40
19.0
 40
19.0
 40
19.0
 40
20.0
 40
20.0
 40
20.0
 40
21.0
 40
21.0
 40
21.0
 40
22.0
 40
22.0
 40
22.0
 40
23.0
 40
23.0
 40
23.0
 40
24.0
 40
24.0
 40
24.0
 40
25.0
 40
25.0
 40
25.0
 40
26.0
 40
26.0
 40
26.0
 40
27.0
 40
27.0
 40
27.0
 40
28.0
 40
28.0
 40
28.0
 40
29.0
 40
29.0
 40
29.0
 40
30.0
 40
30.0
 40
30.0
 40
31.0
 40
31.0
 40
31.0
 40
32.0
 40
32.0
 40
32.0
 40
33.0
 40
33.0
 40
33.0
 40
34.0
 40
34.0
 40
34.0
 40
35.0
 40
35.0
 40
35.0
 40
35.0
 10
153.58251953125
 20
-280.62451171875
 10
153.58251953125
 20
-284.1748046875
 10
152.89404296875
 20
-287.2529296875
 10
151.51708984375
 20
-289.86083984375
 10
150.14013671875
 20
-292.46923828125
 10
148.22119140625
 20
-294.59716796875
 10
145.75830078125
 20
-296.2451171875
 10
143.29443359375
 20
-297.8935546875
 10
140.39697265625
 20
-299.04345703125
 10
137.06494140625
 20
-299.6953125
 10
137.06494140625
 20
-299.6953125
 10
137.06494140625
 20
-300.1298828125
 10
137.06494140625
 20
-300.1298828125
 10
143.36767578125
 20
-300.92724609375
 10
148.10302734375
 20
-302.955078125
 10
151.27294921875
 20
-306.21533203125
 10
154.44189453125
 20
-309.47509765625
 10
156.02685546875
 20
-313.74951171875
 10
156.02685546875
 20
-319.03759765625
 10
156.02685546875
 20
-323.63818359375
 10
154.94873046875
 20
-327.712890625
 10
152.79443359375
 20
-331.26220703125
 10
150.63916015625
 20
-334.8125
 10
147.34228515625
 20
-337.59228515625
 10
142.90576171875
 20
-339.6025390625
 10
138.46826171875
 20
-341.61279296875
 10
132.79052734375
 20
-342.61767578125
 10
125.87255859375
 20
-342.61767578125
 10
121.67041015625
 20
-342.61767578125
 10
117.78564453125
 20
-342.28271484375
 10
114.21826171875
 20
-341.61279296875
 10
110.64990234375
 20
-340.94287109375
 10
107.23681640625
 20
-339.8291015625
 10
103.97705078125
 20
-338.271484375
 10
103.97705078125
 20
-338.271484375
 10
103.97705078125
 20
-329.79541015625
 10
103.97705078125
 20
-329.79541015625
 10
107.27197265625
 20
-331.42529296875
 10
110.85791015625
 20
-332.7021484375
 10
114.73486328125
 20
-333.6259765625
 10
118.60986328125
 20
-334.54931640625
 10
122.35888671875
 20
-335.01123046875
 10
125.98095703125
 20
-335.01123046875
 10
133.22509765625
 20
-335.01123046875
 10
138.45947265625
 20
-333.57177734375
 10
141.68310546875
 20
-330.69189453125
 10
144.90673828125
 20
-327.8125
 10
146.51904296875
 20
-323.873046875
 10
146.51904296875
 20
-318.87451171875
 10
146.51904296875
 20
-315.43359375
 10
145.62255859375
 20
-312.6533203125
 10
143.82958984375
 20
-310.53466796875
 10
142.03662109375
 20
-308.41552734375
 10
139.46435546875
 20
-306.8583984375
 10
136.11474609375
 20
-305.86181640625
 10
132.76318359375
 20
-304.8662109375
 10
128.73388671875
 20
-304.36767578125
 10
124.02490234375
 20
-304.36767578125
 10
124.02490234375
 20
-304.36767578125
 10
116.09228515625
 20
-304.36767578125
 10
116.09228515625
 20
-304.36767578125
 10
116.09228515625
 20
-304.36767578125
 10
116.09228515625
 20
-296.65283203125
 10
116.09228515625
 20
-296.65283203125
 10
116.09228515625
 20
-296.65283203125
 10
124.07958984375
 20
-296.65283203125
 10
124.07958984375
 20
-296.65283203125
 10
128.39013671875
 20
-296.65283203125
 10
132.04736328125
 20
-296.01953125
 10
135.05517578125
 20
-294.7509765625
 10
138.06103515625
 20
-293.4833984375
 10
140.35205078125
 20
-291.69970703125
 10
141.92822265625
 20
-289.3994140625
 10
143.50341796875
 20
-287.099609375
 10
144.29150390625
 20
-284.37353515625
 10
144.29150390625
 20
-281.22216796875
 10
144.29150390625
 20
-277.20166015625
 10
142.95068359375
 20
-274.09619140625
 10
140.27099609375
 20
-271.904296875
 10
137.58935546875
 20
-269.712890625
 10
133.94970703125
 20
-268.6171875
 10
129.35009765625
 20
-268.6171875
 10
126.52490234375
 20
-268.6171875
 10
123.95263671875
 20
-268.9072265625
 10
121.63427734375
 20
-269.486328125
 10
119.31591796875
 20
-270.06640625
 10
117.14306640625
 20
-270.86328125
 10
115.11474609375
 20
-271.876953125
 10
113.08544921875
 20
-272.8916015625
 10
111.05810546875
 20
-274.06884765625
 10
109.02978515625
 20
-275.40869140625
 10
109.02978515625
 20
-275.40869140625
 10
104.46533203125
 20
-269.21484375
 10
104.46533203125
 20
-269.21484375
 10
107.36279296875
 20
-266.96923828125
 10
110.89501953125
 20
-265.03125
 10
115.06005859375
 20
-263.4013671875
 10
119.22509765625
 20
-261.77099609375
 10
123.95263671875
 20
-260.9560546875
 10
129.24169921875
 20
-260.9560546875
 10
137.35498046875
 20
-260.9560546875
 10
143.43994140625
 20
-262.8037109375
 10
147.49658203125
 20
-266.498046875
 10
151.55322265625
 20
-270.19287109375
 10
153.58251953125
 20
-274.90185546875
 10
153.58251953125
 20
-280.62451171875
 97
        0
 97
        1
330
81
 75
     2
 76
     1
 98
        1
 10
0.0
 20
0.0
450
        0
451
        0
460
0.0
461
0.0
452
        0
462
0.0
453
        0
470

  0
SPLINE
  5
83
330
7D
100
AcDbEntity
  8
Layer 1
100
AcDbSpline
210
0.0
220
0.0
230
1.0
 70
    11
 71
     3
 72
    41
 73
    37
 74
     0
 42
0.0000000001
 43
0.0000000001
 40
0.0
 40
0.0
 40
0.0
 40
0.0
 40
1.0
 40
1.0
 40
1.0
 40
2.0
 40
2.0
 40
2.0
 40
3.0
 40
3.0
 40
3.0
 40
4.0
 40
4.0
 40
4.0
 40
5.0
 40
5.0
 40
5.0
 40
6.0
 40
6.0
 40
6.0
 40
7.0
 40
7.0
 40
7.0
 40
8.0
 40
8.0
 40
8.0
 40
9.0
 40
9.0
 40
9.0
 40
10.0
 40
10.0
 40
10.0
 40
11.0
 40
11.0
 40
11.0
 40
12.0
 40
12.0
 40
12.0
 40
12.0
 10
201.66650390625
 20
-341.53125
 30
0.0
 10
201.66650390625
 20
-341.53125
 30
0.0
 10
192.86474609375
 20
-341.53125
 30
0.0
 10
192.86474609375
 20
-341.53125
 30
0.0
 10
192.86474609375
 20
-341.53125
 30
0.0
 10
192.86474609375
 20
-285.24267578125
 30
0.0
 10
192.86474609375
 20
-285.24267578125
 30
0.0
 10
192.86474609375
 20
-283.10595703125
 30
0.0
 10
192.87255859375
 20
-281.26806640625
 30
0.0
 10
192.89111328125
 20
-279.72802734375
 30
0.0
 10
192.90966796875
 20
-278.18896484375
 30
0.0
 10
192.94580078125
 20
-276.7763671875
 30
0.0
 10
193.00048828125
 20
-275.490234375
 30
0.0
 10
193.05419921875
 20
-274.20458984375
 30
0.0
 10
193.13623046875
 20
-272.8916015625
 30
0.0
 10
193.24462890625
 20
-271.55078125
 30
0.0
 10
192.12158203125
 20
-272.71044921875
 30
0.0
 10
191.07177734375
 20
-273.697265625
 30
0.0
 10
190.09326171875
 20
-274.51220703125
 30
0.0
 10
189.11572265625
 20
-275.3271484375
 30
0.0
 10
187.90087890625
 20
-276.33203125
 30
0.0
 10
186.45263671875
 20
-277.52734375
 30
0.0
 10
186.45263671875
 20
-277.52734375
 30
0.0
 10
177.37939453125
 20
-284.80810546875
 30
0.0
 10
177.37939453125
 20
-284.80810546875
 30
0.0
 10
177.37939453125
 20
-284.80810546875
 30
0.0
 10
172.65283203125
 20
-278.66845703125
 30
0.0
 10
172.65283203125
 20
-278.66845703125
 30
0.0
 10
172.65283203125
 20
-278.66845703125
 30
0.0
 10
194.16845703125
 20
-262.09716796875
 30
0.0
 10
194.16845703125
 20
-262.09716796875
 30
0.0
 10
194.16845703125
 20
-262.09716796875
 30
0.0
 10
201.66650390625
 20
-262.09716796875
 30
0.0
 10
201.66650390625
 20
-262.09716796875
 30
0.0
 10
201.66650390625
 20
-262.09716796875
 30
0.0
 10
201.66650390625
 20
-341.53125
 30
0.0
 10
201.66650390625
 20
-341.53125
 30
0.0
  0
HATCH
  5
84
330
7D
100
AcDbEntity
  8
Layer 1
 62
    18
420
    65793
440
 33554687
100
AcDbHatch
 10
0.0
 20
0.0
 30
0.0
210
0.0
220
0.0
230
1.0
  2
SOLID
 70
     1
 71
     1
 91
        1
 92
        1
 93
        1
 72
     4
 94
        3
 73
     0
 74
     0
 95
       41
 96
       37
 40
0.0
 40
0.0
 40
0.0
 40
0.0
 40
1.0
 40
1.0
 40
1.0
 40
2.0
 40
2.0
 40
2.0
 40
3.0
 40
3.0
 40
3.0
 40
4.0
 40
4.0
 40
4.0
 40
5.0
 40
5.0
 40
5.0
 40
6.0
 40
6.0
 40
6.0
 40
7.0
 40
7.0
 40
7.0
 40
8.0
 40
8.0
 40
8.0
 40
9.0
 40
9.0
 40
9.0
 40
10.0
 40
10.0
 40
10.0
 40
11.0
 40
11.0
 40
11.0
 40
12.0
 40
12.0
 40
12.0
 40
12.0
 10
201.66650390625
 20
-341.53125
 10
201.66650390625
 20
-341.53125
 10
192.86474609375
 20
-341.53125
 10
192.86474609375
 20
-341.53125
 10
192.86474609375
 20
-341.53125
 10
192.86474609375
 20
-285.24267578125
 10
192.86474609375
 20
-285.24267578125
 10
192.86474609375
 20
-283.10595703125
 10
192.87255859375
 20
-281.26806640625
 10
192.89111328125
 20
-279.72802734375
 10
192.90966796875
 20
-278.18896484375
 10
192.94580078125
 20
-276.7763671875
 10
193.00048828125
 20
-275.490234375
 10
193.05419921875
 20
-274.20458984375
 10
193.13623046875
 20
-272.8916015625
 10
193.24462890625
 20
-271.55078125
 10
192.12158203125
 20
-272.71044921875
 10
191.07177734375
 20
-273.697265625
 10
190.09326171875
 20
-274.51220703125
 10
189.11572265625
 20
-275.3271484375
 10
187.90087890625
 20
-276.33203125
 10
186.45263671875
 20
-277.52734375
 10
186.45263671875
 20
-277.52734375
 10
177.37939453125
 20
-284.80810546875
 10
177.37939453125
 20
-284.80810546875
 10
177.37939453125
 20
-284.80810546875
 10
172.65283203125
 20
-278.66845703125
 10
172.65283203125
 20
-278.66845703125
 10
172.65283203125
 20
-278.66845703125
 10
194.16845703125
 20
-262.09716796875
 10
194.16845703125
 20
-262.09716796875
 10
194.16845703125
 20
-262.09716796875
 10
201.66650390625
 20
-262.09716796875
 10
201.66650390625
 20
-262.09716796875
 10
201.66650390625
 20
-262.09716796875
 10
201.66650390625
 20
-341.53125
 10
201.66650390625
 20
-341.53125
 97
        0
 97
        1
330
83
 75
     2
 76
     1
 98
        1
 10
0.0
 20
0.0
450
        0
451
        0
460
0.0
461
0.0
452
        0
462
0.0
453
        0
470

  0
SPLINE
  5
85
330
7D
100
AcDbEntity
  8
Layer 1
100
AcDbSpline
210
0.0
220
0.0
230
1.0
 70
     9
 71
     3
 72
    26
 73
    22
 74
     0
 42
0.0000000001
 43
0.0000000001
 40
0.0
 40
0.0
 40
0.0
 40
0.0
 40
1.0
 40
1.0
 40
1.0
 40
2.0
 40
2.0
 40
2.0
 40
3.0
 40
3.0
 40
3.0
 40
4.0
 40
4.0
 40
4.0
 40
5.0
 40
5.0
 40
5.0
 40
6.0
 40
6.0
 40
6.0
 40
7.0
 40
7.0
 40
7.0
 40
7.0
 10
249.66357421875
 20
-270.083984375
 30
0.0
 10
249.66357421875
 20
-270.083984375
 30
0.0
 10
237.98193359375
 20
-270.083984375
 30
0.0
 10
237.98193359375
 20
-270.083984375
 30
0.0
 10
237.98193359375
 20
-270.083984375
 30
0.0
 10
237.98193359375
 20
-300.564453125
 30
0.0
 10
237.98193359375
 20
-300.564453125
 30
0.0
 10
237.98193359375
 20
-300.564453125
 30
0.0
 10
250.58740234375
 20
-300.564453125
 30
0.0
 10
250.58740234375
 20
-300.564453125
 30
0.0
 10
257.07080078125
 20
-300.564453125
 30
0.0
 10
261.84326171875
 20
-299.24267578125
 30
0.0
 10
264.90380859375
 20
-296.59814453125
 30
0.0
 10
267.96435546875
 20
-293.95458984375
 30
0.0
 10
269.49560546875
 20
-290.060546875
 30
0.0
 10
269.49560546875
 20
-284.9169921875
 30
0.0
 10
269.49560546875
 20
-279.52001953125
 30
0.0
 10
267.87353515625
 20
-275.69873046875
 30
0.0
 10
264.63232421875
 20
-273.45263671875
 30
0.0
 10
261.39013671875
 20
-271.20703125
 30
0.0
 10
256.40087890625
 20
-270.083984375
 30
0.0
 10
249.66357421875
 20
-270.083984375
 30
0.0
  0
SPLINE
  5
86
330
7D
100
AcDbEntity
  8
Layer 1
100
AcDbSpline
210
0.0
220
0.0
230
1.0
 70
     9
 71
     3
 72
    47
 73
    43
 74
     0
 42
0.0000000001
 43
0.0000000001
 40
0.0
 40
0.0
 40
0.0
 40
0.0
 40
1.0
 40
1.0
 40
1.0
 40
2.0
 40
2.0
 40
2.0
 40
3.0
 40
3.0
 40
3.0
 40
4.0
 40
4.0
 40
4.0
 40
5.0
 40
5.0
 40
5.0
 40
6.0
 40
6.0
 40
6.0
 40
7.0
 40
7.0
 40
7.0
 40
8.0
 40
8.0
 40
8.0
 40
9.0
 40
9.0
 40
9.0
 40
10.0
 40
10.0
 40
10.0
 40
11.0
 40
11.0
 40
11.0
 40
12.0
 40
12.0
 40
12.0
 40
13.0
 40
13.0
 40
13.0
 40
14.0
 40
14.0
 40
14.0
 40
14.0
 10
250.20751953125
 20
-262.09716796875
 30
0.0
 10
256.72705078125
 20
-262.09716796875
 30
0.0
 10
262.11474609375
 20
-262.90380859375
 30
0.0
 10
266.37158203125
 20
-264.51513671875
 30
0.0
 10
270.62646484375
 20
-266.126953125
 30
0.0
 10
273.80517578125
 20
-268.58154296875
 30
0.0
 10
275.90673828125
 20
-271.876953125
 30
0.0
 10
278.00634765625
 20
-275.17333984375
 30
0.0
 10
279.05810546875
 20
-279.375
 30
0.0
 10
279.05810546875
 20
-284.48193359375
 30
0.0
 10
279.05810546875
 20
-288.6845703125
 30
0.0
 10
278.29736328125
 20
-292.18896484375
 30
0.0
 10
276.77587890625
 20
-294.99560546875
 30
0.0
 10
275.25439453125
 20
-297.802734375
 30
0.0
 10
273.26220703125
 20
-300.07568359375
 30
0.0
 10
270.79931640625
 20
-301.814453125
 30
0.0
 10
268.33544921875
 20
-303.552734375
 30
0.0
 10
265.70947265625
 20
-304.8935546875
 30
0.0
 10
262.92138671875
 20
-305.8349609375
 30
0.0
 10
262.92138671875
 20
-305.8349609375
 30
0.0
 10
284.70849609375
 20
-341.53125
 30
0.0
 10
284.70849609375
 20
-341.53125
 30
0.0
 10
284.70849609375
 20
-341.53125
 30
0.0
 10
273.95068359375
 20
-341.53125
 30
0.0
 10
273.95068359375
 20
-341.53125
 30
0.0
 10
273.95068359375
 20
-341.53125
 30
0.0
 10
254.49951171875
 20
-308.388671875
 30
0.0
 10
254.49951171875
 20
-308.388671875
 30
0.0
 10
254.49951171875
 20
-308.388671875
 30
0.0
 10
237.98193359375
 20
-308.388671875
 30
0.0
 10
237.98193359375
 20
-308.388671875
 30
0.0
 10
237.98193359375
 20
-308.388671875
 30
0.0
 10
237.98193359375
 20
-341.53125
 30
0.0
 10
237.98193359375
 20
-341.53125
 30
0.0
 10
237.98193359375
 20
-341.53125
 30
0.0
 10
228.74560546875
 20
-341.53125
 30
0.0
 10
228.74560546875
 20
-341.53125
 30
0.0
 10
228.74560546875
 20
-341.53125
 30
0.0
 10
228.74560546875
 20
-262.09716796875
 30
0.0
 10
228.74560546875
 20
-262.09716796875
 30
0.0
 10
228.74560546875
 20
-262.09716796875
 30
0.0
 10
250.20751953125
 20
-262.09716796875
 30
0.0
 10
250.20751953125
 20
-262.09716796875
 30
0.0
  0
HATCH
  5
87
330
7D
100
AcDbEntity
  8
Layer 1
 62
    18
420
    65793
440
 33554687
100
AcDbHatch
 10
0.0
 20
0.0
 30
0.0
210
0.0
220
0.0
230
1.0
  2
SOLID
 70
     1
 71
     1
 91
        2
 92
        1
 93
        1
 72
     4
 94
        3
 73
     0
 74
     0
 95
       26
 96
       22
 40
0.0
 40
0.0
 40
0.0
 40
0.0
 40
1.0
 40
1.0
 40
1.0
 40
2.0
 40
2.0
 40
2.0
 40
3.0
 40
3.0
 40
3.0
 40
4.0
 40
4.0
 40
4.0
 40
5.0
 40
5.0
 40
5.0
 40
6.0
 40
6.0
 40
6.0
 40
7.0
 40
7.0
 40
7.0
 40
7.0
 10
249.66357421875
 20
-270.083984375
 10
249.66357421875
 20
-270.083984375
 10
237.98193359375
 20
-270.083984375
 10
237.98193359375
 20
-270.083984375
 10
237.98193359375
 20
-270.083984375
 10
237.98193359375
 20
-300.564453125
 10
237.98193359375
 20
-300.564453125
 10
237.98193359375
 20
-300.564453125
 10
250.58740234375
 20
-300.564453125
 10
250.58740234375
 20
-300.564453125
 10
257.07080078125
 20
-300.564453125
 10
261.84326171875
 20
-299.24267578125
 10
264.90380859375
 20
-296.59814453125
 10
267.96435546875
 20
-293.95458984375
 10
269.49560546875
 20
-290.060546875
 10
269.49560546875
 20
-284.9169921875
 10
269.49560546875
 20
-279.52001953125
 10
267.87353515625
 20
-275.69873046875
 10
264.63232421875
 20
-273.45263671875
 10
261.39013671875
 20
-271.20703125
 10
256.40087890625
 20
-270.083984375
 10
249.66357421875
 20
-270.083984375
 97
        0
 97
        1
330
85
 92
        1
 93
        1
 72
     4
 94
        3
 73
     0
 74
     0
 95
       47
 96
       43
 40
0.0
 40
0.0
 40
0.0
 40
0.0
 40
1.0
 40
1.0
 40
1.0
 40
2.0
 40
2.0
 40
2.0
 40
3.0
 40
3.0
 40
3.0
 40
4.0
 40
4.0
 40
4.0
 40
5.0
 40
5.0
 40
5.0
 40
6.0
 40
6.0
 40
6.0
 40
7.0
 40
7.0
 40
7.0
 40
8.0
 40
8.0
 40
8.0
 40
9.0
 40
9.0
 40
9.0
 40
10.0
 40
10.0
 40
10.0
 40
11.0
 40
11.0
 40
11.0
 40
12.0
 40
12.0
 40
12.0
 40
13.0
 40
13.0
 40
13.0
 40
14.0
 40
14.0
 40
14.0
 40
14.0
 10
250.20751953125
 20
-262.09716796875
 10
256.72705078125
 20
-262.09716796875
 10
262.11474609375
 20
-262.90380859375
 10
266.37158203125
 20
-264.51513671875
 10
270.62646484375
 20
-266.126953125
 10
273.80517578125
 20
-268.58154296875
 10
275.90673828125
 20
-271.876953125
 10
278.00634765625
 20
-275.17333984375
 10
279.05810546875
 20
-279.375
 10
279.05810546875
 20
-284.48193359375
 10
279.05810546875
 20
-288.6845703125
 10
278.29736328125
 20
-292.18896484375
 10
276.77587890625
 20
-294.99560546875
 10
275.25439453125
 20
-297.802734375
 10
273.26220703125
 20
-300.07568359375
 10
270.79931640625
 20
-301.814453125
 10
268.33544921875
 20
-303.552734375
 10
265.70947265625
 20
-304.8935546875
 10
262.92138671875
 20
-305.8349609375
 10
262.92138671875
 20
-305.8349609375
 10
284.70849609375
 20
-341.53125
 10
284.70849609375
 20
-341.53125
 10
284.70849609375
 20
-341.53125
 10
273.95068359375
 20
-341.53125
 10
273.95068359375
 20
-341.53125
 10
273.95068359375
 20
-341.53125
 10
254.49951171875
 20
-308.388671875
 10
254.49951171875
 20
-308.388671875
 10
254.49951171875
 20
-308.388671875
 10
237.98193359375
 20
-308.388671875
 10
237.98193359375
 20
-308.388671875
 10
237.98193359375
 20
-308.388671875
 10
237.98193359375
 20
-341.53125
 10
237.98193359375
 20
-341.53125
 10
237.98193359375
 20
-341.53125
 10
228.74560546875
 20
-341.53125
 10
228.74560546875
 20
-341.53125
 10
228.74560546875
 20
-341.53125
 10
228.74560546875
 20
-262.09716796875
 10
228.74560546875
 20
-262.09716796875
 10
228.74560546875
 20
-262.09716796875
 10
250.20751953125
 20
-262.09716796875
 10
250.20751953125
 20
-262.09716796875
 97
        0
 97
        1
330
86
 75
     2
 76
     1
 98
        1
 10
0.0
 20
0.0
450
        0
451
        0
460
0.0
461
0.0
452
        0
462
0.0
453
        0
470

  0
SPLINE
  5
88
330
7D
100
AcDbEntity
  8
Layer 1
100
AcDbSpline
210
0.0
220
0.0
230
1.0
 70
    11
 71
     3
 72
    41
 73
    37
 74
     0
 42
0.0000000001
 43
0.0000000001
 40
0.0
 40
0.0
 40
0.0
 40
0.0
 40
1.0
 40
1.0
 40
1.0
 40
2.0
 40
2.0
 40
2.0
 40
3.0
 40
3.0
 40
3.0
 40
4.0
 40
4.0
 40
4.0
 40
5.0
 40
5.0
 40
5.0
 40
6.0
 40
6.0
 40
6.0
 40
7.0
 40
7.0
 40
7.0
 40
8.0
 40
8.0
 40
8.0
 40
9.0
 40
9.0
 40
9.0
 40
10.0
 40
10.0
 40
10.0
 40
11.0
 40
11.0
 40
11.0
 40
12.0
 40
12.0
 40
12.0
 40
12.0
 10
354.5263671875
 20
-341.53125
 30
0.0
 10
354.5263671875
 20
-341.53125
 30
0.0
 10
345.724609375
 20
-341.53125
 30
0.0
 10
345.724609375
 20
-341.53125
 30
0.0
 10
345.724609375
 20
-341.53125
 30
0.0
 10
345.724609375
 20
-285.24267578125
 30
0.0
 10
345.724609375
 20
-285.24267578125
 30
0.0
 10
345.724609375
 20
-283.10595703125
 30
0.0
 10
345.732421875
 20
-281.26806640625
 30
0.0
 10
345.7509765625
 20
-279.72802734375
 30
0.0
 10
345.76953125
 20
-278.18896484375
 30
0.0
 10
345.8056640625
 20
-276.7763671875
 30
0.0
 10
345.8603515625
 20
-275.490234375
 30
0.0
 10
345.9140625
 20
-274.20458984375
 30
0.0
 10
345.99609375
 20
-272.8916015625
 30
0.0
 10
346.1044921875
 20
-271.55078125
 30
0.0
 10
344.9814453125
 20
-272.71044921875
 30
0.0
 10
343.931640625
 20
-273.697265625
 30
0.0
 10
342.953125
 20
-274.51220703125
 30
0.0
 10
341.9755859375
 20
-275.3271484375
 30
0.0
 10
340.7607421875
 20
-276.33203125
 30
0.0
 10
339.3125
 20
-277.52734375
 30
0.0
 10
339.3125
 20
-277.52734375
 30
0.0
 10
330.2392578125
 20
-284.80810546875
 30
0.0
 10
330.2392578125
 20
-284.80810546875
 30
0.0
 10
330.2392578125
 20
-284.80810546875
 30
0.0
 10
325.5126953125
 20
-278.66845703125
 30
0.0
 10
325.5126953125
 20
-278.66845703125
 30
0.0
 10
325.5126953125
 20
-278.66845703125
 30
0.0
 10
347.0283203125
 20
-262.09716796875
 30
0.0
 10
347.0283203125
 20
-262.09716796875
 30
0.0
 10
347.0283203125
 20
-262.09716796875
 30
0.0
 10
354.5263671875
 20
-262.09716796875
 30
0.0
 10
354.5263671875
 20
-262.09716796875
 30
0.0
 10
354.5263671875
 20
-262.09716796875
 30
0.0
 10
354.5263671875
 20
-341.53125
 30
0.0
 10
354.5263671875
 20
-341.53125
 30
0.0
  0
HATCH
  5
89
330
7D
100
AcDbEntity
  8
Layer 1
 62
    18
420
    65793
440
 33554687
100
AcDbHatch
 10
0.0
 20
0.0
 30
0.0
210
0.0
220
0.0
230
1.0
  2
SOLID
 70
     1
 71
     1
 91
        1
 92
        1
 93
        1
 72
     4
 94
        3
 73
     0
 74
     0
 95
       41
 96
       37
 40
0.0
 40
0.0
 40
0.0
 40
0.0
 40
1.0
 40
1.0
 40
1.0
 40
2.0
 40
2.0
 40
2.0
 40
3.0
 40
3.0
 40
3.0
 40
4.0
 40
4.0
 40
4.0
 40
5.0
 40
5.0
 40
5.0
 40
6.0
 40
6.0
 40
6.0
 40
7.0
 40
7.0
 40
7.0
 40
8.0
 40
8.0
 40
8.0
 40
9.0
 40
9.0
 40
9.0
 40
10.0
 40
10.0
 40
10.0
 40
11.0
 40
11.0
 40
11.0
 40
12.0
 40
12.0
 40
12.0
 40
12.0
 10
354.5263671875
 20
-341.53125
 10
354.5263671875
 20
-341.53125
 10
345.724609375
 20
-341.53125
 10
345.724609375
 20
-341.53125
 10
345.724609375
 20
-341.53125
 10
345.724609375
 20
-285.24267578125
 10
345.724609375
 20
-285.24267578125
 10
345.724609375
 20
-283.10595703125
 10
345.732421875
 20
-281.26806640625
 10
345.7509765625
 20
-279.72802734375
 10
345.76953125
 20
-278.18896484375
 10
345.8056640625
 20
-276.7763671875
 10
345.8603515625
 20
-275.490234375
 10
345.9140625
 20
-274.20458984375
 10
345.99609375
 20
-272.8916015625
 10
346.1044921875
 20
-271.55078125
 10
344.9814453125
 20
-272.71044921875
 10
343.931640625
 20
-273.697265625
 10
342.953125
 20
-274.51220703125
 10
341.9755859375
 20
-275.3271484375
 10
340.7607421875
 20
-276.33203125
 10
339.3125
 20
-277.52734375
 10
339.3125
 20
-277.52734375
 10
330.2392578125
 20
-284.80810546875
 10
330.2392578125
 20
-284.80810546875
 10
330.2392578125
 20
-284.80810546875
 10
325.5126953125
 20
-278.66845703125
 10
325.5126953125
 20
-278.66845703125
 10
325.5126953125
 20
-278.66845703125
 10
347.0283203125
 20
-262.09716796875
 10
347.0283203125
 20
-262.09716796875
 10
347.0283203125
 20
-262.09716796875
 10
354.5263671875
 20
-262.09716796875
 10
354.5263671875
 20
-262.09716796875
 10
354.5263671875
 20
-262.09716796875
 10
354.5263671875
 20
-341.53125
 10
354.5263671875
 20
-341.53125
 97
        0
 97
        1
330
88
 75
     2
 76
     1
 98
        1
 10
0.0
 20
0.0
450
        0
451
        0
460
0.0
461
0.0
452
        0
462
0.0
453
        0
470

  0
SPLINE
  5
8A
330
7D
100
AcDbEntity
  8
Layer 1
100
AcDbSpline
210
0.0
220
0.0
230
1.0
 70
     9
 71
     3
 72
   110
 73
   106
 74
     0
 42
0.0000000001
 43
0.0000000001
 40
0.0
 40
0.0
 40
0.0
 40
0.0
 40
1.0
 40
1.0
 40
1.0
 40
2.0
 40
2.0
 40
2.0
 40
3.0
 40
3.0
 40
3.0
 40
4.0
 40
4.0
 40
4.0
 40
5.0
 40
5.0
 40
5.0
 40
6.0
 40
6.0
 40
6.0
 40
7.0
 40
7.0
 40
7.0
 40
8.0
 40
8.0
 40
8.0
 40
9.0
 40
9.0
 40
9.0
 40
10.0
 40
10.0
 40
10.0
 40
11.0
 40
11.0
 40
11.0
 40
12.0
 40
12.0
 40
12.0
 40
13.0
 40
13.0
 40
13.0
 40
14.0
 40
14.0
 40
14.0
 40
15.0
 40
15.0
 40
15.0
 40
16.0
 40
16.0
 40
16.0
 40
17.0
 40
17.0
 40
17.0
 40
18.0
 40
18.0
 40
18.0
 40
19.0
 40
19.0
 40
19.0
 40
20.0
 40
20.0
 40
20.0
 40
21.0
 40
21.0
 40
21.0
 40
22.0
 40
22.0
 40
22.0
 40
23.0
 40
23.0
 40
23.0
 40
24.0
 40
24.0
 40
24.0
 40
25.0
 40
25.0
 40
25.0
 40
26.0
 40
26.0
 40
26.0
 40
27.0
 40
27.0
 40
27.0
 40
28.0
 40
28.0
 40
28.0
 40
29.0
 40
29.0
 40
29.0
 40
30.0
 40
30.0
 40
30.0
 40
31.0
 40
31.0
 40
31.0
 40
32.0
 40
32.0
 40
32.0
 40
33.0
 40
33.0
 40
33.0
 40
34.0
 40
34.0
 40
34.0
 40
35.0
 40
35.0
 40
35.0
 40
35.0
 10
425.3427734375
 20
-280.62451171875
 30
0.0
 10
425.3427734375
 20
-284.1748046875
 30
0.0
 10
424.654296875
 20
-287.2529296875
 30
0.0
 10
423.2773437499999
 20
-289.86083984375
 30
0.0
 10
421.900390625
 20
-292.46923828125
 30
0.0
 10
419.9814453124999
 20
-294.59716796875
 30
0.0
 10
417.5185546875
 20
-296.2451171875
 30
0.0
 10
415.0546874999999
 20
-297.8935546875
 30
0.0
 10
412.1572265624999
 20
-299.04345703125
 30
0.0
 10
408.8251953124999
 20
-299.6953125
 30
0.0
 10
408.8251953124999
 20
-299.6953125
 30
0.0
 10
408.8251953124999
 20
-300.1298828125
 30
0.0
 10
408.8251953124999
 20
-300.1298828125
 30
0.0
 10
415.1279296874999
 20
-300.92724609375
 30
0.0
 10
419.8632812499999
 20
-302.955078125
 30
0.0
 10
423.0332031249999
 20
-306.21533203125
 30
0.0
 10
426.2021484375
 20
-309.47509765625
 30
0.0
 10
427.7871093749999
 20
-313.74951171875
 30
0.0
 10
427.7871093749999
 20
-319.03759765625
 30
0.0
 10
427.7871093749999
 20
-323.63818359375
 30
0.0
 10
426.708984375
 20
-327.712890625
 30
0.0
 10
424.5546875
 20
-331.26220703125
 30
0.0
 10
422.3994140624999
 20
-334.8125
 30
0.0
 10
419.1025390624999
 20
-337.59228515625
 30
0.0
 10
414.666015625
 20
-339.6025390625
 30
0.0
 10
410.2285156249999
 20
-341.61279296875
 30
0.0
 10
404.55078125
 20
-342.61767578125
 30
0.0
 10
397.6328125
 20
-342.61767578125
 30
0.0
 10
393.4306640625
 20
-342.61767578125
 30
0.0
 10
389.5458984375
 20
-342.28271484375
 30
0.0
 10
385.978515625
 20
-341.61279296875
 30
0.0
 10
382.41015625
 20
-340.94287109375
 30
0.0
 10
378.9970703125
 20
-339.8291015625
 30
0.0
 10
375.7373046875
 20
-338.271484375
 30
0.0
 10
375.7373046875
 20
-338.271484375
 30
0.0
 10
375.7373046875
 20
-329.79541015625
 30
0.0
 10
375.7373046875
 20
-329.79541015625
 30
0.0
 10
379.0322265625
 20
-331.42529296875
 30
0.0
 10
382.6181640625
 20
-332.7021484375
 30
0.0
 10
386.4951171875
 20
-333.6259765625
 30
0.0
 10
390.3701171875
 20
-334.54931640625
 30
0.0
 10
394.119140625
 20
-335.01123046875
 30
0.0
 10
397.7412109375
 20
-335.01123046875
 30
0.0
 10
404.9853515625
 20
-335.01123046875
 30
0.0
 10
410.2197265624999
 20
-333.57177734375
 30
0.0
 10
413.4433593749999
 20
-330.69189453125
 30
0.0
 10
416.6669921875
 20
-327.8125
 30
0.0
 10
418.279296875
 20
-323.873046875
 30
0.0
 10
418.279296875
 20
-318.87451171875
 30
0.0
 10
418.279296875
 20
-315.43359375
 30
0.0
 10
417.3828125
 20
-312.6533203125
 30
0.0
 10
415.58984375
 20
-310.53466796875
 30
0.0
 10
413.7968749999999
 20
-308.41552734375
 30
0.0
 10
411.224609375
 20
-306.8583984375
 30
0.0
 10
407.875
 20
-305.86181640625
 30
0.0
 10
404.5234374999999
 20
-304.8662109375
 30
0.0
 10
400.494140625
 20
-304.36767578125
 30
0.0
 10
395.78515625
 20
-304.36767578125
 30
0.0
 10
395.78515625
 20
-304.36767578125
 30
0.0
 10
387.8525390625
 20
-304.36767578125
 30
0.0
 10
387.8525390625
 20
-304.36767578125
 30
0.0
 10
387.8525390625
 20
-304.36767578125
 30
0.0
 10
387.8525390625
 20
-296.65283203125
 30
0.0
 10
387.8525390625
 20
-296.65283203125
 30
0.0
 10
387.8525390625
 20
-296.65283203125
 30
0.0
 10
395.83984375
 20
-296.65283203125
 30
0.0
 10
395.83984375
 20
-296.65283203125
 30
0.0
 10
400.1503906249999
 20
-296.65283203125
 30
0.0
 10
403.8076171874999
 20
-296.01953125
 30
0.0
 10
406.8154296874999
 20
-294.7509765625
 30
0.0
 10
409.8212890624999
 20
-293.4833984375
 30
0.0
 10
412.1123046874999
 20
-291.69970703125
 30
0.0
 10
413.6884765625
 20
-289.3994140625
 30
0.0
 10
415.263671875
 20
-287.099609375
 30
0.0
 10
416.0517578124999
 20
-284.37353515625
 30
0.0
 10
416.0517578124999
 20
-281.22216796875
 30
0.0
 10
416.0517578124999
 20
-277.20166015625
 30
0.0
 10
414.7109375
 20
-274.09619140625
 30
0.0
 10
412.0312499999999
 20
-271.904296875
 30
0.0
 10
409.3496093749999
 20
-269.712890625
 30
0.0
 10
405.7099609375
 20
-268.6171875
 30
0.0
 10
401.1103515624999
 20
-268.6171875
 30
0.0
 10
398.28515625
 20
-268.6171875
 30
0.0
 10
395.712890625
 20
-268.9072265625
 30
0.0
 10
393.39453125
 20
-269.486328125
 30
0.0
 10
391.076171875
 20
-270.06640625
 30
0.0
 10
388.9033203125
 20
-270.86328125
 30
0.0
 10
386.875
 20
-271.876953125
 30
0.0
 10
384.845703125
 20
-272.8916015625
 30
0.0
 10
382.818359375
 20
-274.06884765625
 30
0.0
 10
380.7900390625
 20
-275.40869140625
 30
0.0
 10
380.7900390625
 20
-275.40869140625
 30
0.0
 10
376.2255859375
 20
-269.21484375
 30
0.0
 10
376.2255859375
 20
-269.21484375
 30
0.0
 10
379.123046875
 20
-266.96923828125
 30
0.0
 10
382.6552734375
 20
-265.03125
 30
0.0
 10
386.8203125
 20
-263.4013671875
 30
0.0
 10
390.9853515625
 20
-261.77099609375
 30
0.0
 10
395.712890625
 20
-260.9560546875
 30
0.0
 10
401.001953125
 20
-260.9560546875
 30
0.0
 10
409.115234375
 20
-260.9560546875
 30
0.0
 10
415.2001953124999
 20
-262.8037109375
 30
0.0
 10
419.2568359375
 20
-266.498046875
 30
0.0
 10
423.3134765625
 20
-270.19287109375
 30
0.0
 10
425.3427734375
 20
-274.90185546875
 30
0.0
 10
425.3427734375
 20
-280.62451171875
 30
0.0
  0
HATCH
  5
8B
330
7D
100
AcDbEntity
  8
Layer 1
 62
    18
420
    65793
440
 33554687
100
AcDbHatch
 10
0.0
 20
0.0
 30
0.0
210
0.0
220
0.0
230
1.0
  2
SOLID
 70
     1
 71
     1
 91
        1
 92
        1
 93
        1
 72
     4
 94
        3
 73
     0
 74
     0
 95
      110
 96
      106
 40
0.0
 40
0.0
 40
0.0
 40
0.0
 40
1.0
 40
1.0
 40
1.0
 40
2.0
 40
2.0
 40
2.0
 40
3.0
 40
3.0
 40
3.0
 40
4.0
 40
4.0
 40
4.0
 40
5.0
 40
5.0
 40
5.0
 40
6.0
 40
6.0
 40
6.0
 40
7.0
 40
7.0
 40
7.0
 40
8.0
 40
8.0
 40
8.0
 40
9.0
 40
9.0
 40
9.0
 40
10.0
 40
10.0
 40
10.0
 40
11.0
 40
11.0
 40
11.0
 40
12.0
 40
12.0
 40
12.0
 40
13.0
 40
13.0
 40
13.0
 40
14.0
 40
14.0
 40
14.0
 40
15.0
 40
15.0
 40
15.0
 40
16.0
 40
16.0
 40
16.0
 40
17.0
 40
17.0
 40
17.0
 40
18.0
 40
18.0
 40
18.0
 40
19.0
 40
19.0
 40
19.0
 40
20.0
 40
20.0
 40
20.0
 40
21.0
 40
21.0
 40
21.0
 40
22.0
 40
22.0
 40
22.0
 40
23.0
 40
23.0
 40
23.0
 40
24.0
 40
24.0
 40
24.0
 40
25.0
 40
25.0
 40
25.0
 40
26.0
 40
26.0
 40
26.0
 40
27.0
 40
27.0
 40
27.0
 40
28.0
 40
28.0
 40
28.0
 40
29.0
 40
29.0
 40
29.0
 40
30.0
 40
30.0
 40
30.0
 40
31.0
 40
31.0
 40
31.0
 40
32.0
 40
32.0
 40
32.0
 40
33.0
 40
33.0
 40
33.0
 40
34.0
 40
34.0
 40
34.0
 40
35.0
 40
35.0
 40
35.0
 40
35.0
 10
425.3427734375
 20
-280.62451171875
 10
425.3427734375
 20
-284.1748046875
 10
424.654296875
 20
-287.2529296875
 10
423.2773437499999
 20
-289.86083984375
 10
421.900390625
 20
-292.46923828125
 10
419.9814453124999
 20
-294.59716796875
 10
417.5185546875
 20
-296.2451171875
 10
415.0546874999999
 20
-297.8935546875
 10
412.1572265624999
 20
-299.04345703125
 10
408.8251953124999
 20
-299.6953125
 10
408.8251953124999
 20
-299.6953125
 10
408.8251953124999
 20
-300.1298828125
 10
408.8251953124999
 20
-300.1298828125
 10
415.1279296874999
 20
-300.92724609375
 10
419.8632812499999
 20
-302.955078125
 10
423.0332031249999
 20
-306.21533203125
 10
426.2021484375
 20
-309.47509765625
 10
427.7871093749999
 20
-313.74951171875
 10
427.7871093749999
 20
-319.03759765625
 10
427.7871093749999
 20
-323.63818359375
 10
426.708984375
 20
-327.712890625
 10
424.5546875
 20
-331.26220703125
 10
422.3994140624999
 20
-334.8125
 10
419.1025390624999
 20
-337.59228515625
 10
414.666015625
 20
-339.6025390625
 10
410.2285156249999
 20
-341.61279296875
 10
404.55078125
 20
-342.61767578125
 10
397.6328125
 20
-342.61767578125
 10
393.4306640625
 20
-342.61767578125
 10
389.5458984375
 20
-342.28271484375
 10
385.978515625
 20
-341.61279296875
 10
382.41015625
 20
-340.94287109375
 10
378.9970703125
 20
-339.8291015625
 10
375.7373046875
 20
-338.271484375
 10
375.7373046875
 20
-338.271484375
 10
375.7373046875
 20
-329.79541015625
 10
375.7373046875
 20
-329.79541015625
 10
379.0322265625
 20
-331.42529296875
 10
382.6181640625
 20
-332.7021484375
 10
386.4951171875
 20
-333.6259765625
 10
390.3701171875
 20
-334.54931640625
 10
394.119140625
 20
-335.01123046875
 10
397.7412109375
 20
-335.01123046875
 10
404.9853515625
 20
-335.01123046875
 10
410.2197265624999
 20
-333.57177734375
 10
413.4433593749999
 20
-330.69189453125
 10
416.6669921875
 20
-327.8125
 10
418.279296875
 20
-323.873046875
 10
418.279296875
 20
-318.87451171875
 10
418.279296875
 20
-315.43359375
 10
417.3828125
 20
-312.6533203125
 10
415.58984375
 20
-310.53466796875
 10
413.7968749999999
 20
-308.41552734375
 10
411.224609375
 20
-306.8583984375
 10
407.875
 20
-305.86181640625
 10
404.5234374999999
 20
-304.8662109375
 10
400.494140625
 20
-304.36767578125
 10
395.78515625
 20
-304.36767578125
 10
395.78515625
 20
-304.36767578125
 10
387.8525390625
 20
-304.36767578125
 10
387.8525390625
 20
-304.36767578125
 10
387.8525390625
 20
-304.36767578125
 10
387.8525390625
 20
-296.65283203125
 10
387.8525390625
 20
-296.65283203125
 10
387.8525390625
 20
-296.65283203125
 10
395.83984375
 20
-296.65283203125
 10
395.83984375
 20
-296.65283203125
 10
400.1503906249999
 20
-296.65283203125
 10
403.8076171874999
 20
-296.01953125
 10
406.8154296874999
 20
-294.7509765625
 10
409.8212890624999
 20
-293.4833984375
 10
412.1123046874999
 20
-291.69970703125
 10
413.6884765625
 20
-289.3994140625
 10
415.263671875
 20
-287.099609375
 10
416.0517578124999
 20
-284.37353515625
 10
416.0517578124999
 20
-281.22216796875
 10
416.0517578124999
 20
-277.20166015625
 10
414.7109375
 20
-274.09619140625
 10
412.0312499999999
 20
-271.904296875
 10
409.3496093749999
 20
-269.712890625
 10
405.7099609375
 20
-268.6171875
 10
401.1103515624999
 20
-268.6171875
 10
398.28515625
 20
-268.6171875
 10
395.712890625
 20
-268.9072265625
 10
393.39453125
 20
-269.486328125
 10
391.076171875
 20
-270.06640625
 10
388.9033203125
 20
-270.86328125
 10
386.875
 20
-271.876953125
 10
384.845703125
 20
-272.8916015625
 10
382.818359375
 20
-274.06884765625
 10
380.7900390625
 20
-275.40869140625
 10
380.7900390625
 20
-275.40869140625
 10
376.2255859375
 20
-269.21484375
 10
376.2255859375
 20
-269.21484375
 10
379.123046875
 20
-266.96923828125
 10
382.6552734375
 20
-265.03125
 10
386.8203125
 20
-263.4013671875
 10
390.9853515625
 20
-261.77099609375
 10
395.712890625
 20
-260.9560546875
 10
401.001953125
 20
-260.9560546875
 10
409.115234375
 20
-260.9560546875
 10
415.2001953124999
 20
-262.8037109375
 10
419.2568359375
 20
-266.498046875
 10
423.3134765625
 20
-270.19287109375
 10
425.3427734375
 20
-274.90185546875
 10
425.3427734375
 20
-280.62451171875
 97
        0
 97
        1
330
8A
 75
     2
 76
     1
 98
        1
 10
0.0
 20
0.0
450
        0
451
        0
460
0.0
461
0.0
452
        0
462
0.0
453
        0
470

  0
SPLINE
  5
8C
330
7D
100
AcDbEntity
  8
Layer 1
100
AcDbSpline
210
0.0
220
0.0
230
1.0
 70
    11
 71
     3
 72
    23
 73
    19
 74
     0
 42
0.0000000001
 43
0.0000000001
 40
0.0
 40
0.0
 40
0.0
 40
0.0
 40
1.0
 40
1.0
 40
1.0
 40
2.0
 40
2.0
 40
2.0
 40
3.0
 40
3.0
 40
3.0
 40
4.0
 40
4.0
 40
4.0
 40
5.0
 40
5.0
 40
5.0
 40
6.0
 40
6.0
 40
6.0
 40
6.0
 10
445.228515625
 20
-341.53125
 30
0.0
 10
445.228515625
 20
-341.53125
 30
0.0
 10
445.228515625
 20
-262.09716796875
 30
0.0
 10
445.228515625
 20
-262.09716796875
 30
0.0
 10
445.228515625
 20
-262.09716796875
 30
0.0
 10
454.46484375
 20
-262.09716796875
 30
0.0
 10
454.46484375
 20
-262.09716796875
 30
0.0
 10
454.46484375
 20
-262.09716796875
 30
0.0
 10
454.46484375
 20
-333.27294921875
 30
0.0
 10
454.46484375
 20
-333.27294921875
 30
0.0
 10
454.46484375
 20
-333.27294921875
 30
0.0
 10
489.7275390625
 20
-333.27294921875
 30
0.0
 10
489.7275390625
 20
-333.27294921875
 30
0.0
 10
489.7275390625
 20
-333.27294921875
 30
0.0
 10
489.7275390625
 20
-341.53125
 30
0.0
 10
489.7275390625
 20
-341.53125
 30
0.0
 10
489.7275390625
 20
-341.53125
 30
0.0
 10
445.228515625
 20
-341.53125
 30
0.0
 10
445.228515625
 20
-341.53125
 30
0.0
  0
HATCH
  5
8D
330
7D
100
AcDbEntity
  8
Layer 1
 62
    18
420
    65793
440
 33554687
100
AcDbHatch
 10
0.0
 20
0.0
 30
0.0
210
0.0
220
0.0
230
1.0
  2
SOLID
 70
     1
 71
     1
 91
        1
 92
        1
 93
        1
 72
     4
 94
        3
 73
     0
 74
     0
 95
       23
 96
       19
 40
0.0
 40
0.0
 40
0.0
 40
0.0
 40
1.0
 40
1.0
 40
1.0
 40
2.0
 40
2.0
 40
2.0
 40
3.0
 40
3.0
 40
3.0
 40
4.0
 40
4.0
 40
4.0
 40
5.0
 40
5.0
 40
5.0
 40
6.0
 40
6.0
 40
6.0
 40
6.0
 10
445.228515625
 20
-341.53125
 10
445.228515625
 20
-341.53125
 10
445.228515625
 20
-262.09716796875
 10
445.228515625
 20
-262.09716796875
 10
445.228515625
 20
-262.09716796875
 10
454.46484375
 20
-262.09716796875
 10
454.46484375
 20
-262.09716796875
 10
454.46484375
 20
-262.09716796875
 10
454.46484375
 20
-333.27294921875
 10
454.46484375
 20
-333.27294921875
 10
454.46484375
 20
-333.27294921875
 10
489.7275390625
 20
-333.27294921875
 10
489.7275390625
 20
-333.27294921875
 10
489.7275390625
 20
-333.27294921875
 10
489.7275390625
 20
-341.53125
 10
489.7275390625
 20
-341.53125
 10
489.7275390625
 20
-341.53125
 10
445.228515625
 20
-341.53125
 10
445.228515625
 20
-341.53125
 97
        0
 97
        1
330
8C
 75
     2
 76
     1
 98
        1
 10
0.0
 20
0.0
450
        0
451
        0
460
0.0
461
0.0
452
        0
462
0.0
453
        0
470

  0
SPLINE
  5
8E
330
7D
100
AcDbEntity
  8
Layer 1
100
AcDbSpline
210
0.0
220
0.0
230
1.0
 70
     9
 71
     3
 72
   110
 73
   106
 74
     0
 42
0.0000000001
 43
0.0000000001
 40
0.0
 40
0.0
 40
0.0
 40
0.0
 40
1.0
 40
1.0
 40
1.0
 40
2.0
 40
2.0
 40
2.0
 40
3.0
 40
3.0
 40
3.0
 40
4.0
 40
4.0
 40
4.0
 40
5.0
 40
5.0
 40
5.0
 40
6.0
 40
6.0
 40
6.0
 40
7.0
 40
7.0
 40
7.0
 40
8.0
 40
8.0
 40
8.0
 40
9.0
 40
9.0
 40
9.0
 40
10.0
 40
10.0
 40
10.0
 40
11.0
 40
11.0
 40
11.0
 40
12.0
 40
12.0
 40
12.0
 40
13.0
 40
13.0
 40
13.0
 40
14.0
 40
14.0
 40
14.0
 40
15.0
 40
15.0
 40
15.0
 40
16.0
 40
16.0
 40
16.0
 40
17.0
 40
17.0
 40
17.0
 40
18.0
 40
18.0
 40
18.0
 40
19.0
 40
19.0
 40
19.0
 40
20.0
 40
20.0
 40
20.0
 40
21.0
 40
21.0
 40
21.0
 40
22.0
 40
22.0
 40
22.0
 40
23.0
 40
23.0
 40
23.0
 40
24.0
 40
24.0
 40
24.0
 40
25.0
 40
25.0
 40
25.0
 40
26.0
 40
26.0
 40
26.0
 40
27.0
 40
27.0
 40
27.0
 40
28.0
 40
28.0
 40
28.0
 40
29.0
 40
29.0
 40
29.0
 40
30.0
 40
30.0
 40
30.0
 40
31.0
 40
31.0
 40
31.0
 40
32.0
 40
32.0
 40
32.0
 40
33.0
 40
33.0
 40
33.0
 40
34.0
 40
34.0
 40
34.0
 40
35.0
 40
35.0
 40
35.0
 40
35.0
 10
153.58251953125
 20
-414.1518554687499
 30
0.0
 10
153.58251953125
 20
-417.7021484375
 30
0.0
 10
152.89404296875
 20
-420.7802734374999
 30
0.0
 10
151.51708984375
 20
-423.3876953124999
 30
0.0
 10
150.14013671875
 20
-425.9960937499999
 30
0.0
 10
148.22119140625
 20
-428.1240234374999
 30
0.0
 10
145.75830078125
 20
-429.7724609374999
 30
0.0
 10
143.29443359375
 20
-431.4208984375
 30
0.0
 10
140.39697265625
 20
-432.5703125
 30
0.0
 10
137.06494140625
 20
-433.2226562499999
 30
0.0
 10
137.06494140625
 20
-433.2226562499999
 30
0.0
 10
137.06494140625
 20
-433.6572265625
 30
0.0
 10
137.06494140625
 20
-433.6572265625
 30
0.0
 10
143.36767578125
 20
-434.4541015625
 30
0.0
 10
148.10302734375
 20
-436.4824218749999
 30
0.0
 10
151.27294921875
 20
-439.7421875
 30
0.0
 10
154.44189453125
 20
-443.001953125
 30
0.0
 10
156.02685546875
 20
-447.2763671874999
 30
0.0
 10
156.02685546875
 20
-452.564453125
 30
0.0
 10
156.02685546875
 20
-457.1650390624999
 30
0.0
 10
154.94873046875
 20
-461.240234375
 30
0.0
 10
152.79443359375
 20
-464.7890625
 30
0.0
 10
150.63916015625
 20
-468.33984375
 30
0.0
 10
147.34228515625
 20
-471.119140625
 30
0.0
 10
142.90576171875
 20
-473.1298828125
 30
0.0
 10
138.46826171875
 20
-475.1396484375
 30
0.0
 10
132.79052734375
 20
-476.14453125
 30
0.0
 10
125.87255859375
 20
-476.14453125
 30
0.0
 10
121.67041015625
 20
-476.14453125
 30
0.0
 10
117.78564453125
 20
-475.8095703124999
 30
0.0
 10
114.21826171875
 20
-475.1396484375
 30
0.0
 10
110.64990234375
 20
-474.4697265624999
 30
0.0
 10
107.23681640625
 20
-473.3564453125
 30
0.0
 10
103.97705078125
 20
-471.798828125
 30
0.0
 10
103.97705078125
 20
-471.798828125
 30
0.0
 10
103.97705078125
 20
-463.322265625
 30
0.0
 10
103.97705078125
 20
-463.322265625
 30
0.0
 10
107.27197265625
 20
-464.9521484374999
 30
0.0
 10
110.85791015625
 20
-466.2294921875
 30
0.0
 10
114.73486328125
 20
-467.1533203125
 30
0.0
 10
118.60986328125
 20
-468.076171875
 30
0.0
 10
122.35888671875
 20
-468.5380859374999
 30
0.0
 10
125.98095703125
 20
-468.5380859374999
 30
0.0
 10
133.22509765625
 20
-468.5380859374999
 30
0.0
 10
138.45947265625
 20
-467.0986328125
 30
0.0
 10
141.68310546875
 20
-464.21875
 30
0.0
 10
144.90673828125
 20
-461.3398437499999
 30
0.0
 10
146.51904296875
 20
-457.4003906249999
 30
0.0
 10
146.51904296875
 20
-452.4013671875
 30
0.0
 10
146.51904296875
 20
-448.9609374999999
 30
0.0
 10
145.62255859375
 20
-446.1806640625
 30
0.0
 10
143.82958984375
 20
-444.0615234375
 30
0.0
 10
142.03662109375
 20
-441.9423828124999
 30
0.0
 10
139.46435546875
 20
-440.3857421875
 30
0.0
 10
136.11474609375
 20
-439.388671875
 30
0.0
 10
132.76318359375
 20
-438.3935546875
 30
0.0
 10
128.73388671875
 20
-437.8945312499999
 30
0.0
 10
124.02490234375
 20
-437.8945312499999
 30
0.0
 10
124.02490234375
 20
-437.8945312499999
 30
0.0
 10
116.09228515625
 20
-437.8945312499999
 30
0.0
 10
116.09228515625
 20
-437.8945312499999
 30
0.0
 10
116.09228515625
 20
-437.8945312499999
 30
0.0
 10
116.09228515625
 20
-430.1796874999999
 30
0.0
 10
116.09228515625
 20
-430.1796874999999
 30
0.0
 10
116.09228515625
 20
-430.1796874999999
 30
0.0
 10
124.07958984375
 20
-430.1796874999999
 30
0.0
 10
124.07958984375
 20
-430.1796874999999
 30
0.0
 10
128.39013671875
 20
-430.1796874999999
 30
0.0
 10
132.04736328125
 20
-429.546875
 30
0.0
 10
135.05517578125
 20
-428.2783203124999
 30
0.0
 10
138.06103515625
 20
-427.0107421875
 30
0.0
 10
140.35205078125
 20
-425.2265624999999
 30
0.0
 10
141.92822265625
 20
-422.9267578125
 30
0.0
 10
143.50341796875
 20
-420.626953125
 30
0.0
 10
144.29150390625
 20
-417.90087890625
 30
0.0
 10
144.29150390625
 20
-414.7495117187499
 30
0.0
 10
144.29150390625
 20
-410.7290039062499
 30
0.0
 10
142.95068359375
 20
-407.62353515625
 30
0.0
 10
140.27099609375
 20
-405.4316406249999
 30
0.0
 10
137.58935546875
 20
-403.240234375
 30
0.0
 10
133.94970703125
 20
-402.14453125
 30
0.0
 10
129.35009765625
 20
-402.14453125
 30
0.0
 10
126.52490234375
 20
-402.14453125
 30
0.0
 10
123.95263671875
 20
-402.4345703125
 30
0.0
 10
121.63427734375
 20
-403.0136718749999
 30
0.0
 10
119.31591796875
 20
-403.59375
 30
0.0
 10
117.14306640625
 20
-404.390625
 30
0.0
 10
115.11474609375
 20
-405.404296875
 30
0.0
 10
113.08544921875
 20
-406.4189453125
 30
0.0
 10
111.05810546875
 20
-407.5961914062499
 30
0.0
 10
109.02978515625
 20
-408.93603515625
 30
0.0
 10
109.02978515625
 20
-408.93603515625
 30
0.0
 10
104.46533203125
 20
-402.7421874999999
 30
0.0
 10
104.46533203125
 20
-402.7421874999999
 30
0.0
 10
107.36279296875
 20
-400.49658203125
 30
0.0
 10
110.89501953125
 20
-398.55859375
 30
0.0
 10
115.06005859375
 20
-396.9287109375
 30
0.0
 10
119.22509765625
 20
-395.29833984375
 30
0.0
 10
123.95263671875
 20
-394.4833984375
 30
0.0
 10
129.24169921875
 20
-394.4833984375
 30
0.0
 10
137.35498046875
 20
-394.4833984375
 30
0.0
 10
143.43994140625
 20
-396.3310546875
 30
0.0
 10
147.49658203125
 20
-400.025390625
 30
0.0
 10
151.55322265625
 20
-403.72021484375
 30
0.0
 10
153.58251953125
 20
-408.42919921875
 30
0.0
 10
153.58251953125
 20
-414.1518554687499
 30
0.0
  0
HATCH
  5
8F
330
7D
100
AcDbEntity
  8
Layer 1
 62
    18
420
    65793
440
 33554687
100
AcDbHatch
 10
0.0
 20
0.0
 30
0.0
210
0.0
220
0.0
230
1.0
  2
SOLID
 70
     1
 71
     1
 91
        1
 92
        1
 93
        1
 72
     4
 94
        3
 73
     0
 74
     0
 95
      110
 96
      106
 40
0.0
 40
0.0
 40
0.0
 40
0.0
 40
1.0
 40
1.0
 40
1.0
 40
2.0
 40
2.0
 40
2.0
 40
3.0
 40
3.0
 40
3.0
 40
4.0
 40
4.0
 40
4.0
 40
5.0
 40
5.0
 40
5.0
 40
6.0
 40
6.0
 40
6.0
 40
7.0
 40
7.0
 40
7.0
 40
8.0
 40
8.0
 40
8.0
 40
9.0
 40
9.0
 40
9.0
 40
10.0
 40
10.0
 40
10.0
 40
11.0
 40
11.0
 40
11.0
 40
12.0
 40
12.0
 40
12.0
 40
13.0
 40
13.0
 40
13.0
 40
14.0
 40
14.0
 40
14.0
 40
15.0
 40
15.0
 40
15.0
 40
16.0
 40
16.0
 40
16.0
 40
17.0
 40
17.0
 40
17.0
 40
18.0
 40
18.0
 40
18.0
 40
19.0
 40
19.0
 40
19.0
 40
20.0
 40
20.0
 40
20.0
 40
21.0
 40
21.0
 40
21.0
 40
22.0
 40
22.0
 40
22.0
 40
23.0
 40
23.0
 40
23.0
 40
24.0
 40
24.0
 40
24.0
 40
25.0
 40
25.0
 40
25.0
 40
26.0
 40
26.0
 40
26.0
 40
27.0
 40
27.0
 40
27.0
 40
28.0
 40
28.0
 40
28.0
 40
29.0
 40
29.0
 40
29.0
 40
30.0
 40
30.0
 40
30.0
 40
31.0
 40
31.0
 40
31.0
 40
32.0
 40
32.0
 40
32.0
 40
33.0
 40
33.0
 40
33.0
 40
34.0
 40
34.0
 40
34.0
 40
35.0
 40
35.0
 40
35.0
 40
35.0
 10
153.58251953125
 20
-414.1518554687499
 10
153.58251953125
 20
-417.7021484375
 10
152.89404296875
 20
-420.7802734374999
 10
151.51708984375
 20
-423.3876953124999
 10
150.14013671875
 20
-425.9960937499999
 10
148.22119140625
 20
-428.1240234374999
 10
145.75830078125
 20
-429.7724609374999
 10
143.29443359375
 20
-431.4208984375
 10
140.39697265625
 20
-432.5703125
 10
137.06494140625
 20
-433.2226562499999
 10
137.06494140625
 20
-433.2226562499999
 10
137.06494140625
 20
-433.6572265625
 10
137.06494140625
 20
-433.6572265625
 10
143.36767578125
 20
-434.4541015625
 10
148.10302734375
 20
-436.4824218749999
 10
151.27294921875
 20
-439.7421875
 10
154.44189453125
 20
-443.001953125
 10
156.02685546875
 20
-447.2763671874999
 10
156.02685546875
 20
-452.564453125
 10
156.02685546875
 20
-457.1650390624999
 10
154.94873046875
 20
-461.240234375
 10
152.79443359375
 20
-464.7890625
 10
150.63916015625
 20
-468.33984375
 10
147.34228515625
 20
-471.119140625
 10
142.90576171875
 20
-473.1298828125
 10
138.46826171875
 20
-475.1396484375
 10
132.79052734375
 20
-476.14453125
 10
125.87255859375
 20
-476.14453125
 10
121.67041015625
 20
-476.14453125
 10
117.78564453125
 20
-475.8095703124999
 10
114.21826171875
 20
-475.1396484375
 10
110.64990234375
 20
-474.4697265624999
 10
107.23681640625
 20
-473.3564453125
 10
103.97705078125
 20
-471.798828125
 10
103.97705078125
 20
-471.798828125
 10
103.97705078125
 20
-463.322265625
 10
103.97705078125
 20
-463.322265625
 10
107.27197265625
 20
-464.9521484374999
 10
110.85791015625
 20
-466.2294921875
 10
114.73486328125
 20
-467.1533203125
 10
118.60986328125
 20
-468.076171875
 10
122.35888671875
 20
-468.5380859374999
 10
125.98095703125
 20
-468.5380859374999
 10
133.22509765625
 20
-468.5380859374999
 10
138.45947265625
 20
-467.0986328125
 10
141.68310546875
 20
-464.21875
 10
144.90673828125
 20
-461.3398437499999
 10
146.51904296875
 20
-457.4003906249999
 10
146.51904296875
 20
-452.4013671875
 10
146.51904296875
 20
-448.9609374999999
 10
145.62255859375
 20
-446.1806640625
 10
143.82958984375
 20
-444.0615234375
 10
142.03662109375
 20
-441.9423828124999
 10
139.46435546875
 20
-440.3857421875
 10
136.11474609375
 20
-439.388671875
 10
132.76318359375
 20
-438.3935546875
 10
128.73388671875
 20
-437.8945312499999
 10
124.02490234375
 20
-437.8945312499999
 10
124.02490234375
 20
-437.8945312499999
 10
116.09228515625
 20
-437.8945312499999
 10
116.09228515625
 20
-437.8945312499999
 10
116.09228515625
 20
-437.8945312499999
 10
116.09228515625
 20
-430.1796874999999
 10
116.09228515625
 20
-430.1796874999999
 10
116.09228515625
 20
-430.1796874999999
 10
124.07958984375
 20
-430.1796874999999
 10
124.07958984375
 20
-430.1796874999999
 10
128.39013671875
 20
-430.1796874999999
 10
132.04736328125
 20
-429.546875
 10
135.05517578125
 20
-428.2783203124999
 10
138.06103515625
 20
-427.0107421875
 10
140.35205078125
 20
-425.2265624999999
 10
141.92822265625
 20
-422.9267578125
 10
143.50341796875
 20
-420.626953125
 10
144.29150390625
 20
-417.90087890625
 10
144.29150390625
 20
-414.7495117187499
 10
144.29150390625
 20
-410.7290039062499
 10
142.95068359375
 20
-407.62353515625
 10
140.27099609375
 20
-405.4316406249999
 10
137.58935546875
 20
-403.240234375
 10
133.94970703125
 20
-402.14453125
 10
129.35009765625
 20
-402.14453125
 10
126.52490234375
 20
-402.14453125
 10
123.95263671875
 20
-402.4345703125
 10
121.63427734375
 20
-403.0136718749999
 10
119.31591796875
 20
-403.59375
 10
117.14306640625
 20
-404.390625
 10
115.11474609375
 20
-405.404296875
 10
113.08544921875
 20
-406.4189453125
 10
111.05810546875
 20
-407.5961914062499
 10
109.02978515625
 20
-408.93603515625
 10
109.02978515625
 20
-408.93603515625
 10
104.46533203125
 20
-402.7421874999999
 10
104.46533203125
 20
-402.7421874999999
 10
107.36279296875
 20
-400.49658203125
 10
110.89501953125
 20
-398.55859375
 10
115.06005859375
 20
-396.9287109375
 10
119.22509765625
 20
-395.29833984375
 10
123.95263671875
 20
-394.4833984375
 10
129.24169921875
 20
-394.4833984375
 10
137.35498046875
 20
-394.4833984375
 10
143.43994140625
 20
-396.3310546875
 10
147.49658203125
 20
-400.025390625
 10
151.55322265625
 20
-403.72021484375
 10
153.58251953125
 20
-408.42919921875
 10
153.58251953125
 20
-414.1518554687499
 97
        0
 97
        1
330
8E
 75
     2
 76
     1
 98
        1
 10
0.0
 20
0.0
450
        0
451
        0
460
0.0
461
0.0
452
        0
462
0.0
453
        0
470

  0
SPLINE
  5
90
330
7D
100
AcDbEntity
  8
Layer 1
100
AcDbSpline
210
0.0
220
0.0
230
1.0
 70
    11
 71
     3
 72
    41
 73
    37
 74
     0
 42
0.0000000001
 43
0.0000000001
 40
0.0
 40
0.0
 40
0.0
 40
0.0
 40
1.0
 40
1.0
 40
1.0
 40
2.0
 40
2.0
 40
2.0
 40
3.0
 40
3.0
 40
3.0
 40
4.0
 40
4.0
 40
4.0
 40
5.0
 40
5.0
 40
5.0
 40
6.0
 40
6.0
 40
6.0
 40
7.0
 40
7.0
 40
7.0
 40
8.0
 40
8.0
 40
8.0
 40
9.0
 40
9.0
 40
9.0
 40
10.0
 40
10.0
 40
10.0
 40
11.0
 40
11.0
 40
11.0
 40
12.0
 40
12.0
 40
12.0
 40
12.0
 10
201.66650390625
 20
-475.05859375
 30
0.0
 10
201.66650390625
 20
-475.05859375
 30
0.0
 10
192.86474609375
 20
-475.05859375
 30
0.0
 10
192.86474609375
 20
-475.05859375
 30
0.0
 10
192.86474609375
 20
-475.05859375
 30
0.0
 10
192.86474609375
 20
-418.7700195312499
 30
0.0
 10
192.86474609375
 20
-418.7700195312499
 30
0.0
 10
192.86474609375
 20
-416.6333007812499
 30
0.0
 10
192.87255859375
 20
-414.79541015625
 30
0.0
 10
192.89111328125
 20
-413.2553710937499
 30
0.0
 10
192.90966796875
 20
-411.71630859375
 30
0.0
 10
192.94580078125
 20
-410.3037109375
 30
0.0
 10
193.00048828125
 20
-409.017578125
 30
0.0
 10
193.05419921875
 20
-407.73193359375
 30
0.0
 10
193.13623046875
 20
-406.4189453125
 30
0.0
 10
193.24462890625
 20
-405.078125
 30
0.0
 10
192.12158203125
 20
-406.23779296875
 30
0.0
 10
191.07177734375
 20
-407.224609375
 30
0.0
 10
190.09326171875
 20
-408.0395507812499
 30
0.0
 10
189.11572265625
 20
-408.8544921875
 30
0.0
 10
187.90087890625
 20
-409.859375
 30
0.0
 10
186.45263671875
 20
-411.0546874999999
 30
0.0
 10
186.45263671875
 20
-411.0546874999999
 30
0.0
 10
177.37939453125
 20
-418.33544921875
 30
0.0
 10
177.37939453125
 20
-418.33544921875
 30
0.0
 10
177.37939453125
 20
-418.33544921875
 30
0.0
 10
172.65283203125
 20
-412.19580078125
 30
0.0
 10
172.65283203125
 20
-412.19580078125
 30
0.0
 10
172.65283203125
 20
-412.19580078125
 30
0.0
 10
194.16845703125
 20
-395.62451171875
 30
0.0
 10
194.16845703125
 20
-395.62451171875
 30
0.0
 10
194.16845703125
 20
-395.62451171875
 30
0.0
 10
201.66650390625
 20
-395.62451171875
 30
0.0
 10
201.66650390625
 20
-395.62451171875
 30
0.0
 10
201.66650390625
 20
-395.62451171875
 30
0.0
 10
201.66650390625
 20
-475.05859375
 30
0.0
 10
201.66650390625
 20
-475.05859375
 30
0.0
  0
HATCH
  5
91
330
7D
100
AcDbEntity
  8
Layer 1
 62
    18
420
    65793
440
 33554687
100
AcDbHatch
 10
0.0
 20
0.0
 30
0.0
210
0.0
220
0.0
230
1.0
  2
SOLID
 70
     1
 71
     1
 91
        1
 92
        1
 93
        1
 72
     4
 94
        3
 73
     0
 74
     0
 95
       41
 96
       37
 40
0.0
 40
0.0
 40
0.0
 40
0.0
 40
1.0
 40
1.0
 40
1.0
 40
2.0
 40
2.0
 40
2.0
 40
3.0
 40
3.0
 40
3.0
 40
4.0
 40
4.0
 40
4.0
 40
5.0
 40
5.0
 40
5.0
 40
6.0
 40
6.0
 40
6.0
 40
7.0
 40
7.0
 40
7.0
 40
8.0
 40
8.0
 40
8.0
 40
9.0
 40
9.0
 40
9.0
 40
10.0
 40
10.0
 40
10.0
 40
11.0
 40
11.0
 40
11.0
 40
12.0
 40
12.0
 40
12.0
 40
12.0
 10
201.66650390625
 20
-475.05859375
 10
201.66650390625
 20
-475.05859375
 10
192.86474609375
 20
-475.05859375
 10
192.86474609375
 20
-475.05859375
 10
192.86474609375
 20
-475.05859375
 10
192.86474609375
 20
-418.7700195312499
 10
192.86474609375
 20
-418.7700195312499
 10
192.86474609375
 20
-416.6333007812499
 10
192.87255859375
 20
-414.79541015625
 10
192.89111328125
 20
-413.2553710937499
 10
192.90966796875
 20
-411.71630859375
 10
192.94580078125
 20
-410.3037109375
 10
193.00048828125
 20
-409.017578125
 10
193.05419921875
 20
-407.73193359375
 10
193.13623046875
 20
-406.4189453125
 10
193.24462890625
 20
-405.078125
 10
192.12158203125
 20
-406.23779296875
 10
191.07177734375
 20
-407.224609375
 10
190.09326171875
 20
-408.0395507812499
 10
189.11572265625
 20
-408.8544921875
 10
187.90087890625
 20
-409.859375
 10
186.45263671875
 20
-411.0546874999999
 10
186.45263671875
 20
-411.0546874999999
 10
177.37939453125
 20
-418.33544921875
 10
177.37939453125
 20
-418.33544921875
 10
177.37939453125
 20
-418.33544921875
 10
172.65283203125
 20
-412.19580078125
 10
172.65283203125
 20
-412.19580078125
 10
172.65283203125
 20
-412.19580078125
 10
194.16845703125
 20
-395.62451171875
 10
194.16845703125
 20
-395.62451171875
 10
194.16845703125
 20
-395.62451171875
 10
201.66650390625
 20
-395.62451171875
 10
201.66650390625
 20
-395.62451171875
 10
201.66650390625
 20
-395.62451171875
 10
201.66650390625
 20
-475.05859375
 10
201.66650390625
 20
-475.05859375
 97
        0
 97
        1
330
90
 75
     2
 76
     1
 98
        1
 10
0.0
 20
0.0
450
        0
451
        0
460
0.0
461
0.0
452
        0
462
0.0
453
        0
470

  0
SPLINE
  5
92
330
7D
100
AcDbEntity
  8
Layer 1
100
AcDbSpline
210
0.0
220
0.0
230
1.0
 70
    11
 71
     3
 72
    23
 73
    19
 74
     0
 42
0.0000000001
 43
0.0000000001
 40
0.0
 40
0.0
 40
0.0
 40
0.0
 40
1.0
 40
1.0
 40
1.0
 40
2.0
 40
2.0
 40
2.0
 40
3.0
 40
3.0
 40
3.0
 40
4.0
 40
4.0
 40
4.0
 40
5.0
 40
5.0
 40
5.0
 40
6.0
 40
6.0
 40
6.0
 40
6.0
 10
228.74560546875
 20
-475.05859375
 30
0.0
 10
228.74560546875
 20
-475.05859375
 30
0.0
 10
228.74560546875
 20
-395.62451171875
 30
0.0
 10
228.74560546875
 20
-395.62451171875
 30
0.0
 10
228.74560546875
 20
-395.62451171875
 30
0.0
 10
237.98193359375
 20
-395.62451171875
 30
0.0
 10
237.98193359375
 20
-395.62451171875
 30
0.0
 10
237.98193359375
 20
-395.62451171875
 30
0.0
 10
237.98193359375
 20
-466.7998046874999
 30
0.0
 10
237.98193359375
 20
-466.7998046874999
 30
0.0
 10
237.98193359375
 20
-466.7998046874999
 30
0.0
 10
273.24462890625
 20
-466.7998046874999
 30
0.0
 10
273.24462890625
 20
-466.7998046874999
 30
0.0
 10
273.24462890625
 20
-466.7998046874999
 30
0.0
 10
273.24462890625
 20
-475.05859375
 30
0.0
 10
273.24462890625
 20
-475.05859375
 30
0.0
 10
273.24462890625
 20
-475.05859375
 30
0.0
 10
228.74560546875
 20
-475.05859375
 30
0.0
 10
228.74560546875
 20
-475.05859375
 30
0.0
  0
HATCH
  5
93
330
7D
100
AcDbEntity
  8
Layer 1
 62
    18
420
    65793
440
 33554687
100
AcDbHatch
 10
0.0
 20
0.0
 30
0.0
210
0.0
220
0.0
230
1.0
  2
SOLID
 70
     1
 71
     1
 91
        1
 92
        1
 93
        1
 72
     4
 94
        3
 73
     0
 74
     0
 95
       23
 96
       19
 40
0.0
 40
0.0
 40
0.0
 40
0.0
 40
1.0
 40
1.0
 40
1.0
 40
2.0
 40
2.0
 40
2.0
 40
3.0
 40
3.0
 40
3.0
 40
4.0
 40
4.0
 40
4.0
 40
5.0
 40
5.0
 40
5.0
 40
6.0
 40
6.0
 40
6.0
 40
6.0
 10
228.74560546875
 20
-475.05859375
 10
228.74560546875
 20
-475.05859375
 10
228.74560546875
 20
-395.62451171875
 10
228.74560546875
 20
-395.62451171875
 10
228.74560546875
 20
-395.62451171875
 10
237.98193359375
 20
-395.62451171875
 10
237.98193359375
 20
-395.62451171875
 10
237.98193359375
 20
-395.62451171875
 10
237.98193359375
 20
-466.7998046874999
 10
237.98193359375
 20
-466.7998046874999
 10
237.98193359375
 20
-466.7998046874999
 10
273.24462890625
 20
-466.7998046874999
 10
273.24462890625
 20
-466.7998046874999
 10
273.24462890625
 20
-466.7998046874999
 10
273.24462890625
 20
-475.05859375
 10
273.24462890625
 20
-475.05859375
 10
273.24462890625
 20
-475.05859375
 10
228.74560546875
 20
-475.05859375
 10
228.74560546875
 20
-475.05859375
 97
        0
 97
        1
330
92
 75
     2
 76
     1
 98
        1
 10
0.0
 20
0.0
450
        0
451
        0
460
0.0
461
0.0
452
        0
462
0.0
453
        0
470

  0
SPLINE
  5
94
330
7D
100
AcDbEntity
  8
Layer 1
100
AcDbSpline
210
0.0
220
0.0
230
1.0
 70
    11
 71
     3
 72
    41
 73
    37
 74
     0
 42
0.0000000001
 43
0.0000000001
 40
0.0
 40
0.0
 40
0.0
 40
0.0
 40
1.0
 40
1.0
 40
1.0
 40
2.0
 40
2.0
 40
2.0
 40
3.0
 40
3.0
 40
3.0
 40
4.0
 40
4.0
 40
4.0
 40
5.0
 40
5.0
 40
5.0
 40
6.0
 40
6.0
 40
6.0
 40
7.0
 40
7.0
 40
7.0
 40
8.0
 40
8.0
 40
8.0
 40
9.0
 40
9.0
 40
9.0
 40
10.0
 40
10.0
 40
10.0
 40
11.0
 40
11.0
 40
11.0
 40
12.0
 40
12.0
 40
12.0
 40
12.0
 10
343.931640625
 20
-475.05859375
 30
0.0
 10
343.931640625
 20
-475.05859375
 30
0.0
 10
335.1298828125
 20
-475.05859375
 30
0.0
 10
335.1298828125
 20
-475.05859375
 30
0.0
 10
335.1298828125
 20
-475.05859375
 30
0.0
 10
335.1298828125
 20
-418.7700195312499
 30
0.0
 10
335.1298828125
 20
-418.7700195312499
 30
0.0
 10
335.1298828125
 20
-416.6333007812499
 30
0.0
 10
335.1376953125
 20
-414.79541015625
 30
0.0
 10
335.15625
 20
-413.2553710937499
 30
0.0
 10
335.1748046875
 20
-411.71630859375
 30
0.0
 10
335.2109375
 20
-410.3037109375
 30
0.0
 10
335.265625
 20
-409.017578125
 30
0.0
 10
335.3193359375
 20
-407.73193359375
 30
0.0
 10
335.4013671875
 20
-406.4189453125
 30
0.0
 10
335.509765625
 20
-405.078125
 30
0.0
 10
334.38671875
 20
-406.23779296875
 30
0.0
 10
333.3369140625
 20
-407.224609375
 30
0.0
 10
332.3583984375
 20
-408.0395507812499
 30
0.0
 10
331.380859375
 20
-408.8544921875
 30
0.0
 10
330.166015625
 20
-409.859375
 30
0.0
 10
328.7177734375
 20
-411.0546874999999
 30
0.0
 10
328.7177734375
 20
-411.0546874999999
 30
0.0
 10
319.64453125
 20
-418.33544921875
 30
0.0
 10
319.64453125
 20
-418.33544921875
 30
0.0
 10
319.64453125
 20
-418.33544921875
 30
0.0
 10
314.91796875
 20
-412.19580078125
 30
0.0
 10
314.91796875
 20
-412.19580078125
 30
0.0
 10
314.91796875
 20
-412.19580078125
 30
0.0
 10
336.43359375
 20
-395.62451171875
 30
0.0
 10
336.43359375
 20
-395.62451171875
 30
0.0
 10
336.43359375
 20
-395.62451171875
 30
0.0
 10
343.931640625
 20
-395.62451171875
 30
0.0
 10
343.931640625
 20
-395.62451171875
 30
0.0
 10
343.931640625
 20
-395.62451171875
 30
0.0
 10
343.931640625
 20
-475.05859375
 30
0.0
 10
343.931640625
 20
-475.05859375
 30
0.0
  0
HATCH
  5
95
330
7D
100
AcDbEntity
  8
Layer 1
 62
    18
420
    65793
440
 33554687
100
AcDbHatch
 10
0.0
 20
0.0
 30
0.0
210
0.0
220
0.0
230
1.0
  2
SOLID
 70
     1
 71
     1
 91
        1
 92
        1
 93
        1
 72
     4
 94
        3
 73
     0
 74
     0
 95
       41
 96
       37
 40
0.0
 40
0.0
 40
0.0
 40
0.0
 40
1.0
 40
1.0
 40
1.0
 40
2.0
 40
2.0
 40
2.0
 40
3.0
 40
3.0
 40
3.0
 40
4.0
 40
4.0
 40
4.0
 40
5.0
 40
5.0
 40
5.0
 40
6.0
 40
6.0
 40
6.0
 40
7.0
 40
7.0
 40
7.0
 40
8.0
 40
8.0
 40
8.0
 40
9.0
 40
9.0
 40
9.0
 40
10.0
 40
10.0
 40
10.0
 40
11.0
 40
11.0
 40
11.0
 40
12.0
 40
12.0
 40
12.0
 40
12.0
 10
343.931640625
 20
-475.05859375
 10
343.931640625
 20
-475.05859375
 10
335.1298828125
 20
-475.05859375
 10
335.1298828125
 20
-475.05859375
 10
335.1298828125
 20
-475.05859375
 10
335.1298828125
 20
-418.7700195312499
 10
335.1298828125
 20
-418.7700195312499
 10
335.1298828125
 20
-416.6333007812499
 10
335.1376953125
 20
-414.79541015625
 10
335.15625
 20
-413.2553710937499
 10
335.1748046875
 20
-411.71630859375
 10
335.2109375
 20
-410.3037109375
 10
335.265625
 20
-409.017578125
 10
335.3193359375
 20
-407.73193359375
 10
335.4013671875
 20
-406.4189453125
 10
335.509765625
 20
-405.078125
 10
334.38671875
 20
-406.23779296875
 10
333.3369140625
 20
-407.224609375
 10
332.3583984375
 20
-408.0395507812499
 10
331.380859375
 20
-408.8544921875
 10
330.166015625
 20
-409.859375
 10
328.7177734375
 20
-411.0546874999999
 10
328.7177734375
 20
-411.0546874999999
 10
319.64453125
 20
-418.33544921875
 10
319.64453125
 20
-418.33544921875
 10
319.64453125
 20
-418.33544921875
 10
314.91796875
 20
-412.19580078125
 10
314.91796875
 20
-412.19580078125
 10
314.91796875
 20
-412.19580078125
 10
336.43359375
 20
-395.62451171875
 10
336.43359375
 20
-395.62451171875
 10
336.43359375
 20
-395.62451171875
 10
343.931640625
 20
-395.62451171875
 10
343.931640625
 20
-395.62451171875
 10
343.931640625
 20
-395.62451171875
 10
343.931640625
 20
-475.05859375
 10
343.931640625
 20
-475.05859375
 97
        0
 97
        1
330
94
 75
     2
 76
     1
 98
        1
 10
0.0
 20
0.0
450
        0
451
        0
460
0.0
461
0.0
452
        0
462
0.0
453
        0
470

  0
SPLINE
  5
96
330
7D
100
AcDbEntity
  8
Layer 1
100
AcDbSpline
210
0.0
220
0.0
230
1.0
 70
     9
 71
     3
 72
   110
 73
   106
 74
     0
 42
0.0000000001
 43
0.0000000001
 40
0.0
 40
0.0
 40
0.0
 40
0.0
 40
1.0
 40
1.0
 40
1.0
 40
2.0
 40
2.0
 40
2.0
 40
3.0
 40
3.0
 40
3.0
 40
4.0
 40
4.0
 40
4.0
 40
5.0
 40
5.0
 40
5.0
 40
6.0
 40
6.0
 40
6.0
 40
7.0
 40
7.0
 40
7.0
 40
8.0
 40
8.0
 40
8.0
 40
9.0
 40
9.0
 40
9.0
 40
10.0
 40
10.0
 40
10.0
 40
11.0
 40
11.0
 40
11.0
 40
12.0
 40
12.0
 40
12.0
 40
13.0
 40
13.0
 40
13.0
 40
14.0
 40
14.0
 40
14.0
 40
15.0
 40
15.0
 40
15.0
 40
16.0
 40
16.0
 40
16.0
 40
17.0
 40
17.0
 40
17.0
 40
18.0
 40
18.0
 40
18.0
 40
19.0
 40
19.0
 40
19.0
 40
20.0
 40
20.0
 40
20.0
 40
21.0
 40
21.0
 40
21.0
 40
22.0
 40
22.0
 40
22.0
 40
23.0
 40
23.0
 40
23.0
 40
24.0
 40
24.0
 40
24.0
 40
25.0
 40
25.0
 40
25.0
 40
26.0
 40
26.0
 40
26.0
 40
27.0
 40
27.0
 40
27.0
 40
28.0
 40
28.0
 40
28.0
 40
29.0
 40
29.0
 40
29.0
 40
30.0
 40
30.0
 40
30.0
 40
31.0
 40
31.0
 40
31.0
 40
32.0
 40
32.0
 40
32.0
 40
33.0
 40
33.0
 40
33.0
 40
34.0
 40
34.0
 40
34.0
 40
35.0
 40
35.0
 40
35.0
 40
35.0
 10
414.748046875
 20
-414.1518554687499
 30
0.0
 10
414.748046875
 20
-417.7021484375
 30
0.0
 10
414.0595703125
 20
-420.7802734374999
 30
0.0
 10
412.6826171874999
 20
-423.3876953124999
 30
0.0
 10
411.3056640625
 20
-425.9960937499999
 30
0.0
 10
409.3867187499999
 20
-428.1240234374999
 30
0.0
 10
406.9238281249999
 20
-429.7724609374999
 30
0.0
 10
404.4599609375
 20
-431.4208984375
 30
0.0
 10
401.5625
 20
-432.5703125
 30
0.0
 10
398.23046875
 20
-433.2226562499999
 30
0.0
 10
398.23046875
 20
-433.2226562499999
 30
0.0
 10
398.23046875
 20
-433.6572265625
 30
0.0
 10
398.23046875
 20
-433.6572265625
 30
0.0
 10
404.533203125
 20
-434.4541015625
 30
0.0
 10
409.2685546874999
 20
-436.4824218749999
 30
0.0
 10
412.4384765624999
 20
-439.7421875
 30
0.0
 10
415.6074218749999
 20
-443.001953125
 30
0.0
 10
417.1923828125
 20
-447.2763671874999
 30
0.0
 10
417.1923828125
 20
-452.564453125
 30
0.0
 10
417.1923828125
 20
-457.1650390624999
 30
0.0
 10
416.1142578125
 20
-461.240234375
 30
0.0
 10
413.9599609374999
 20
-464.7890625
 30
0.0
 10
411.8046875
 20
-468.33984375
 30
0.0
 10
408.5078124999999
 20
-471.119140625
 30
0.0
 10
404.0712890625
 20
-473.1298828125
 30
0.0
 10
399.6337890625
 20
-475.1396484375
 30
0.0
 10
393.9560546875
 20
-476.14453125
 30
0.0
 10
387.0380859375
 20
-476.14453125
 30
0.0
 10
382.8359375
 20
-476.14453125
 30
0.0
 10
378.951171875
 20
-475.8095703124999
 30
0.0
 10
375.3837890625
 20
-475.1396484375
 30
0.0
 10
371.8154296875
 20
-474.4697265624999
 30
0.0
 10
368.40234375
 20
-473.3564453125
 30
0.0
 10
365.142578125
 20
-471.798828125
 30
0.0
 10
365.142578125
 20
-471.798828125
 30
0.0
 10
365.142578125
 20
-463.322265625
 30
0.0
 10
365.142578125
 20
-463.322265625
 30
0.0
 10
368.4375
 20
-464.9521484374999
 30
0.0
 10
372.0234375
 20
-466.2294921875
 30
0.0
 10
375.900390625
 20
-467.1533203125
 30
0.0
 10
379.775390625
 20
-468.076171875
 30
0.0
 10
383.5244140625
 20
-468.5380859374999
 30
0.0
 10
387.146484375
 20
-468.5380859374999
 30
0.0
 10
394.390625
 20
-468.5380859374999
 30
0.0
 10
399.625
 20
-467.0986328125
 30
0.0
 10
402.8486328125
 20
-464.21875
 30
0.0
 10
406.072265625
 20
-461.3398437499999
 30
0.0
 10
407.6845703125
 20
-457.4003906249999
 30
0.0
 10
407.6845703125
 20
-452.4013671875
 30
0.0
 10
407.6845703125
 20
-448.9609374999999
 30
0.0
 10
406.7880859375
 20
-446.1806640625
 30
0.0
 10
404.9951171874999
 20
-444.0615234375
 30
0.0
 10
403.2021484374999
 20
-441.9423828124999
 30
0.0
 10
400.6298828124999
 20
-440.3857421875
 30
0.0
 10
397.2802734375
 20
-439.388671875
 30
0.0
 10
393.9287109375
 20
-438.3935546875
 30
0.0
 10
389.8994140625
 20
-437.8945312499999
 30
0.0
 10
385.1904296875
 20
-437.8945312499999
 30
0.0
 10
385.1904296875
 20
-437.8945312499999
 30
0.0
 10
377.2578125
 20
-437.8945312499999
 30
0.0
 10
377.2578125
 20
-437.8945312499999
 30
0.0
 10
377.2578125
 20
-437.8945312499999
 30
0.0
 10
377.2578125
 20
-430.1796874999999
 30
0.0
 10
377.2578125
 20
-430.1796874999999
 30
0.0
 10
377.2578125
 20
-430.1796874999999
 30
0.0
 10
385.2451171875
 20
-430.1796874999999
 30
0.0
 10
385.2451171875
 20
-430.1796874999999
 30
0.0
 10
389.5556640625
 20
-430.1796874999999
 30
0.0
 10
393.212890625
 20
-429.546875
 30
0.0
 10
396.220703125
 20
-428.2783203124999
 30
0.0
 10
399.2265625
 20
-427.0107421875
 30
0.0
 10
401.5175781249999
 20
-425.2265624999999
 30
0.0
 10
403.09375
 20
-422.9267578125
 30
0.0
 10
404.6689453125
 20
-420.626953125
 30
0.0
 10
405.45703125
 20
-417.90087890625
 30
0.0
 10
405.45703125
 20
-414.7495117187499
 30
0.0
 10
405.45703125
 20
-410.7290039062499
 30
0.0
 10
404.1162109374999
 20
-407.62353515625
 30
0.0
 10
401.4365234375
 20
-405.4316406249999
 30
0.0
 10
398.7548828125
 20
-403.240234375
 30
0.0
 10
395.115234375
 20
-402.14453125
 30
0.0
 10
390.515625
 20
-402.14453125
 30
0.0
 10
387.6904296875
 20
-402.14453125
 30
0.0
 10
385.1181640625
 20
-402.4345703125
 30
0.0
 10
382.7998046875
 20
-403.0136718749999
 30
0.0
 10
380.4814453125
 20
-403.59375
 30
0.0
 10
378.30859375
 20
-404.390625
 30
0.0
 10
376.2802734375
 20
-405.404296875
 30
0.0
 10
374.2509765625
 20
-406.4189453125
 30
0.0
 10
372.2236328125
 20
-407.5961914062499
 30
0.0
 10
370.1953125
 20
-408.93603515625
 30
0.0
 10
370.1953125
 20
-408.93603515625
 30
0.0
 10
365.630859375
 20
-402.7421874999999
 30
0.0
 10
365.630859375
 20
-402.7421874999999
 30
0.0
 10
368.5283203125
 20
-400.49658203125
 30
0.0
 10
372.060546875
 20
-398.55859375
 30
0.0
 10
376.2255859375
 20
-396.9287109375
 30
0.0
 10
380.390625
 20
-395.29833984375
 30
0.0
 10
385.1181640625
 20
-394.4833984375
 30
0.0
 10
390.4072265625
 20
-394.4833984375
 30
0.0
 10
398.5205078125
 20
-394.4833984375
 30
0.0
 10
404.6054687499999
 20
-396.3310546875
 30
0.0
 10
408.6621093749999
 20
-400.025390625
 30
0.0
 10
412.7187499999999
 20
-403.72021484375
 30
0.0
 10
414.748046875
 20
-408.42919921875
 30
0.0
 10
414.748046875
 20
-414.1518554687499
 30
0.0
  0
HATCH
  5
97
330
7D
100
AcDbEntity
  8
Layer 1
 62
    18
420
    65793
440
 33554687
100
AcDbHatch
 10
0.0
 20
0.0
 30
0.0
210
0.0
220
0.0
230
1.0
  2
SOLID
 70
     1
 71
     1
 91
        1
 92
        1
 93
        1
 72
     4
 94
        3
 73
     0
 74
     0
 95
      110
 96
      106
 40
0.0
 40
0.0
 40
0.0
 40
0.0
 40
1.0
 40
1.0
 40
1.0
 40
2.0
 40
2.0
 40
2.0
 40
3.0
 40
3.0
 40
3.0
 40
4.0
 40
4.0
 40
4.0
 40
5.0
 40
5.0
 40
5.0
 40
6.0
 40
6.0
 40
6.0
 40
7.0
 40
7.0
 40
7.0
 40
8.0
 40
8.0
 40
8.0
 40
9.0
 40
9.0
 40
9.0
 40
10.0
 40
10.0
 40
10.0
 40
11.0
 40
11.0
 40
11.0
 40
12.0
 40
12.0
 40
12.0
 40
13.0
 40
13.0
 40
13.0
 40
14.0
 40
14.0
 40
14.0
 40
15.0
 40
15.0
 40
15.0
 40
16.0
 40
16.0
 40
16.0
 40
17.0
 40
17.0
 40
17.0
 40
18.0
 40
18.0
 40
18.0
 40
19.0
 40
19.0
 40
19.0
 40
20.0
 40
20.0
 40
20.0
 40
21.0
 40
21.0
 40
21.0
 40
22.0
 40
22.0
 40
22.0
 40
23.0
 40
23.0
 40
23.0
 40
24.0
 40
24.0
 40
24.0
 40
25.0
 40
25.0
 40
25.0
 40
26.0
 40
26.0
 40
26.0
 40
27.0
 40
27.0
 40
27.0
 40
28.0
 40
28.0
 40
28.0
 40
29.0
 40
29.0
 40
29.0
 40
30.0
 40
30.0
 40
30.0
 40
31.0
 40
31.0
 40
31.0
 40
32.0
 40
32.0
 40
32.0
 40
33.0
 40
33.0
 40
33.0
 40
34.0
 40
34.0
 40
34.0
 40
35.0
 40
35.0
 40
35.0
 40
35.0
 10
414.748046875
 20
-414.1518554687499
 10
414.748046875
 20
-417.7021484375
 10
414.0595703125
 20
-420.7802734374999
 10
412.6826171874999
 20
-423.3876953124999
 10
411.3056640625
 20
-425.9960937499999
 10
409.3867187499999
 20
-428.1240234374999
 10
406.9238281249999
 20
-429.7724609374999
 10
404.4599609375
 20
-431.4208984375
 10
401.5625
 20
-432.5703125
 10
398.23046875
 20
-433.2226562499999
 10
398.23046875
 20
-433.2226562499999
 10
398.23046875
 20
-433.6572265625
 10
398.23046875
 20
-433.6572265625
 10
404.533203125
 20
-434.4541015625
 10
409.2685546874999
 20
-436.4824218749999
 10
412.4384765624999
 20
-439.7421875
 10
415.6074218749999
 20
-443.001953125
 10
417.1923828125
 20
-447.2763671874999
 10
417.1923828125
 20
-452.564453125
 10
417.1923828125
 20
-457.1650390624999
 10
416.1142578125
 20
-461.240234375
 10
413.9599609374999
 20
-464.7890625
 10
411.8046875
 20
-468.33984375
 10
408.5078124999999
 20
-471.119140625
 10
404.0712890625
 20
-473.1298828125
 10
399.6337890625
 20
-475.1396484375
 10
393.9560546875
 20
-476.14453125
 10
387.0380859375
 20
-476.14453125
 10
382.8359375
 20
-476.14453125
 10
378.951171875
 20
-475.8095703124999
 10
375.3837890625
 20
-475.1396484375
 10
371.8154296875
 20
-474.4697265624999
 10
368.40234375
 20
-473.3564453125
 10
365.142578125
 20
-471.798828125
 10
365.142578125
 20
-471.798828125
 10
365.142578125
 20
-463.322265625
 10
365.142578125
 20
-463.322265625
 10
368.4375
 20
-464.9521484374999
 10
372.0234375
 20
-466.2294921875
 10
375.900390625
 20
-467.1533203125
 10
379.775390625
 20
-468.076171875
 10
383.5244140625
 20
-468.5380859374999
 10
387.146484375
 20
-468.5380859374999
 10
394.390625
 20
-468.5380859374999
 10
399.625
 20
-467.0986328125
 10
402.8486328125
 20
-464.21875
 10
406.072265625
 20
-461.3398437499999
 10
407.6845703125
 20
-457.4003906249999
 10
407.6845703125
 20
-452.4013671875
 10
407.6845703125
 20
-448.9609374999999
 10
406.7880859375
 20
-446.1806640625
 10
404.9951171874999
 20
-444.0615234375
 10
403.2021484374999
 20
-441.9423828124999
 10
400.6298828124999
 20
-440.3857421875
 10
397.2802734375
 20
-439.388671875
 10
393.9287109375
 20
-438.3935546875
 10
389.8994140625
 20
-437.8945312499999
 10
385.1904296875
 20
-437.8945312499999
 10
385.1904296875
 20
-437.8945312499999
 10
377.2578125
 20
-437.8945312499999
 10
377.2578125
 20
-437.8945312499999
 10
377.2578125
 20
-437.8945312499999
 10
377.2578125
 20
-430.1796874999999
 10
377.2578125
 20
-430.1796874999999
 10
377.2578125
 20
-430.1796874999999
 10
385.2451171875
 20
-430.1796874999999
 10
385.2451171875
 20
-430.1796874999999
 10
389.5556640625
 20
-430.1796874999999
 10
393.212890625
 20
-429.546875
 10
396.220703125
 20
-428.2783203124999
 10
399.2265625
 20
-427.0107421875
 10
401.5175781249999
 20
-425.2265624999999
 10
403.09375
 20
-422.9267578125
 10
404.6689453125
 20
-420.626953125
 10
405.45703125
 20
-417.90087890625
 10
405.45703125
 20
-414.7495117187499
 10
405.45703125
 20
-410.7290039062499
 10
404.1162109374999
 20
-407.62353515625
 10
401.4365234375
 20
-405.4316406249999
 10
398.7548828125
 20
-403.240234375
 10
395.115234375
 20
-402.14453125
 10
390.515625
 20
-402.14453125
 10
387.6904296875
 20
-402.14453125
 10
385.1181640625
 20
-402.4345703125
 10
382.7998046875
 20
-403.0136718749999
 10
380.4814453125
 20
-403.59375
 10
378.30859375
 20
-404.390625
 10
376.2802734375
 20
-405.404296875
 10
374.2509765625
 20
-406.4189453125
 10
372.2236328125
 20
-407.5961914062499
 10
370.1953125
 20
-408.93603515625
 10
370.1953125
 20
-408.93603515625
 10
365.630859375
 20
-402.7421874999999
 10
365.630859375
 20
-402.7421874999999
 10
368.5283203125
 20
-400.49658203125
 10
372.060546875
 20
-398.55859375
 10
376.2255859375
 20
-396.9287109375
 10
380.390625
 20
-395.29833984375
 10
385.1181640625
 20
-394.4833984375
 10
390.4072265625
 20
-394.4833984375
 10
398.5205078125
 20
-394.4833984375
 10
404.6054687499999
 20
-396.3310546875
 10
408.6621093749999
 20
-400.025390625
 10
412.7187499999999
 20
-403.72021484375
 10
414.748046875
 20
-408.42919921875
 10
414.748046875
 20
-414.1518554687499
 97
        0
 97
        1
330
96
 75
     2
 76
     1
 98
        1
 10
0.0
 20
0.0
450
        0
451
        0
460
0.0
461
0.0
452
        0
462
0.0
453
        0
470

  0
SPLINE
  5
98
330
7D
100
AcDbEntity
  8
Layer 1
100
AcDbSpline
210
0.0
220
0.0
230
1.0
 70
     9
 71
     3
 72
    26
 73
    22
 74
     0
 42
0.0000000001
 43
0.0000000001
 40
0.0
 40
0.0
 40
0.0
 40
0.0
 40
1.0
 40
1.0
 40
1.0
 40
2.0
 40
2.0
 40
2.0
 40
3.0
 40
3.0
 40
3.0
 40
4.0
 40
4.0
 40
4.0
 40
5.0
 40
5.0
 40
5.0
 40
6.0
 40
6.0
 40
6.0
 40
7.0
 40
7.0
 40
7.0
 40
7.0
 10
455.5517578125
 20
-403.611328125
 30
0.0
 10
455.5517578125
 20
-403.611328125
 30
0.0
 10
443.8701171875
 20
-403.611328125
 30
0.0
 10
443.8701171875
 20
-403.611328125
 30
0.0
 10
443.8701171875
 20
-403.611328125
 30
0.0
 10
443.8701171875
 20
-434.091796875
 30
0.0
 10
443.8701171875
 20
-434.091796875
 30
0.0
 10
443.8701171875
 20
-434.091796875
 30
0.0
 10
456.4755859375
 20
-434.091796875
 30
0.0
 10
456.4755859375
 20
-434.091796875
 30
0.0
 10
462.9589843749999
 20
-434.091796875
 30
0.0
 10
467.7314453124999
 20
-432.76953125
 30
0.0
 10
470.7919921874999
 20
-430.125
 30
0.0
 10
473.8525390625
 20
-427.4814453124999
 30
0.0
 10
475.3837890625
 20
-423.5878906249999
 30
0.0
 10
475.3837890625
 20
-418.4443359374999
 30
0.0
 10
475.3837890625
 20
-413.04736328125
 30
0.0
 10
473.7617187499999
 20
-409.22607421875
 30
0.0
 10
470.5205078125
 20
-406.97998046875
 30
0.0
 10
467.2783203125
 20
-404.734375
 30
0.0
 10
462.2890625
 20
-403.611328125
 30
0.0
 10
455.5517578125
 20
-403.611328125
 30
0.0
  0
SPLINE
  5
99
330
7D
100
AcDbEntity
  8
Layer 1
100
AcDbSpline
210
0.0
220
0.0
230
1.0
 70
     9
 71
     3
 72
    47
 73
    43
 74
     0
 42
0.0000000001
 43
0.0000000001
 40
0.0
 40
0.0
 40
0.0
 40
0.0
 40
1.0
 40
1.0
 40
1.0
 40
2.0
 40
2.0
 40
2.0
 40
3.0
 40
3.0
 40
3.0
 40
4.0
 40
4.0
 40
4.0
 40
5.0
 40
5.0
 40
5.0
 40
6.0
 40
6.0
 40
6.0
 40
7.0
 40
7.0
 40
7.0
 40
8.0
 40
8.0
 40
8.0
 40
9.0
 40
9.0
 40
9.0
 40
10.0
 40
10.0
 40
10.0
 40
11.0
 40
11.0
 40
11.0
 40
12.0
 40
12.0
 40
12.0
 40
13.0
 40
13.0
 40
13.0
 40
14.0
 40
14.0
 40
14.0
 40
14.0
 10
456.095703125
 20
-395.62451171875
 30
0.0
 10
462.615234375
 20
-395.62451171875
 30
0.0
 10
468.0029296875
 20
-396.43115234375
 30
0.0
 10
472.259765625
 20
-398.04248046875
 30
0.0
 10
476.5146484375
 20
-399.654296875
 30
0.0
 10
479.693359375
 20
-402.10888671875
 30
0.0
 10
481.7949218749999
 20
-405.404296875
 30
0.0
 10
483.8945312499999
 20
-408.70068359375
 30
0.0
 10
484.9462890625
 20
-412.9023437499999
 30
0.0
 10
484.9462890625
 20
-418.0092773437499
 30
0.0
 10
484.9462890625
 20
-422.2119140624999
 30
0.0
 10
484.185546875
 20
-425.7158203124999
 30
0.0
 10
482.6640625
 20
-428.5224609374999
 30
0.0
 10
481.142578125
 20
-431.3300781249999
 30
0.0
 10
479.150390625
 20
-433.6025390625
 30
0.0
 10
476.6874999999999
 20
-435.341796875
 30
0.0
 10
474.2236328125
 20
-437.0800781249999
 30
0.0
 10
471.5976562499999
 20
-438.4208984375
 30
0.0
 10
468.8095703124999
 20
-439.3623046874999
 30
0.0
 10
468.8095703124999
 20
-439.3623046874999
 30
0.0
 10
490.5966796875
 20
-475.05859375
 30
0.0
 10
490.5966796875
 20
-475.05859375
 30
0.0
 10
490.5966796875
 20
-475.05859375
 30
0.0
 10
479.8388671875
 20
-475.05859375
 30
0.0
 10
479.8388671875
 20
-475.05859375
 30
0.0
 10
479.8388671875
 20
-475.05859375
 30
0.0
 10
460.3876953124999
 20
-441.916015625
 30
0.0
 10
460.3876953124999
 20
-441.916015625
 30
0.0
 10
460.3876953124999
 20
-441.916015625
 30
0.0
 10
443.8701171875
 20
-441.916015625
 30
0.0
 10
443.8701171875
 20
-441.916015625
 30
0.0
 10
443.8701171875
 20
-441.916015625
 30
0.0
 10
443.8701171875
 20
-475.05859375
 30
0.0
 10
443.8701171875
 20
-475.05859375
 30
0.0
 10
443.8701171875
 20
-475.05859375
 30
0.0
 10
434.6337890625
 20
-475.05859375
 30
0.0
 10
434.6337890625
 20
-475.05859375
 30
0.0
 10
434.6337890625
 20
-475.05859375
 30
0.0
 10
434.6337890625
 20
-395.62451171875
 30
0.0
 10
434.6337890625
 20
-395.62451171875
 30
0.0
 10
434.6337890625
 20
-395.62451171875
 30
0.0
 10
456.095703125
 20
-395.62451171875
 30
0.0
 10
456.095703125
 20
-395.62451171875
 30
0.0
  0
HATCH
  5
9A
330
7D
100
AcDbEntity
  8
Layer 1
 62
    18
420
    65793
440
 33554687
100
AcDbHatch
 10
0.0
 20
0.0
 30
0.0
210
0.0
220
0.0
230
1.0
  2
SOLID
 70
     1
 71
     1
 91
        2
 92
        1
 93
        1
 72
     4
 94
        3
 73
     0
 74
     0
 95
       26
 96
       22
 40
0.0
 40
0.0
 40
0.0
 40
0.0
 40
1.0
 40
1.0
 40
1.0
 40
2.0
 40
2.0
 40
2.0
 40
3.0
 40
3.0
 40
3.0
 40
4.0
 40
4.0
 40
4.0
 40
5.0
 40
5.0
 40
5.0
 40
6.0
 40
6.0
 40
6.0
 40
7.0
 40
7.0
 40
7.0
 40
7.0
 10
455.5517578125
 20
-403.611328125
 10
455.5517578125
 20
-403.611328125
 10
443.8701171875
 20
-403.611328125
 10
443.8701171875
 20
-403.611328125
 10
443.8701171875
 20
-403.611328125
 10
443.8701171875
 20
-434.091796875
 10
443.8701171875
 20
-434.091796875
 10
443.8701171875
 20
-434.091796875
 10
456.4755859375
 20
-434.091796875
 10
456.4755859375
 20
-434.091796875
 10
462.9589843749999
 20
-434.091796875
 10
467.7314453124999
 20
-432.76953125
 10
470.7919921874999
 20
-430.125
 10
473.8525390625
 20
-427.4814453124999
 10
475.3837890625
 20
-423.5878906249999
 10
475.3837890625
 20
-418.4443359374999
 10
475.3837890625
 20
-413.04736328125
 10
473.7617187499999
 20
-409.22607421875
 10
470.5205078125
 20
-406.97998046875
 10
467.2783203125
 20
-404.734375
 10
462.2890625
 20
-403.611328125
 10
455.5517578125
 20
-403.611328125
 97
        0
 97
        1
330
98
 92
        1
 93
        1
 72
     4
 94
        3
 73
     0
 74
     0
 95
       47
 96
       43
 40
0.0
 40
0.0
 40
0.0
 40
0.0
 40
1.0
 40
1.0
 40
1.0
 40
2.0
 40
2.0
 40
2.0
 40
3.0
 40
3.0
 40
3.0
 40
4.0
 40
4.0
 40
4.0
 40
5.0
 40
5.0
 40
5.0
 40
6.0
 40
6.0
 40
6.0
 40
7.0
 40
7.0
 40
7.0
 40
8.0
 40
8.0
 40
8.0
 40
9.0
 40
9.0
 40
9.0
 40
10.0
 40
10.0
 40
10.0
 40
11.0
 40
11.0
 40
11.0
 40
12.0
 40
12.0
 40
12.0
 40
13.0
 40
13.0
 40
13.0
 40
14.0
 40
14.0
 40
14.0
 40
14.0
 10
456.095703125
 20
-395.62451171875
 10
462.615234375
 20
-395.62451171875
 10
468.0029296875
 20
-396.43115234375
 10
472.259765625
 20
-398.04248046875
 10
476.5146484375
 20
-399.654296875
 10
479.693359375
 20
-402.10888671875
 10
481.7949218749999
 20
-405.404296875
 10
483.8945312499999
 20
-408.70068359375
 10
484.9462890625
 20
-412.9023437499999
 10
484.9462890625
 20
-418.0092773437499
 10
484.9462890625
 20
-422.2119140624999
 10
484.185546875
 20
-425.7158203124999
 10
482.6640625
 20
-428.5224609374999
 10
481.142578125
 20
-431.3300781249999
 10
479.150390625
 20
-433.6025390625
 10
476.6874999999999
 20
-435.341796875
 10
474.2236328125
 20
-437.0800781249999
 10
471.5976562499999
 20
-438.4208984375
 10
468.8095703124999
 20
-439.3623046874999
 10
468.8095703124999
 20
-439.3623046874999
 10
490.5966796875
 20
-475.05859375
 10
490.5966796875
 20
-475.05859375
 10
490.5966796875
 20
-475.05859375
 10
479.8388671875
 20
-475.05859375
 10
479.8388671875
 20
-475.05859375
 10
479.8388671875
 20
-475.05859375
 10
460.3876953124999
 20
-441.916015625
 10
460.3876953124999
 20
-441.916015625
 10
460.3876953124999
 20
-441.916015625
 10
443.8701171875
 20
-441.916015625
 10
443.8701171875
 20
-441.916015625
 10
443.8701171875
 20
-441.916015625
 10
443.8701171875
 20
-475.05859375
 10
443.8701171875
 20
-475.05859375
 10
443.8701171875
 20
-475.05859375
 10
434.6337890625
 20
-475.05859375
 10
434.6337890625
 20
-475.05859375
 10
434.6337890625
 20
-475.05859375
 10
434.6337890625
 20
-395.62451171875
 10
434.6337890625
 20
-395.62451171875
 10
434.6337890625
 20
-395.62451171875
 10
456.095703125
 20
-395.62451171875
 10
456.095703125
 20
-395.62451171875
 97
        0
 97
        1
330
99
 75
     2
 76
     1
 98
        1
 10
0.0
 20
0.0
450
        0
451
        0
460
0.0
461
0.0
452
        0
462
0.0
453
        0
470

  0
SPLINE
  5
9B
330
7D
100
AcDbEntity
  8
Layer 1
100
AcDbSpline
210
0.0
220
0.0
230
1.0
 70
    11
 71
     3
 72
    77
 73
    73
 74
     0
 42
0.0000000001
 43
0.0000000001
 40
0.0
 40
0.0
 40
0.0
 40
0.0
 40
1.0
 40
1.0
 40
1.0
 40
2.0
 40
2.0
 40
2.0
 40
3.0
 40
3.0
 40
3.0
 40
4.0
 40
4.0
 40
4.0
 40
5.0
 40
5.0
 40
5.0
 40
6.0
 40
6.0
 40
6.0
 40
7.0
 40
7.0
 40
7.0
 40
8.0
 40
8.0
 40
8.0
 40
9.0
 40
9.0
 40
9.0
 40
10.0
 40
10.0
 40
10.0
 40
11.0
 40
11.0
 40
11.0
 40
12.0
 40
12.0
 40
12.0
 40
13.0
 40
13.0
 40
13.0
 40
14.0
 40
14.0
 40
14.0
 40
15.0
 40
15.0
 40
15.0
 40
16.0
 40
16.0
 40
16.0
 40
17.0
 40
17.0
 40
17.0
 40
18.0
 40
18.0
 40
18.0
 40
19.0
 40
19.0
 40
19.0
 40
20.0
 40
20.0
 40
20.0
 40
21.0
 40
21.0
 40
21.0
 40
22.0
 40
22.0
 40
22.0
 40
23.0
 40
23.0
 40
23.0
 40
24.0
 40
24.0
 40
24.0
 40
24.0
 10
156.51611328125
 20
-608.5859375
 30
0.0
 10
156.51611328125
 20
-608.5859375
 30
0.0
 10
104.46533203125
 20
-608.5859375
 30
0.0
 10
104.46533203125
 20
-608.5859375
 30
0.0
 10
104.46533203125
 20
-608.5859375
 30
0.0
 10
104.46533203125
 20
-601.0341796875
 30
0.0
 10
104.46533203125
 20
-601.0341796875
 30
0.0
 10
104.46533203125
 20
-601.0341796875
 30
0.0
 10
125.70947265625
 20
-579.4638671875
 30
0.0
 10
125.70947265625
 20
-579.4638671875
 30
0.0
 10
129.65673828125
 20
-575.4794921874999
 30
0.0
 10
132.98095703125
 20
-571.9306640624999
 30
0.0
 10
135.67919921875
 20
-568.8144531249999
 30
0.0
 10
138.37744140625
 20
-565.7001953125
 30
0.0
 10
140.43408203125
 20
-562.6298828124999
 30
0.0
 10
141.84619140625
 20
-559.6054687499999
 30
0.0
 10
143.25927734375
 20
-556.5810546875
 30
0.0
 10
143.96533203125
 20
-553.2578124999999
 30
0.0
 10
143.96533203125
 20
-549.634765625
 30
0.0
 10
143.96533203125
 20
-545.1445312499999
 30
0.0
 10
142.63427734375
 20
-541.7119140625
 30
0.0
 10
139.97216796875
 20
-539.3388671874999
 30
0.0
 10
137.31005859375
 20
-536.9667968749999
 30
0.0
 10
133.80517578125
 20
-535.7802734375
 30
0.0
 10
129.45849609375
 20
-535.7802734375
 30
0.0
 10
125.65576171875
 20
-535.7802734375
 30
0.0
 10
122.28662109375
 20
-536.4326171874999
 30
0.0
 10
119.35302734375
 20
-537.736328125
 30
0.0
 10
116.41845703125
 20
-539.0400390625
 30
0.0
 10
113.41162109375
 20
-540.8876953125
 30
0.0
 10
110.33349609375
 20
-543.2783203125
 30
0.0
 10
110.33349609375
 20
-543.2783203125
 30
0.0
 10
105.49755859375
 20
-537.1923828125
 30
0.0
 10
105.49755859375
 20
-537.1923828125
 30
0.0
 10
107.59814453125
 20
-535.4189453125
 30
0.0
 10
109.88916015625
 20
-533.8427734375
 30
0.0
 10
112.37060546875
 20
-532.4658203124999
 30
0.0
 10
114.85205078125
 20
-531.0898437499999
 30
0.0
 10
117.51416015625
 20
-530.0029296875
 30
0.0
 10
120.35791015625
 20
-529.2060546874999
 30
0.0
 10
123.20068359375
 20
-528.4091796874999
 30
0.0
 10
126.23388671875
 20
-528.0107421874999
 30
0.0
 10
129.45849609375
 20
-528.0107421874999
 30
0.0
 10
134.34814453125
 20
-528.0107421874999
 30
0.0
 10
138.56787109375
 20
-528.8623046875
 30
0.0
 10
142.11767578125
 20
-530.564453125
 30
0.0
 10
145.66748046875
 20
-532.267578125
 30
0.0
 10
148.41162109375
 20
-534.693359375
 30
0.0
 10
150.34912109375
 20
-537.8457031249999
 30
0.0
 10
152.28662109375
 20
-540.99609375
 30
0.0
 10
153.25634765625
 20
-544.7451171875
 30
0.0
 10
153.25634765625
 20
-549.0917968749999
 30
0.0
 10
153.25634765625
 20
-553.2939453125
 30
0.0
 10
152.42236328125
 20
-557.1962890625
 30
0.0
 10
150.75732421875
 20
-560.80078125
 30
0.0
 10
149.09033203125
 20
-564.4052734375
 30
0.0
 10
146.75439453125
 20
-567.9726562499999
 30
0.0
 10
143.74755859375
 20
-571.5039062499999
 30
0.0
 10
140.74072265625
 20
-575.0351562499999
 30
0.0
 10
137.22802734375
 20
-578.7763671875
 30
0.0
 10
133.20751953125
 20
-582.7236328125
 30
0.0
 10
133.20751953125
 20
-582.7236328125
 30
0.0
 10
115.93017578125
 20
-599.947265625
 30
0.0
 10
115.93017578125
 20
-599.947265625
 30
0.0
 10
115.93017578125
 20
-599.947265625
 30
0.0
 10
115.93017578125
 20
-600.3271484375
 30
0.0
 10
115.93017578125
 20
-600.3271484375
 30
0.0
 10
115.93017578125
 20
-600.3271484375
 30
0.0
 10
156.51611328125
 20
-600.3271484375
 30
0.0
 10
156.51611328125
 20
-600.3271484375
 30
0.0
 10
156.51611328125
 20
-600.3271484375
 30
0.0
 10
156.51611328125
 20
-608.5859375
 30
0.0
 10
156.51611328125
 20
-608.5859375
 30
0.0
  0
HATCH
  5
9C
330
7D
100
AcDbEntity
  8
Layer 1
 62
    18
420
    65793
440
 33554687
100
AcDbHatch
 10
0.0
 20
0.0
 30
0.0
210
0.0
220
0.0
230
1.0
  2
SOLID
 70
     1
 71
     1
 91
        1
 92
        1
 93
        1
 72
     4
 94
        3
 73
     0
 74
     0
 95
       77
 96
       73
 40
0.0
 40
0.0
 40
0.0
 40
0.0
 40
1.0
 40
1.0
 40
1.0
 40
2.0
 40
2.0
 40
2.0
 40
3.0
 40
3.0
 40
3.0
 40
4.0
 40
4.0
 40
4.0
 40
5.0
 40
5.0
 40
5.0
 40
6.0
 40
6.0
 40
6.0
 40
7.0
 40
7.0
 40
7.0
 40
8.0
 40
8.0
 40
8.0
 40
9.0
 40
9.0
 40
9.0
 40
10.0
 40
10.0
 40
10.0
 40
11.0
 40
11.0
 40
11.0
 40
12.0
 40
12.0
 40
12.0
 40
13.0
 40
13.0
 40
13.0
 40
14.0
 40
14.0
 40
14.0
 40
15.0
 40
15.0
 40
15.0
 40
16.0
 40
16.0
 40
16.0
 40
17.0
 40
17.0
 40
17.0
 40
18.0
 40
18.0
 40
18.0
 40
19.0
 40
19.0
 40
19.0
 40
20.0
 40
20.0
 40
20.0
 40
21.0
 40
21.0
 40
21.0
 40
22.0
 40
22.0
 40
22.0
 40
23.0
 40
23.0
 40
23.0
 40
24.0
 40
24.0
 40
24.0
 40
24.0
 10
156.51611328125
 20
-608.5859375
 10
156.51611328125
 20
-608.5859375
 10
104.46533203125
 20
-608.5859375
 10
104.46533203125
 20
-608.5859375
 10
104.46533203125
 20
-608.5859375
 10
104.46533203125
 20
-601.0341796875
 10
104.46533203125
 20
-601.0341796875
 10
104.46533203125
 20
-601.0341796875
 10
125.70947265625
 20
-579.4638671875
 10
125.70947265625
 20
-579.4638671875
 10
129.65673828125
 20
-575.4794921874999
 10
132.98095703125
 20
-571.9306640624999
 10
135.67919921875
 20
-568.8144531249999
 10
138.37744140625
 20
-565.7001953125
 10
140.43408203125
 20
-562.6298828124999
 10
141.84619140625
 20
-559.6054687499999
 10
143.25927734375
 20
-556.5810546875
 10
143.96533203125
 20
-553.2578124999999
 10
143.96533203125
 20
-549.634765625
 10
143.96533203125
 20
-545.1445312499999
 10
142.63427734375
 20
-541.7119140625
 10
139.97216796875
 20
-539.3388671874999
 10
137.31005859375
 20
-536.9667968749999
 10
133.80517578125
 20
-535.7802734375
 10
129.45849609375
 20
-535.7802734375
 10
125.65576171875
 20
-535.7802734375
 10
122.28662109375
 20
-536.4326171874999
 10
119.35302734375
 20
-537.736328125
 10
116.41845703125
 20
-539.0400390625
 10
113.41162109375
 20
-540.8876953125
 10
110.33349609375
 20
-543.2783203125
 10
110.33349609375
 20
-543.2783203125
 10
105.49755859375
 20
-537.1923828125
 10
105.49755859375
 20
-537.1923828125
 10
107.59814453125
 20
-535.4189453125
 10
109.88916015625
 20
-533.8427734375
 10
112.37060546875
 20
-532.4658203124999
 10
114.85205078125
 20
-531.0898437499999
 10
117.51416015625
 20
-530.0029296875
 10
120.35791015625
 20
-529.2060546874999
 10
123.20068359375
 20
-528.4091796874999
 10
126.23388671875
 20
-528.0107421874999
 10
129.45849609375
 20
-528.0107421874999
 10
134.34814453125
 20
-528.0107421874999
 10
138.56787109375
 20
-528.8623046875
 10
142.11767578125
 20
-530.564453125
 10
145.66748046875
 20
-532.267578125
 10
148.41162109375
 20
-534.693359375
 10
150.34912109375
 20
-537.8457031249999
 10
152.28662109375
 20
-540.99609375
 10
153.25634765625
 20
-544.7451171875
 10
153.25634765625
 20
-549.0917968749999
 10
153.25634765625
 20
-553.2939453125
 10
152.42236328125
 20
-557.1962890625
 10
150.75732421875
 20
-560.80078125
 10
149.09033203125
 20
-564.4052734375
 10
146.75439453125
 20
-567.9726562499999
 10
143.74755859375
 20
-571.5039062499999
 10
140.74072265625
 20
-575.0351562499999
 10
137.22802734375
 20
-578.7763671875
 10
133.20751953125
 20
-582.7236328125
 10
133.20751953125
 20
-582.7236328125
 10
115.93017578125
 20
-599.947265625
 10
115.93017578125
 20
-599.947265625
 10
115.93017578125
 20
-599.947265625
 10
115.93017578125
 20
-600.3271484375
 10
115.93017578125
 20
-600.3271484375
 10
115.93017578125
 20
-600.3271484375
 10
156.51611328125
 20
-600.3271484375
 10
156.51611328125
 20
-600.3271484375
 10
156.51611328125
 20
-600.3271484375
 10
156.51611328125
 20
-608.5859375
 10
156.51611328125
 20
-608.5859375
 97
        0
 97
        1
330
9B
 75
     2
 76
     1
 98
        1
 10
0.0
 20
0.0
450
        0
451
        0
460
0.0
461
0.0
452
        0
462
0.0
453
        0
470

  0
SPLINE
  5
9D
330
7D
100
AcDbEntity
  8
Layer 1
100
AcDbSpline
210
0.0
220
0.0
230
1.0
 70
    11
 71
     3
 72
    35
 73
    31
 74
     0
 42
0.0000000001
 43
0.0000000001
 40
0.0
 40
0.0
 40
0.0
 40
0.0
 40
1.0
 40
1.0
 40
1.0
 40
2.0
 40
2.0
 40
2.0
 40
3.0
 40
3.0
 40
3.0
 40
4.0
 40
4.0
 40
4.0
 40
5.0
 40
5.0
 40
5.0
 40
6.0
 40
6.0
 40
6.0
 40
7.0
 40
7.0
 40
7.0
 40
8.0
 40
8.0
 40
8.0
 40
9.0
 40
9.0
 40
9.0
 40
10.0
 40
10.0
 40
10.0
 40
10.0
 10
203.40478515625
 20
-582.0175781249999
 30
0.0
 10
203.40478515625
 20
-582.0175781249999
 30
0.0
 10
203.40478515625
 20
-556.046875
 30
0.0
 10
203.40478515625
 20
-556.046875
 30
0.0
 10
203.40478515625
 20
-554.0546875
 30
0.0
 10
203.42236328125
 20
-552.2529296874999
 30
0.0
 10
203.45947265625
 20
-550.640625
 30
0.0
 10
203.49462890625
 20
-549.029296875
 30
0.0
 10
203.54931640625
 20
-547.5253906249999
 30
0.0
 10
203.62255859375
 20
-546.130859375
 30
0.0
 10
203.69384765625
 20
-544.736328125
 30
0.0
 10
203.75830078125
 20
-543.4052734375
 30
0.0
 10
203.81201171875
 20
-542.1376953124999
 30
0.0
 10
203.86669921875
 20
-540.8701171875
 30
0.0
 10
203.91162109375
 20
-539.6201171875
 30
0.0
 10
203.94775390625
 20
-538.388671875
 30
0.0
 10
203.94775390625
 20
-538.388671875
 30
0.0
 10
203.51318359375
 20
-538.388671875
 30
0.0
 10
203.51318359375
 20
-538.388671875
 30
0.0
 10
202.82470703125
 20
-539.837890625
 30
0.0
 10
202.03759765625
 20
-541.3681640624999
 30
0.0
 10
201.14990234375
 20
-542.9794921874999
 30
0.0
 10
200.26220703125
 20
-544.5917968749999
 30
0.0
 10
199.36572265625
 20
-546.0312499999999
 30
0.0
 10
198.46044921875
 20
-547.298828125
 30
0.0
 10
198.46044921875
 20
-547.298828125
 30
0.0
 10
173.95654296875
 20
-582.0175781249999
 30
0.0
 10
173.95654296875
 20
-582.0175781249999
 30
0.0
 10
173.95654296875
 20
-582.0175781249999
 30
0.0
 10
203.40478515625
 20
-582.0175781249999
 30
0.0
 10
203.40478515625
 20
-582.0175781249999
 30
0.0
  0
SPLINE
  5
9E
330
7D
100
AcDbEntity
  8
Layer 1
100
AcDbSpline
210
0.0
220
0.0
230
1.0
 70
    11
 71
     3
 72
    38
 73
    34
 74
     0
 42
0.0000000001
 43
0.0000000001
 40
0.0
 40
0.0
 40
0.0
 40
0.0
 40
1.0
 40
1.0
 40
1.0
 40
2.0
 40
2.0
 40
2.0
 40
3.0
 40
3.0
 40
3.0
 40
4.0
 40
4.0
 40
4.0
 40
5.0
 40
5.0
 40
5.0
 40
6.0
 40
6.0
 40
6.0
 40
7.0
 40
7.0
 40
7.0
 40
8.0
 40
8.0
 40
8.0
 40
9.0
 40
9.0
 40
9.0
 40
10.0
 40
10.0
 40
10.0
 40
11.0
 40
11.0
 40
11.0
 40
11.0
 10
224.10498046875
 20
-590.1669921875
 30
0.0
 10
224.10498046875
 20
-590.1669921875
 30
0.0
 10
212.20654296875
 20
-590.1669921875
 30
0.0
 10
212.20654296875
 20
-590.1669921875
 30
0.0
 10
212.20654296875
 20
-590.1669921875
 30
0.0
 10
212.20654296875
 20
-608.5859375
 30
0.0
 10
212.20654296875
 20
-608.5859375
 30
0.0
 10
212.20654296875
 20
-608.5859375
 30
0.0
 10
203.40478515625
 20
-608.5859375
 30
0.0
 10
203.40478515625
 20
-608.5859375
 30
0.0
 10
203.40478515625
 20
-608.5859375
 30
0.0
 10
203.40478515625
 20
-590.1669921875
 30
0.0
 10
203.40478515625
 20
-590.1669921875
 30
0.0
 10
203.40478515625
 20
-590.1669921875
 30
0.0
 10
164.99169921875
 20
-590.1669921875
 30
0.0
 10
164.99169921875
 20
-590.1669921875
 30
0.0
 10
164.99169921875
 20
-590.1669921875
 30
0.0
 10
164.99169921875
 20
-582.560546875
 30
0.0
 10
164.99169921875
 20
-582.560546875
 30
0.0
 10
164.99169921875
 20
-582.560546875
 30
0.0
 10
202.80712890625
 20
-528.716796875
 30
0.0
 10
202.80712890625
 20
-528.716796875
 30
0.0
 10
202.80712890625
 20
-528.716796875
 30
0.0
 10
212.20654296875
 20
-528.716796875
 30
0.0
 10
212.20654296875
 20
-528.716796875
 30
0.0
 10
212.20654296875
 20
-528.716796875
 30
0.0
 10
212.20654296875
 20
-582.0175781249999
 30
0.0
 10
212.20654296875
 20
-582.0175781249999
 30
0.0
 10
212.20654296875
 20
-582.0175781249999
 30
0.0
 10
224.10498046875
 20
-582.0175781249999
 30
0.0
 10
224.10498046875
 20
-582.0175781249999
 30
0.0
 10
224.10498046875
 20
-582.0175781249999
 30
0.0
 10
224.10498046875
 20
-590.1669921875
 30
0.0
 10
224.10498046875
 20
-590.1669921875
 30
0.0
  0
HATCH
  5
9F
330
7D
100
AcDbEntity
  8
Layer 1
 62
    18
420
    65793
440
 33554687
100
AcDbHatch
 10
0.0
 20
0.0
 30
0.0
210
0.0
220
0.0
230
1.0
  2
SOLID
 70
     1
 71
     1
 91
        2
 92
        1
 93
        1
 72
     4
 94
        3
 73
     0
 74
     0
 95
       35
 96
       31
 40
0.0
 40
0.0
 40
0.0
 40
0.0
 40
1.0
 40
1.0
 40
1.0
 40
2.0
 40
2.0
 40
2.0
 40
3.0
 40
3.0
 40
3.0
 40
4.0
 40
4.0
 40
4.0
 40
5.0
 40
5.0
 40
5.0
 40
6.0
 40
6.0
 40
6.0
 40
7.0
 40
7.0
 40
7.0
 40
8.0
 40
8.0
 40
8.0
 40
9.0
 40
9.0
 40
9.0
 40
10.0
 40
10.0
 40
10.0
 40
10.0
 10
203.40478515625
 20
-582.0175781249999
 10
203.40478515625
 20
-582.0175781249999
 10
203.40478515625
 20
-556.046875
 10
203.40478515625
 20
-556.046875
 10
203.40478515625
 20
-554.0546875
 10
203.42236328125
 20
-552.2529296874999
 10
203.45947265625
 20
-550.640625
 10
203.49462890625
 20
-549.029296875
 10
203.54931640625
 20
-547.5253906249999
 10
203.62255859375
 20
-546.130859375
 10
203.69384765625
 20
-544.736328125
 10
203.75830078125
 20
-543.4052734375
 10
203.81201171875
 20
-542.1376953124999
 10
203.86669921875
 20
-540.8701171875
 10
203.91162109375
 20
-539.6201171875
 10
203.94775390625
 20
-538.388671875
 10
203.94775390625
 20
-538.388671875
 10
203.51318359375
 20
-538.388671875
 10
203.51318359375
 20
-538.388671875
 10
202.82470703125
 20
-539.837890625
 10
202.03759765625
 20
-541.3681640624999
 10
201.14990234375
 20
-542.9794921874999
 10
200.26220703125
 20
-544.5917968749999
 10
199.36572265625
 20
-546.0312499999999
 10
198.46044921875
 20
-547.298828125
 10
198.46044921875
 20
-547.298828125
 10
173.95654296875
 20
-582.0175781249999
 10
173.95654296875
 20
-582.0175781249999
 10
173.95654296875
 20
-582.0175781249999
 10
203.40478515625
 20
-582.0175781249999
 10
203.40478515625
 20
-582.0175781249999
 97
        0
 97
        1
330
9D
 92
        1
 93
        1
 72
     4
 94
        3
 73
     0
 74
     0
 95
       38
 96
       34
 40
0.0
 40
0.0
 40
0.0
 40
0.0
 40
1.0
 40
1.0
 40
1.0
 40
2.0
 40
2.0
 40
2.0
 40
3.0
 40
3.0
 40
3.0
 40
4.0
 40
4.0
 40
4.0
 40
5.0
 40
5.0
 40
5.0
 40
6.0
 40
6.0
 40
6.0
 40
7.0
 40
7.0
 40
7.0
 40
8.0
 40
8.0
 40
8.0
 40
9.0
 40
9.0
 40
9.0
 40
10.0
 40
10.0
 40
10.0
 40
11.0
 40
11.0
 40
11.0
 40
11.0
 10
224.10498046875
 20
-590.1669921875
 10
224.10498046875
 20
-590.1669921875
 10
212.20654296875
 20
-590.1669921875
 10
212.20654296875
 20
-590.1669921875
 10
212.20654296875
 20
-590.1669921875
 10
212.20654296875
 20
-608.5859375
 10
212.20654296875
 20
-608.5859375
 10
212.20654296875
 20
-608.5859375
 10
203.40478515625
 20
-608.5859375
 10
203.40478515625
 20
-608.5859375
 10
203.40478515625
 20
-608.5859375
 10
203.40478515625
 20
-590.1669921875
 10
203.40478515625
 20
-590.1669921875
 10
203.40478515625
 20
-590.1669921875
 10
164.99169921875
 20
-590.1669921875
 10
164.99169921875
 20
-590.1669921875
 10
164.99169921875
 20
-590.1669921875
 10
164.99169921875
 20
-582.560546875
 10
164.99169921875
 20
-582.560546875
 10
164.99169921875
 20
-582.560546875
 10
202.80712890625
 20
-528.716796875
 10
202.80712890625
 20
-528.716796875
 10
202.80712890625
 20
-528.716796875
 10
212.20654296875
 20
-528.716796875
 10
212.20654296875
 20
-528.716796875
 10
212.20654296875
 20
-528.716796875
 10
212.20654296875
 20
-582.0175781249999
 10
212.20654296875
 20
-582.0175781249999
 10
212.20654296875
 20
-582.0175781249999
 10
224.10498046875
 20
-582.0175781249999
 10
224.10498046875
 20
-582.0175781249999
 10
224.10498046875
 20
-582.0175781249999
 10
224.10498046875
 20
-590.1669921875
 10
224.10498046875
 20
-590.1669921875
 97
        0
 97
        1
330
9E
 75
     2
 76
     1
 98
        1
 10
0.0
 20
0.0
450
        0
451
        0
460
0.0
461
0.0
452
        0
462
0.0
453
        0
470

  0
SPLINE
  5
A0
330
7D
100
AcDbEntity
  8
Layer 1
100
AcDbSpline
210
0.0
220
0.0
230
1.0
 70
     9
 71
     3
 72
    41
 73
    37
 74
     0
 42
0.0000000001
 43
0.0000000001
 40
0.0
 40
0.0
 40
0.0
 40
0.0
 40
1.0
 40
1.0
 40
1.0
 40
2.0
 40
2.0
 40
2.0
 40
3.0
 40
3.0
 40
3.0
 40
4.0
 40
4.0
 40
4.0
 40
5.0
 40
5.0
 40
5.0
 40
6.0
 40
6.0
 40
6.0
 40
7.0
 40
7.0
 40
7.0
 40
8.0
 40
8.0
 40
8.0
 40
9.0
 40
9.0
 40
9.0
 40
10.0
 40
10.0
 40
10.0
 40
11.0
 40
11.0
 40
11.0
 40
12.0
 40
12.0
 40
12.0
 40
12.0
 10
269.79931640625
 20
-568.759765625
 30
0.0
 10
269.79931640625
 20
-576.1494140625
 30
0.0
 10
270.35986328125
 20
-582.3076171874999
 30
0.0
 10
271.48388671875
 20
-587.2333984375
 30
0.0
 10
272.60595703125
 20
-592.16015625
 30
0.0
 10
274.42626953125
 20
-595.8447265624999
 30
0.0
 10
276.94384765625
 20
-598.2900390624999
 30
0.0
 10
279.46142578125
 20
-600.7353515624999
 30
0.0
 10
282.76611328125
 20
-601.9570312499999
 30
0.0
 10
286.85986328125
 20
-601.9570312499999
 30
0.0
 10
290.95263671875
 20
-601.9570312499999
 30
0.0
 10
294.25732421875
 20
-600.7441406249999
 30
0.0
 10
296.77490234375
 20
-598.3173828125
 30
0.0
 10
299.29296875
 20
-595.890625
 30
0.0
 10
301.1220703125
 20
-592.2138671875
 30
0.0
 10
302.263671875
 20
-587.2880859374999
 30
0.0
 10
303.404296875
 20
-582.3623046875
 30
0.0
 10
303.974609375
 20
-576.185546875
 30
0.0
 10
303.974609375
 20
-568.759765625
 30
0.0
 10
303.974609375
 20
-561.4794921875
 30
0.0
 10
303.4130859375
 20
-555.3857421875
 30
0.0
 10
302.2900390625
 20
-550.4775390625
 30
0.0
 10
301.1669921875
 20
-545.5693359375
 30
0.0
 10
299.3564453125
 20
-541.875
 30
0.0
 10
296.85693359375
 20
-539.3935546875
 30
0.0
 10
294.35791015625
 20
-536.9130859374999
 30
0.0
 10
291.02490234375
 20
-535.6718749999999
 30
0.0
 10
286.85986328125
 20
-535.6718749999999
 30
0.0
 10
282.69384765625
 20
-535.6718749999999
 30
0.0
 10
279.36181640625
 20
-536.9130859374999
 30
0.0
 10
276.86279296875
 20
-539.3935546875
 30
0.0
 10
274.36279296875
 20
-541.875
 30
0.0
 10
272.56103515625
 20
-545.5693359375
 30
0.0
 10
271.45654296875
 20
-550.4775390625
 30
0.0
 10
270.35107421875
 20
-555.3857421875
 30
0.0
 10
269.79931640625
 20
-561.4794921875
 30
0.0
 10
269.79931640625
 20
-568.759765625
 30
0.0
  0
SPLINE
  5
A1
330
7D
100
AcDbEntity
  8
Layer 1
100
AcDbSpline
210
0.0
220
0.0
230
1.0
 70
     9
 71
     3
 72
    44
 73
    40
 74
     0
 42
0.0000000001
 43
0.0000000001
 40
0.0
 40
0.0
 40
0.0
 40
0.0
 40
1.0
 40
1.0
 40
1.0
 40
2.0
 40
2.0
 40
2.0
 40
3.0
 40
3.0
 40
3.0
 40
4.0
 40
4.0
 40
4.0
 40
5.0
 40
5.0
 40
5.0
 40
6.0
 40
6.0
 40
6.0
 40
7.0
 40
7.0
 40
7.0
 40
8.0
 40
8.0
 40
8.0
 40
9.0
 40
9.0
 40
9.0
 40
10.0
 40
10.0
 40
10.0
 40
11.0
 40
11.0
 40
11.0
 40
12.0
 40
12.0
 40
12.0
 40
13.0
 40
13.0
 40
13.0
 40
13.0
 10
313.1025390625
 20
-568.759765625
 30
0.0
 10
313.1025390625
 20
-575.2080078125
 30
0.0
 10
312.61328125
 20
-580.966796875
 30
0.0
 10
311.6357421875
 20
-586.0380859374999
 30
0.0
 10
310.6572265625
 20
-591.109375
 30
0.0
 10
309.1181640625
 20
-595.4013671874999
 30
0.0
 10
307.017578125
 20
-598.9150390625
 30
0.0
 10
304.916015625
 20
-602.4287109374999
 30
0.0
 10
302.19921875
 20
-605.1005859375
 30
0.0
 10
298.86669921875
 20
-606.9287109374999
 30
0.0
 10
295.53369140625
 20
-608.7578125
 30
0.0
 10
291.53173828125
 20
-609.6728515625
 30
0.0
 10
286.85986328125
 20
-609.6728515625
 30
0.0
 10
280.95556640625
 20
-609.6728515625
 30
0.0
 10
276.07470703125
 20
-608.0615234375
 30
0.0
 10
272.21728515625
 20
-604.8369140624999
 30
0.0
 10
268.35888671875
 20
-601.61328125
 30
0.0
 10
265.47998046875
 20
-596.9501953125
 30
0.0
 10
263.57763671875
 20
-590.8466796875
 30
0.0
 10
261.67626953125
 20
-584.7431640625
 30
0.0
 10
260.72607421875
 20
-577.380859375
 30
0.0
 10
260.72607421875
 20
-568.759765625
 30
0.0
 10
260.72607421875
 20
-560.2841796875
 30
0.0
 10
261.58544921875
 20
-552.9951171875
 30
0.0
 10
263.30615234375
 20
-546.8916015625
 30
0.0
 10
265.02685546875
 20
-540.7880859375
 30
0.0
 10
267.80712890625
 20
-536.09765625
 30
0.0
 10
271.64599609375
 20
-532.8193359374999
 30
0.0
 10
275.48583984375
 20
-529.541015625
 30
0.0
 10
280.55712890625
 20
-527.90234375
 30
0.0
 10
286.85986328125
 20
-527.90234375
 30
0.0
 10
292.83642578125
 20
-527.90234375
 30
0.0
 10
297.76123046875
 20
-529.5234374999999
 30
0.0
 10
301.638671875
 20
-532.7646484375
 30
0.0
 10
305.513671875
 20
-536.0068359375
 30
0.0
 10
308.3935546875
 20
-540.6796875
 30
0.0
 10
310.27734375
 20
-546.783203125
 30
0.0
 10
312.16015625
 20
-552.88671875
 30
0.0
 10
313.1025390625
 20
-560.2119140624999
 30
0.0
 10
313.1025390625
 20
-568.759765625
 30
0.0
  0
HATCH
  5
A2
330
7D
100
AcDbEntity
  8
Layer 1
 62
    18
420
    65793
440
 33554687
100
AcDbHatch
 10
0.0
 20
0.0
 30
0.0
210
0.0
220
0.0
230
1.0
  2
SOLID
 70
     1
 71
     1
 91
        2
 92
        1
 93
        1
 72
     4
 94
        3
 73
     0
 74
     0
 95
       41
 96
       37
 40
0.0
 40
0.0
 40
0.0
 40
0.0
 40
1.0
 40
1.0
 40
1.0
 40
2.0
 40
2.0
 40
2.0
 40
3.0
 40
3.0
 40
3.0
 40
4.0
 40
4.0
 40
4.0
 40
5.0
 40
5.0
 40
5.0
 40
6.0
 40
6.0
 40
6.0
 40
7.0
 40
7.0
 40
7.0
 40
8.0
 40
8.0
 40
8.0
 40
9.0
 40
9.0
 40
9.0
 40
10.0
 40
10.0
 40
10.0
 40
11.0
 40
11.0
 40
11.0
 40
12.0
 40
12.0
 40
12.0
 40
12.0
 10
269.79931640625
 20
-568.759765625
 10
269.79931640625
 20
-576.1494140625
 10
270.35986328125
 20
-582.3076171874999
 10
271.48388671875
 20
-587.2333984375
 10
272.60595703125
 20
-592.16015625
 10
274.42626953125
 20
-595.8447265624999
 10
276.94384765625
 20
-598.2900390624999
 10
279.46142578125
 20
-600.7353515624999
 10
282.76611328125
 20
-601.9570312499999
 10
286.85986328125
 20
-601.9570312499999
 10
290.95263671875
 20
-601.9570312499999
 10
294.25732421875
 20
-600.7441406249999
 10
296.77490234375
 20
-598.3173828125
 10
299.29296875
 20
-595.890625
 10
301.1220703125
 20
-592.2138671875
 10
302.263671875
 20
-587.2880859374999
 10
303.404296875
 20
-582.3623046875
 10
303.974609375
 20
-576.185546875
 10
303.974609375
 20
-568.759765625
 10
303.974609375
 20
-561.4794921875
 10
303.4130859375
 20
-555.3857421875
 10
302.2900390625
 20
-550.4775390625
 10
301.1669921875
 20
-545.5693359375
 10
299.3564453125
 20
-541.875
 10
296.85693359375
 20
-539.3935546875
 10
294.35791015625
 20
-536.9130859374999
 10
291.02490234375
 20
-535.6718749999999
 10
286.85986328125
 20
-535.6718749999999
 10
282.69384765625
 20
-535.6718749999999
 10
279.36181640625
 20
-536.9130859374999
 10
276.86279296875
 20
-539.3935546875
 10
274.36279296875
 20
-541.875
 10
272.56103515625
 20
-545.5693359375
 10
271.45654296875
 20
-550.4775390625
 10
270.35107421875
 20
-555.3857421875
 10
269.79931640625
 20
-561.4794921875
 10
269.79931640625
 20
-568.759765625
 97
        0
 97
        1
330
A0
 92
        1
 93
        1
 72
     4
 94
        3
 73
     0
 74
     0
 95
       44
 96
       40
 40
0.0
 40
0.0
 40
0.0
 40
0.0
 40
1.0
 40
1.0
 40
1.0
 40
2.0
 40
2.0
 40
2.0
 40
3.0
 40
3.0
 40
3.0
 40
4.0
 40
4.0
 40
4.0
 40
5.0
 40
5.0
 40
5.0
 40
6.0
 40
6.0
 40
6.0
 40
7.0
 40
7.0
 40
7.0
 40
8.0
 40
8.0
 40
8.0
 40
9.0
 40
9.0
 40
9.0
 40
10.0
 40
10.0
 40
10.0
 40
11.0
 40
11.0
 40
11.0
 40
12.0
 40
12.0
 40
12.0
 40
13.0
 40
13.0
 40
13.0
 40
13.0
 10
313.1025390625
 20
-568.759765625
 10
313.1025390625
 20
-575.2080078125
 10
312.61328125
 20
-580.966796875
 10
311.6357421875
 20
-586.0380859374999
 10
310.6572265625
 20
-591.109375
 10
309.1181640625
 20
-595.4013671874999
 10
307.017578125
 20
-598.9150390625
 10
304.916015625
 20
-602.4287109374999
 10
302.19921875
 20
-605.1005859375
 10
298.86669921875
 20
-606.9287109374999
 10
295.53369140625
 20
-608.7578125
 10
291.53173828125
 20
-609.6728515625
 10
286.85986328125
 20
-609.6728515625
 10
280.95556640625
 20
-609.6728515625
 10
276.07470703125
 20
-608.0615234375
 10
272.21728515625
 20
-604.8369140624999
 10
268.35888671875
 20
-601.61328125
 10
265.47998046875
 20
-596.9501953125
 10
263.57763671875
 20
-590.8466796875
 10
261.67626953125
 20
-584.7431640625
 10
260.72607421875
 20
-577.380859375
 10
260.72607421875
 20
-568.759765625
 10
260.72607421875
 20
-560.2841796875
 10
261.58544921875
 20
-552.9951171875
 10
263.30615234375
 20
-546.8916015625
 10
265.02685546875
 20
-540.7880859375
 10
267.80712890625
 20
-536.09765625
 10
271.64599609375
 20
-532.8193359374999
 10
275.48583984375
 20
-529.541015625
 10
280.55712890625
 20
-527.90234375
 10
286.85986328125
 20
-527.90234375
 10
292.83642578125
 20
-527.90234375
 10
297.76123046875
 20
-529.5234374999999
 10
301.638671875
 20
-532.7646484375
 10
305.513671875
 20
-536.0068359375
 10
308.3935546875
 20
-540.6796875
 10
310.27734375
 20
-546.783203125
 10
312.16015625
 20
-552.88671875
 10
313.1025390625
 20
-560.2119140624999
 10
313.1025390625
 20
-568.759765625
 97
        0
 97
        1
330
A1
 75
     2
 76
     1
 98
        1
 10
0.0
 20
0.0
450
        0
451
        0
460
0.0
461
0.0
452
        0
462
0.0
453
        0
470

  0
SPLINE
  5
A3
330
7D
100
AcDbEntity
  8
Layer 1
100
AcDbSpline
210
0.0
220
0.0
230
1.0
 70
     9
 71
     3
 72
    38
 73
    34
 74
     0
 42
0.0000000001
 43
0.0000000001
 40
0.0
 40
0.0
 40
0.0
 40
0.0
 40
1.0
 40
1.0
 40
1.0
 40
2.0
 40
2.0
 40
2.0
 40
3.0
 40
3.0
 40
3.0
 40
4.0
 40
4.0
 40
4.0
 40
5.0
 40
5.0
 40
5.0
 40
6.0
 40
6.0
 40
6.0
 40
7.0
 40
7.0
 40
7.0
 40
8.0
 40
8.0
 40
8.0
 40
9.0
 40
9.0
 40
9.0
 40
10.0
 40
10.0
 40
10.0
 40
11.0
 40
11.0
 40
11.0
 40
11.0
 10
351.787109375
 20
-602.0664062499999
 30
0.0
 10
356.712890625
 20
-602.0664062499999
 30
0.0
 10
360.6611328125
 20
-600.490234375
 30
0.0
 10
363.6318359375
 20
-597.3388671875
 30
0.0
 10
366.6015625
 20
-594.1875
 30
0.0
 10
368.0869140625
 20
-589.4248046875
 30
0.0
 10
368.0869140625
 20
-583.0498046875
 30
0.0
 10
368.0869140625
 20
-577.833984375
 30
0.0
 10
366.7646484375
 20
-573.7041015625
 30
0.0
 10
364.1201171875
 20
-570.6621093749999
 30
0.0
 10
361.4765625
 20
-567.619140625
 30
0.0
 10
357.4921875
 20
-566.09765625
 30
0.0
 10
352.1669921875
 20
-566.09765625
 30
0.0
 10
348.544921875
 20
-566.09765625
 30
0.0
 10
345.3935546875
 20
-566.8505859375
 30
0.0
 10
342.7138671875
 20
-568.3525390625
 30
0.0
 10
340.0322265625
 20
-569.8564453124999
 30
0.0
 10
337.9501953125
 20
-571.7480468749999
 30
0.0
 10
336.46484375
 20
-574.0302734374999
 30
0.0
 10
334.9794921875
 20
-576.3125
 30
0.0
 10
334.2373046875
 20
-578.630859375
 30
0.0
 10
334.2373046875
 20
-580.9853515624999
 30
0.0
 10
334.2373046875
 20
-583.3759765625
 30
0.0
 10
334.5908203125
 20
-585.8027343749999
 30
0.0
 10
335.296875
 20
-588.265625
 30
0.0
 10
336.00390625
 20
-590.7294921874999
 30
0.0
 10
337.0810546875
 20
-593.0107421875
 30
0.0
 10
338.5302734375
 20
-595.111328125
 30
0.0
 10
339.978515625
 20
-597.212890625
 30
0.0
 10
341.8076171875
 20
-598.8964843749999
 30
0.0
 10
344.017578125
 20
-600.1640625
 30
0.0
 10
346.2265625
 20
-601.4326171875
 30
0.0
 10
348.81640625
 20
-602.0664062499999
 30
0.0
 10
351.787109375
 20
-602.0664062499999
 30
0.0
  0
SPLINE
  5
A4
330
7D
100
AcDbEntity
  8
Layer 1
100
AcDbSpline
210
0.0
220
0.0
230
1.0
 70
     9
 71
     3
 72
    86
 73
    82
 74
     0
 42
0.0000000001
 43
0.0000000001
 40
0.0
 40
0.0
 40
0.0
 40
0.0
 40
1.0
 40
1.0
 40
1.0
 40
2.0
 40
2.0
 40
2.0
 40
3.0
 40
3.0
 40
3.0
 40
4.0
 40
4.0
 40
4.0
 40
5.0
 40
5.0
 40
5.0
 40
6.0
 40
6.0
 40
6.0
 40
7.0
 40
7.0
 40
7.0
 40
8.0
 40
8.0
 40
8.0
 40
9.0
 40
9.0
 40
9.0
 40
10.0
 40
10.0
 40
10.0
 40
11.0
 40
11.0
 40
11.0
 40
12.0
 40
12.0
 40
12.0
 40
13.0
 40
13.0
 40
13.0
 40
14.0
 40
14.0
 40
14.0
 40
15.0
 40
15.0
 40
15.0
 40
16.0
 40
16.0
 40
16.0
 40
17.0
 40
17.0
 40
17.0
 40
18.0
 40
18.0
 40
18.0
 40
19.0
 40
19.0
 40
19.0
 40
20.0
 40
20.0
 40
20.0
 40
21.0
 40
21.0
 40
21.0
 40
22.0
 40
22.0
 40
22.0
 40
23.0
 40
23.0
 40
23.0
 40
24.0
 40
24.0
 40
24.0
 40
25.0
 40
25.0
 40
25.0
 40
26.0
 40
26.0
 40
26.0
 40
27.0
 40
27.0
 40
27.0
 40
27.0
 10
325.0556640625
 20
-574.6279296875
 30
0.0
 10
325.0556640625
 20
-569.8466796875
 30
0.0
 10
325.3896484375
 20
-565.173828125
 30
0.0
 10
326.060546875
 20
-560.6103515625
 30
0.0
 10
326.73046875
 20
-556.046875
 30
0.0
 10
327.8623046875
 20
-551.7998046875
 30
0.0
 10
329.4560546875
 20
-547.869140625
 30
0.0
 10
331.0498046875
 20
-543.939453125
 30
0.0
 10
333.2236328125
 20
-540.4892578124999
 30
0.0
 10
335.9765625
 20
-537.5185546875
 30
0.0
 10
338.728515625
 20
-534.5488281249999
 30
0.0
 10
342.1611328125
 20
-532.2216796874999
 30
0.0
 10
346.2724609375
 20
-530.5371093749999
 30
0.0
 10
350.3828125
 20
-528.8525390624999
 30
0.0
 10
355.318359375
 20
-528.0107421874999
 30
0.0
 10
361.078125
 20
-528.0107421874999
 30
0.0
 10
362.7080078125
 20
-528.0107421874999
 30
0.0
 10
364.46484375
 20
-528.0917968749999
 30
0.0
 10
366.3486328125
 20
-528.2548828124999
 30
0.0
 10
368.2314453125
 20
-528.41796875
 30
0.0
 10
369.7890625
 20
-528.6816406249999
 30
0.0
 10
371.0205078125
 20
-529.04296875
 30
0.0
 10
371.0205078125
 20
-529.04296875
 30
0.0
 10
371.0205078125
 20
-536.8125
 30
0.0
 10
371.0205078125
 20
-536.8125
 30
0.0
 10
369.6806640625
 20
-536.341796875
 30
0.0
 10
368.1494140625
 20
-535.9970703124999
 30
0.0
 10
366.4296875
 20
-535.7802734375
 30
0.0
 10
364.708984375
 20
-535.5624999999999
 30
0.0
 10
362.9794921875
 20
-535.4541015625
 30
0.0
 10
361.2412109375
 20
-535.4541015625
 30
0.0
 10
354.50390625
 20
-535.4541015625
 30
0.0
 10
349.2060546875
 20
-536.9208984374999
 30
0.0
 10
345.3486328125
 20
-539.8554687499999
 30
0.0
 10
341.4912109375
 20
-542.7890624999999
 30
0.0
 10
338.7109375
 20
-546.7646484374999
 30
0.0
 10
337.0087890625
 20
-551.7812499999999
 30
0.0
 10
335.3056640625
 20
-556.7988281249999
 30
0.0
 10
334.328125
 20
-562.439453125
 30
0.0
 10
334.07421875
 20
-568.7060546875
 30
0.0
 10
334.07421875
 20
-568.7060546875
 30
0.0
 10
334.671875
 20
-568.7060546875
 30
0.0
 10
334.671875
 20
-568.7060546875
 30
0.0
 10
335.794921875
 20
-566.8955078125
 30
0.0
 10
337.2255859375
 20
-565.255859375
 30
0.0
 10
338.96484375
 20
-563.7890624999999
 30
0.0
 10
340.703125
 20
-562.322265625
 30
0.0
 10
342.8125
 20
-561.1533203125
 30
0.0
 10
345.2939453125
 20
-560.2841796875
 30
0.0
 10
347.775390625
 20
-559.4150390624999
 30
0.0
 10
350.6640625
 20
-558.98046875
 30
0.0
 10
353.9599609375
 20
-558.98046875
 30
0.0
 10
358.5966796875
 20
-558.98046875
 30
0.0
 10
362.64453125
 20
-559.9228515624999
 30
0.0
 10
366.103515625
 20
-561.8056640625
 30
0.0
 10
369.5625
 20
-563.689453125
 30
0.0
 10
372.2431640625
 20
-566.423828125
 30
0.0
 10
374.14453125
 20
-570.009765625
 30
0.0
 10
376.046875
 20
-573.5957031249999
 30
0.0
 10
376.9970703125
 20
-577.9423828125
 30
0.0
 10
376.9970703125
 20
-583.0498046875
 30
0.0
 10
376.9970703125
 20
-588.51953125
 30
0.0
 10
375.982421875
 20
-593.24609375
 30
0.0
 10
373.955078125
 20
-597.23046875
 30
0.0
 10
371.92578125
 20
-601.2158203124999
 30
0.0
 10
369.0380859375
 20
-604.28515625
 30
0.0
 10
365.2890625
 20
-606.439453125
 30
0.0
 10
361.5400390625
 20
-608.5947265625
 30
0.0
 10
357.0751953125
 20
-609.6728515625
 30
0.0
 10
351.8955078125
 20
-609.6728515625
 30
0.0
 10
348.01953125
 20
-609.6728515625
 30
0.0
 10
344.4521484375
 20
-608.9296875
 30
0.0
 10
341.1923828125
 20
-607.4453124999999
 30
0.0
 10
337.9326171875
 20
-605.9599609374999
 30
0.0
 10
335.09765625
 20
-603.75
 30
0.0
 10
332.689453125
 20
-600.81640625
 30
0.0
 10
330.2802734375
 20
-597.8828124999999
 30
0.0
 10
328.4052734375
 20
-594.2333984374999
 30
0.0
 10
327.0654296875
 20
-589.8681640625
 30
0.0
 10
325.7255859375
 20
-585.50390625
 30
0.0
 10
325.0556640625
 20
-580.4238281249999
 30
0.0
 10
325.0556640625
 20
-574.6279296875
 30
0.0
  0
HATCH
  5
A5
330
7D
100
AcDbEntity
  8
Layer 1
 62
    18
420
    65793
440
 33554687
100
AcDbHatch
 10
0.0
 20
0.0
 30
0.0
210
0.0
220
0.0
230
1.0
  2
SOLID
 70
     1
 71
     1
 91
        2
 92
        1
 93
        1
 72
     4
 94
        3
 73
     0
 74
     0
 95
       38
 96
       34
 40
0.0
 40
0.0
 40
0.0
 40
0.0
 40
1.0
 40
1.0
 40
1.0
 40
2.0
 40
2.0
 40
2.0
 40
3.0
 40
3.0
 40
3.0
 40
4.0
 40
4.0
 40
4.0
 40
5.0
 40
5.0
 40
5.0
 40
6.0
 40
6.0
 40
6.0
 40
7.0
 40
7.0
 40
7.0
 40
8.0
 40
8.0
 40
8.0
 40
9.0
 40
9.0
 40
9.0
 40
10.0
 40
10.0
 40
10.0
 40
11.0
 40
11.0
 40
11.0
 40
11.0
 10
351.787109375
 20
-602.0664062499999
 10
356.712890625
 20
-602.0664062499999
 10
360.6611328125
 20
-600.490234375
 10
363.6318359375
 20
-597.3388671875
 10
366.6015625
 20
-594.1875
 10
368.0869140625
 20
-589.4248046875
 10
368.0869140625
 20
-583.0498046875
 10
368.0869140625
 20
-577.833984375
 10
366.7646484375
 20
-573.7041015625
 10
364.1201171875
 20
-570.6621093749999
 10
361.4765625
 20
-567.619140625
 10
357.4921875
 20
-566.09765625
 10
352.1669921875
 20
-566.09765625
 10
348.544921875
 20
-566.09765625
 10
345.3935546875
 20
-566.8505859375
 10
342.7138671875
 20
-568.3525390625
 10
340.0322265625
 20
-569.8564453124999
 10
337.9501953125
 20
-571.7480468749999
 10
336.46484375
 20
-574.0302734374999
 10
334.9794921875
 20
-576.3125
 10
334.2373046875
 20
-578.630859375
 10
334.2373046875
 20
-580.9853515624999
 10
334.2373046875
 20
-583.3759765625
 10
334.5908203125
 20
-585.8027343749999
 10
335.296875
 20
-588.265625
 10
336.00390625
 20
-590.7294921874999
 10
337.0810546875
 20
-593.0107421875
 10
338.5302734375
 20
-595.111328125
 10
339.978515625
 20
-597.212890625
 10
341.8076171875
 20
-598.8964843749999
 10
344.017578125
 20
-600.1640625
 10
346.2265625
 20
-601.4326171875
 10
348.81640625
 20
-602.0664062499999
 10
351.787109375
 20
-602.0664062499999
 97
        0
 97
        1
330
A3
 92
        1
 93
        1
 72
     4
 94
        3
 73
     0
 74
     0
 95
       86
 96
       82
 40
0.0
 40
0.0
 40
0.0
 40
0.0
 40
1.0
 40
1.0
 40
1.0
 40
2.0
 40
2.0
 40
2.0
 40
3.0
 40
3.0
 40
3.0
 40
4.0
 40
4.0
 40
4.0
 40
5.0
 40
5.0
 40
5.0
 40
6.0
 40
6.0
 40
6.0
 40
7.0
 40
7.0
 40
7.0
 40
8.0
 40
8.0
 40
8.0
 40
9.0
 40
9.0
 40
9.0
 40
10.0
 40
10.0
 40
10.0
 40
11.0
 40
11.0
 40
11.0
 40
12.0
 40
12.0
 40
12.0
 40
13.0
 40
13.0
 40
13.0
 40
14.0
 40
14.0
 40
14.0
 40
15.0
 40
15.0
 40
15.0
 40
16.0
 40
16.0
 40
16.0
 40
17.0
 40
17.0
 40
17.0
 40
18.0
 40
18.0
 40
18.0
 40
19.0
 40
19.0
 40
19.0
 40
20.0
 40
20.0
 40
20.0
 40
21.0
 40
21.0
 40
21.0
 40
22.0
 40
22.0
 40
22.0
 40
23.0
 40
23.0
 40
23.0
 40
24.0
 40
24.0
 40
24.0
 40
25.0
 40
25.0
 40
25.0
 40
26.0
 40
26.0
 40
26.0
 40
27.0
 40
27.0
 40
27.0
 40
27.0
 10
325.0556640625
 20
-574.6279296875
 10
325.0556640625
 20
-569.8466796875
 10
325.3896484375
 20
-565.173828125
 10
326.060546875
 20
-560.6103515625
 10
326.73046875
 20
-556.046875
 10
327.8623046875
 20
-551.7998046875
 10
329.4560546875
 20
-547.869140625
 10
331.0498046875
 20
-543.939453125
 10
333.2236328125
 20
-540.4892578124999
 10
335.9765625
 20
-537.5185546875
 10
338.728515625
 20
-534.5488281249999
 10
342.1611328125
 20
-532.2216796874999
 10
346.2724609375
 20
-530.5371093749999
 10
350.3828125
 20
-528.8525390624999
 10
355.318359375
 20
-528.0107421874999
 10
361.078125
 20
-528.0107421874999
 10
362.7080078125
 20
-528.0107421874999
 10
364.46484375
 20
-528.0917968749999
 10
366.3486328125
 20
-528.2548828124999
 10
368.2314453125
 20
-528.41796875
 10
369.7890625
 20
-528.6816406249999
 10
371.0205078125
 20
-529.04296875
 10
371.0205078125
 20
-529.04296875
 10
371.0205078125
 20
-536.8125
 10
371.0205078125
 20
-536.8125
 10
369.6806640625
 20
-536.341796875
 10
368.1494140625
 20
-535.9970703124999
 10
366.4296875
 20
-535.7802734375
 10
364.708984375
 20
-535.5624999999999
 10
362.9794921875
 20
-535.4541015625
 10
361.2412109375
 20
-535.4541015625
 10
354.50390625
 20
-535.4541015625
 10
349.2060546875
 20
-536.9208984374999
 10
345.3486328125
 20
-539.8554687499999
 10
341.4912109375
 20
-542.7890624999999
 10
338.7109375
 20
-546.7646484374999
 10
337.0087890625
 20
-551.7812499999999
 10
335.3056640625
 20
-556.7988281249999
 10
334.328125
 20
-562.439453125
 10
334.07421875
 20
-568.7060546875
 10
334.07421875
 20
-568.7060546875
 10
334.671875
 20
-568.7060546875
 10
334.671875
 20
-568.7060546875
 10
335.794921875
 20
-566.8955078125
 10
337.2255859375
 20
-565.255859375
 10
338.96484375
 20
-563.7890624999999
 10
340.703125
 20
-562.322265625
 10
342.8125
 20
-561.1533203125
 10
345.2939453125
 20
-560.2841796875
 10
347.775390625
 20
-559.4150390624999
 10
350.6640625
 20
-558.98046875
 10
353.9599609375
 20
-558.98046875
 10
358.5966796875
 20
-558.98046875
 10
362.64453125
 20
-559.9228515624999
 10
366.103515625
 20
-561.8056640625
 10
369.5625
 20
-563.689453125
 10
372.2431640625
 20
-566.423828125
 10
374.14453125
 20
-570.009765625
 10
376.046875
 20
-573.5957031249999
 10
376.9970703125
 20
-577.9423828125
 10
376.9970703125
 20
-583.0498046875
 10
376.9970703125
 20
-588.51953125
 10
375.982421875
 20
-593.24609375
 10
373.955078125
 20
-597.23046875
 10
371.92578125
 20
-601.2158203124999
 10
369.0380859375
 20
-604.28515625
 10
365.2890625
 20
-606.439453125
 10
361.5400390625
 20
-608.5947265625
 10
357.0751953125
 20
-609.6728515625
 10
351.8955078125
 20
-609.6728515625
 10
348.01953125
 20
-609.6728515625
 10
344.4521484375
 20
-608.9296875
 10
341.1923828125
 20
-607.4453124999999
 10
337.9326171875
 20
-605.9599609374999
 10
335.09765625
 20
-603.75
 10
332.689453125
 20
-600.81640625
 10
330.2802734375
 20
-597.8828124999999
 10
328.4052734375
 20
-594.2333984374999
 10
327.0654296875
 20
-589.8681640625
 10
325.7255859375
 20
-585.50390625
 10
325.0556640625
 20
-580.4238281249999
 10
325.0556640625
 20
-574.6279296875
 97
        0
 97
        1
330
A4
 75
     2
 76
     1
 98
        1
 10
0.0
 20
0.0
450
        0
451
        0
460
0.0
461
0.0
452
        0
462
0.0
453
        0
470

  0
ENDBLK
  5
80
330
7D
100
AcDbEntity
  8
0
100
AcDbBlockEnd
  0
ENDSEC
  0
SECTION
  2
ENTITIES
  0
INSERT
  5
7A
330
70
100
AcDbEntity
  8
Layer 1
100
AcDbBlockReference
  2
Block_0
 10
0.0
 20
0.0
 30
0.0
  0
ENDSEC
  0
SECTION
  2
OBJECTS
  0
DICTIONARY
  5
C
330
0
100
AcDbDictionary
281
     1
  3
ACAD_COLOR
350
63
  3
ACAD_DETAILVIEWSTYLE
350
6A
  3
ACAD_GROUP
350
D
  3
ACAD_LAYOUT
350
62
  3
ACAD_MATERIAL
350
10
  3
ACAD_MLEADERSTYLE
350
66
  3
ACAD_MLINESTYLE
350
5F
  3
ACAD_PLOTSETTINGS
350
61
  3
ACAD_PLOTSTYLENAME
350
E
  3
ACAD_SCALELIST
350
42
  3
ACAD_SECTIONVIEWSTYLE
350
68
  3
ACAD_TABLESTYLE
350
64
  3
ACAD_VISUALSTYLE
350
29
  3
ACDB_RECOMPOSE_DATA
350
AE
  3
AcDbVariableDictionary
350
A6
  0
DICTIONARY
  5
63
102
{ACAD_REACTORS
330
C
102
}
330
C
100
AcDbDictionary
281
     1
  0
DICTIONARY
  5
6A
102
{ACAD_REACTORS
330
C
102
}
330
C
100
AcDbDictionary
281
     1
  3
Imperial24
350
6B
  0
DICTIONARY
  5
D
102
{ACAD_REACTORS
330
C
102
}
330
C
100
AcDbDictionary
281
     1
  0
DICTIONARY
  5
62
102
{ACAD_REACTORS
330
C
102
}
330
C
100
AcDbDictionary
281
     1
  3
Layout1
350
6F
  3
Layout2
350
77
  3
Model
350
73
  0
DICTIONARY
  5
10
102
{ACAD_REACTORS
330
C
102
}
330
C
100
AcDbDictionary
281
     1
  3
ByBlock
350
19
  3
ByLayer
350
11
  3
Global
350
21
  0
DICTIONARY
  5
66
102
{ACAD_REACTORS
330
C
102
}
330
C
100
AcDbDictionary
281
     1
  3
Standard
350
67
  0
DICTIONARY
  5
5F
102
{ACAD_REACTORS
330
C
102
}
330
C
100
AcDbDictionary
281
     1
  3
Standard
350
60
  0
DICTIONARY
  5
61
102
{ACAD_REACTORS
330
C
102
}
330
C
100
AcDbDictionary
281
     1
  0
ACDBDICTIONARYWDFLT
  5
E
102
{ACAD_REACTORS
330
C
102
}
330
C
100
AcDbDictionary
281
     1
  3
Normal
350
F
100
AcDbDictionaryWithDefault
340
F
  0
DICTIONARY
  5
42
102
{ACAD_REACTORS
330
C
102
}
330
C
100
AcDbDictionary
281
     1
  3
A0
350
43
  3
A1
350
44
  3
A2
350
45
  3
A3
350
46
  3
A4
350
47
  3
A5
350
48
  3
A6
350
49
  3
A7
350
4A
  3
A8
350
4B
  3
A9
350
4C
  3
B0
350
4D
  3
B1
350
4E
  3
B2
350
4F
  3
B3
350
50
  3
B4
350
51
  3
B5
350
52
  3
B6
350
53
  0
DICTIONARY
  5
68
102
{ACAD_REACTORS
330
C
102
}
330
C
100
AcDbDictionary
281
     1
  3
Imperial24
350
69
  0
DICTIONARY
  5
64
102
{ACAD_REACTORS
330
C
102
}
330
C
100
AcDbDictionary
281
     1
  3
Standard
350
65
  0
DICTIONARY
  5
29
102
{ACAD_REACTORS
330
C
102
}
330
C
100
AcDbDictionary
281
     1
  3
2dWireframe
350
2F
  3
Basic
350
2E
  3
Brighten
350
35
  3
ColorChange
350
39
  3
Conceptual
350
32
  3
Dim
350
34
  3
EdgeColorOff
350
41
  3
Facepattern
350
38
  3
Flat
350
2A
  3
FlatWithEdges
350
2B
  3
Gouraud
350
2C
  3
GouraudWithEdges
350
2D
  3
Hidden
350
31
  3
JitterOff
350
3F
  3
Linepattern
350
37
  3
OverhangOff
350
40
  3
Realistic
350
33
  3
Shaded
350
3E
  3
Shaded with edges
350
3D
  3
Shades of Gray
350
3A
  3
Sketchy
350
3B
  3
Thicken
350
36
  3
Wireframe
350
30
  3
X-Ray
350
3C
  0
XRECORD
  5
AE
102
{ACAD_REACTORS
330
C
102
}
330
C
100
AcDbXrecord
280
     1
 90
        1
330
65
  0
DICTIONARY
  5
A6
102
{ACAD_REACTORS
330
C
102
}
330
C
100
AcDbDictionary
281
     1
  3
CANNOSCALE
350
AB
  3
CMLEADERSTYLE
350
A8
  3
CTABLESTYLE
350
A7
  3
CVIEWDETAILSTYLE
350
A9
  3
CVIEWSECTIONSTYLE
350
AA
  0
ACDBDETAILVIEWSTYLE
  5
6B
102
{ACAD_REACTORS
330
6A
102
}
330
6A
100
AcDbModelDocViewStyle
 70
     0
  3
Imperial24
290
     1
300
Imperial24
 90
        0
100
AcDbDetailViewStyle
 70
     0
 71
     0
 90
        3
 71
     1
340
55
 62
   256
 40
0.24
340
0
 62
   256
 40
0.24
300

 40
0.36
280
     3
 71
     2
340
5D
 90
       25
 62
   256
 71
     3
340
55
 62
   256
 40
0.24
 90
        1
 40
0.75
 90
        1
300
%<\AcVar ViewType \f "%tc1">% %<\AcVar ViewDetailId>%\PSCALE %<\AcVar ViewScale \f "%sn">%
 71
     4
340
5D
 90
       25
 62
   256
340
5D
 90
       25
 62
   256
280
     0
  0
LAYOUT
  5
6F
102
{ACAD_REACTORS
330
62
102
}
330
62
100
AcDbPlotSettings
  1

  2

  4

  6

 40
0.0
 41
0.0
 42
0.0
 43
0.0
 44
0.0
 45
0.0
 46
0.0
 47
0.0
 48
0.0
 49
0.0
140
0.0
141
0.0
142
1.0
143
1.0
 70
   688
 72
     0
 73
     0
 74
     5
  7

 75
    16
147
1.0
 76
     0
 77
     2
 78
   300
148
0.0
149
0.0
100
AcDbLayout
  1
Layout1
 70
     1
 71
     1
 10
0.0
 20
0.0
 11
12.0
 21
9.0
 12
0.0
 22
0.0
 32
0.0
 14
0.0
 24
0.0
 34
0.0
 15
0.0
 25
0.0
 35
0.0
146
0.0
 13
0.0
 23
0.0
 33
0.0
 16
1.0
 26
0.0
 36
0.0
 17
0.0
 27
1.0
 37
0.0
 76
     0
330
6C
  0
LAYOUT
  5
77
102
{ACAD_REACTORS
330
62
102
}
330
62
100
AcDbPlotSettings
  1

  2

  4

  6

 40
0.0
 41
0.0
 42
0.0
 43
0.0
 44
0.0
 45
0.0
 46
0.0
 47
0.0
 48
0.0
 49
0.0
140
0.0
141
0.0
142
1.0
143
1.0
 70
   688
 72
     0
 73
     0
 74
     5
  7

 75
    16
147
1.0
 76
     0
 77
     2
 78
   300
148
0.0
149
0.0
100
AcDbLayout
  1
Layout2
 70
     1
 71
     2
 10
0.0
 20
0.0
 11
12.0
 21
9.0
 12
0.0
 22
0.0
 32
0.0
 14
0.0
 24
0.0
 34
0.0
 15
0.0
 25
0.0
 35
0.0
146
0.0
 13
0.0
 23
0.0
 33
0.0
 16
1.0
 26
0.0
 36
0.0
 17
0.0
 27
1.0
 37
0.0
 76
     0
330
74
  0
LAYOUT
  5
73
102
{ACAD_REACTORS
330
62
102
}
330
62
100
AcDbPlotSettings
  1

  2

  4

  6

 40
0.0
 41
0.0
 42
0.0
 43
0.0
 44
0.0
 45
0.0
 46
0.0
 47
0.0
 48
0.0
 49
0.0
140
0.0
141
0.0
142
1.0
143
1.0
 70
  1712
 72
     0
 73
     0
 74
     0
  7

 75
     0
147
1.0
 76
     0
 77
     2
 78
   300
148
0.0
149
0.0
100
AcDbLayout
  1
Model
 70
     1
 71
     0
 10
0.0
 20
0.0
 11
12.0
 21
9.0
 12
0.0
 22
0.0
 32
0.0
 14
0.0
 24
0.0
 34
0.0
 15
0.0
 25
0.0
 35
0.0
146
0.0
 13
0.0
 23
0.0
 33
0.0
 16
1.0
 26
0.0
 36
0.0
 17
0.0
 27
1.0
 37
0.0
 76
     0
330
70
  0
MATERIAL
  5
19
102
{ACAD_XDICTIONARY
360
1A
102
}
102
{ACAD_REACTORS
330
10
102
}
330
10
100
AcDbMaterial
  1
ByBlock
 72
     0
 43
0.0208333333333333
 43
0.0
 43
0.0
 43
0.0
 43
0.0
 43
0.0208333333333333
 43
0.0
 43
0.0
 43
0.0
 43
0.0
 43
1.0
 43
0.0
 43
0.0
 43
0.0
 43
0.0
 43
1.0
 77
     0
 47
0.0208333333333333
 47
0.0
 47
0.0
 47
0.0
 47
0.0
 47
0.0208333333333333
 47
0.0
 47
0.0
 47
0.0
 47
0.0
 47
1.0
 47
0.0
 47
0.0
 47
0.0
 47
0.0
 47
1.0
171
     0
 49
0.0208333333333333
 49
0.0
 49
0.0
 49
0.0
 49
0.0
 49
0.0208333333333333
 49
0.0
 49
0.0
 49
0.0
 49
0.0
 49
1.0
 49
0.0
 49
0.0
 49
0.0
 49
0.0
 49
1.0
175
     0
142
0.0208333333333333
142
0.0
142
0.0
142
0.0
142
0.0
142
0.0208333333333333
142
0.0
142
0.0
142
0.0
142
0.0
142
1.0
142
0.0
142
0.0
142
0.0
142
0.0
142
1.0
179
     0
144
0.0208333333333333
144
0.0
144
0.0
144
0.0
144
0.0
144
0.0208333333333333
144
0.0
144
0.0
144
0.0
144
0.0
144
1.0
144
0.0
144
0.0
144
0.0
144
0.0
144
1.0
147
0.0208333333333333
147
0.0
147
0.0
147
0.0
147
0.0
147
0.0208333333333333
147
0.0
147
0.0
147
0.0
147
0.0
147
1.0
147
0.0
147
0.0
147
0.0
147
0.0
147
1.0
  0
MATERIAL
  5
11
102
{ACAD_XDICTIONARY
360
12
102
}
102
{ACAD_REACTORS
330
10
102
}
330
10
100
AcDbMaterial
  1
ByLayer
 72
     0
 43
0.0208333333333333
 43
0.0
 43
0.0
 43
0.0
 43
0.0
 43
0.0208333333333333
 43
0.0
 43
0.0
 43
0.0
 43
0.0
 43
1.0
 43
0.0
 43
0.0
 43
0.0
 43
0.0
 43
1.0
 77
     0
 47
0.0208333333333333
 47
0.0
 47
0.0
 47
0.0
 47
0.0
 47
0.0208333333333333
 47
0.0
 47
0.0
 47
0.0
 47
0.0
 47
1.0
 47
0.0
 47
0.0
 47
0.0
 47
0.0
 47
1.0
171
     0
 49
0.0208333333333333
 49
0.0
 49
0.0
 49
0.0
 49
0.0
 49
0.0208333333333333
 49
0.0
 49
0.0
 49
0.0
 49
0.0
 49
1.0
 49
0.0
 49
0.0
 49
0.0
 49
0.0
 49
1.0
175
     0
142
0.0208333333333333
142
0.0
142
0.0
142
0.0
142
0.0
142
0.0208333333333333
142
0.0
142
0.0
142
0.0
142
0.0
142
1.0
142
0.0
142
0.0
142
0.0
142
0.0
142
1.0
179
     0
144
0.0208333333333333
144
0.0
144
0.0
144
0.0
144
0.0
144
0.0208333333333333
144
0.0
144
0.0
144
0.0
144
0.0
144
1.0
144
0.0
144
0.0
144
0.0
144
0.0
144
1.0
147
0.0208333333333333
147
0.0
147
0.0
147
0.0
147
0.0
147
0.0208333333333333
147
0.0
147
0.0
147
0.0
147
0.0
147
1.0
147
0.0
147
0.0
147
0.0
147
0.0
147
1.0
  0
MATERIAL
  5
21
102
{ACAD_XDICTIONARY
360
22
102
}
102
{ACAD_REACTORS
330
10
102
}
330
10
100
AcDbMaterial
  1
Global
 72
     0
 43
0.0208333333333333
 43
0.0
 43
0.0
 43
0.0
 43
0.0
 43
0.0208333333333333
 43
0.0
 43
0.0
 43
0.0
 43
0.0
 43
1.0
 43
0.0
 43
0.0
 43
0.0
 43
0.0
 43
1.0
 77
     0
 47
0.0208333333333333
 47
0.0
 47
0.0
 47
0.0
 47
0.0
 47
0.0208333333333333
 47
0.0
 47
0.0
 47
0.0
 47
0.0
 47
1.0
 47
0.0
 47
0.0
 47
0.0
 47
0.0
 47
1.0
171
     0
 49
0.0208333333333333
 49
0.0
 49
0.0
 49
0.0
 49
0.0
 49
0.0208333333333333
 49
0.0
 49
0.0
 49
0.0
 49
0.0
 49
1.0
 49
0.0
 49
0.0
 49
0.0
 49
0.0
 49
1.0
175
     0
142
0.0208333333333333
142
0.0
142
0.0
142
0.0
142
0.0
142
0.0208333333333333
142
0.0
142
0.0
142
0.0
142
0.0
142
1.0
142
0.0
142
0.0
142
0.0
142
0.0
142
1.0
179
     0
144
0.0208333333333333
144
0.0
144
0.0
144
0.0
144
0.0
144
0.0208333333333333
144
0.0
144
0.0
144
0.0
144
0.0
144
1.0
144
0.0
144
0.0
144
0.0
144
0.0
144
1.0
147
0.0208333333333333
147
0.0
147
0.0
147
0.0
147
0.0
147
0.0208333333333333
147
0.0
147
0.0
147
0.0
147
0.0
147
1.0
147
0.0
147
0.0
147
0.0
147
0.0
147
1.0
  0
MLEADERSTYLE
  5
67
102
{ACAD_REACTORS
330
66
102
}
330
66
100
AcDbMLeaderStyle
179
     2
170
     2
171
     1
172
     0
 90
        2
 40
0.0
 41
0.0
173
     1
 91
-1056964608
340
5B
 92
       -2
290
     1
 42
0.09
291
     1
 43
0.36
  3
Standard
 44
0.18
300

342
55
174
     1
178
     6
175
     1
176
     0
 93
-1056964608
 45
0.18
292
     0
297
     0
 46
0.18
 94
-1056964608
 47
1.0
 49
1.0
140
1.0
293
     1
141
0.0
294
     1
177
     0
142
1.0
295
     1
296
     0
143
0.125
271
     0
272
     9
273
     9
298
     1
  0
MLINESTYLE
  5
60
102
{ACAD_REACTORS
330
5F
102
}
330
5F
100
AcDbMlineStyle
  2
STANDARD
 70
     0
  3

 62
   256
 51
90.0
 52
90.0
 71
     2
 49
0.5
 62
   256
  6
BYLAYER
 49
-0.5
 62
   256
  6
BYLAYER
  0
ACDBPLACEHOLDER
  5
F
102
{ACAD_REACTORS
330
E
102
}
330
E
  0
SCALE
  5
43
102
{ACAD_REACTORS
330
42
102
}
330
42
100
AcDbScale
 70
     0
300
1:1
140
1.0
141
1.0
290
     1
  0
SCALE
  5
44
102
{ACAD_REACTORS
330
42
102
}
330
42
100
AcDbScale
 70
     0
300
1/128" = 1'-0"
140
0.0078125
141
12.0
290
     0
  0
SCALE
  5
45
102
{ACAD_REACTORS
330
42
102
}
330
42
100
AcDbScale
 70
     0
300
1/64" = 1'-0"
140
0.015625
141
12.0
290
     0
  0
SCALE
  5
46
102
{ACAD_REACTORS
330
42
102
}
330
42
100
AcDbScale
 70
     0
300
1/32" = 1'-0"
140
0.03125
141
12.0
290
     0
  0
SCALE
  5
47
102
{ACAD_REACTORS
330
42
102
}
330
42
100
AcDbScale
 70
     0
300
1/16" = 1'-0"
140
0.0625
141
12.0
290
     0
  0
SCALE
  5
48
102
{ACAD_REACTORS
330
42
102
}
330
42
100
AcDbScale
 70
     0
300
3/32" = 1'-0"
140
0.09375
141
12.0
290
     0
  0
SCALE
  5
49
102
{ACAD_REACTORS
330
42
102
}
330
42
100
AcDbScale
 70
     0
300
1/8" = 1'-0"
140
0.125
141
12.0
290
     0
  0
SCALE
  5
4A
102
{ACAD_REACTORS
330
42
102
}
330
42
100
AcDbScale
 70
     0
300
3/16" = 1'-0"
140
0.1875
141
12.0
290
     0
  0
SCALE
  5
4B
102
{ACAD_REACTORS
330
42
102
}
330
42
100
AcDbScale
 70
     0
300
1/4" = 1'-0"
140
0.25
141
12.0
290
     0
  0
SCALE
  5
4C
102
{ACAD_REACTORS
330
42
102
}
330
42
100
AcDbScale
 70
     0
300
3/8" = 1'-0"
140
0.375
141
12.0
290
     0
  0
SCALE
  5
4D
102
{ACAD_REACTORS
330
42
102
}
330
42
100
AcDbScale
 70
     0
300
1/2" = 1'-0"
140
0.5
141
12.0
290
     0
  0
SCALE
  5
4E
102
{ACAD_REACTORS
330
42
102
}
330
42
100
AcDbScale
 70
     0
300
3/4" = 1'-0"
140
0.75
141
12.0
290
     0
  0
SCALE
  5
4F
102
{ACAD_REACTORS
330
42
102
}
330
42
100
AcDbScale
 70
     0
300
1" = 1'-0"
140
1.0
141
12.0
290
     0
  0
SCALE
  5
50
102
{ACAD_REACTORS
330
42
102
}
330
42
100
AcDbScale
 70
     0
300
1-1/2" = 1'-0"
140
1.5
141
12.0
290
     0
  0
SCALE
  5
51
102
{ACAD_REACTORS
330
42
102
}
330
42
100
AcDbScale
 70
     0
300
3" = 1'-0"
140
3.0
141
12.0
290
     0
  0
SCALE
  5
52
102
{ACAD_REACTORS
330
42
102
}
330
42
100
AcDbScale
 70
     0
300
6" = 1'-0"
140
6.0
141
12.0
290
     0
  0
SCALE
  5
53
102
{ACAD_REACTORS
330
42
102
}
330
42
100
AcDbScale
 70
     0
300
1'-0" = 1'-0"
140
12.0
141
12.0
290
     0
  0
ACDBSECTIONVIEWSTYLE
  5
69
102
{ACAD_REACTORS
330
68
102
}
330
68
100
AcDbModelDocViewStyle
 70
     0
  3
Imperial24
290
     1
300
Imperial24
 90
        0
100
AcDbSectionViewStyle
 70
     0
 71
     0
 90
       78
 71
     1
340
55
 62
   256
 40
0.24
340
0
340
0
 62
   256
 40
0.24
300
I, O, Q, S, X, Z
 40
0.48
 90
        3
 40
0.18
 90
        1
 71
     2
340
5D
 90
       25
 62
   256
340
5D
 90
       50
 62
   256
 40
0.24
 40
0.0
 40
0.24
 71
     3
340
55
 62
   256
 40
0.24
 90
        1
 40
0.75
 90
        1
300
%<\AcVar ViewType \f "%tc1">% %<\AcVar ViewSectionStartId>%-%<\AcVar ViewSectionEndId>%\PSCALE %<\AcVar ViewScale \f "%sn">%
 71
     4
 62
   256
 62
   257
300
ANSI31
 40
1.0
 90
        0
290
     0
290
     0
 90
        6
 40
0.0
 40
1.570796326794896
 40
0.2617993877991494
 40
1.308996938995747
 40
-0.2617993877991494
 40
1.832595714594046
  0
TABLESTYLE
  5
65
102
{ACAD_XDICTIONARY
360
AC
102
}
102
{ACAD_REACTORS
330
64
102
}
330
64
100
AcDbTableStyle
280
     0
  3
Standard
 70
     0
 71
     0
 40
0.06
 41
0.06
280
     0
281
     0
  7
Standard
140
0.18
170
     2
 62
     0
 63
     7
283
     0
 90
      512
 91
        0
  1

274
    -2
284
     1
 64
     0
275
    -2
285
     1
 65
     0
276
    -2
286
     1
 66
     0
277
    -2
287
     1
 67
     0
278
    -2
288
     1
 68
     0
279
    -2
289
     1
 69
     0
  7
Standard
140
0.25
170
     5
 62
     0
 63
     7
283
     0
 90
      512
 91
        0
  1

274
    -2
284
     1
 64
     0
275
    -2
285
     1
 65
     0
276
    -2
286
     1
 66
     0
277
    -2
287
     1
 67
     0
278
    -2
288
     1
 68
     0
279
    -2
289
     1
 69
     0
  7
Standard
140
0.18
170
     5
 62
     0
 63
     7
283
     0
 90
      512
 91
        0
  1

274
    -2
284
     1
 64
     0
275
    -2
285
     1
 65
     0
276
    -2
286
     1
 66
     0
277
    -2
287
     1
 67
     0
278
    -2
288
     1
 68
     0
279
    -2
289
     1
 69
     0
  0
VISUALSTYLE
  5
2F
102
{ACAD_REACTORS
330
29
102
}
330
29
100
AcDbVisualStyle
  2
2dWireframe
 70
     4
177
     3
291
     0
 70
    58
 90
        0
176
     1
 90
        2
176
     1
 90
        0
176
     1
 90
        0
176
     1
 40
0.6
176
     1
 40
30.0
176
     1
 62
     7
420
 16777215
176
     1
 90
        1
176
     1
 90
        4
176
     1
 62
     7
176
     1
 62
   257
176
     1
 90
        1
176
     1
 90
        1
176
     1
 40
1.0
176
     1
 90
        0
176
     1
 62
   257
176
     1
 40
1.0
176
     1
 90
        1
176
     1
 90
        6
176
     1
 90
        2
176
     1
 62
     7
176
     1
 90
        5
176
     1
 90
        0
176
     1
 90
        0
176
     1
290
     0
176
     1
 90
        1
176
     1
 40
0.0
176
     1
 90
        0
176
     1
290
     1
176
     1
290
     1
176
     1
290
     0
176
     1
290
     0
176
     1
290
     0
176
     1
290
     0
176
     1
290
     0
176
     1
290
     0
176
     1
290
     0
176
     1
 90
       50
176
     1
 40
0.0
176
     1
 40
1.0
176
     1
 90
        0
176
     1
 62
    18
420
        0
176
     1
 90
       50
176
     1
 90
        3
176
     1
 62
     5
420
      255
176
     1
290
     0
176
     1
 90
       50
176
     1
 90
       50
176
     1
 90
       50
176
     1
290
     0
176
     1
 90
       50
176
     1
 62
   256
176
     0
 40
1.0
176
     0
 90
        2
176
     1
  1
strokes_ogs.tif
176
     1
290
     0
176
     1
 40
1.0
176
     1
 40
1.0
176
     1
  0
VISUALSTYLE
  5
2E
102
{ACAD_REACTORS
330
29
102
}
330
29
100
AcDbVisualStyle
  2
Basic
 70
     7
177
     3
291
     1
 70
    58
 90
        1
176
     1
 90
        0
176
     1
 90
        1
176
     1
 90
        0
176
     1
 40
0.6
176
     1
 40
30.0
176
     1
 62
     7
420
 16777215
176
     1
 90
        0
176
     1
 90
        4
176
     1
 62
     7
176
     1
 62
   257
176
     1
 90
        1
176
     1
 90
        1
176
     1
 40
1.0
176
     1
 90
        8
176
     1
 62
     7
176
     1
 40
1.0
176
     1
 90
        1
176
     1
 90
        6
176
     1
 90
        2
176
     1
 62
     7
176
     1
 90
        5
176
     1
 90
        0
176
     1
 90
        0
176
     1
290
     0
176
     1
 90
        1
176
     1
 40
0.0
176
     1
 90
        0
176
     1
290
     0
176
     1
290
     1
176
     1
290
     1
176
     1
290
     0
176
     1
290
     0
176
     1
290
     0
176
     1
290
     0
176
     1
290
     0
176
     1
290
     0
176
     1
 90
       50
176
     1
 40
0.0
176
     1
 40
1.0
176
     1
 90
        0
176
     1
 62
    18
420
        0
176
     1
 90
       50
176
     1
 90
        3
176
     1
 62
     5
420
      255
176
     1
290
     0
176
     1
 90
       50
176
     1
 90
       50
176
     1
 90
       50
176
     1
290
     0
176
     1
 90
       50
176
     1
 62
   256
176
     0
 40
1.0
176
     0
 90
        2
176
     1
  1
strokes_ogs.tif
176
     1
290
     0
176
     1
 40
1.0
176
     1
 40
1.0
176
     1
  0
VISUALSTYLE
  5
35
102
{ACAD_REACTORS
330
29
102
}
330
29
100
AcDbVisualStyle
  2
Brighten
 70
    12
177
     3
291
     1
 70
    58
 90
        2
176
     1
 90
        2
176
     1
 90
        0
176
     1
 90
        0
176
     1
 40
0.6
176
     1
 40
30.0
176
     1
 62
     7
420
 16777215
176
     1
 90
        1
176
     1
 90
        4
176
     1
 62
     7
176
     1
 62
   257
176
     1
 90
        1
176
     1
 90
        1
176
     1
 40
1.0
176
     1
 90
        8
176
     1
 62
     7
176
     1
 40
1.0
176
     1
 90
        1
176
     1
 90
        6
176
     1
 90
        2
176
     1
 62
     7
176
     1
 90
        5
176
     1
 90
        0
176
     1
 90
        0
176
     1
290
     0
176
     1
 90
        1
176
     1
 40
50.0
176
     1
 90
        0
176
     1
290
     0
176
     1
290
     1
176
     1
290
     1
176
     1
290
     0
176
     1
290
     0
176
     1
290
     0
176
     1
290
     0
176
     1
290
     0
176
     1
290
     0
176
     1
 90
       50
176
     1
 40
0.0
176
     1
 40
1.0
176
     1
 90
        0
176
     1
 62
    18
420
        0
176
     1
 90
       50
176
     1
 90
        3
176
     1
 62
     5
420
      255
176
     1
290
     0
176
     1
 90
       50
176
     1
 90
       50
176
     1
 90
       50
176
     1
290
     0
176
     1
 90
       50
176
     1
 62
   256
176
     0
 40
1.0
176
     0
 90
        2
176
     1
  1
strokes_ogs.tif
176
     1
290
     0
176
     1
 40
1.0
176
     1
 40
1.0
176
     1
  0
VISUALSTYLE
  5
39
102
{ACAD_REACTORS
330
29
102
}
330
29
100
AcDbVisualStyle
  2
ColorChange
 70
    16
177
     3
291
     1
 70
    58
 90
        2
176
     1
 90
        2
176
     1
 90
        3
176
     1
 90
        0
176
     1
 40
0.6
176
     1
 40
30.0
176
     1
 62
     8
420
  8421504
176
     1
 90
        1
176
     1
 90
        4
176
     1
 62
     7
176
     1
 62
   257
176
     1
 90
        1
176
     1
 90
        1
176
     1
 40
1.0
176
     1
 90
        8
176
     1
 62
     8
420
  8421504
176
     1
 40
1.0
176
     1
 90
        1
176
     1
 90
        6
176
     1
 90
        2
176
     1
 62
     7
176
     1
 90
        5
176
     1
 90
        0
176
     1
 90
        0
176
     1
290
     0
176
     1
 90
        1
176
     1
 40
0.0
176
     1
 90
        0
176
     1
290
     0
176
     1
290
     1
176
     1
290
     1
176
     1
290
     0
176
     1
290
     0
176
     1
290
     0
176
     1
290
     0
176
     1
290
     0
176
     1
290
     0
176
     1
 90
       50
176
     1
 40
0.0
176
     1
 40
1.0
176
     1
 90
        0
176
     1
 62
    18
420
        0
176
     1
 90
       50
176
     1
 90
        3
176
     1
 62
     5
420
      255
176
     1
290
     0
176
     1
 90
       50
176
     1
 90
       50
176
     1
 90
       50
176
     1
290
     0
176
     1
 90
       50
176
     1
 62
   256
176
     0
 40
1.0
176
     0
 90
        2
176
     1
  1
strokes_ogs.tif
176
     1
290
     0
176
     1
 40
1.0
176
     1
 40
1.0
176
     1
  0
VISUALSTYLE
  5
32
102
{ACAD_REACTORS
330
29
102
}
330
29
100
AcDbVisualStyle
  2
Conceptual
 70
     9
177
     3
291
     0
 70
    58
 90
        3
176
     1
 90
        2
176
     1
 90
        0
176
     1
 90
        0
176
     1
 40
0.6
176
     1
 40
30.0
176
     1
 62
     7
420
 16777215
176
     1
 90
        2
176
     1
 90
        2
176
     1
 62
     7
176
     1
 62
   257
176
     1
 90
        1
176
     1
 90
        1
176
     1
 40
179.0
176
     1
 90
        8
176
     1
 62
     7
176
     1
 40
1.0
176
     1
 90
        1
176
     1
 90
        6
176
     1
 90
        2
176
     1
 62
     7
176
     1
 90
        3
176
     1
 90
        0
176
     1
 90
        0
176
     1
290
     0
176
     1
 90
        1
176
     1
 40
0.0
176
     1
 90
        0
176
     1
290
     0
176
     1
290
     1
176
     1
290
     1
176
     1
290
     0
176
     1
290
     0
176
     1
290
     0
176
     1
290
     0
176
     1
290
     0
176
     1
290
     0
176
     1
 90
       50
176
     1
 40
0.0
176
     1
 40
1.0
176
     1
 90
        0
176
     1
 62
    18
420
        0
176
     1
 90
       50
176
     1
 90
        3
176
     1
 62
     5
420
      255
176
     1
290
     0
176
     1
 90
       50
176
     1
 90
       50
176
     1
 90
       50
176
     1
290
     0
176
     1
 90
       50
176
     1
 62
   256
176
     0
 40
1.0
176
     0
 90
        2
176
     1
  1
strokes_ogs.tif
176
     1
290
     0
176
     1
 40
1.0
176
     1
 40
1.0
176
     1
  0
VISUALSTYLE
  5
34
102
{ACAD_REACTORS
330
29
102
}
330
29
100
AcDbVisualStyle
  2
Dim
 70
    11
177
     3
291
     1
 70
    58
 90
        2
176
     1
 90
        2
176
     1
 90
        0
176
     1
 90
        0
176
     1
 40
0.6
176
     1
 40
30.0
176
     1
 62
     7
420
 16777215
176
     1
 90
        1
176
     1
 90
        4
176
     1
 62
     7
176
     1
 62
   257
176
     1
 90
        1
176
     1
 90
        1
176
     1
 40
1.0
176
     1
 90
        8
176
     1
 62
     7
176
     1
 40
1.0
176
     1
 90
        1
176
     1
 90
        6
176
     1
 90
        2
176
     1
 62
     7
176
     1
 90
        5
176
     1
 90
        0
176
     1
 90
        0
176
     1
290
     0
176
     1
 90
        1
176
     1
 40
-50.0
176
     1
 90
        0
176
     1
290
     0
176
     1
290
     1
176
     1
290
     1
176
     1
290
     0
176
     1
290
     0
176
     1
290
     0
176
     1
290
     0
176
     1
290
     0
176
     1
290
     0
176
     1
 90
       50
176
     1
 40
0.0
176
     1
 40
1.0
176
     1
 90
        0
176
     1
 62
    18
420
        0
176
     1
 90
       50
176
     1
 90
        3
176
     1
 62
     5
420
      255
176
     1
290
     0
176
     1
 90
       50
176
     1
 90
       50
176
     1
 90
       50
176
     1
290
     0
176
     1
 90
       50
176
     1
 62
   256
176
     0
 40
1.0
176
     0
 90
        2
176
     1
  1
strokes_ogs.tif
176
     1
290
     0
176
     1
 40
1.0
176
     1
 40
1.0
176
     1
  0
VISUALSTYLE
  5
41
102
{ACAD_REACTORS
330
29
102
}
330
29
100
AcDbVisualStyle
  2
EdgeColorOff
 70
    22
177
     3
291
     1
 70
    58
 90
        2
176
     0
 90
        2
176
     0
 90
        0
176
     0
 90
        0
176
     0
 40
0.6
176
     0
 40
30.0
176
     0
 62
     7
420
 16777215
176
     0
 90
        1
176
     0
 90
        4
176
     0
 62
     7
176
     0
 62
   257
176
     0
 90
        1
176
     0
 90
        1
176
     0
 40
1.0
176
     0
 90
        8
176
     2
 62
     7
176
     0
 40
1.0
176
     0
 90
        1
176
     0
 90
        6
176
     0
 90
        2
176
     0
 62
     7
176
     0
 90
        5
176
     0
 90
        0
176
     0
 90
        0
176
     0
290
     0
176
     0
 90
        1
176
     0
 40
0.0
176
     0
 90
        0
176
     0
290
     0
176
     0
290
     1
176
     0
290
     1
176
     0
290
     0
176
     0
290
     0
176
     0
290
     0
176
     0
290
     0
176
     0
290
     0
176
     0
290
     0
176
     0
 90
       50
176
     0
 40
0.0
176
     0
 40
1.0
176
     0
 90
        0
176
     0
 62
    18
420
        0
176
     0
 90
       50
176
     0
 90
        3
176
     0
 62
     5
420
      255
176
     0
290
     0
176
     0
 90
       50
176
     0
 90
       50
176
     0
 90
       50
176
     0
290
     0
176
     0
 90
       50
176
     0
 62
   256
176
     0
 40
1.0
176
     0
 90
        2
176
     0
  1
strokes_ogs.tif
176
     0
290
     0
176
     0
 40
1.0
176
     0
 40
1.0
176
     0
  0
VISUALSTYLE
  5
38
102
{ACAD_REACTORS
330
29
102
}
330
29
100
AcDbVisualStyle
  2
Facepattern
 70
    15
177
     3
291
     1
 70
    58
 90
        2
176
     1
 90
        2
176
     1
 90
        0
176
     1
 90
        0
176
     1
 40
0.6
176
     1
 40
30.0
176
     1
 62
     7
420
 16777215
176
     1
 90
        1
176
     1
 90
        4
176
     1
 62
     7
176
     1
 62
   257
176
     1
 90
        1
176
     1
 90
        1
176
     1
 40
1.0
176
     1
 90
        8
176
     1
 62
     7
176
     1
 40
1.0
176
     1
 90
        1
176
     1
 90
        6
176
     1
 90
        2
176
     1
 62
     7
176
     1
 90
        5
176
     1
 90
        0
176
     1
 90
        0
176
     1
290
     0
176
     1
 90
        1
176
     1
 40
0.0
176
     1
 90
        0
176
     1
290
     0
176
     1
290
     1
176
     1
290
     1
176
     1
290
     0
176
     1
290
     0
176
     1
290
     0
176
     1
290
     0
176
     1
290
     0
176
     1
290
     0
176
     1
 90
       50
176
     1
 40
0.0
176
     1
 40
1.0
176
     1
 90
        0
176
     1
 62
    18
420
        0
176
     1
 90
       50
176
     1
 90
        3
176
     1
 62
     5
420
      255
176
     1
290
     0
176
     1
 90
       50
176
     1
 90
       50
176
     1
 90
       50
176
     1
290
     0
176
     1
 90
       50
176
     1
 62
   256
176
     0
 40
1.0
176
     0
 90
        2
176
     1
  1
strokes_ogs.tif
176
     1
290
     0
176
     1
 40
1.0
176
     1
 40
1.0
176
     1
  0
VISUALSTYLE
  5
2A
102
{ACAD_REACTORS
330
29
102
}
330
29
100
AcDbVisualStyle
  2
Flat
 70
     0
177
     3
291
     1
 70
    58
 90
        2
176
     1
 90
        1
176
     1
 90
        1
176
     1
 90
        2
176
     1
 40
0.6
176
     1
 40
30.0
176
     1
 62
     7
420
 16777215
176
     1
 90
        0
176
     1
 90
        0
176
     1
 62
     7
176
     1
 62
   257
176
     1
 90
        1
176
     1
 90
        1
176
     1
 40
1.0
176
     1
 90
        8
176
     1
 62
     7
176
     1
 40
1.0
176
     1
 90
        1
176
     1
 90
        6
176
     1
 90
        2
176
     1
 62
     7
176
     1
 90
        5
176
     1
 90
        0
176
     1
 90
        0
176
     1
290
     0
176
     1
 90
       13
176
     1
 40
0.0
176
     1
 90
        0
176
     1
290
     0
176
     1
290
     1
176
     1
290
     1
176
     1
290
     0
176
     1
290
     0
176
     1
290
     0
176
     1
290
     0
176
     1
290
     0
176
     1
290
     0
176
     1
 90
       50
176
     1
 40
0.0
176
     1
 40
1.0
176
     1
 90
        0
176
     1
 62
    18
420
        0
176
     1
 90
       50
176
     1
 90
        3
176
     1
 62
     5
420
      255
176
     1
290
     0
176
     1
 90
       50
176
     1
 90
       50
176
     1
 90
       50
176
     1
290
     0
176
     1
 90
       50
176
     1
 62
   256
176
     0
 40
1.0
176
     0
 90
        2
176
     1
  1
strokes_ogs.tif
176
     1
290
     0
176
     1
 40
1.0
176
     1
 40
1.0
176
     1
  0
VISUALSTYLE
  5
2B
102
{ACAD_REACTORS
330
29
102
}
330
29
100
AcDbVisualStyle
  2
FlatWithEdges
 70
     1
177
     3
291
     1
 70
    58
 90
        2
176
     1
 90
        1
176
     1
 90
        1
176
     1
 90
        2
176
     1
 40
0.6
176
     1
 40
30.0
176
     1
 62
     7
420
 16777215
176
     1
 90
        1
176
     1
 90
        0
176
     1
 62
     7
176
     1
 62
   257
176
     1
 90
        1
176
     1
 90
        1
176
     1
 40
1.0
176
     1
 90
        0
176
     1
 62
   257
176
     1
 40
1.0
176
     1
 90
        1
176
     1
 90
        6
176
     1
 90
        2
176
     1
 62
     7
176
     1
 90
        5
176
     1
 90
        0
176
     1
 90
        0
176
     1
290
     0
176
     1
 90
       13
176
     1
 40
0.0
176
     1
 90
        0
176
     1
290
     0
176
     1
290
     1
176
     1
290
     1
176
     1
290
     0
176
     1
290
     0
176
     1
290
     0
176
     1
290
     0
176
     1
290
     0
176
     1
290
     0
176
     1
 90
       50
176
     1
 40
0.0
176
     1
 40
1.0
176
     1
 90
        0
176
     1
 62
    18
420
        0
176
     1
 90
       50
176
     1
 90
        3
176
     1
 62
     5
420
      255
176
     1
290
     0
176
     1
 90
       50
176
     1
 90
       50
176
     1
 90
       50
176
     1
290
     0
176
     1
 90
       50
176
     1
 62
   256
176
     0
 40
1.0
176
     0
 90
        2
176
     1
  1
strokes_ogs.tif
176
     1
290
     0
176
     1
 40
1.0
176
     1
 40
1.0
176
     1
  0
VISUALSTYLE
  5
2C
102
{ACAD_REACTORS
330
29
102
}
330
29
100
AcDbVisualStyle
  2
Gouraud
 70
     2
177
     3
291
     1
 70
    58
 90
        2
176
     1
 90
        2
176
     1
 90
        1
176
     1
 90
        2
176
     1
 40
0.6
176
     1
 40
30.0
176
     1
 62
     7
420
 16777215
176
     1
 90
        0
176
     1
 90
        0
176
     1
 62
     7
176
     1
 62
   257
176
     1
 90
        1
176
     1
 90
        1
176
     1
 40
1.0
176
     1
 90
        0
176
     1
 62
     7
176
     1
 40
1.0
176
     1
 90
        1
176
     1
 90
        6
176
     1
 90
        2
176
     1
 62
     7
176
     1
 90
        5
176
     1
 90
        0
176
     1
 90
        0
176
     1
290
     0
176
     1
 90
       13
176
     1
 40
0.0
176
     1
 90
        0
176
     1
290
     0
176
     1
290
     1
176
     1
290
     1
176
     1
290
     0
176
     1
290
     0
176
     1
290
     0
176
     1
290
     0
176
     1
290
     0
176
     1
290
     0
176
     1
 90
       50
176
     1
 40
0.0
176
     1
 40
1.0
176
     1
 90
        0
176
     1
 62
    18
420
        0
176
     1
 90
       50
176
     1
 90
        3
176
     1
 62
     5
420
      255
176
     1
290
     0
176
     1
 90
       50
176
     1
 90
       50
176
     1
 90
       50
176
     1
290
     0
176
     1
 90
       50
176
     1
 62
   256
176
     0
 40
1.0
176
     0
 90
        2
176
     1
  1
strokes_ogs.tif
176
     1
290
     0
176
     1
 40
1.0
176
     1
 40
1.0
176
     1
  0
VISUALSTYLE
  5
2D
102
{ACAD_REACTORS
330
29
102
}
330
29
100
AcDbVisualStyle
  2
GouraudWithEdges
 70
     3
177
     3
291
     1
 70
    58
 90
        2
176
     1
 90
        2
176
     1
 90
        1
176
     1
 90
        2
176
     1
 40
0.6
176
     1
 40
30.0
176
     1
 62
     7
420
 16777215
176
     1
 90
        1
176
     1
 90
        0
176
     1
 62
     7
176
     1
 62
   257
176
     1
 90
        1
176
     1
 90
        1
176
     1
 40
1.0
176
     1
 90
        0
176
     1
 62
   257
176
     1
 40
1.0
176
     1
 90
        1
176
     1
 90
        6
176
     1
 90
        2
176
     1
 62
     7
176
     1
 90
        5
176
     1
 90
        0
176
     1
 90
        0
176
     1
290
     0
176
     1
 90
       13
176
     1
 40
0.0
176
     1
 90
        0
176
     1
290
     0
176
     1
290
     1
176
     1
290
     1
176
     1
290
     0
176
     1
290
     0
176
     1
290
     0
176
     1
290
     0
176
     1
290
     0
176
     1
290
     0
176
     1
 90
       50
176
     1
 40
0.0
176
     1
 40
1.0
176
     1
 90
        0
176
     1
 62
    18
420
        0
176
     1
 90
       50
176
     1
 90
        3
176
     1
 62
     5
420
      255
176
     1
290
     0
176
     1
 90
       50
176
     1
 90
       50
176
     1
 90
       50
176
     1
290
     0
176
     1
 90
       50
176
     1
 62
   256
176
     0
 40
1.0
176
     0
 90
        2
176
     1
  1
strokes_ogs.tif
176
     1
290
     0
176
     1
 40
1.0
176
     1
 40
1.0
176
     1
  0
VISUALSTYLE
  5
31
102
{ACAD_REACTORS
330
29
102
}
330
29
100
AcDbVisualStyle
  2
Hidden
 70
     6
177
     3
291
     0
 70
    58
 90
        1
176
     1
 90
        2
176
     1
 90
        2
176
     1
 90
        0
176
     1
 40
0.6
176
     1
 40
30.0
176
     1
 62
     7
420
 16777215
176
     1
 90
        2
176
     1
 90
        2
176
     1
 62
     7
176
     1
 62
   257
176
     1
 90
        2
176
     1
 90
        1
176
     1
 40
40.0
176
     1
 90
        0
176
     1
 62
   257
176
     1
 40
1.0
176
     1
 90
        1
176
     1
 90
        6
176
     1
 90
        2
176
     1
 62
     7
176
     1
 90
        3
176
     1
 90
        0
176
     1
 90
        0
176
     1
290
     0
176
     1
 90
        1
176
     1
 40
0.0
176
     1
 90
        0
176
     1
290
     0
176
     1
290
     1
176
     1
290
     1
176
     1
290
     0
176
     1
290
     0
176
     1
290
     0
176
     1
290
     0
176
     1
290
     0
176
     1
290
     0
176
     1
 90
       50
176
     1
 40
0.0
176
     1
 40
1.0
176
     1
 90
        0
176
     1
 62
    18
420
        0
176
     1
 90
       50
176
     1
 90
        3
176
     1
 62
     5
420
      255
176
     1
290
     0
176
     1
 90
       50
176
     1
 90
       50
176
     1
 90
       50
176
     1
290
     0
176
     1
 90
       50
176
     1
 62
   256
176
     0
 40
1.0
176
     0
 90
        2
176
     1
  1
strokes_ogs.tif
176
     1
290
     0
176
     1
 40
1.0
176
     1
 40
1.0
176
     1
  0
VISUALSTYLE
  5
3F
102
{ACAD_REACTORS
330
29
102
}
330
29
100
AcDbVisualStyle
  2
JitterOff
 70
    20
177
     3
291
     1
 70
    58
 90
        2
176
     0
 90
        2
176
     0
 90
        0
176
     0
 90
        0
176
     0
 40
0.6
176
     0
 40
30.0
176
     0
 62
     7
420
 16777215
176
     0
 90
        1
176
     0
 90
        4
176
     0
 62
     7
176
     0
 62
   257
176
     0
 90
        1
176
     0
 90
        1
176
     0
 40
1.0
176
     0
 90
       10
176
     2
 62
     7
176
     0
 40
1.0
176
     0
 90
        1
176
     0
 90
        6
176
     0
 90
        2
176
     0
 62
     7
176
     0
 90
        5
176
     0
 90
        0
176
     0
 90
        0
176
     0
290
     0
176
     0
 90
        1
176
     0
 40
0.0
176
     0
 90
        0
176
     0
290
     0
176
     0
290
     1
176
     0
290
     1
176
     0
290
     0
176
     0
290
     0
176
     0
290
     0
176
     0
290
     0
176
     0
290
     0
176
     0
290
     0
176
     0
 90
       50
176
     0
 40
0.0
176
     0
 40
1.0
176
     0
 90
        0
176
     0
 62
    18
420
        0
176
     0
 90
       50
176
     0
 90
        3
176
     0
 62
     5
420
      255
176
     0
290
     0
176
     0
 90
       50
176
     0
 90
       50
176
     0
 90
       50
176
     0
290
     0
176
     0
 90
       50
176
     0
 62
   256
176
     0
 40
1.0
176
     0
 90
        2
176
     0
  1
strokes_ogs.tif
176
     0
290
     0
176
     0
 40
1.0
176
     0
 40
1.0
176
     0
  0
VISUALSTYLE
  5
37
102
{ACAD_REACTORS
330
29
102
}
330
29
100
AcDbVisualStyle
  2
Linepattern
 70
    14
177
     3
291
     1
 70
    58
 90
        2
176
     1
 90
        2
176
     1
 90
        0
176
     1
 90
        0
176
     1
 40
0.6
176
     1
 40
30.0
176
     1
 62
     7
420
 16777215
176
     1
 90
        1
176
     1
 90
        4
176
     1
 62
     7
176
     1
 62
   257
176
     1
 90
        7
176
     1
 90
        7
176
     1
 40
1.0
176
     1
 90
        8
176
     1
 62
     7
176
     1
 40
1.0
176
     1
 90
        1
176
     1
 90
        6
176
     1
 90
        2
176
     1
 62
     7
176
     1
 90
        5
176
     1
 90
        0
176
     1
 90
        0
176
     1
290
     0
176
     1
 90
        1
176
     1
 40
0.0
176
     1
 90
        0
176
     1
290
     0
176
     1
290
     1
176
     1
290
     1
176
     1
290
     0
176
     1
290
     0
176
     1
290
     0
176
     1
290
     0
176
     1
290
     0
176
     1
290
     0
176
     1
 90
       50
176
     1
 40
0.0
176
     1
 40
1.0
176
     1
 90
        0
176
     1
 62
    18
420
        0
176
     1
 90
       50
176
     1
 90
        3
176
     1
 62
     5
420
      255
176
     1
290
     0
176
     1
 90
       50
176
     1
 90
       50
176
     1
 90
       50
176
     1
290
     0
176
     1
 90
       50
176
     1
 62
   256
176
     0
 40
1.0
176
     0
 90
        2
176
     1
  1
strokes_ogs.tif
176
     1
290
     0
176
     1
 40
1.0
176
     1
 40
1.0
176
     1
  0
VISUALSTYLE
  5
40
102
{ACAD_REACTORS
330
29
102
}
330
29
100
AcDbVisualStyle
  2
OverhangOff
 70
    21
177
     3
291
     1
 70
    58
 90
        2
176
     0
 90
        2
176
     0
 90
        0
176
     0
 90
        0
176
     0
 40
0.6
176
     0
 40
30.0
176
     0
 62
     7
420
 16777215
176
     0
 90
        1
176
     0
 90
        4
176
     0
 62
     7
176
     0
 62
   257
176
     0
 90
        1
176
     0
 90
        1
176
     0
 40
1.0
176
     0
 90
        9
176
     2
 62
     7
176
     0
 40
1.0
176
     0
 90
        1
176
     0
 90
        6
176
     0
 90
        2
176
     0
 62
     7
176
     0
 90
        5
176
     0
 90
        0
176
     0
 90
        0
176
     0
290
     0
176
     0
 90
        1
176
     0
 40
0.0
176
     0
 90
        0
176
     0
290
     0
176
     0
290
     1
176
     0
290
     1
176
     0
290
     0
176
     0
290
     0
176
     0
290
     0
176
     0
290
     0
176
     0
290
     0
176
     0
290
     0
176
     0
 90
       50
176
     0
 40
0.0
176
     0
 40
1.0
176
     0
 90
        0
176
     0
 62
    18
420
        0
176
     0
 90
       50
176
     0
 90
        3
176
     0
 62
     5
420
      255
176
     0
290
     0
176
     0
 90
       50
176
     0
 90
       50
176
     0
 90
       50
176
     0
290
     0
176
     0
 90
       50
176
     0
 62
   256
176
     0
 40
1.0
176
     0
 90
        2
176
     0
  1
strokes_ogs.tif
176
     0
290
     0
176
     0
 40
1.0
176
     0
 40
1.0
176
     0
  0
VISUALSTYLE
  5
33
102
{ACAD_REACTORS
330
29
102
}
330
29
100
AcDbVisualStyle
  2
Realistic
 70
     8
177
     3
291
     0
 70
    58
 90
        2
176
     1
 90
        3
176
     1
 90
        0
176
     1
 90
        2
176
     1
 40
0.6
176
     1
 40
30.0
176
     1
 62
     7
420
 16777215
176
     1
 90
        0
176
     1
 90
        0
176
     1
 62
     7
176
     1
 62
   257
176
     1
 90
        1
176
     1
 90
        1
176
     1
 40
1.0
176
     1
 90
        8
176
     1
 62
   257
176
     1
 40
1.0
176
     1
 90
        1
176
     1
 90
        6
176
     1
 90
        2
176
     1
 62
     7
176
     1
 90
        3
176
     1
 90
        0
176
     1
 90
        0
176
     1
290
     0
176
     1
 90
       13
176
     1
 40
0.0
176
     1
 90
        0
176
     1
290
     0
176
     1
290
     1
176
     1
290
     1
176
     1
290
     0
176
     1
290
     0
176
     1
290
     0
176
     1
290
     0
176
     1
290
     0
176
     1
290
     0
176
     1
 90
       50
176
     1
 40
0.0
176
     1
 40
1.0
176
     1
 90
        0
176
     1
 62
    18
420
        0
176
     1
 90
       50
176
     1
 90
        3
176
     1
 62
     5
420
      255
176
     1
290
     0
176
     1
 90
       50
176
     1
 90
       50
176
     1
 90
       50
176
     1
290
     0
176
     1
 90
       50
176
     1
 62
   256
176
     0
 40
1.0
176
     0
 90
        2
176
     1
  1
strokes_ogs.tif
176
     1
290
     0
176
     1
 40
1.0
176
     1
 40
1.0
176
     1
  0
VISUALSTYLE
  5
3E
102
{ACAD_REACTORS
330
29
102
}
330
29
100
AcDbVisualStyle
  2
Shaded
 70
    27
177
     3
291
     0
 70
    58
 90
        2
176
     1
 90
        2
176
     1
 90
        1
176
     1
 90
        2
176
     1
 40
0.6
176
     1
 40
30.0
176
     1
 62
     7
420
 16777215
176
     1
 90
        0
176
     1
 90
        4
176
     1
 62
     7
176
     1
 62
   257
176
     1
 90
        1
176
     1
 90
        1
176
     1
 40
1.0
176
     1
 90
        8
176
     1
 62
   257
176
     1
 40
1.0
176
     1
 90
        1
176
     1
 90
        6
176
     1
 90
        2
176
     1
 62
     8
420
  7895160
176
     1
 90
        3
176
     1
 90
        0
176
     1
 90
        0
176
     1
290
     0
176
     1
 90
        5
176
     1
 40
0.0
176
     1
 90
        0
176
     1
290
     0
176
     1
290
     1
176
     1
290
     1
176
     1
290
     0
176
     1
290
     0
176
     1
290
     0
176
     1
290
     0
176
     1
290
     0
176
     1
290
     0
176
     1
 90
       50
176
     1
 40
0.0
176
     1
 40
1.0
176
     1
 90
        0
176
     1
 62
    18
420
        0
176
     1
 90
       50
176
     1
 90
        3
176
     1
 62
     5
420
      255
176
     1
290
     0
176
     1
 90
       50
176
     1
 90
       50
176
     1
 90
       50
176
     1
290
     0
176
     1
 90
       50
176
     1
 62
   256
176
     0
 40
1.0
176
     0
 90
        2
176
     1
  1
strokes_ogs.tif
176
     1
290
     0
176
     1
 40
1.0
176
     1
 40
1.0
176
     1
  0
VISUALSTYLE
  5
3D
102
{ACAD_REACTORS
330
29
102
}
330
29
100
AcDbVisualStyle
  2
Shaded with edges
 70
    26
177
     3
291
     0
 70
    58
 90
        2
176
     1
 90
        2
176
     1
 90
        1
176
     1
 90
        2
176
     1
 40
0.6
176
     1
 40
30.0
176
     1
 62
     7
420
 16777215
176
     1
 90
        1
176
     1
 90
        2
176
     1
 62
     7
176
     1
 62
   257
176
     1
 90
        2
176
     1
 90
        1
176
     1
 40
1.0
176
     1
 90
        8
176
     1
 62
   257
176
     1
 40
1.0
176
     1
 90
        1
176
     1
 90
        6
176
     1
 90
        2
176
     1
 62
     7
176
     1
 90
        3
176
     1
 90
        0
176
     1
 90
        0
176
     1
290
     0
176
     1
 90
        5
176
     1
 40
0.0
176
     1
 90
        0
176
     1
290
     0
176
     1
290
     1
176
     1
290
     1
176
     1
290
     0
176
     1
290
     0
176
     1
290
     0
176
     1
290
     0
176
     1
290
     0
176
     1
290
     0
176
     1
 90
       50
176
     1
 40
0.0
176
     1
 40
1.0
176
     1
 90
        0
176
     1
 62
    18
420
        0
176
     1
 90
       50
176
     1
 90
        3
176
     1
 62
     5
420
      255
176
     1
290
     0
176
     1
 90
       50
176
     1
 90
       50
176
     1
 90
       50
176
     1
290
     0
176
     1
 90
       50
176
     1
 62
   256
176
     0
 40
1.0
176
     0
 90
        2
176
     1
  1
strokes_ogs.tif
176
     1
290
     0
176
     1
 40
1.0
176
     1
 40
1.0
176
     1
  0
VISUALSTYLE
  5
3A
102
{ACAD_REACTORS
330
29
102
}
330
29
100
AcDbVisualStyle
  2
Shades of Gray
 70
    23
177
     3
291
     0
 70
    58
 90
        2
176
     1
 90
        2
176
     1
 90
        3
176
     1
 90
        0
176
     1
 40
0.6
176
     1
 40
30.0
176
     1
 62
     7
420
 16777215
176
     1
 90
        2
176
     1
 90
        2
176
     1
 62
     7
176
     1
 62
     7
176
     1
 90
        1
176
     1
 90
        1
176
     1
 40
40.0
176
     1
 90
        8
176
     1
 62
     7
176
     1
 40
1.0
176
     1
 90
        1
176
     1
 90
        6
176
     1
 90
        2
176
     1
 62
     7
176
     1
 90
        3
176
     1
 90
        0
176
     1
 90
        0
176
     1
290
     0
176
     1
 90
        1
176
     1
 40
0.0
176
     1
 90
        0
176
     1
290
     0
176
     1
290
     1
176
     1
290
     1
176
     1
290
     0
176
     1
290
     0
176
     1
290
     0
176
     1
290
     0
176
     1
290
     0
176
     1
290
     0
176
     1
 90
       50
176
     1
 40
0.0
176
     1
 40
1.0
176
     1
 90
        0
176
     1
 62
    18
420
        0
176
     1
 90
       50
176
     1
 90
        3
176
     1
 62
     5
420
      255
176
     1
290
     0
176
     1
 90
       50
176
     1
 90
       50
176
     1
 90
       50
176
     1
290
     0
176
     1
 90
       50
176
     1
 62
   256
176
     0
 40
1.0
176
     0
 90
        2
176
     1
  1
strokes_ogs.tif
176
     1
290
     0
176
     1
 40
1.0
176
     1
 40
1.0
176
     1
  0
VISUALSTYLE
  5
3B
102
{ACAD_REACTORS
330
29
102
}
330
29
100
AcDbVisualStyle
  2
Sketchy
 70
    24
177
     3
291
     0
 70
    58
 90
        1
176
     1
 90
        2
176
     1
 90
        2
176
     1
 90
        0
176
     1
 40
0.6
176
     1
 40
30.0
176
     1
 62
     7
420
 16777215
176
     1
 90
        2
176
     1
 90
        2
176
     1
 62
     7
176
     1
 62
     7
176
     1
 90
        1
176
     1
 90
        1
176
     1
 40
40.0
176
     1
 90
       11
176
     1
 62
     7
176
     1
 40
1.0
176
     1
 90
        1
176
     1
 90
        6
176
     1
 90
        2
176
     1
 62
     7
176
     1
 90
        6
176
     1
 90
        0
176
     1
 90
        0
176
     1
290
     0
176
     1
 90
        1
176
     1
 40
0.0
176
     1
 90
        0
176
     1
290
     0
176
     1
290
     1
176
     1
290
     1
176
     1
290
     0
176
     1
290
     0
176
     1
290
     0
176
     1
290
     0
176
     1
290
     0
176
     1
290
     0
176
     1
 90
       50
176
     1
 40
0.0
176
     1
 40
1.0
176
     1
 90
        0
176
     1
 62
    18
420
        0
176
     1
 90
       50
176
     1
 90
        3
176
     1
 62
     5
420
      255
176
     1
290
     0
176
     1
 90
       50
176
     1
 90
       50
176
     1
 90
       50
176
     1
290
     0
176
     1
 90
       50
176
     1
 62
   256
176
     0
 40
1.0
176
     0
 90
        2
176
     1
  1
strokes_ogs.tif
176
     1
290
     0
176
     1
 40
1.0
176
     1
 40
1.0
176
     1
  0
VISUALSTYLE
  5
36
102
{ACAD_REACTORS
330
29
102
}
330
29
100
AcDbVisualStyle
  2
Thicken
 70
    13
177
     3
291
     1
 70
    58
 90
        2
176
     1
 90
        2
176
     1
 90
        0
176
     1
 90
        0
176
     1
 40
0.6
176
     1
 40
30.0
176
     1
 62
     7
420
 16777215
176
     1
 90
        1
176
     1
 90
        4
176
     1
 62
     7
176
     1
 62
   257
176
     1
 90
        1
176
     1
 90
        1
176
     1
 40
1.0
176
     1
 90
       12
176
     1
 62
     7
176
     1
 40
1.0
176
     1
 90
        1
176
     1
 90
        6
176
     1
 90
        2
176
     1
 62
     7
176
     1
 90
        5
176
     1
 90
        0
176
     1
 90
        0
176
     1
290
     0
176
     1
 90
        1
176
     1
 40
0.0
176
     1
 90
        0
176
     1
290
     0
176
     1
290
     1
176
     1
290
     1
176
     1
290
     0
176
     1
290
     0
176
     1
290
     0
176
     1
290
     0
176
     1
290
     0
176
     1
290
     0
176
     1
 90
       50
176
     1
 40
0.0
176
     1
 40
1.0
176
     1
 90
        0
176
     1
 62
    18
420
        0
176
     1
 90
       50
176
     1
 90
        3
176
     1
 62
     5
420
      255
176
     1
290
     0
176
     1
 90
       50
176
     1
 90
       50
176
     1
 90
       50
176
     1
290
     0
176
     1
 90
       50
176
     1
 62
   256
176
     0
 40
1.0
176
     0
 90
        2
176
     1
  1
strokes_ogs.tif
176
     1
290
     0
176
     1
 40
1.0
176
     1
 40
1.0
176
     1
  0
VISUALSTYLE
  5
30
102
{ACAD_REACTORS
330
29
102
}
330
29
100
AcDbVisualStyle
  2
Wireframe
 70
     5
177
     3
291
     0
 70
    58
 90
        0
176
     1
 90
        2
176
     1
 90
        0
176
     1
 90
        0
176
     1
 40
0.6
176
     1
 40
30.0
176
     1
 62
     7
420
 16777215
176
     1
 90
        1
176
     1
 90
        4
176
     1
 62
     7
176
     1
 62
   257
176
     1
 90
        1
176
     1
 90
        1
176
     1
 40
1.0
176
     1
 90
        0
176
     1
 62
   257
176
     1
 40
1.0
176
     1
 90
        1
176
     1
 90
        6
176
     1
 90
        2
176
     1
 62
     7
176
     1
 90
        3
176
     1
 90
        0
176
     1
 90
        0
176
     1
290
     0
176
     1
 90
        1
176
     1
 40
0.0
176
     1
 90
        0
176
     1
290
     0
176
     1
290
     1
176
     1
290
     1
176
     1
290
     0
176
     1
290
     0
176
     1
290
     0
176
     1
290
     0
176
     1
290
     0
176
     1
290
     0
176
     1
 90
       50
176
     1
 40
0.0
176
     1
 40
1.0
176
     1
 90
        0
176
     1
 62
    18
420
        0
176
     1
 90
       50
176
     1
 90
        3
176
     1
 62
     5
420
      255
176
     1
290
     0
176
     1
 90
       50
176
     1
 90
       50
176
     1
 90
       50
176
     1
290
     0
176
     1
 90
       50
176
     1
 62
   256
176
     0
 40
1.0
176
     0
 90
        2
176
     1
  1
strokes_ogs.tif
176
     1
290
     0
176
     1
 40
1.0
176
     1
 40
1.0
176
     1
  0
VISUALSTYLE
  5
3C
102
{ACAD_REACTORS
330
29
102
}
330
29
100
AcDbVisualStyle
  2
X-Ray
 70
    25
177
     3
291
     0
 70
    58
 90
        2
176
     1
 90
        2
176
     1
 90
        1
176
     1
 90
        1
176
     1
 40
0.5
176
     1
 40
30.0
176
     1
 62
     7
420
 16777215
176
     1
 90
        1
176
     1
 90
        0
176
     1
 62
     7
176
     1
 62
   257
176
     1
 90
        1
176
     1
 90
        1
176
     1
 40
1.0
176
     1
 90
        8
176
     1
 62
     7
176
     1
 40
1.0
176
     1
 90
        1
176
     1
 90
        6
176
     1
 90
        2
176
     1
 62
     7
176
     1
 90
        3
176
     1
 90
        0
176
     1
 90
        0
176
     1
290
     0
176
     1
 90
       13
176
     1
 40
0.0
176
     1
 90
        0
176
     1
290
     0
176
     1
290
     1
176
     1
290
     1
176
     1
290
     0
176
     1
290
     0
176
     1
290
     0
176
     1
290
     0
176
     1
290
     0
176
     1
290
     0
176
     1
 90
       50
176
     1
 40
0.0
176
     1
 40
1.0
176
     1
 90
        0
176
     1
 62
    18
420
        0
176
     1
 90
       50
176
     1
 90
        3
176
     1
 62
     5
420
      255
176
     1
290
     0
176
     1
 90
       50
176
     1
 90
       50
176
     1
 90
       50
176
     1
290
     0
176
     1
 90
       50
176
     1
 62
   256
176
     0
 40
1.0
176
     0
 90
        2
176
     1
  1
strokes_ogs.tif
176
     1
290
     0
176
     1
 40
1.0
176
     1
 40
1.0
176
     1
  0
DICTIONARYVAR
  5
AB
102
{ACAD_REACTORS
330
A6
102
}
330
A6
100
DictionaryVariables
280
     0
  1
1:1
  0
DICTIONARYVAR
  5
A8
102
{ACAD_REACTORS
330
A6
102
}
330
A6
100
DictionaryVariables
280
     0
  1
STANDARD
  0
DICTIONARYVAR
  5
A7
102
{ACAD_REACTORS
330
A6
102
}
330
A6
100
DictionaryVariables
280
     0
  1
STANDARD
  0
DICTIONARYVAR
  5
A9
102
{ACAD_REACTORS
330
A6
102
}
330
A6
100
DictionaryVariables
280
     0
  1
Imperial24
  0
DICTIONARYVAR
  5
AA
102
{ACAD_REACTORS
330
A6
102
}
330
A6
100
DictionaryVariables
280
     0
  1
Imperial24
  0
DICTIONARY
  5
1A
330
19
100
AcDbDictionary
280
     1
281
     1
  3
BUMPTILE
360
1C
  3
DIFFUSETILE
360
1B
  3
OPACITYTILE
360
1F
  3
REFLECTIONTILE
360
1E
  3
REFRACTIONTILE
360
20
  3
SPECULARTILE
360
1D
  0
DICTIONARY
  5
12
330
11
100
AcDbDictionary
280
     1
281
     1
  3
BUMPTILE
360
14
  3
DIFFUSETILE
360
13
  3
OPACITYTILE
360
17
  3
REFLECTIONTILE
360
16
  3
REFRACTIONTILE
360
18
  3
SPECULARTILE
360
15
  0
DICTIONARY
  5
22
330
21
100
AcDbDictionary
280
     1
281
     1
  3
BUMPTILE
360
24
  3
DIFFUSETILE
360
23
  3
OPACITYTILE
360
27
  3
REFLECTIONTILE
360
26
  3
REFRACTIONTILE
360
28
  3
SPECULARTILE
360
25
  0
DICTIONARY
  5
AC
330
65
100
AcDbDictionary
280
     1
281
     1
  3
ACAD_ROUNDTRIP_2008_TABLESTYLE_CELLSTYLEMAP
360
AD
  0
XRECORD
  5
1C
102
{ACAD_REACTORS
330
1A
102
}
330
1A
100
AcDbXrecord
280
     1
270
     1
271
     1
  0
XRECORD
  5
1B
102
{ACAD_REACTORS
330
1A
102
}
330
1A
100
AcDbXrecord
280
     1
270
     1
271
     1
  0
XRECORD
  5
1F
102
{ACAD_REACTORS
330
1A
102
}
330
1A
100
AcDbXrecord
280
     1
270
     1
271
     1
  0
XRECORD
  5
1E
102
{ACAD_REACTORS
330
1A
102
}
330
1A
100
AcDbXrecord
280
     1
270
     1
271
     1
  0
XRECORD
  5
20
102
{ACAD_REACTORS
330
1A
102
}
330
1A
100
AcDbXrecord
280
     1
270
     1
271
     1
  0
XRECORD
  5
1D
102
{ACAD_REACTORS
330
1A
102
}
330
1A
100
AcDbXrecord
280
     1
270
     1
271
     1
  0
XRECORD
  5
14
102
{ACAD_REACTORS
330
12
102
}
330
12
100
AcDbXrecord
280
     1
270
     1
271
     1
  0
XRECORD
  5
13
102
{ACAD_REACTORS
330
12
102
}
330
12
100
AcDbXrecord
280
     1
270
     1
271
     1
  0
XRECORD
  5
17
102
{ACAD_REACTORS
330
12
102
}
330
12
100
AcDbXrecord
280
     1
270
     1
271
     1
  0
XRECORD
  5
16
102
{ACAD_REACTORS
330
12
102
}
330
12
100
AcDbXrecord
280
     1
270
     1
271
     1
  0
XRECORD
  5
18
102
{ACAD_REACTORS
330
12
102
}
330
12
100
AcDbXrecord
280
     1
270
     1
271
     1
  0
XRECORD
  5
15
102
{ACAD_REACTORS
330
12
102
}
330
12
100
AcDbXrecord
280
     1
270
     1
271
     1
  0
XRECORD
  5
24
102
{ACAD_REACTORS
330
22
102
}
330
22
100
AcDbXrecord
280
     1
270
     1
271
     1
  0
XRECORD
  5
23
102
{ACAD_REACTORS
330
22
102
}
330
22
100
AcDbXrecord
280
     1
270
     1
271
     1
  0
XRECORD
  5
27
102
{ACAD_REACTORS
330
22
102
}
330
22
100
AcDbXrecord
280
     1
270
     1
271
     1
  0
XRECORD
  5
26
102
{ACAD_REACTORS
330
22
102
}
330
22
100
AcDbXrecord
280
     1
270
     1
271
     1
  0
XRECORD
  5
28
102
{ACAD_REACTORS
330
22
102
}
330
22
100
AcDbXrecord
280
     1
270
     1
271
     1
  0
XRECORD
  5
25
102
{ACAD_REACTORS
330
22
102
}
330
22
100
AcDbXrecord
280
     1
270
     1
271
     1
  0
CELLSTYLEMAP
  5
AD
102
{ACAD_REACTORS
330
AC
102
}
330
AC
100
AcDbCellStyleMap
 90
        3
300
CELLSTYLE
  1
TABLEFORMAT_BEGIN
 90
        5
170
     1
 91
        0
 92
    32768
 62
   257
 93
        1
300
CONTENTFORMAT
  1
CONTENTFORMAT_BEGIN
 90
        0
 91
        0
 92
      512
 93
        0
300

 40
0.0
140
1.0
 94
        5
 62
     0
340
55
144
0.25
309
CONTENTFORMAT_END
171
     0
 94
        0
309
TABLEFORMAT_END
  1
CELLSTYLE_BEGIN
 90
        1
 91
        1
300
_TITLE
309
CELLSTYLE_END
300
CELLSTYLE
  1
TABLEFORMAT_BEGIN
 90
        5
170
     1
 91
        0
 92
        0
 62
   257
 93
        1
300
CONTENTFORMAT
  1
CONTENTFORMAT_BEGIN
 90
        0
 91
        0
 92
      512
 93
        0
300

 40
0.0
140
1.0
 94
        5
 62
     0
340
55
144
0.18
309
CONTENTFORMAT_END
171
     0
 94
        0
309
TABLEFORMAT_END
  1
CELLSTYLE_BEGIN
 90
        2
 91
        1
300
_HEADER
309
CELLSTYLE_END
300
CELLSTYLE
  1
TABLEFORMAT_BEGIN
 90
        5
170
     1
 91
        0
 92
        0
 62
   257
 93
        1
300
CONTENTFORMAT
  1
CONTENTFORMAT_BEGIN
 90
        0
 91
        0
 92
      512
 93
        0
300

 40
0.0
140
1.0
 94
        2
 62
     0
340
55
144
0.18
309
CONTENTFORMAT_END
171
     0
 94
        0
309
TABLEFORMAT_END
  1
CELLSTYLE_BEGIN
 90
        3
 91
        2
300
_DATA
309
CELLSTYLE_END
  0
ENDSEC
  0
EOF
